M48
; DRILL file {KiCad (6.0.2)} date 2022年03月10日 07時57分34秒
; FORMAT={-:-/ absolute / metric / decimal}
; #@! TF.CreationDate,2022-03-10T07:57:34+09:00
; #@! TF.GenerationSoftware,Kicad,Pcbnew,(6.0.2)
; #@! TF.FileFunction,MixedPlating,1,2
FMAT,2
METRIC
; #@! TA.AperFunction,Plated,PTH,ViaDrill
T1C0.400
; #@! TA.AperFunction,Plated,PTH,ComponentDrill
T2C0.500
; #@! TA.AperFunction,Plated,PTH,ComponentDrill
T3C0.850
; #@! TA.AperFunction,Plated,PTH,ComponentDrill
T4C1.000
; #@! TA.AperFunction,Plated,PTH,ComponentDrill
T5C1.500
; #@! TA.AperFunction,NonPlated,NPTH,ComponentDrill
T6C1.500
; #@! TA.AperFunction,NonPlated,NPTH,ComponentDrill
T7C1.700
; #@! TA.AperFunction,NonPlated,NPTH,ComponentDrill
T8C2.200
; #@! TA.AperFunction,NonPlated,NPTH,ComponentDrill
T9C4.000
; #@! TA.AperFunction,NonPlated,NPTH,ComponentDrill
T10C4.300
%
G90
G05
T1
X59.6Y-145.9
X64.5Y-129.3
X65.3Y-150.45
X66.9Y-132.1
X69.2Y-144.2
X70.0Y-139.6
X70.8Y-133.9
X75.35Y-134.15
X75.75Y-150.5
X76.025Y-154.225
X77.9Y-109.95
X79.6Y-142.85
X82.9Y-87.3
X82.9Y-92.8
X83.2Y-154.65
X86.5Y-140.2
X87.15Y-151.15
X87.5Y-149.0
X88.8Y-142.7
X93.0Y-156.0
X93.4Y-106.4
X94.8Y-124.1
X95.1Y-105.8
X98.7Y-117.45
X100.0Y-104.0
X100.0Y-143.25
X100.026Y-86.774
X103.0Y-97.35
X103.0Y-154.65
X106.0Y-151.0
X106.2Y-92.75
X106.462Y-111.238
X107.0Y-139.6
X107.6Y-118.7
X108.3Y-100.45
X109.954Y-132.226
X113.3Y-105.6
X113.9Y-143.3
X116.7Y-125.8
X117.6Y-117.6
X117.725Y-102.775
X119.1Y-86.3
X121.3Y-97.6
X122.15Y-154.6
X125.054Y-93.154
X125.3Y-151.05
X125.5Y-111.8
X125.6Y-120.2
X127.4Y-100.7
X128.454Y-131.994
X132.0Y-105.8
X133.4Y-143.65
X134.9Y-139.5
X136.42Y-125.88
X136.8Y-101.9
X137.826Y-86.0
X138.0Y-136.4
X141.075Y-154.775
X141.3Y-96.45
X144.1Y-92.95
X144.1Y-121.1
X144.2Y-150.9
X145.1Y-108.25
X146.6Y-100.6
X149.3Y-132.45
X150.4Y-143.85
X152.7Y-144.05
X154.2Y-139.55
X154.6Y-144.6
X155.0Y-130.75
X155.2Y-117.5
X155.8Y-102.3
X157.076Y-86.774
X157.5Y-125.45
X157.8Y-97.75
X158.4Y-135.35
X161.3Y-153.9
X163.3Y-93.1
X163.3Y-143.1
X163.4Y-150.7
X164.8Y-118.8
X165.3Y-149.262
X165.5Y-100.75
X166.9Y-132.7
X167.9Y-111.6
X170.7Y-143.4
X173.2Y-82.45
X173.5Y-145.4
X174.1Y-117.0
X175.874Y-143.774
X176.1Y-126.15
X176.3Y-106.15
X177.6Y-135.5
X178.6Y-115.05
X178.8Y-155.1
X179.7Y-95.85
X182.346Y-92.382
X182.853Y-140.153
X182.9Y-150.15
X183.4Y-130.3
X183.5Y-99.75
X184.0Y-111.35
X184.2Y-119.15
X189.5Y-143.9
X192.8Y-88.85
T3
X62.61Y-89.62
X62.61Y-92.16
X62.61Y-94.7
X62.61Y-97.24
X62.61Y-99.78
X62.61Y-102.32
X62.61Y-104.86
X62.61Y-107.4
X62.61Y-109.94
X62.61Y-112.48
X62.61Y-115.02
X62.61Y-117.56
X62.61Y-120.1
X62.61Y-122.64
X62.61Y-125.18
X62.61Y-127.72
X62.61Y-130.26
X62.61Y-132.8
X62.61Y-135.34
X62.61Y-137.88
X80.39Y-89.62
X80.39Y-92.16
X80.39Y-94.7
X80.39Y-97.24
X80.39Y-99.78
X80.39Y-102.32
X80.39Y-104.86
X80.39Y-107.4
X80.39Y-109.94
X80.39Y-112.48
X80.39Y-115.02
X80.39Y-117.56
X80.39Y-120.1
X80.39Y-122.64
X80.39Y-125.18
X80.39Y-127.72
X80.39Y-130.26
X80.39Y-132.8
X80.39Y-135.34
X80.39Y-137.88
T4
X62.25Y-143.25
X81.534Y-147.25
T5
X91.19Y-87.71
X91.19Y-106.71
X91.19Y-125.71
X91.19Y-144.71
X97.54Y-85.17
X97.54Y-104.17
X97.54Y-123.17
X97.54Y-142.17
X110.19Y-87.71
X110.19Y-106.71
X110.19Y-125.71
X110.19Y-144.71
X116.54Y-85.17
X116.54Y-104.17
X116.54Y-123.17
X116.54Y-142.17
X129.19Y-87.71
X129.19Y-106.71
X129.19Y-125.71
X129.19Y-144.71
X135.54Y-85.17
X135.54Y-104.17
X135.54Y-123.17
X135.54Y-142.17
X148.19Y-87.71
X148.19Y-106.71
X148.19Y-125.71
X148.19Y-144.71
X154.54Y-85.17
X154.54Y-104.17
X154.54Y-123.17
X154.54Y-142.17
X167.19Y-87.71
X167.19Y-106.71
X167.19Y-125.71
X167.19Y-144.71
X173.54Y-85.17
X173.54Y-104.17
X173.54Y-123.17
X173.54Y-142.17
X186.19Y-87.71
X186.19Y-106.71
X186.19Y-125.71
X186.19Y-144.71
X192.54Y-85.17
X192.54Y-104.17
X192.54Y-123.17
X192.54Y-142.17
T6
X60.6Y-150.5
X67.6Y-150.5
T7
X89.92Y-90.25
X89.92Y-109.25
X89.92Y-128.25
X89.92Y-147.25
X100.08Y-90.25
X100.08Y-109.25
X100.08Y-128.25
X100.08Y-147.25
X108.92Y-90.25
X108.92Y-109.25
X108.92Y-128.25
X108.92Y-147.25
X119.08Y-90.25
X119.08Y-109.25
X119.08Y-128.25
X119.08Y-147.25
X127.92Y-90.25
X127.92Y-109.25
X127.92Y-128.25
X127.92Y-147.25
X138.08Y-90.25
X138.08Y-109.25
X138.08Y-128.25
X138.08Y-147.25
X146.92Y-90.25
X146.92Y-109.25
X146.92Y-128.25
X146.92Y-147.25
X157.08Y-90.25
X157.08Y-109.25
X157.08Y-128.25
X157.08Y-147.25
X165.92Y-90.25
X165.92Y-109.25
X165.92Y-128.25
X165.92Y-147.25
X176.08Y-90.25
X176.08Y-109.25
X176.08Y-128.25
X176.08Y-147.25
X184.92Y-90.25
X184.92Y-109.25
X184.92Y-128.25
X184.92Y-147.25
X195.08Y-90.25
X195.08Y-109.25
X195.08Y-128.25
X195.08Y-147.25
T8
X85.5Y-99.75
X85.5Y-137.75
X180.5Y-99.75
X180.5Y-137.75
T9
X95.0Y-90.25
X95.0Y-109.25
X95.0Y-128.25
X95.0Y-147.25
X114.0Y-90.25
X114.0Y-109.25
X114.0Y-128.25
X114.0Y-147.25
X133.0Y-90.25
X133.0Y-109.25
X133.0Y-128.25
X133.0Y-147.25
X152.0Y-90.25
X152.0Y-109.25
X152.0Y-128.25
X152.0Y-147.25
X171.0Y-90.25
X171.0Y-109.25
X171.0Y-128.25
X171.0Y-147.25
X190.0Y-90.25
X190.0Y-109.25
X190.0Y-128.25
X190.0Y-147.25
T10
X73.5Y-147.25
X90.0Y-95.5
X90.0Y-114.75
X90.25Y-153.5
X90.6Y-134.1
X91.5Y-102.25
X92.0Y-84.0
X92.0Y-121.25
X92.25Y-140.25
X98.0Y-95.5
X98.7Y-113.95
X98.7Y-134.6
X98.8Y-153.25
X102.75Y-140.25
X102.8Y-123.7
X103.0Y-84.0
X103.3Y-101.7
X103.3Y-117.8
X103.5Y-109.6
X103.5Y-129.7
X103.5Y-148.9
X103.75Y-91.0
X107.3Y-134.6
X108.0Y-96.1
X109.0Y-153.5
X109.4Y-114.3
X110.4Y-121.4
X111.0Y-84.0
X111.25Y-140.25
X112.6Y-101.25
X115.0Y-134.6
X117.4Y-153.5
X117.5Y-114.0
X117.9Y-95.45
X121.5Y-140.25
X121.6Y-117.9
X121.7Y-123.4
X122.0Y-84.0
X122.4Y-102.0
X122.5Y-130.0
X122.5Y-149.1
X122.75Y-91.0
X122.8Y-109.9
X125.8Y-134.6
X128.0Y-96.1
X128.0Y-114.3
X128.0Y-153.5
X130.0Y-84.0
X130.0Y-140.25
X130.25Y-121.4
X132.4Y-101.3
X134.0Y-134.6
X136.1Y-114.45
X136.4Y-153.5
X136.6Y-95.7
X140.75Y-140.25
X140.8Y-123.4
X141.0Y-84.0
X141.1Y-118.05
X141.5Y-130.0
X141.5Y-149.1
X141.7Y-101.7
X141.75Y-91.2
X141.8Y-109.0
X145.3Y-134.6
X146.75Y-153.5
X146.9Y-114.25
X147.0Y-96.1
X149.0Y-84.0
X149.1Y-121.2
X149.25Y-140.25
X151.7Y-101.1
X153.4Y-134.65
X155.5Y-114.1
X155.7Y-95.5
X155.8Y-153.25
X159.7Y-123.2
X159.75Y-140.5
X160.0Y-84.0
X160.0Y-117.7
X160.4Y-101.6
X160.5Y-130.2
X160.75Y-91.0
X160.75Y-148.9
X160.8Y-109.1
X163.8Y-134.9
X165.4Y-113.8
X166.0Y-96.1
X166.0Y-153.5
X168.0Y-84.0
X168.0Y-121.2
X168.0Y-140.25
X170.6Y-101.0
X171.9Y-134.5
X174.4Y-113.5
X174.9Y-95.35
X174.9Y-153.25
X177.5Y-141.0
X177.8Y-102.5
X178.8Y-123.7
X179.0Y-84.0
X179.5Y-130.1
X179.7Y-118.1
X179.75Y-109.5
X179.8Y-91.0
X180.0Y-148.8
X185.0Y-95.6
X185.0Y-153.5
X185.2Y-133.6
X185.75Y-114.75
X186.8Y-140.25
X187.0Y-84.0
X187.0Y-102.2
X187.3Y-121.4
X193.5Y-151.75
X194.0Y-133.0
X194.25Y-114.75
X194.25Y-139.0
X194.7Y-95.25
X195.0Y-101.25
X195.05Y-120.25
X196.2Y-85.05
T2
G00X71.81Y-142.5
M15
G01X72.11Y-142.5
M16
G05
G00X74.35Y-142.5
M15
G01X74.65Y-142.5
M16
G05
G00X76.89Y-142.5
M15
G01X77.19Y-142.5
M16
G05
T0
M30
