G04 #@! TF.GenerationSoftware,KiCad,Pcbnew,(6.0.1)*
G04 #@! TF.CreationDate,2022-02-20T21:27:19+09:00*
G04 #@! TF.ProjectId,kidoairaku,6b69646f-6169-4726-916b-752e6b696361,rev?*
G04 #@! TF.SameCoordinates,Original*
G04 #@! TF.FileFunction,Copper,L1,Top*
G04 #@! TF.FilePolarity,Positive*
%FSLAX46Y46*%
G04 Gerber Fmt 4.6, Leading zero omitted, Abs format (unit mm)*
G04 Created by KiCad (PCBNEW (6.0.1)) date 2022-02-20 21:27:19*
%MOMM*%
%LPD*%
G01*
G04 APERTURE LIST*
G04 Aperture macros list*
%AMOutline4P*
0 Free polygon, 4 corners , with rotation*
0 The origin of the aperture is its center*
0 number of corners: always 4*
0 $1 to $8 corner X, Y*
0 $9 Rotation angle, in degrees counterclockwise*
0 create outline with 4 corners*
4,1,4,$1,$2,$3,$4,$5,$6,$7,$8,$1,$2,$9*%
G04 Aperture macros list end*
G04 #@! TA.AperFunction,ComponentPad*
%ADD10R,2.000000X2.000000*%
G04 #@! TD*
G04 #@! TA.AperFunction,ComponentPad*
%ADD11C,2.000000*%
G04 #@! TD*
G04 #@! TA.AperFunction,ComponentPad*
%ADD12C,2.200000*%
G04 #@! TD*
G04 #@! TA.AperFunction,SMDPad,CuDef*
%ADD13Outline4P,-0.650000X-0.410000X0.650000X-0.410000X0.350000X0.410000X-0.350000X0.410000X270.000000*%
G04 #@! TD*
G04 #@! TA.AperFunction,SMDPad,CuDef*
%ADD14Outline4P,-0.350000X-0.410000X0.350000X-0.410000X0.650000X0.410000X-0.650000X0.410000X270.000000*%
G04 #@! TD*
G04 #@! TA.AperFunction,ComponentPad*
%ADD15C,1.800000*%
G04 #@! TD*
G04 #@! TA.AperFunction,SMDPad,CuDef*
%ADD16R,2.200000X2.500000*%
G04 #@! TD*
G04 #@! TA.AperFunction,ComponentPad*
%ADD17C,1.524000*%
G04 #@! TD*
G04 #@! TA.AperFunction,ViaPad*
%ADD18C,0.800000*%
G04 #@! TD*
G04 #@! TA.AperFunction,Conductor*
%ADD19C,0.500000*%
G04 #@! TD*
G04 #@! TA.AperFunction,Conductor*
%ADD20C,0.254000*%
G04 #@! TD*
G04 APERTURE END LIST*
D10*
G04 #@! TO.P,J51,1,Pin_1*
G04 #@! TO.N,Net-(D51-Pad2)*
X62250000Y-143250000D03*
G04 #@! TD*
D11*
G04 #@! TO.P,J52,1,Pin_1*
G04 #@! TO.N,GND*
X81534000Y-147250000D03*
G04 #@! TD*
D12*
G04 #@! TO.P,SW1,1,1*
G04 #@! TO.N,col1*
X97540000Y-85170000D03*
G04 #@! TO.P,SW1,2,2*
G04 #@! TO.N,Net-(D1-Pad2)*
X91190000Y-87710000D03*
G04 #@! TD*
G04 #@! TO.P,SW2,1,1*
G04 #@! TO.N,col2*
X116540000Y-85170000D03*
G04 #@! TO.P,SW2,2,2*
G04 #@! TO.N,Net-(D2-Pad2)*
X110190000Y-87710000D03*
G04 #@! TD*
G04 #@! TO.P,SW3,1,1*
G04 #@! TO.N,col3*
X135540000Y-85170000D03*
G04 #@! TO.P,SW3,2,2*
G04 #@! TO.N,Net-(D3-Pad2)*
X129190000Y-87710000D03*
G04 #@! TD*
G04 #@! TO.P,SW4,1,1*
G04 #@! TO.N,col4*
X154540000Y-85170000D03*
G04 #@! TO.P,SW4,2,2*
G04 #@! TO.N,Net-(D4-Pad2)*
X148190000Y-87710000D03*
G04 #@! TD*
G04 #@! TO.P,SW5,1,1*
G04 #@! TO.N,col5*
X173540000Y-85170000D03*
G04 #@! TO.P,SW5,2,2*
G04 #@! TO.N,Net-(D5-Pad2)*
X167190000Y-87710000D03*
G04 #@! TD*
G04 #@! TO.P,SW6,1,1*
G04 #@! TO.N,col6*
X192540000Y-85170000D03*
G04 #@! TO.P,SW6,2,2*
G04 #@! TO.N,Net-(D6-Pad2)*
X186190000Y-87710000D03*
G04 #@! TD*
G04 #@! TO.P,SW11,1,1*
G04 #@! TO.N,col1*
X97540000Y-104170000D03*
G04 #@! TO.P,SW11,2,2*
G04 #@! TO.N,Net-(D11-Pad2)*
X91190000Y-106710000D03*
G04 #@! TD*
G04 #@! TO.P,SW12,1,1*
G04 #@! TO.N,col2*
X116540000Y-104170000D03*
G04 #@! TO.P,SW12,2,2*
G04 #@! TO.N,Net-(D12-Pad2)*
X110190000Y-106710000D03*
G04 #@! TD*
G04 #@! TO.P,SW13,1,1*
G04 #@! TO.N,col3*
X135540000Y-104170000D03*
G04 #@! TO.P,SW13,2,2*
G04 #@! TO.N,Net-(D13-Pad2)*
X129190000Y-106710000D03*
G04 #@! TD*
G04 #@! TO.P,SW14,1,1*
G04 #@! TO.N,col4*
X154540000Y-104170000D03*
G04 #@! TO.P,SW14,2,2*
G04 #@! TO.N,Net-(D14-Pad2)*
X148190000Y-106710000D03*
G04 #@! TD*
G04 #@! TO.P,SW15,1,1*
G04 #@! TO.N,col5*
X173540000Y-104170000D03*
G04 #@! TO.P,SW15,2,2*
G04 #@! TO.N,Net-(D15-Pad2)*
X167190000Y-106710000D03*
G04 #@! TD*
G04 #@! TO.P,SW16,1,1*
G04 #@! TO.N,col6*
X192540000Y-104170000D03*
G04 #@! TO.P,SW16,2,2*
G04 #@! TO.N,Net-(D16-Pad2)*
X186190000Y-106710000D03*
G04 #@! TD*
G04 #@! TO.P,SW21,1,1*
G04 #@! TO.N,col1*
X97540000Y-123170000D03*
G04 #@! TO.P,SW21,2,2*
G04 #@! TO.N,Net-(D21-Pad2)*
X91190000Y-125710000D03*
G04 #@! TD*
G04 #@! TO.P,SW22,1,1*
G04 #@! TO.N,col2*
X116540000Y-123170000D03*
G04 #@! TO.P,SW22,2,2*
G04 #@! TO.N,Net-(D22-Pad2)*
X110190000Y-125710000D03*
G04 #@! TD*
G04 #@! TO.P,SW23,1,1*
G04 #@! TO.N,col3*
X135540000Y-123170000D03*
G04 #@! TO.P,SW23,2,2*
G04 #@! TO.N,Net-(D23-Pad2)*
X129190000Y-125710000D03*
G04 #@! TD*
G04 #@! TO.P,SW24,1,1*
G04 #@! TO.N,col4*
X154540000Y-123170000D03*
G04 #@! TO.P,SW24,2,2*
G04 #@! TO.N,Net-(D24-Pad2)*
X148190000Y-125710000D03*
G04 #@! TD*
G04 #@! TO.P,SW25,1,1*
G04 #@! TO.N,col5*
X173540000Y-123170000D03*
G04 #@! TO.P,SW25,2,2*
G04 #@! TO.N,Net-(D25-Pad2)*
X167190000Y-125710000D03*
G04 #@! TD*
G04 #@! TO.P,SW26,1,1*
G04 #@! TO.N,col6*
X192540000Y-123170000D03*
G04 #@! TO.P,SW26,2,2*
G04 #@! TO.N,Net-(D26-Pad2)*
X186190000Y-125710000D03*
G04 #@! TD*
G04 #@! TO.P,SW31,1,1*
G04 #@! TO.N,col1*
X97540000Y-142170000D03*
G04 #@! TO.P,SW31,2,2*
G04 #@! TO.N,Net-(D31-Pad2)*
X91190000Y-144710000D03*
G04 #@! TD*
G04 #@! TO.P,SW32,1,1*
G04 #@! TO.N,col2*
X116540000Y-142170000D03*
G04 #@! TO.P,SW32,2,2*
G04 #@! TO.N,Net-(D32-Pad2)*
X110190000Y-144710000D03*
G04 #@! TD*
G04 #@! TO.P,SW33,1,1*
G04 #@! TO.N,col3*
X135540000Y-142170000D03*
G04 #@! TO.P,SW33,2,2*
G04 #@! TO.N,Net-(D33-Pad2)*
X129190000Y-144710000D03*
G04 #@! TD*
G04 #@! TO.P,SW34,1,1*
G04 #@! TO.N,col4*
X154540000Y-142170000D03*
G04 #@! TO.P,SW34,2,2*
G04 #@! TO.N,Net-(D34-Pad2)*
X148190000Y-144710000D03*
G04 #@! TD*
G04 #@! TO.P,SW35,1,1*
G04 #@! TO.N,col5*
X173540000Y-142170000D03*
G04 #@! TO.P,SW35,2,2*
G04 #@! TO.N,Net-(D35-Pad2)*
X167190000Y-144710000D03*
G04 #@! TD*
G04 #@! TO.P,SW36,1,1*
G04 #@! TO.N,col6*
X192540000Y-142170000D03*
G04 #@! TO.P,SW36,2,2*
G04 #@! TO.N,Net-(D36-Pad2)*
X186190000Y-144710000D03*
G04 #@! TD*
D13*
G04 #@! TO.P,D193,1,DOUT*
G04 #@! TO.N,Net-(D193-Pad1)*
X102750000Y-146100000D03*
G04 #@! TO.P,D193,2,VSS*
G04 #@! TO.N,GND*
X102750000Y-151700000D03*
D14*
G04 #@! TO.P,D193,3,DIN*
G04 #@! TO.N,Net-(D192-Pad1)*
X104250000Y-151700000D03*
G04 #@! TO.P,D193,4,VDD*
G04 #@! TO.N,VDD*
X104250000Y-146100000D03*
G04 #@! TD*
D13*
G04 #@! TO.P,D194,1,DOUT*
G04 #@! TO.N,Net-(D194-Pad1)*
X102750000Y-126900000D03*
G04 #@! TO.P,D194,2,VSS*
G04 #@! TO.N,GND*
X102750000Y-132500000D03*
D14*
G04 #@! TO.P,D194,3,DIN*
G04 #@! TO.N,Net-(D193-Pad1)*
X104250000Y-132500000D03*
G04 #@! TO.P,D194,4,VDD*
G04 #@! TO.N,VDD*
X104250000Y-126900000D03*
G04 #@! TD*
D13*
G04 #@! TO.P,D195,1,DOUT*
G04 #@! TO.N,Net-(D195-Pad1)*
X102750000Y-106800000D03*
G04 #@! TO.P,D195,2,VSS*
G04 #@! TO.N,GND*
X102750000Y-112400000D03*
D14*
G04 #@! TO.P,D195,3,DIN*
G04 #@! TO.N,Net-(D194-Pad1)*
X104250000Y-112400000D03*
G04 #@! TO.P,D195,4,VDD*
G04 #@! TO.N,VDD*
X104250000Y-106800000D03*
G04 #@! TD*
D13*
G04 #@! TO.P,D196,1,DOUT*
G04 #@! TO.N,Net-(D196-Pad1)*
X103000000Y-88200000D03*
G04 #@! TO.P,D196,2,VSS*
G04 #@! TO.N,GND*
X103000000Y-93800000D03*
D14*
G04 #@! TO.P,D196,3,DIN*
G04 #@! TO.N,Net-(D195-Pad1)*
X104500000Y-93800000D03*
G04 #@! TO.P,D196,4,VDD*
G04 #@! TO.N,VDD*
X104500000Y-88200000D03*
G04 #@! TD*
D13*
G04 #@! TO.P,D197,1,DOUT*
G04 #@! TO.N,Net-(D197-Pad1)*
X121750000Y-146300000D03*
G04 #@! TO.P,D197,2,VSS*
G04 #@! TO.N,GND*
X121750000Y-151900000D03*
D14*
G04 #@! TO.P,D197,3,DIN*
G04 #@! TO.N,Net-(D196-Pad1)*
X123250000Y-151900000D03*
G04 #@! TO.P,D197,4,VDD*
G04 #@! TO.N,VDD*
X123250000Y-146300000D03*
G04 #@! TD*
D13*
G04 #@! TO.P,D198,1,DOUT*
G04 #@! TO.N,Net-(D198-Pad1)*
X121750000Y-127200000D03*
G04 #@! TO.P,D198,2,VSS*
G04 #@! TO.N,GND*
X121750000Y-132800000D03*
D14*
G04 #@! TO.P,D198,3,DIN*
G04 #@! TO.N,Net-(D197-Pad1)*
X123250000Y-132800000D03*
G04 #@! TO.P,D198,4,VDD*
G04 #@! TO.N,VDD*
X123250000Y-127200000D03*
G04 #@! TD*
D13*
G04 #@! TO.P,D199,1,DOUT*
G04 #@! TO.N,Net-(D199-Pad1)*
X122050000Y-107100000D03*
G04 #@! TO.P,D199,2,VSS*
G04 #@! TO.N,GND*
X122050000Y-112700000D03*
D14*
G04 #@! TO.P,D199,3,DIN*
G04 #@! TO.N,Net-(D198-Pad1)*
X123550000Y-112700000D03*
G04 #@! TO.P,D199,4,VDD*
G04 #@! TO.N,VDD*
X123550000Y-107100000D03*
G04 #@! TD*
D13*
G04 #@! TO.P,D200,1,DOUT*
G04 #@! TO.N,Net-(D200-Pad1)*
X122000000Y-88200000D03*
G04 #@! TO.P,D200,2,VSS*
G04 #@! TO.N,GND*
X122000000Y-93800000D03*
D14*
G04 #@! TO.P,D200,3,DIN*
G04 #@! TO.N,Net-(D199-Pad1)*
X123500000Y-93800000D03*
G04 #@! TO.P,D200,4,VDD*
G04 #@! TO.N,VDD*
X123500000Y-88200000D03*
G04 #@! TD*
D13*
G04 #@! TO.P,D201,1,DOUT*
G04 #@! TO.N,Net-(D201-Pad1)*
X140750000Y-146300000D03*
G04 #@! TO.P,D201,2,VSS*
G04 #@! TO.N,GND*
X140750000Y-151900000D03*
D14*
G04 #@! TO.P,D201,3,DIN*
G04 #@! TO.N,Net-(D200-Pad1)*
X142250000Y-151900000D03*
G04 #@! TO.P,D201,4,VDD*
G04 #@! TO.N,VDD*
X142250000Y-146300000D03*
G04 #@! TD*
D13*
G04 #@! TO.P,D202,1,DOUT*
G04 #@! TO.N,Net-(D202-Pad1)*
X140750000Y-127200000D03*
G04 #@! TO.P,D202,2,VSS*
G04 #@! TO.N,GND*
X140750000Y-132800000D03*
D14*
G04 #@! TO.P,D202,3,DIN*
G04 #@! TO.N,Net-(D201-Pad1)*
X142250000Y-132800000D03*
G04 #@! TO.P,D202,4,VDD*
G04 #@! TO.N,VDD*
X142250000Y-127200000D03*
G04 #@! TD*
D13*
G04 #@! TO.P,D203,1,DOUT*
G04 #@! TO.N,Net-(D203-Pad1)*
X141050000Y-106200000D03*
G04 #@! TO.P,D203,2,VSS*
G04 #@! TO.N,GND*
X141050000Y-111800000D03*
D14*
G04 #@! TO.P,D203,3,DIN*
G04 #@! TO.N,Net-(D202-Pad1)*
X142550000Y-111800000D03*
G04 #@! TO.P,D203,4,VDD*
G04 #@! TO.N,VDD*
X142550000Y-106200000D03*
G04 #@! TD*
D13*
G04 #@! TO.P,D204,1,DOUT*
G04 #@! TO.N,Net-(D204-Pad1)*
X141000000Y-88400000D03*
G04 #@! TO.P,D204,2,VSS*
G04 #@! TO.N,GND*
X141000000Y-94000000D03*
D14*
G04 #@! TO.P,D204,3,DIN*
G04 #@! TO.N,Net-(D203-Pad1)*
X142500000Y-94000000D03*
G04 #@! TO.P,D204,4,VDD*
G04 #@! TO.N,VDD*
X142500000Y-88400000D03*
G04 #@! TD*
D13*
G04 #@! TO.P,D205,1,DOUT*
G04 #@! TO.N,Net-(D205-Pad1)*
X160000000Y-146100000D03*
G04 #@! TO.P,D205,2,VSS*
G04 #@! TO.N,GND*
X160000000Y-151700000D03*
D14*
G04 #@! TO.P,D205,3,DIN*
G04 #@! TO.N,Net-(D204-Pad1)*
X161500000Y-151700000D03*
G04 #@! TO.P,D205,4,VDD*
G04 #@! TO.N,VDD*
X161500000Y-146100000D03*
G04 #@! TD*
D13*
G04 #@! TO.P,D206,1,DOUT*
G04 #@! TO.N,Net-(D206-Pad1)*
X159750000Y-127400000D03*
G04 #@! TO.P,D206,2,VSS*
G04 #@! TO.N,GND*
X159750000Y-133000000D03*
D14*
G04 #@! TO.P,D206,3,DIN*
G04 #@! TO.N,Net-(D205-Pad1)*
X161250000Y-133000000D03*
G04 #@! TO.P,D206,4,VDD*
G04 #@! TO.N,VDD*
X161250000Y-127400000D03*
G04 #@! TD*
D13*
G04 #@! TO.P,D207,1,DOUT*
G04 #@! TO.N,Net-(D207-Pad1)*
X160050000Y-106300000D03*
G04 #@! TO.P,D207,2,VSS*
G04 #@! TO.N,GND*
X160050000Y-111900000D03*
D14*
G04 #@! TO.P,D207,3,DIN*
G04 #@! TO.N,Net-(D206-Pad1)*
X161550000Y-111900000D03*
G04 #@! TO.P,D207,4,VDD*
G04 #@! TO.N,VDD*
X161550000Y-106300000D03*
G04 #@! TD*
D13*
G04 #@! TO.P,D208,1,DOUT*
G04 #@! TO.N,Net-(D208-Pad1)*
X160000000Y-88200000D03*
G04 #@! TO.P,D208,2,VSS*
G04 #@! TO.N,GND*
X160000000Y-93800000D03*
D14*
G04 #@! TO.P,D208,3,DIN*
G04 #@! TO.N,Net-(D207-Pad1)*
X161500000Y-93800000D03*
G04 #@! TO.P,D208,4,VDD*
G04 #@! TO.N,VDD*
X161500000Y-88200000D03*
G04 #@! TD*
D13*
G04 #@! TO.P,D209,1,DOUT*
G04 #@! TO.N,Net-(D209-Pad1)*
X179250000Y-146000000D03*
G04 #@! TO.P,D209,2,VSS*
G04 #@! TO.N,GND*
X179250000Y-151600000D03*
D14*
G04 #@! TO.P,D209,3,DIN*
G04 #@! TO.N,Net-(D208-Pad1)*
X180750000Y-151600000D03*
G04 #@! TO.P,D209,4,VDD*
G04 #@! TO.N,VDD*
X180750000Y-146000000D03*
G04 #@! TD*
D13*
G04 #@! TO.P,D210,1,DOUT*
G04 #@! TO.N,Net-(D210-Pad1)*
X178750000Y-127300000D03*
G04 #@! TO.P,D210,2,VSS*
G04 #@! TO.N,GND*
X178750000Y-132900000D03*
D14*
G04 #@! TO.P,D210,3,DIN*
G04 #@! TO.N,Net-(D209-Pad1)*
X180250000Y-132900000D03*
G04 #@! TO.P,D210,4,VDD*
G04 #@! TO.N,VDD*
X180250000Y-127300000D03*
G04 #@! TD*
D13*
G04 #@! TO.P,D211,1,DOUT*
G04 #@! TO.N,Net-(D211-Pad1)*
X179000000Y-106700000D03*
G04 #@! TO.P,D211,2,VSS*
G04 #@! TO.N,GND*
X179000000Y-112300000D03*
D14*
G04 #@! TO.P,D211,3,DIN*
G04 #@! TO.N,Net-(D210-Pad1)*
X180500000Y-112300000D03*
G04 #@! TO.P,D211,4,VDD*
G04 #@! TO.N,VDD*
X180500000Y-106700000D03*
G04 #@! TD*
D13*
G04 #@! TO.P,D212,1,DOUT*
G04 #@! TO.N,unconnected-(D212-Pad1)*
X179050000Y-88200000D03*
G04 #@! TO.P,D212,2,VSS*
G04 #@! TO.N,GND*
X179050000Y-93800000D03*
D14*
G04 #@! TO.P,D212,3,DIN*
G04 #@! TO.N,Net-(D211-Pad1)*
X180550000Y-93800000D03*
G04 #@! TO.P,D212,4,VDD*
G04 #@! TO.N,VDD*
X180550000Y-88200000D03*
G04 #@! TD*
D15*
G04 #@! TO.P,U1,1*
G04 #@! TO.N,N/C*
X62610000Y-89620000D03*
G04 #@! TO.P,U1,2*
X62610000Y-92160000D03*
G04 #@! TO.P,U1,3*
X62610000Y-94700000D03*
G04 #@! TO.P,U1,4,GP2/P0.31*
G04 #@! TO.N,row4*
X62610000Y-97240000D03*
G04 #@! TO.P,U1,5,GP3/P0.11*
G04 #@! TO.N,/SERIAL*
X62610000Y-99780000D03*
G04 #@! TO.P,U1,6,GP4/P0.30*
G04 #@! TO.N,col1*
X62610000Y-102320000D03*
G04 #@! TO.P,U1,7,GP5/P0.19*
G04 #@! TO.N,col2*
X62610000Y-104860000D03*
G04 #@! TO.P,U1,8*
G04 #@! TO.N,N/C*
X62610000Y-107400000D03*
G04 #@! TO.P,U1,9,GP6/P0.23*
G04 #@! TO.N,col3*
X62610000Y-109940000D03*
G04 #@! TO.P,U1,10,GP7/P0.28*
G04 #@! TO.N,col4*
X62610000Y-112480000D03*
G04 #@! TO.P,U1,11,GP8/P0.09*
G04 #@! TO.N,col5*
X62610000Y-115020000D03*
G04 #@! TO.P,U1,12,GP9/P0.12*
G04 #@! TO.N,col6*
X62610000Y-117560000D03*
G04 #@! TO.P,U1,13*
G04 #@! TO.N,N/C*
X62610000Y-120100000D03*
G04 #@! TO.P,U1,14,GP10/P0.14*
G04 #@! TO.N,NEOPIXEL_EN*
X62610000Y-122640000D03*
G04 #@! TO.P,U1,15,GP11/P0.26*
G04 #@! TO.N,NEOPIXEL*
X62610000Y-125180000D03*
G04 #@! TO.P,U1,16*
G04 #@! TO.N,N/C*
X62610000Y-127720000D03*
G04 #@! TO.P,U1,17*
X62610000Y-130260000D03*
G04 #@! TO.P,U1,18*
X62610000Y-132800000D03*
G04 #@! TO.P,U1,19*
X62610000Y-135340000D03*
G04 #@! TO.P,U1,20*
X62610000Y-137880000D03*
G04 #@! TO.P,U1,21*
X80390000Y-137880000D03*
G04 #@! TO.P,U1,22*
X80390000Y-135340000D03*
G04 #@! TO.P,U1,23*
X80390000Y-132800000D03*
G04 #@! TO.P,U1,24*
X80390000Y-130260000D03*
G04 #@! TO.P,U1,25*
X80390000Y-127720000D03*
G04 #@! TO.P,U1,26*
X80390000Y-125180000D03*
G04 #@! TO.P,U1,27*
X80390000Y-122640000D03*
G04 #@! TO.P,U1,28,GND*
G04 #@! TO.N,GND*
X80390000Y-120100000D03*
G04 #@! TO.P,U1,29,GP22/P0.17*
G04 #@! TO.N,row3*
X80390000Y-117560000D03*
G04 #@! TO.P,U1,30*
G04 #@! TO.N,N/C*
X80390000Y-115020000D03*
G04 #@! TO.P,U1,31,GP26/P0.08*
G04 #@! TO.N,row2*
X80390000Y-112480000D03*
G04 #@! TO.P,U1,32,GP27/P0.07*
G04 #@! TO.N,row1*
X80390000Y-109940000D03*
G04 #@! TO.P,U1,33*
G04 #@! TO.N,N/C*
X80390000Y-107400000D03*
G04 #@! TO.P,U1,34,GP28/P0.04(ADC)*
G04 #@! TO.N,/VDIV*
X80390000Y-104860000D03*
G04 #@! TO.P,U1,35*
G04 #@! TO.N,N/C*
X80390000Y-102320000D03*
G04 #@! TO.P,U1,36*
X80390000Y-99780000D03*
G04 #@! TO.P,U1,37*
X80390000Y-97240000D03*
G04 #@! TO.P,U1,38*
X80390000Y-94700000D03*
G04 #@! TO.P,U1,39*
X80390000Y-92160000D03*
G04 #@! TO.P,U1,40,5V*
G04 #@! TO.N,+5V*
X80390000Y-89620000D03*
G04 #@! TD*
D16*
G04 #@! TO.P,J1,A,GND*
G04 #@! TO.N,GND*
X70300000Y-153750000D03*
G04 #@! TO.P,J1,B,SDA*
G04 #@! TO.N,/SERIAL*
X62200000Y-147250000D03*
G04 #@! TO.P,J1,C,SCL*
G04 #@! TO.N,unconnected-(J1-PadC)*
X65200000Y-147250000D03*
G04 #@! TO.P,J1,D,3V3*
G04 #@! TO.N,+5V*
X69200000Y-147250000D03*
G04 #@! TD*
D17*
G04 #@! TO.P,SW51,1,A*
G04 #@! TO.N,unconnected-(SW51-Pad1)*
X71960000Y-142500000D03*
G04 #@! TO.P,SW51,2,B*
G04 #@! TO.N,NEOPIXEL*
X74500000Y-142500000D03*
G04 #@! TO.P,SW51,3,C*
G04 #@! TO.N,Net-(D99-Pad3)*
X77040000Y-142500000D03*
G04 #@! TD*
D18*
G04 #@! TO.N,GND*
X154600000Y-144600000D03*
X174100000Y-117000000D03*
X155200000Y-117500000D03*
X117725000Y-102775000D03*
X157500000Y-125450000D03*
X175874001Y-143774001D03*
X117600000Y-117600000D03*
X94800000Y-124100000D03*
X98700000Y-117450000D03*
X155800000Y-102300000D03*
X65300000Y-150450000D03*
X176100000Y-126150000D03*
X178600000Y-115050000D03*
X100000000Y-104000000D03*
X122150000Y-154600000D03*
X133400000Y-143650000D03*
X136420021Y-125879979D03*
X103000000Y-97350000D03*
X119100000Y-86300000D03*
X178800000Y-155100000D03*
X103000000Y-154650000D03*
X138000000Y-136400000D03*
X179700000Y-95850000D03*
X141300000Y-96450000D03*
X158400000Y-135350000D03*
X66900000Y-132100000D03*
X137825999Y-86774001D03*
X141075000Y-154775000D03*
X136800000Y-101900000D03*
X161300000Y-153900000D03*
X176300000Y-106150000D03*
X97300000Y-144300000D03*
X121300000Y-97600000D03*
X157075999Y-86774001D03*
X157800000Y-97750000D03*
X113900000Y-143300000D03*
X100025999Y-86774001D03*
X177600000Y-135500000D03*
X116700000Y-125800000D03*
G04 #@! TO.N,+5V*
X75750000Y-150500000D03*
X69200000Y-144200000D03*
X75350000Y-134150000D03*
X76025000Y-154225000D03*
X77900000Y-109950000D03*
G04 #@! TO.N,row1*
X82900000Y-87300000D03*
X82900000Y-92800000D03*
G04 #@! TO.N,row4*
X87500000Y-149000000D03*
X86500000Y-140200000D03*
G04 #@! TO.N,Net-(D51-Pad2)*
X70800000Y-133900000D03*
G04 #@! TO.N,NEOPIXEL_EN*
X64500000Y-129300000D03*
G04 #@! TO.N,/VDIV*
X70000000Y-139600000D03*
G04 #@! TO.N,col2*
X95100000Y-105800000D03*
X113300000Y-105600000D03*
G04 #@! TO.N,col3*
X132000000Y-105800000D03*
X93400000Y-106400000D03*
G04 #@! TO.N,col4*
X155000000Y-130750000D03*
G04 #@! TO.N,col5*
X163300000Y-143100000D03*
G04 #@! TO.N,col6*
X189500000Y-143900000D03*
G04 #@! TO.N,Net-(D180-Pad1)*
X88800000Y-142700000D03*
X163400000Y-150700000D03*
X87150000Y-151150000D03*
X165300000Y-149262001D03*
G04 #@! TO.N,Net-(D192-Pad1)*
X93000000Y-156000000D03*
G04 #@! TO.N,Net-(D208-Pad1)*
X170700000Y-143400000D03*
X173500000Y-145400000D03*
G04 #@! TO.N,/NeoPixel/NeoPixel*
X59600000Y-145900000D03*
X192800000Y-88850000D03*
G04 #@! TO.N,VDD*
X154200000Y-139550000D03*
X166900000Y-132700000D03*
X107600000Y-118700000D03*
X79600000Y-142850000D03*
X106000000Y-151000000D03*
X182900000Y-150150000D03*
X145100000Y-108250000D03*
X144100000Y-121100000D03*
X184000000Y-111350000D03*
X144200000Y-150900000D03*
X182345999Y-92381923D03*
X106462011Y-111237989D03*
X109954001Y-132226079D03*
X125500000Y-111800000D03*
X165500000Y-100750000D03*
X149300000Y-132450000D03*
X125600000Y-120200000D03*
X163300000Y-93100000D03*
X107000000Y-139600000D03*
X150400000Y-143850000D03*
X184200000Y-119150000D03*
X173200000Y-82450000D03*
X125054001Y-93154001D03*
X182852849Y-140152821D03*
X167900000Y-111600000D03*
X164800000Y-118800000D03*
X144100000Y-92950000D03*
X128454001Y-131994001D03*
X106200000Y-92750000D03*
X127400000Y-100700000D03*
X184500000Y-99900000D03*
X125300000Y-151050000D03*
X146600000Y-100600000D03*
X108300000Y-100450000D03*
X83200000Y-154650000D03*
X134900000Y-139500000D03*
X152700000Y-144050000D03*
X183400000Y-130300000D03*
G04 #@! TD*
D19*
G04 #@! TO.N,GND*
X137300000Y-108026078D02*
X136725999Y-108600079D01*
X157000000Y-117500000D02*
X157045999Y-117454001D01*
X160000000Y-97700000D02*
X160000000Y-93800000D01*
X156587989Y-139019629D02*
X156587989Y-145738089D01*
X118945999Y-123554001D02*
X118945999Y-117945999D01*
X98400000Y-144300000D02*
X98725999Y-143974001D01*
X136725999Y-87874001D02*
X137825999Y-86774001D01*
X175599999Y-110773921D02*
X174725999Y-109899921D01*
X98725999Y-143357923D02*
X99144001Y-142939921D01*
X103000000Y-96500000D02*
X103000000Y-98072078D01*
X102750000Y-113827922D02*
X102750000Y-112400000D01*
X179000000Y-112300000D02*
X178622078Y-112300000D01*
X98725999Y-90899921D02*
X98725999Y-88074001D01*
X102340000Y-132090000D02*
X101916078Y-132090000D01*
X117725999Y-148285999D02*
X117725999Y-145974001D01*
X100000000Y-137388002D02*
X100000000Y-137227922D01*
X138095999Y-138976079D02*
X138095999Y-145230079D01*
X93798079Y-137593999D02*
X93798079Y-130754001D01*
X136725999Y-109899921D02*
X137572077Y-110745999D01*
X103000000Y-154650000D02*
X103000000Y-151950000D01*
X121340000Y-132800000D02*
X121750000Y-132800000D01*
X99144001Y-138244001D02*
X100000000Y-137388002D01*
X159750000Y-133000000D02*
X159750000Y-135857618D01*
X99637989Y-124162011D02*
X99637989Y-118587989D01*
X137300000Y-100327922D02*
X137300000Y-102100000D01*
X98700000Y-117450000D02*
X99637989Y-118387989D01*
X159340000Y-133000000D02*
X155725999Y-129385999D01*
X119394001Y-91604001D02*
X118430079Y-91604001D01*
X67595999Y-140404001D02*
X67595999Y-143704001D01*
X121036039Y-97863961D02*
X121300000Y-97600000D01*
X117725999Y-87674001D02*
X119100000Y-86300000D01*
X117725999Y-105357923D02*
X118591961Y-104491961D01*
X160000000Y-152600000D02*
X161300000Y-153900000D01*
X179250000Y-95400000D02*
X179050000Y-95400000D01*
X101226078Y-112400000D02*
X102750000Y-112400000D01*
X177095999Y-110773921D02*
X175599999Y-110773921D01*
X120526078Y-112700000D02*
X117725999Y-109899921D01*
X141122078Y-96627922D02*
X141300000Y-96450000D01*
X178622078Y-112300000D02*
X177095999Y-110773921D01*
X159750000Y-135857618D02*
X156587989Y-139019629D01*
X175173921Y-99004001D02*
X179050000Y-95127922D01*
X118945999Y-116481923D02*
X122050000Y-113377922D01*
X157726078Y-111900000D02*
X155725999Y-109899921D01*
X159242382Y-135350000D02*
X159750000Y-135857618D01*
X118845999Y-138976079D02*
X120822078Y-137000000D01*
X141000000Y-96627922D02*
X137300000Y-100327922D01*
X155725999Y-146600079D02*
X155725999Y-147835999D01*
X120822078Y-137000000D02*
X120822078Y-133727922D01*
X140340000Y-132800000D02*
X136725999Y-129185999D01*
X174725999Y-126524001D02*
X174725999Y-124357923D01*
X157745999Y-103337923D02*
X157745999Y-99954001D01*
X98725999Y-125074001D02*
X99637989Y-124162011D01*
X116700000Y-125800000D02*
X116700000Y-128160000D01*
X160050000Y-111900000D02*
X157726078Y-111900000D01*
X100000000Y-104000000D02*
X100645999Y-104645999D01*
X174725999Y-129285999D02*
X174725999Y-126524001D01*
X157041961Y-104041961D02*
X157745999Y-103337923D01*
X121590000Y-93800000D02*
X119394001Y-91604001D01*
X156013039Y-146313039D02*
X155725999Y-146600079D01*
X118591961Y-103641961D02*
X117725000Y-102775000D01*
X66007202Y-149700000D02*
X66007202Y-151707202D01*
X118591961Y-104491961D02*
X118591961Y-103641961D01*
X155200000Y-117500000D02*
X157000000Y-117500000D01*
X96950000Y-150400000D02*
X99650000Y-150400000D01*
X99637989Y-116939933D02*
X102750000Y-113827922D01*
X98725999Y-109899921D02*
X101226078Y-112400000D01*
X71100000Y-131400000D02*
X72800000Y-133100000D01*
X67595999Y-143704001D02*
X67000000Y-144300000D01*
X116700000Y-128160000D02*
X121340000Y-132800000D01*
X175637989Y-123445933D02*
X175637989Y-117562011D01*
X136725999Y-125874001D02*
X136425999Y-125874001D01*
X139736039Y-137336039D02*
X138095999Y-138976079D01*
X121750000Y-154200000D02*
X122150000Y-154600000D01*
X98725999Y-108600079D02*
X98725999Y-109899921D01*
X100645999Y-104645999D02*
X100645999Y-106680079D01*
X121750000Y-151900000D02*
X121750000Y-154200000D01*
X87768077Y-152054001D02*
X88976079Y-150845999D01*
X137637989Y-117489933D02*
X141050000Y-114077922D01*
X83400000Y-155750000D02*
X75350000Y-155750000D01*
X122050000Y-112700000D02*
X120526078Y-112700000D01*
X157745999Y-99954001D02*
X158925000Y-98775000D01*
X118945999Y-117945999D02*
X118945999Y-116481923D01*
X140640000Y-111800000D02*
X141050000Y-111800000D01*
X116700000Y-125800000D02*
X118945999Y-123554001D01*
X102340000Y-151700000D02*
X101040000Y-150400000D01*
X118430079Y-91604001D02*
X117725999Y-90899921D01*
X178800000Y-152050000D02*
X174725999Y-147975999D01*
X66007202Y-149742798D02*
X66007202Y-149700000D01*
X179000000Y-112800000D02*
X179000000Y-112300000D01*
X140340000Y-151900000D02*
X140750000Y-151900000D01*
X102590000Y-93800000D02*
X100394001Y-91604001D01*
X174725999Y-106924001D02*
X175525999Y-106924001D01*
X98725999Y-128899921D02*
X98725999Y-125074001D01*
X155725999Y-105357923D02*
X157041961Y-104041961D01*
X139736039Y-137336039D02*
X138936039Y-137336039D01*
X99650000Y-150400000D02*
X101040000Y-150400000D01*
X157045999Y-116481923D02*
X160050000Y-113477922D01*
X101916078Y-132090000D02*
X98725999Y-128899921D01*
X177525000Y-114275000D02*
X177825000Y-114275000D01*
X121750000Y-151900000D02*
X121340000Y-151900000D01*
X158825000Y-98775000D02*
X157800000Y-97750000D01*
X99430079Y-91604001D02*
X98725999Y-90899921D01*
X117725999Y-109899921D02*
X117725999Y-105357923D01*
X175525999Y-106924001D02*
X176300000Y-106150000D01*
X155725999Y-125775999D02*
X157174001Y-125775999D01*
X155725999Y-125775999D02*
X155725999Y-125074001D01*
X97300000Y-144300000D02*
X95935999Y-142935999D01*
X157041961Y-103541961D02*
X157041961Y-104041961D01*
X93798079Y-130754001D02*
X92495999Y-129451921D01*
X100000000Y-137227922D02*
X102750000Y-134477922D01*
X81534000Y-147250000D02*
X82600000Y-146184000D01*
X100645999Y-100426079D02*
X100645999Y-104645999D01*
X158400000Y-135350000D02*
X159242382Y-135350000D01*
X138095999Y-145230079D02*
X136725999Y-146600079D01*
X102750000Y-132500000D02*
X102340000Y-132090000D01*
X178750000Y-132900000D02*
X178340000Y-132900000D01*
X174725999Y-109899921D02*
X174725999Y-106924001D01*
X119237989Y-99089933D02*
X120463961Y-97863961D01*
X159590000Y-151700000D02*
X160000000Y-151700000D01*
X119237989Y-103845933D02*
X119237989Y-99089933D01*
X134980079Y-145230079D02*
X133400000Y-143650000D01*
X98725999Y-148053921D02*
X98725999Y-143974001D01*
X82600000Y-146184000D02*
X82600000Y-122310000D01*
X179700000Y-95850000D02*
X179250000Y-95400000D01*
X138194001Y-91604001D02*
X137430079Y-91604001D01*
X175725999Y-126524001D02*
X176100000Y-126150000D01*
X122000000Y-96327922D02*
X122000000Y-93800000D01*
X100394001Y-91604001D02*
X99430079Y-91604001D01*
X158925000Y-98775000D02*
X160000000Y-97700000D01*
X99637989Y-118587989D02*
X99637989Y-116939933D01*
X141000000Y-94000000D02*
X141000000Y-96627922D01*
X136425999Y-125874001D02*
X136420021Y-125879979D01*
X177600000Y-135500000D02*
X177600000Y-134050000D01*
X65300000Y-150450000D02*
X66007202Y-149742798D01*
X98725999Y-143974001D02*
X98725999Y-143357923D01*
X88976079Y-150845999D02*
X96504001Y-150845999D01*
X159750000Y-133000000D02*
X159340000Y-133000000D01*
X95935999Y-139731919D02*
X93798079Y-137593999D01*
X137300000Y-102100000D02*
X137300000Y-108026078D01*
X140590000Y-94000000D02*
X138194001Y-91604001D01*
X157045999Y-117454001D02*
X157045999Y-116481923D01*
X178340000Y-132900000D02*
X174725999Y-129285999D01*
X155725999Y-88124001D02*
X157075999Y-86774001D01*
X140750000Y-136322078D02*
X139736039Y-137336039D01*
X155800000Y-102300000D02*
X157041961Y-103541961D01*
X120463961Y-97863961D02*
X122000000Y-96327922D01*
X102750000Y-151700000D02*
X102340000Y-151700000D01*
X138936039Y-137336039D02*
X138000000Y-136400000D01*
X103000000Y-93800000D02*
X102590000Y-93800000D01*
X178800000Y-152050000D02*
X179250000Y-151600000D01*
X177600000Y-134050000D02*
X178750000Y-132900000D01*
X175637989Y-117562011D02*
X174662011Y-117562011D01*
X158925000Y-98775000D02*
X158825000Y-98775000D01*
X137000000Y-102100000D02*
X137300000Y-102100000D01*
X155725999Y-109899921D02*
X155725999Y-105357923D01*
X136725999Y-125874001D02*
X137637989Y-124962011D01*
X136725999Y-90899921D02*
X136725999Y-87874001D01*
X81534000Y-147250000D02*
X81534000Y-148984000D01*
X141050000Y-114077922D02*
X141050000Y-111800000D01*
X140750000Y-132800000D02*
X140340000Y-132800000D01*
X121340000Y-151900000D02*
X118820000Y-149380000D01*
X156013039Y-146013039D02*
X156013039Y-146313039D01*
X174725999Y-144922003D02*
X175874001Y-143774001D01*
X175145999Y-104937923D02*
X175145999Y-100181923D01*
X67000000Y-144300000D02*
X67000000Y-148707202D01*
X175637989Y-116162011D02*
X177525000Y-114275000D01*
X174725999Y-106924001D02*
X174725999Y-105357923D01*
X103000000Y-98072078D02*
X100645999Y-100426079D01*
X140750000Y-151900000D02*
X140750000Y-154450000D01*
X85904001Y-152054001D02*
X85904001Y-153245999D01*
X68050000Y-153750000D02*
X70300000Y-153750000D01*
X84604001Y-152054001D02*
X85904001Y-152054001D01*
X140750000Y-132800000D02*
X140750000Y-136322078D01*
X120822078Y-133727922D02*
X121750000Y-132800000D01*
X101040000Y-150367922D02*
X98725999Y-148053921D01*
X117945999Y-117945999D02*
X117600000Y-117600000D01*
X141000000Y-96627922D02*
X141122078Y-96627922D01*
X103000000Y-151950000D02*
X102750000Y-151700000D01*
X139585999Y-110745999D02*
X140640000Y-111800000D01*
X174725999Y-126524001D02*
X175725999Y-126524001D01*
X177525000Y-114275000D02*
X179000000Y-112800000D01*
X72800000Y-133100000D02*
X72800000Y-135200000D01*
X155725999Y-125074001D02*
X157045999Y-123754001D01*
X98725999Y-88074001D02*
X100025999Y-86774001D01*
X94800000Y-124744078D02*
X94800000Y-124100000D01*
X102750000Y-134477922D02*
X102750000Y-132500000D01*
X92495999Y-127048079D02*
X94800000Y-124744078D01*
X155725999Y-129385999D02*
X155725999Y-125775999D01*
X81534000Y-148984000D02*
X84604001Y-152054001D01*
X118591961Y-104491961D02*
X119237989Y-103845933D01*
X136800000Y-101900000D02*
X137000000Y-102100000D01*
X179050000Y-95400000D02*
X179050000Y-94290000D01*
X179050000Y-95127922D02*
X179050000Y-94290000D01*
X137430079Y-91604001D02*
X136725999Y-90899921D01*
X174725999Y-124357923D02*
X175637989Y-123445933D01*
X75350000Y-155750000D02*
X74449201Y-154849201D01*
X174725999Y-105357923D02*
X175145999Y-104937923D01*
X67600000Y-131400000D02*
X71100000Y-131400000D01*
X137572077Y-110745999D02*
X139585999Y-110745999D01*
X156587989Y-145738089D02*
X156013039Y-146313039D01*
X155725999Y-90899921D02*
X155725999Y-88124001D01*
X154600000Y-144600000D02*
X156013039Y-146013039D01*
X136725999Y-146600079D02*
X136725999Y-148285999D01*
X72800000Y-135200000D02*
X67595999Y-140404001D01*
X157174001Y-125775999D02*
X157500000Y-125450000D01*
X114374001Y-143774001D02*
X115525999Y-143774001D01*
X70300000Y-153750000D02*
X73350000Y-153750000D01*
X122050000Y-113377922D02*
X122050000Y-112700000D01*
X117725999Y-90899921D02*
X117725999Y-87674001D01*
X160000000Y-151700000D02*
X160000000Y-152600000D01*
X137637989Y-124962011D02*
X137637989Y-117489933D01*
X85904001Y-153245999D02*
X83400000Y-155750000D01*
X140750000Y-154450000D02*
X141075000Y-154775000D01*
X113900000Y-143300000D02*
X114374001Y-143774001D01*
X101040000Y-150400000D02*
X101040000Y-150367922D01*
X158626078Y-93800000D02*
X155725999Y-90899921D01*
X136725999Y-148285999D02*
X138220000Y-149780000D01*
X175637989Y-117562011D02*
X175637989Y-116162011D01*
X177825000Y-114275000D02*
X178600000Y-115050000D01*
X96504001Y-150845999D02*
X96950000Y-150400000D01*
X73350000Y-153750000D02*
X74449201Y-154849201D01*
X179050000Y-94290000D02*
X179050000Y-93800000D01*
X160050000Y-113477922D02*
X160050000Y-111900000D01*
X82600000Y-122310000D02*
X80390000Y-120100000D01*
X117725999Y-143274001D02*
X118845999Y-142154001D01*
X174725999Y-147975999D02*
X174725999Y-144922003D01*
X95935999Y-142935999D02*
X95935999Y-139731919D01*
X136725999Y-108600079D02*
X136725999Y-109899921D01*
X122000000Y-93800000D02*
X121590000Y-93800000D01*
X99144001Y-142939921D02*
X99144001Y-138244001D01*
X138220000Y-149780000D02*
X140340000Y-151900000D01*
X85904001Y-152054001D02*
X87768077Y-152054001D01*
X118845999Y-142154001D02*
X118845999Y-138976079D01*
X103000000Y-93800000D02*
X103000000Y-96500000D01*
X97300000Y-144300000D02*
X98400000Y-144300000D01*
X103000000Y-96500000D02*
X103000000Y-97350000D01*
X175145999Y-99004001D02*
X175173921Y-99004001D01*
X66007202Y-151707202D02*
X68050000Y-153750000D01*
X141000000Y-94000000D02*
X140590000Y-94000000D01*
X118945999Y-117945999D02*
X117945999Y-117945999D01*
X66900000Y-132100000D02*
X67600000Y-131400000D01*
X118820000Y-149380000D02*
X117725999Y-148285999D01*
X136725999Y-129185999D02*
X136725999Y-125874001D01*
X120463961Y-97863961D02*
X121036039Y-97863961D01*
X178800000Y-155100000D02*
X178800000Y-152050000D01*
X117725999Y-145974001D02*
X117725999Y-143274001D01*
X160000000Y-93800000D02*
X158626078Y-93800000D01*
X115525999Y-143774001D02*
X117725999Y-145974001D01*
X155725999Y-147835999D02*
X159590000Y-151700000D01*
X92495999Y-129451921D02*
X92495999Y-127048079D01*
X138095999Y-145230079D02*
X134980079Y-145230079D01*
X174662011Y-117562011D02*
X174100000Y-117000000D01*
X157045999Y-123754001D02*
X157045999Y-117454001D01*
X99637989Y-118387989D02*
X99637989Y-118587989D01*
X100645999Y-106680079D02*
X98725999Y-108600079D01*
X175145999Y-100181923D02*
X175145999Y-99004001D01*
X67000000Y-148707202D02*
X66007202Y-149700000D01*
G04 #@! TO.N,+5V*
X71850000Y-149900000D02*
X72450000Y-150500000D01*
X69200000Y-144200000D02*
X69200000Y-142700000D01*
X75350000Y-136550000D02*
X75350000Y-134150000D01*
X75400000Y-153450000D02*
X75400000Y-153600000D01*
X69200000Y-147250000D02*
X69200000Y-144200000D01*
X75400000Y-153450000D02*
X75650000Y-153700000D01*
X72450000Y-150500000D02*
X75750000Y-150500000D01*
X75350000Y-112500000D02*
X77900000Y-109950000D01*
X69200000Y-142700000D02*
X75350000Y-136550000D01*
X71850000Y-149900000D02*
X75400000Y-153450000D01*
X75350000Y-134150000D02*
X75350000Y-112500000D01*
X69200000Y-147250000D02*
X71850000Y-149900000D01*
X75400000Y-153600000D02*
X76025000Y-154225000D01*
D20*
G04 #@! TO.N,row1*
X82900000Y-92800000D02*
X82900000Y-87300000D01*
G04 #@! TO.N,row4*
X86500000Y-148000000D02*
X87500000Y-149000000D01*
X86500000Y-140200000D02*
X86500000Y-148000000D01*
D19*
G04 #@! TO.N,Net-(D51-Pad2)*
X62250000Y-143250000D02*
X62250000Y-142450000D01*
X62250000Y-142450000D02*
X70800000Y-133900000D01*
D20*
G04 #@! TO.N,NEOPIXEL_EN*
X64500000Y-124530000D02*
X62610000Y-122640000D01*
X64500000Y-129300000D02*
X64500000Y-124530000D01*
G04 #@! TO.N,/VDIV*
X73431010Y-128768990D02*
X74000000Y-128200000D01*
X74000000Y-128200000D02*
X74000000Y-111250000D01*
X74000000Y-111250000D02*
X80390000Y-104860000D01*
X70000000Y-139600000D02*
X73431010Y-136168990D01*
X73431010Y-136168990D02*
X73431010Y-128768990D01*
G04 #@! TO.N,col1*
X97468999Y-130631001D02*
X95300000Y-132800000D01*
X97468999Y-142098999D02*
X97540000Y-142170000D01*
X97468999Y-117668999D02*
X97468999Y-130631001D01*
X92779097Y-91952979D02*
X94800000Y-93973882D01*
X64600000Y-100330000D02*
X64600000Y-88600000D01*
X97468999Y-102118999D02*
X97468999Y-110831001D01*
X64600000Y-88600000D02*
X69316020Y-83883980D01*
X94800000Y-93973882D02*
X94800000Y-99450000D01*
X85800000Y-89863132D02*
X87889847Y-91952979D01*
X97468999Y-85241001D02*
X97468999Y-91304883D01*
X62610000Y-102320000D02*
X64600000Y-100330000D01*
X87889847Y-91952979D02*
X92779097Y-91952979D01*
X95600000Y-112700000D02*
X95600000Y-115800000D01*
X85800000Y-87233448D02*
X85800000Y-89863132D01*
X95600000Y-115800000D02*
X97468999Y-117668999D01*
X97468999Y-91304883D02*
X94800000Y-93973882D01*
X82450533Y-83883981D02*
X85800000Y-87233448D01*
X97540000Y-85170000D02*
X97468999Y-85241001D01*
X97468999Y-139331001D02*
X97468999Y-142098999D01*
X95300000Y-132800000D02*
X95300000Y-137162002D01*
X69316020Y-83883980D02*
X82450533Y-83883981D01*
X95300000Y-137162002D02*
X97468999Y-139331001D01*
X97468999Y-110831001D02*
X95600000Y-112700000D01*
X94800000Y-99450000D02*
X97468999Y-102118999D01*
G04 #@! TO.N,col2*
X116468999Y-137731001D02*
X116468999Y-142098999D01*
X116410000Y-104300000D02*
X116540000Y-104170000D01*
X116540000Y-123170000D02*
X116468999Y-123098999D01*
X116568999Y-131168999D02*
X113395117Y-131168999D01*
X113200000Y-94650000D02*
X113200000Y-97612002D01*
X93108010Y-99139576D02*
X95100000Y-101131566D01*
X116468999Y-123098999D02*
X116468999Y-117768999D01*
X113900000Y-113380000D02*
X116540000Y-110740000D01*
X91489011Y-92460989D02*
X87679423Y-92460989D01*
X115110000Y-105600000D02*
X116540000Y-104170000D01*
X116540000Y-85170000D02*
X116468999Y-85241001D01*
X111400000Y-127326118D02*
X115556118Y-123170000D01*
X116540000Y-110740000D02*
X116540000Y-104170000D01*
X91489011Y-92460989D02*
X91489011Y-92524695D01*
X116468999Y-100881001D02*
X116468999Y-104098999D01*
X111400000Y-129173882D02*
X111400000Y-127326118D01*
X95100000Y-101131566D02*
X95100000Y-101450000D01*
X115556118Y-123170000D02*
X116540000Y-123170000D01*
X93108010Y-94143694D02*
X93108010Y-99139576D01*
X65500000Y-88418434D02*
X65500000Y-101970000D01*
X82240108Y-84391990D02*
X69526444Y-84391990D01*
X116468999Y-104098999D02*
X116540000Y-104170000D01*
X113300000Y-105600000D02*
X115110000Y-105600000D01*
X116468999Y-117768999D02*
X113900000Y-115200000D01*
X113395117Y-131168999D02*
X111400000Y-129173882D01*
X65500000Y-101970000D02*
X62610000Y-104860000D01*
X116468999Y-85241001D02*
X116468999Y-91381001D01*
X118000000Y-132600000D02*
X118000000Y-136200000D01*
X87679423Y-92460989D02*
X85022852Y-89804418D01*
X113900000Y-115200000D02*
X113900000Y-113380000D01*
X85022852Y-89804418D02*
X85022851Y-87174733D01*
X116468999Y-142098999D02*
X116540000Y-142170000D01*
X118000000Y-136200000D02*
X116468999Y-137731001D01*
X116468999Y-91381001D02*
X113200000Y-94650000D01*
X95100000Y-105800000D02*
X95100000Y-101450000D01*
X113200000Y-97612002D02*
X116468999Y-100881001D01*
X85022851Y-87174733D02*
X82240108Y-84391990D01*
X91489011Y-92524695D02*
X93108010Y-94143694D01*
X116568999Y-131168999D02*
X118000000Y-132600000D01*
X69526444Y-84391990D02*
X65500000Y-88418434D01*
G04 #@! TO.N,col3*
X62610000Y-109940000D02*
X66008010Y-106541990D01*
X70300000Y-84900000D02*
X82029684Y-84900000D01*
X66008010Y-106541990D02*
X66008010Y-89191990D01*
X136900000Y-133300000D02*
X135540000Y-131940000D01*
X94031001Y-105768999D02*
X93400000Y-106400000D01*
X94031001Y-100781001D02*
X94031001Y-105768999D01*
X132400000Y-94450000D02*
X132400000Y-97450000D01*
X84514842Y-90014842D02*
X87468999Y-92968999D01*
X134440001Y-122070001D02*
X135540000Y-123170000D01*
X84514842Y-87385158D02*
X84514842Y-90014842D01*
X135540000Y-85170000D02*
X135468999Y-85241001D01*
X133000000Y-117169998D02*
X134440001Y-118609999D01*
X134440001Y-118609999D02*
X134440001Y-122070001D01*
X82029684Y-84900000D02*
X84514842Y-87385158D01*
X92600000Y-94354118D02*
X92600000Y-99350000D01*
X136900000Y-140810000D02*
X136900000Y-133300000D01*
X135468999Y-91381001D02*
X132400000Y-94450000D01*
X135468999Y-100518999D02*
X135468999Y-111168999D01*
X66008010Y-89191990D02*
X70300000Y-84900000D01*
X132000000Y-105800000D02*
X133630000Y-104170000D01*
X87468999Y-92968999D02*
X91214881Y-92968999D01*
X133000000Y-113637998D02*
X133000000Y-117169998D01*
X135468999Y-111168999D02*
X133000000Y-113637998D01*
X135468999Y-85241001D02*
X135468999Y-91381001D01*
X132400000Y-97450000D02*
X135468999Y-100518999D01*
X91214881Y-92968999D02*
X92600000Y-94354118D01*
X133630000Y-104170000D02*
X135540000Y-104170000D01*
X135540000Y-142170000D02*
X136900000Y-140810000D01*
X92600000Y-99350000D02*
X94031001Y-100781001D01*
X135540000Y-131940000D02*
X135540000Y-123170000D01*
G04 #@! TO.N,col4*
X154540000Y-142170000D02*
X155931001Y-140778999D01*
X154540000Y-123170000D02*
X152968999Y-121598999D01*
X152968999Y-111804883D02*
X154540000Y-110233882D01*
X154540000Y-110233882D02*
X154540000Y-104170000D01*
X154468999Y-104098999D02*
X154540000Y-104170000D01*
X155000000Y-130020000D02*
X154540000Y-129560000D01*
X152968999Y-121598999D02*
X152968999Y-111804883D01*
X154468999Y-85241001D02*
X154468999Y-91281001D01*
X155000000Y-130750000D02*
X155000000Y-130020000D01*
X154540000Y-85170000D02*
X154468999Y-85241001D01*
X151800000Y-93950000D02*
X151800000Y-96650000D01*
X151800000Y-96650000D02*
X154468999Y-99318999D01*
X155931001Y-140778999D02*
X155931001Y-131681001D01*
X154468999Y-91281001D02*
X151800000Y-93950000D01*
X155931001Y-131681001D02*
X155000000Y-130750000D01*
X154540000Y-123170000D02*
X154540000Y-129560000D01*
X154468999Y-99318999D02*
X154468999Y-104098999D01*
G04 #@! TO.N,col5*
X173540000Y-142170000D02*
X173540000Y-140614366D01*
X173540000Y-110233882D02*
X173540000Y-104170000D01*
X171868999Y-121498999D02*
X171868999Y-111904883D01*
X163300000Y-143100000D02*
X168650000Y-143100000D01*
X173540000Y-123170000D02*
X171868999Y-121498999D01*
X173468999Y-85241001D02*
X173468999Y-91304883D01*
X169930000Y-144380000D02*
X171330000Y-144380000D01*
X171330000Y-144380000D02*
X173540000Y-142170000D01*
X173540000Y-140614366D02*
X174431001Y-139723365D01*
X173540000Y-123170000D02*
X173540000Y-132277998D01*
X171868999Y-111904883D02*
X173540000Y-110233882D01*
X170911941Y-97581941D02*
X173540000Y-100210000D01*
X174431001Y-139723365D02*
X174431001Y-133168999D01*
X173540000Y-100210000D02*
X173540000Y-104170000D01*
X173540000Y-85170000D02*
X173468999Y-85241001D01*
X173540000Y-132277998D02*
X174431001Y-133168999D01*
X168650000Y-143100000D02*
X169930000Y-144380000D01*
X173468999Y-91304883D02*
X170911941Y-93861941D01*
X170911941Y-93861941D02*
X170911941Y-97581941D01*
G04 #@! TO.N,col6*
X194100000Y-89408118D02*
X192540000Y-90968118D01*
X192540000Y-129233882D02*
X191468999Y-130304883D01*
X191468999Y-141098999D02*
X192540000Y-142170000D01*
X192540000Y-110233882D02*
X191440001Y-111333881D01*
X192540000Y-90968118D02*
X192540000Y-92714118D01*
X192540000Y-85170000D02*
X194100000Y-86730000D01*
X191440001Y-122070001D02*
X192540000Y-123170000D01*
X192540000Y-92714118D02*
X190968999Y-94285119D01*
X192540000Y-104170000D02*
X192540000Y-110233882D01*
X191468999Y-130304883D02*
X191468999Y-141098999D01*
X190968999Y-102598999D02*
X192540000Y-104170000D01*
X192540000Y-123170000D02*
X192540000Y-129233882D01*
X190968999Y-94285119D02*
X190968999Y-102598999D01*
X189500000Y-143900000D02*
X191230000Y-142170000D01*
X191230000Y-142170000D02*
X192540000Y-142170000D01*
X194100000Y-86730000D02*
X194100000Y-89408118D01*
X191440001Y-111333881D02*
X191440001Y-122070001D01*
G04 #@! TO.N,Net-(D180-Pad1)*
X88800000Y-142700000D02*
X88300000Y-143200000D01*
X88300000Y-143200000D02*
X88300000Y-150000000D01*
X163400000Y-150700000D02*
X163862001Y-150700000D01*
X163862001Y-150700000D02*
X165300000Y-149262001D01*
X88300000Y-150000000D02*
X87150000Y-151150000D01*
G04 #@! TO.N,Net-(D192-Pad1)*
X104250000Y-154700000D02*
X104250000Y-151700000D01*
X102950000Y-156000000D02*
X104250000Y-154700000D01*
X93000000Y-156000000D02*
X102950000Y-156000000D01*
G04 #@! TO.N,Net-(D193-Pad1)*
X104250000Y-134030384D02*
X104250000Y-132500000D01*
X100218999Y-138061385D02*
X104250000Y-134030384D01*
X102750000Y-146100000D02*
X100218999Y-143568999D01*
X100218999Y-143568999D02*
X100218999Y-138061385D01*
G04 #@! TO.N,Net-(D194-Pad1)*
X102254118Y-126900000D02*
X100268999Y-124914881D01*
X100268999Y-122485119D02*
X102423117Y-120331001D01*
X102750000Y-126900000D02*
X102254118Y-126900000D01*
X105831001Y-116131001D02*
X104250000Y-114550000D01*
X105831001Y-119014881D02*
X105831001Y-116131001D01*
X104250000Y-114550000D02*
X104250000Y-112400000D01*
X104514881Y-120331001D02*
X105831001Y-119014881D01*
X100268999Y-124914881D02*
X100268999Y-122485119D01*
X102423117Y-120331001D02*
X104514881Y-120331001D01*
G04 #@! TO.N,Net-(D195-Pad1)*
X105831001Y-97751305D02*
X105831001Y-103718999D01*
X104500000Y-96420304D02*
X105831001Y-97751305D01*
X105831001Y-103718999D02*
X102750000Y-106800000D01*
X104500000Y-93800000D02*
X104500000Y-96420304D01*
G04 #@! TO.N,Net-(D196-Pad1)*
X112464881Y-137718999D02*
X113781001Y-139035119D01*
X111618999Y-154418999D02*
X113231001Y-156031001D01*
X122618999Y-156031001D02*
X123250000Y-155400000D01*
X110868999Y-108857119D02*
X110868999Y-112023117D01*
X111931001Y-113085119D02*
X111931001Y-115514881D01*
X112000000Y-105650000D02*
X112000000Y-107726118D01*
X113231001Y-156031001D02*
X122618999Y-156031001D01*
X107688999Y-89790167D02*
X107688999Y-90788999D01*
X107688999Y-119756883D02*
X107688999Y-128840881D01*
X123250000Y-155400000D02*
X123250000Y-151900000D01*
X111531001Y-98118999D02*
X109400000Y-100250000D01*
X111531001Y-94631001D02*
X111531001Y-98118999D01*
X112445882Y-145280236D02*
X111618999Y-146107119D01*
X107688999Y-90788999D02*
X111531001Y-94631001D01*
X107688999Y-128840881D02*
X112464881Y-133616763D01*
X104031010Y-87168990D02*
X105067822Y-87168990D01*
X109400000Y-103050000D02*
X112000000Y-105650000D01*
X111618999Y-146107119D02*
X111618999Y-154418999D01*
X113781001Y-139035119D02*
X113781001Y-141464881D01*
X111931001Y-115514881D02*
X107688999Y-119756883D01*
X112000000Y-107726118D02*
X110868999Y-108857119D01*
X109400000Y-100250000D02*
X109400000Y-103050000D01*
X113781001Y-141464881D02*
X112445882Y-142800000D01*
X110868999Y-112023117D02*
X111931001Y-113085119D01*
X103000000Y-88200000D02*
X104031010Y-87168990D01*
X105067822Y-87168990D02*
X107688999Y-89790167D01*
X112445882Y-142800000D02*
X112445882Y-145280236D01*
X112464881Y-133616763D02*
X112464881Y-137718999D01*
G04 #@! TO.N,Net-(D197-Pad1)*
X124031001Y-139035119D02*
X124031001Y-141368999D01*
X123250000Y-132800000D02*
X123250000Y-138254118D01*
X123250000Y-138254118D02*
X124031001Y-139035119D01*
X124031001Y-141368999D02*
X121750000Y-143650000D01*
X121750000Y-143650000D02*
X121750000Y-146300000D01*
G04 #@! TO.N,Net-(D198-Pad1)*
X124231001Y-124718999D02*
X124231001Y-113381001D01*
X124231001Y-113381001D02*
X123550000Y-112700000D01*
X121750000Y-127200000D02*
X124231001Y-124718999D01*
G04 #@! TO.N,Net-(D199-Pad1)*
X123500000Y-97000000D02*
X123500000Y-93800000D01*
X119868999Y-100631001D02*
X123500000Y-97000000D01*
X119868999Y-104918999D02*
X119868999Y-100631001D01*
X122050000Y-107100000D02*
X119868999Y-104918999D01*
G04 #@! TO.N,Net-(D200-Pad1)*
X132781001Y-119631001D02*
X132781001Y-124945117D01*
X141218999Y-156031001D02*
X142250000Y-155000000D01*
X130671001Y-105999119D02*
X130671001Y-107420881D01*
X133854118Y-138200000D02*
X135300000Y-138200000D01*
X129741882Y-110431762D02*
X130880060Y-111569940D01*
X129300000Y-100654118D02*
X129300000Y-104628118D01*
X130531001Y-94885119D02*
X130531001Y-99423117D01*
X130880060Y-111569940D02*
X130880060Y-117730060D01*
X130618999Y-153618999D02*
X133031001Y-156031001D01*
X126688999Y-91043117D02*
X130531001Y-94885119D01*
X142250000Y-155000000D02*
X142250000Y-151900000D01*
X130618999Y-134964881D02*
X133854118Y-138200000D01*
X133031001Y-156031001D02*
X141218999Y-156031001D01*
X126688999Y-89659119D02*
X126688999Y-91043117D01*
X130671001Y-107420881D02*
X129741882Y-108350000D01*
X135681001Y-138581001D02*
X135681001Y-139837117D01*
X129300000Y-104628118D02*
X130671001Y-105999119D01*
X135681001Y-139837117D02*
X130700000Y-144818118D01*
X130618999Y-127107119D02*
X130618999Y-134964881D01*
X130700000Y-146026118D02*
X130618999Y-146107119D01*
X130880060Y-117730060D02*
X132781001Y-119631001D01*
X123300000Y-86900000D02*
X123929880Y-86900000D01*
X132781001Y-124945117D02*
X130618999Y-127107119D01*
X135300000Y-138200000D02*
X135681001Y-138581001D01*
X130531001Y-99423117D02*
X129300000Y-100654118D01*
X123929880Y-86900000D02*
X126688999Y-89659119D01*
X130618999Y-146107119D02*
X130618999Y-153618999D01*
X130700000Y-144818118D02*
X130700000Y-146026118D01*
X129741882Y-108350000D02*
X129741882Y-110431762D01*
X122000000Y-88200000D02*
X123300000Y-86900000D01*
G04 #@! TO.N,Net-(D201-Pad1)*
X143281001Y-139081001D02*
X142250000Y-138050000D01*
X140750000Y-146300000D02*
X143281001Y-143768999D01*
X143281001Y-143768999D02*
X143281001Y-139081001D01*
X142250000Y-138050000D02*
X142250000Y-132800000D01*
G04 #@! TO.N,Net-(D202-Pad1)*
X142550000Y-113900000D02*
X142550000Y-111800000D01*
X142550000Y-115754118D02*
X143631001Y-116835119D01*
X142550000Y-114500000D02*
X142550000Y-113900000D01*
X142550000Y-113900000D02*
X142550000Y-115754118D01*
X143300000Y-120744118D02*
X143300000Y-122154118D01*
X143331001Y-124618999D02*
X140750000Y-127200000D01*
X143631001Y-116835119D02*
X143631001Y-120413117D01*
X143300000Y-122154118D02*
X143331001Y-122185119D01*
X143331001Y-122185119D02*
X143331001Y-124618999D01*
X143631001Y-120413117D02*
X143300000Y-120744118D01*
X142550000Y-114550000D02*
X142550000Y-114500000D01*
G04 #@! TO.N,Net-(D203-Pad1)*
X139168999Y-100131001D02*
X139168999Y-104318999D01*
X140475000Y-98825000D02*
X139168999Y-100131001D01*
X142500000Y-94000000D02*
X142500000Y-97750000D01*
X141425000Y-98825000D02*
X140475000Y-98825000D01*
X139168999Y-104318999D02*
X141050000Y-106200000D01*
X142500000Y-97750000D02*
X141425000Y-98825000D01*
G04 #@! TO.N,Net-(D204-Pad1)*
X149671001Y-105999119D02*
X149671001Y-108055117D01*
X162400000Y-152600000D02*
X161500000Y-151700000D01*
X141000000Y-88400000D02*
X142031010Y-87368990D01*
X145688999Y-91043117D02*
X149531001Y-94885119D01*
X149618999Y-130068999D02*
X150700000Y-131150000D01*
X149531001Y-94885119D02*
X149531001Y-99523117D01*
X148383117Y-124228999D02*
X148900881Y-124228999D01*
X148900881Y-105228999D02*
X149671001Y-105999119D01*
X151200000Y-115354118D02*
X146568999Y-119985119D01*
X151200000Y-112150000D02*
X151200000Y-115354118D01*
X149671001Y-108055117D02*
X149531001Y-108195117D01*
X149531001Y-99523117D02*
X148900881Y-100153237D01*
X148900881Y-100153237D02*
X148900881Y-105228999D01*
X150700000Y-131150000D02*
X150700000Y-137954118D01*
X143668990Y-87368990D02*
X145688999Y-89388999D01*
X149618999Y-153868999D02*
X151531001Y-155781001D01*
X149910941Y-126815177D02*
X149618999Y-127107119D01*
X151781001Y-143945117D02*
X149618999Y-146107119D01*
X149531001Y-110481001D02*
X151200000Y-112150000D01*
X150700000Y-137954118D02*
X151781001Y-139035119D01*
X148900881Y-124228999D02*
X149910941Y-125239059D01*
X149531001Y-108195117D02*
X149531001Y-110481001D01*
X149618999Y-127107119D02*
X149618999Y-130068999D01*
X151531001Y-155781001D02*
X160918999Y-155781001D01*
X149910941Y-125239059D02*
X149910941Y-126815177D01*
X146568999Y-119985119D02*
X146568999Y-122414881D01*
X151781001Y-139035119D02*
X151781001Y-143945117D01*
X162400000Y-154300000D02*
X162400000Y-152600000D01*
X146568999Y-122414881D02*
X148383117Y-124228999D01*
X160918999Y-155781001D02*
X162400000Y-154300000D01*
X142031010Y-87368990D02*
X143668990Y-87368990D01*
X145688999Y-89388999D02*
X145688999Y-91043117D01*
X149618999Y-146107119D02*
X149618999Y-153868999D01*
G04 #@! TO.N,Net-(D205-Pad1)*
X160000000Y-146100000D02*
X157218999Y-143318999D01*
X157218999Y-143318999D02*
X157218999Y-139281001D01*
X157218999Y-139281001D02*
X161250000Y-135250000D01*
X161250000Y-135250000D02*
X161250000Y-133000000D01*
G04 #@! TO.N,Net-(D206-Pad1)*
X162531001Y-124618999D02*
X162531001Y-116331001D01*
X159750000Y-127400000D02*
X162531001Y-124618999D01*
X161550000Y-115350000D02*
X161550000Y-111900000D01*
X162531001Y-116331001D02*
X161550000Y-115350000D01*
G04 #@! TO.N,Net-(D207-Pad1)*
X162931001Y-103418999D02*
X162931001Y-100385119D01*
X160050000Y-106300000D02*
X162931001Y-103418999D01*
X161345882Y-98800000D02*
X161345882Y-93954118D01*
X161345882Y-93954118D02*
X161500000Y-93800000D01*
X162931001Y-100385119D02*
X161345882Y-98800000D01*
G04 #@! TO.N,Net-(D208-Pad1)*
X170700000Y-143400000D02*
X170700000Y-139204118D01*
X161031010Y-87168990D02*
X160000000Y-88200000D01*
X167700000Y-127700000D02*
X168671001Y-126728999D01*
X178450000Y-156000000D02*
X179600000Y-156000000D01*
X168671001Y-105999119D02*
X167900881Y-105228999D01*
X170700000Y-139204118D02*
X167700000Y-136204118D01*
X180750000Y-154850000D02*
X180750000Y-151600000D01*
X168000000Y-108726118D02*
X168671001Y-108055117D01*
X168531001Y-94885119D02*
X164688999Y-91043117D01*
X162198870Y-87168990D02*
X161031010Y-87168990D01*
X173500000Y-145400000D02*
X173500000Y-147850000D01*
X167900881Y-99953237D02*
X168531001Y-99323117D01*
X177431001Y-154981001D02*
X177431001Y-151781001D01*
X168671001Y-126728999D02*
X168671001Y-124521001D01*
X170531001Y-122661001D02*
X170531001Y-113075119D01*
X168531001Y-99323117D02*
X168531001Y-94885119D01*
X179600000Y-156000000D02*
X180750000Y-154850000D01*
X168671001Y-124521001D02*
X170531001Y-122661001D01*
X177431001Y-151781001D02*
X173500000Y-147850000D01*
X168671001Y-108055117D02*
X168671001Y-105999119D01*
X178450000Y-156000000D02*
X177431001Y-154981001D01*
X164688999Y-89659119D02*
X162198870Y-87168990D01*
X167900881Y-105228999D02*
X167900881Y-99953237D01*
X170531001Y-113075119D02*
X168000000Y-110544118D01*
X167700000Y-136204118D02*
X167700000Y-127700000D01*
X168000000Y-110544118D02*
X168000000Y-108726118D01*
X164688999Y-91043117D02*
X164688999Y-89659119D01*
G04 #@! TO.N,Net-(D209-Pad1)*
X180250000Y-132900000D02*
X180250000Y-134150000D01*
X180300000Y-144950000D02*
X179250000Y-146000000D01*
X180250000Y-134150000D02*
X182200000Y-136100000D01*
X182200000Y-139400000D02*
X180300000Y-141300000D01*
X182200000Y-136100000D02*
X182200000Y-139400000D01*
X180300000Y-141300000D02*
X180300000Y-144950000D01*
G04 #@! TO.N,Net-(D210-Pad1)*
X180500000Y-114320304D02*
X180500000Y-113500000D01*
X179818999Y-126231001D02*
X180014881Y-126231001D01*
X180014881Y-126231001D02*
X182400000Y-123845882D01*
X182400000Y-123845882D02*
X182400000Y-116220304D01*
X178750000Y-127300000D02*
X179818999Y-126231001D01*
X182400000Y-116220304D02*
X180500000Y-114320304D01*
X180500000Y-113500000D02*
X180500000Y-112300000D01*
G04 #@! TO.N,Net-(D211-Pad1)*
X183392000Y-97870000D02*
X183392000Y-101508000D01*
X180550000Y-95028000D02*
X183392000Y-97870000D01*
X179000000Y-105900000D02*
X179000000Y-106700000D01*
X180550000Y-93800000D02*
X180550000Y-95028000D01*
X183392000Y-101508000D02*
X179000000Y-105900000D01*
G04 #@! TO.N,/NeoPixel/NeoPixel*
X64231001Y-81468999D02*
X59600000Y-86100000D01*
X192800000Y-88850000D02*
X191058999Y-87108999D01*
X59600000Y-140100000D02*
X59600000Y-145900000D01*
X191058999Y-87108999D02*
X191058999Y-82446997D01*
X190081001Y-81468999D02*
X64231001Y-81468999D01*
X59600000Y-86100000D02*
X59600000Y-140100000D01*
X191058999Y-82446997D02*
X190081001Y-81468999D01*
G04 #@! TO.N,/SERIAL*
X62200000Y-147250000D02*
X60300000Y-145350000D01*
X60300000Y-102090000D02*
X62610000Y-99780000D01*
X60300000Y-145350000D02*
X60300000Y-102090000D01*
D19*
G04 #@! TO.N,VDD*
X182168961Y-89441039D02*
X181073921Y-88345999D01*
X106462011Y-111237989D02*
X106462011Y-108634089D01*
X149454001Y-142904001D02*
X150400000Y-143850000D01*
X109954001Y-132226079D02*
X104627922Y-126900000D01*
X149255999Y-132494001D02*
X149300000Y-132450000D01*
X161550000Y-106300000D02*
X163562011Y-104287989D01*
X107462011Y-118562011D02*
X107600000Y-118700000D01*
X106462011Y-118562011D02*
X107462011Y-118562011D01*
X127073921Y-138926079D02*
X127073921Y-137254001D01*
X152700000Y-144050000D02*
X152700000Y-141050000D01*
X125562011Y-120162011D02*
X125600000Y-120200000D01*
X182404001Y-113045999D02*
X182404001Y-115331923D01*
X125454001Y-111173921D02*
X125454001Y-108594001D01*
X106900000Y-92050000D02*
X106200000Y-92750000D01*
X123660000Y-146300000D02*
X125300000Y-147940000D01*
X104250000Y-146100000D02*
X106075000Y-144275000D01*
X79600000Y-151050000D02*
X79600000Y-142850000D01*
X145454001Y-120654001D02*
X144545999Y-120654001D01*
X163454001Y-110373921D02*
X163684081Y-110604001D01*
X184200000Y-123350000D02*
X182404001Y-125145999D01*
X142660000Y-127200000D02*
X142250000Y-127200000D01*
X180550000Y-88200000D02*
X179395990Y-87045990D01*
X163454001Y-107826079D02*
X161927922Y-106300000D01*
X182831010Y-143918990D02*
X182831010Y-135158932D01*
X123660000Y-127200000D02*
X123250000Y-127200000D01*
X125054001Y-105595999D02*
X125054001Y-99354001D01*
X123960000Y-107100000D02*
X123550000Y-107100000D01*
X131495999Y-137595999D02*
X128404001Y-137595999D01*
X182154001Y-130354001D02*
X183345999Y-130354001D01*
X152700000Y-141050000D02*
X154200000Y-139550000D01*
X144100000Y-97127922D02*
X144100000Y-92950000D01*
X143912011Y-139915911D02*
X147954001Y-135873921D01*
X144200000Y-147840000D02*
X142660000Y-146300000D01*
X134900000Y-139500000D02*
X133400000Y-139500000D01*
X161627922Y-127400000D02*
X161250000Y-127400000D01*
X182168961Y-89441039D02*
X182168961Y-89502883D01*
X124862011Y-120162011D02*
X125562011Y-120162011D01*
X143912011Y-144637989D02*
X143912011Y-141562011D01*
X182345999Y-92381923D02*
X182454001Y-92273921D01*
X83200000Y-154650000D02*
X79600000Y-151050000D01*
X184200000Y-119150000D02*
X184200000Y-123350000D01*
X163404001Y-92273921D02*
X163404001Y-89726079D01*
X106075000Y-144275000D02*
X108573921Y-141776079D01*
X182831010Y-135158932D02*
X182154001Y-134481923D01*
X124862011Y-111765911D02*
X125213961Y-111413961D01*
X182345999Y-92381923D02*
X185048001Y-92381923D01*
X144454001Y-107694001D02*
X144454001Y-109104001D01*
X144100000Y-92777922D02*
X144404001Y-92473921D01*
X145454001Y-119995999D02*
X145454001Y-120654001D01*
X123250000Y-146300000D02*
X127073921Y-142476079D01*
X108300000Y-102750000D02*
X106462011Y-104587989D01*
X163162011Y-119437989D02*
X164162011Y-119437989D01*
X163300000Y-92377922D02*
X163404001Y-92273921D01*
X125054001Y-92623921D02*
X125404001Y-92273921D01*
X182154001Y-128794001D02*
X180660000Y-127300000D01*
X145254001Y-142904001D02*
X149454001Y-142904001D01*
X125454001Y-108594001D02*
X123960000Y-107100000D01*
X161500000Y-142677922D02*
X166454001Y-137723921D01*
X182154001Y-134481923D02*
X182154001Y-130354001D01*
X144404001Y-92473921D02*
X144404001Y-89894001D01*
X125213961Y-111513961D02*
X125500000Y-111800000D01*
X164637989Y-99887989D02*
X163562011Y-99887989D01*
X142660000Y-146300000D02*
X142250000Y-146300000D01*
X184500000Y-99900000D02*
X184100001Y-100299999D01*
X142550000Y-106200000D02*
X144354001Y-104395999D01*
X144404001Y-89894001D02*
X142910000Y-88400000D01*
X163300000Y-97327922D02*
X163300000Y-93000000D01*
X104250000Y-126900000D02*
X106462011Y-124687989D01*
X182831010Y-143918990D02*
X182831010Y-150081010D01*
X185048001Y-92381923D02*
X185186039Y-92519961D01*
X186273921Y-92945999D02*
X187654001Y-94326079D01*
X165500000Y-100750000D02*
X164637989Y-99887989D01*
X166454001Y-132226079D02*
X161627922Y-127400000D01*
X123910000Y-88200000D02*
X123500000Y-88200000D01*
X183345999Y-130354001D02*
X183400000Y-130300000D01*
X147954001Y-132494001D02*
X149255999Y-132494001D01*
X144454001Y-107694001D02*
X142960000Y-106200000D01*
X182404001Y-108226079D02*
X182404001Y-113045999D01*
X182154001Y-130354001D02*
X182154001Y-128794001D01*
X108573921Y-137254001D02*
X109954001Y-135873921D01*
X177795990Y-87045990D02*
X173200000Y-82450000D01*
X104627922Y-106800000D02*
X104250000Y-106800000D01*
X144354001Y-100545999D02*
X144354001Y-97381923D01*
X133400000Y-139500000D02*
X131495999Y-137595999D01*
X184200000Y-117127922D02*
X184200000Y-119150000D01*
X145954001Y-110604001D02*
X147181923Y-110604001D01*
X106462011Y-108634089D02*
X104627922Y-106800000D01*
X163162011Y-119437989D02*
X163162011Y-115489933D01*
X163404001Y-89726079D02*
X161877922Y-88200000D01*
X125213961Y-111413961D02*
X125213961Y-111513961D01*
X166904001Y-110604001D02*
X167900000Y-111600000D01*
X109954001Y-135873921D02*
X109954001Y-132226079D01*
X126054001Y-99354001D02*
X127400000Y-100700000D01*
X144200000Y-150900000D02*
X144200000Y-147840000D01*
X166454001Y-132226079D02*
X166454001Y-132254001D01*
X142250000Y-146300000D02*
X143912011Y-144637989D01*
X146600000Y-100600000D02*
X144408002Y-100600000D01*
X143912011Y-141562011D02*
X143912011Y-139915911D01*
X180877922Y-106700000D02*
X182404001Y-108226079D01*
X125404001Y-89694001D02*
X123910000Y-88200000D01*
X182168961Y-89502883D02*
X185186039Y-92519961D01*
X125300000Y-147940000D02*
X125300000Y-151050000D01*
X145454001Y-123995999D02*
X145454001Y-120654001D01*
X144354001Y-97381923D02*
X144100000Y-97127922D01*
X106399999Y-144599999D02*
X106075000Y-144275000D01*
X110700000Y-97253500D02*
X110700000Y-94750000D01*
X145100000Y-108250000D02*
X144544001Y-107694001D01*
X182404001Y-115331923D02*
X184200000Y-117127922D01*
X162745999Y-115073921D02*
X162745999Y-111081923D01*
X144100000Y-92950000D02*
X144100000Y-92777922D01*
X128454001Y-131994001D02*
X123660000Y-127200000D01*
X163684081Y-110604001D02*
X166904001Y-110604001D01*
X144544001Y-107694001D02*
X144454001Y-107694001D01*
X125404001Y-92273921D02*
X125404001Y-89694001D01*
X106462011Y-124687989D02*
X106462011Y-118562011D01*
X161927922Y-106300000D02*
X161550000Y-106300000D01*
X142250000Y-127200000D02*
X145454001Y-123995999D01*
X182404001Y-125145999D02*
X180250000Y-127300000D01*
X125054001Y-93154001D02*
X125054001Y-92623921D01*
X184854001Y-99545999D02*
X184500000Y-99900000D01*
X144454001Y-109104001D02*
X145954001Y-110604001D01*
X182404001Y-113045999D02*
X182404001Y-112945999D01*
X124862011Y-125587989D02*
X124862011Y-120162011D01*
X163562011Y-97589933D02*
X163300000Y-97327922D01*
X144408002Y-100600000D02*
X144354001Y-100545999D01*
X108573921Y-140973921D02*
X108573921Y-137254001D01*
X163300000Y-93000000D02*
X163300000Y-93100000D01*
X161250000Y-127400000D02*
X163162011Y-125487989D01*
X181073921Y-88345999D02*
X180695999Y-88345999D01*
X163562011Y-104287989D02*
X163562011Y-99887989D01*
X180500000Y-106700000D02*
X180877922Y-106700000D01*
X184100001Y-100299999D02*
X184100001Y-103099999D01*
X106900000Y-90950000D02*
X106900000Y-90190000D01*
X187654001Y-98179999D02*
X186288001Y-99545999D01*
X110700000Y-94750000D02*
X106900000Y-90950000D01*
X142910000Y-88400000D02*
X142500000Y-88400000D01*
X106900000Y-90190000D02*
X104910000Y-88200000D01*
X144354001Y-104395999D02*
X144354001Y-100545999D01*
X147181923Y-110604001D02*
X149554001Y-112976079D01*
X104910000Y-88200000D02*
X104500000Y-88200000D01*
X182404001Y-112945999D02*
X184000000Y-111350000D01*
X180660000Y-127300000D02*
X180250000Y-127300000D01*
X180750000Y-146000000D02*
X182831010Y-143918990D01*
X108573921Y-140973921D02*
X108373921Y-140973921D01*
X179395990Y-87045990D02*
X177795990Y-87045990D01*
X108300000Y-100450000D02*
X108300000Y-99653500D01*
X124862011Y-120162011D02*
X124862011Y-111765911D01*
X182454001Y-89726079D02*
X182168961Y-89441039D01*
X163562011Y-99887989D02*
X163562011Y-97589933D01*
X161877922Y-88200000D02*
X161500000Y-88200000D01*
X108300000Y-99653500D02*
X110700000Y-97253500D01*
X143912011Y-141562011D02*
X145254001Y-142904001D01*
X106900000Y-90950000D02*
X106900000Y-92050000D01*
X182831010Y-150081010D02*
X182900000Y-150150000D01*
X108373921Y-140973921D02*
X107000000Y-139600000D01*
X123550000Y-107100000D02*
X125054001Y-105595999D01*
X163162011Y-115489933D02*
X162745999Y-115073921D01*
X106462011Y-118562011D02*
X106462011Y-111237989D01*
X164162011Y-119437989D02*
X164800000Y-118800000D01*
X147954001Y-135873921D02*
X147954001Y-132494001D01*
X166454001Y-132254001D02*
X166900000Y-132700000D01*
X184100001Y-103099999D02*
X183231010Y-103968990D01*
X162745999Y-111081923D02*
X163454001Y-110373921D01*
X125213961Y-111413961D02*
X125454001Y-111173921D01*
X142960000Y-106200000D02*
X142550000Y-106200000D01*
X163300000Y-93000000D02*
X163300000Y-92377922D01*
X144545999Y-120654001D02*
X144100000Y-121100000D01*
X104627922Y-126900000D02*
X104250000Y-126900000D01*
X147954001Y-132494001D02*
X142660000Y-127200000D01*
X106000000Y-151000000D02*
X106399999Y-150600001D01*
X127073921Y-137254001D02*
X128454001Y-135873921D01*
X186288001Y-99545999D02*
X184854001Y-99545999D01*
X180695999Y-88345999D02*
X180550000Y-88200000D01*
X161500000Y-146100000D02*
X161500000Y-142677922D01*
X106399999Y-150600001D02*
X106399999Y-144599999D01*
X180500000Y-106700000D02*
X183231010Y-103968990D01*
X149554001Y-112976079D02*
X149554001Y-115895999D01*
X163454001Y-110373921D02*
X163454001Y-107826079D01*
X108300000Y-100450000D02*
X108300000Y-102750000D01*
X125054001Y-99354001D02*
X125054001Y-93154001D01*
X163162011Y-125487989D02*
X163162011Y-119437989D01*
X104250000Y-106800000D02*
X106462011Y-104587989D01*
X185186039Y-92519961D02*
X185612077Y-92945999D01*
X166454001Y-137723921D02*
X166454001Y-132226079D01*
X127073921Y-142476079D02*
X127073921Y-138926079D01*
X123250000Y-127200000D02*
X124862011Y-125587989D01*
X128404001Y-137595999D02*
X127073921Y-138926079D01*
X123250000Y-146300000D02*
X123660000Y-146300000D01*
X125054001Y-99354001D02*
X126054001Y-99354001D01*
X187654001Y-94326079D02*
X187654001Y-98179999D01*
X128454001Y-135873921D02*
X128454001Y-131994001D01*
X108573921Y-141776079D02*
X108573921Y-140973921D01*
X185612077Y-92945999D02*
X186273921Y-92945999D01*
X149554001Y-115895999D02*
X145454001Y-119995999D01*
G04 #@! TD*
M02*
