G04 #@! TF.GenerationSoftware,KiCad,Pcbnew,(6.0.2)*
G04 #@! TF.CreationDate,2022-03-10T07:57:26+09:00*
G04 #@! TF.ProjectId,kidoairaku,6b69646f-6169-4726-916b-752e6b696361,rev?*
G04 #@! TF.SameCoordinates,Original*
G04 #@! TF.FileFunction,Soldermask,Top*
G04 #@! TF.FilePolarity,Negative*
%FSLAX46Y46*%
G04 Gerber Fmt 4.6, Leading zero omitted, Abs format (unit mm)*
G04 Created by KiCad (PCBNEW (6.0.2)) date 2022-03-10 07:57:26*
%MOMM*%
%LPD*%
G01*
G04 APERTURE LIST*
G04 Aperture macros list*
%AMOutline4P*
0 Free polygon, 4 corners , with rotation*
0 The origin of the aperture is its center*
0 number of corners: always 4*
0 $1 to $8 corner X, Y*
0 $9 Rotation angle, in degrees counterclockwise*
0 create outline with 4 corners*
4,1,4,$1,$2,$3,$4,$5,$6,$7,$8,$1,$2,$9*%
G04 Aperture macros list end*
%ADD10C,2.200000*%
%ADD11R,2.000000X2.000000*%
%ADD12C,2.000000*%
%ADD13C,1.700000*%
%ADD14C,4.000000*%
%ADD15C,4.300000*%
%ADD16Outline4P,-0.650000X-0.410000X0.650000X-0.410000X0.350000X0.410000X-0.350000X0.410000X270.000000*%
%ADD17Outline4P,-0.350000X-0.410000X0.350000X-0.410000X0.650000X0.410000X-0.650000X0.410000X270.000000*%
%ADD18C,1.800000*%
%ADD19C,1.500000*%
%ADD20R,2.200000X2.500000*%
%ADD21C,1.524000*%
G04 APERTURE END LIST*
D10*
G04 #@! TO.C,H3*
X85500000Y-137750000D03*
G04 #@! TD*
G04 #@! TO.C,H4*
X180500000Y-99750000D03*
G04 #@! TD*
G04 #@! TO.C,H6*
X180500000Y-137750000D03*
G04 #@! TD*
G04 #@! TO.C,H9*
X85500000Y-99750000D03*
G04 #@! TD*
D11*
G04 #@! TO.C,J51*
X62250000Y-143250000D03*
G04 #@! TD*
D12*
G04 #@! TO.C,J52*
X81534000Y-147250000D03*
G04 #@! TD*
D13*
G04 #@! TO.C,SW1*
X100080000Y-90250000D03*
D14*
X95000000Y-90250000D03*
D13*
X89920000Y-90250000D03*
D10*
X97540000Y-85170000D03*
X91190000Y-87710000D03*
G04 #@! TD*
D13*
G04 #@! TO.C,SW2*
X119080000Y-90250000D03*
X108920000Y-90250000D03*
D14*
X114000000Y-90250000D03*
D10*
X116540000Y-85170000D03*
X110190000Y-87710000D03*
G04 #@! TD*
D13*
G04 #@! TO.C,SW3*
X138080000Y-90250000D03*
X127920000Y-90250000D03*
D14*
X133000000Y-90250000D03*
D10*
X135540000Y-85170000D03*
X129190000Y-87710000D03*
G04 #@! TD*
D14*
G04 #@! TO.C,SW4*
X152000000Y-90250000D03*
D13*
X146920000Y-90250000D03*
X157080000Y-90250000D03*
D10*
X154540000Y-85170000D03*
X148190000Y-87710000D03*
G04 #@! TD*
D13*
G04 #@! TO.C,SW5*
X165920000Y-90250000D03*
X176080000Y-90250000D03*
D14*
X171000000Y-90250000D03*
D10*
X173540000Y-85170000D03*
X167190000Y-87710000D03*
G04 #@! TD*
D13*
G04 #@! TO.C,SW6*
X184920000Y-90250000D03*
X195080000Y-90250000D03*
D14*
X190000000Y-90250000D03*
D10*
X192540000Y-85170000D03*
X186190000Y-87710000D03*
G04 #@! TD*
D14*
G04 #@! TO.C,SW11*
X95000000Y-109250000D03*
D13*
X100080000Y-109250000D03*
X89920000Y-109250000D03*
D10*
X97540000Y-104170000D03*
X91190000Y-106710000D03*
G04 #@! TD*
D13*
G04 #@! TO.C,SW12*
X108920000Y-109250000D03*
X119080000Y-109250000D03*
D14*
X114000000Y-109250000D03*
D10*
X116540000Y-104170000D03*
X110190000Y-106710000D03*
G04 #@! TD*
D13*
G04 #@! TO.C,SW13*
X138080000Y-109250000D03*
X127920000Y-109250000D03*
D14*
X133000000Y-109250000D03*
D10*
X135540000Y-104170000D03*
X129190000Y-106710000D03*
G04 #@! TD*
D13*
G04 #@! TO.C,SW14*
X146920000Y-109250000D03*
X157080000Y-109250000D03*
D14*
X152000000Y-109250000D03*
D10*
X154540000Y-104170000D03*
X148190000Y-106710000D03*
G04 #@! TD*
D14*
G04 #@! TO.C,SW15*
X171000000Y-109250000D03*
D13*
X165920000Y-109250000D03*
X176080000Y-109250000D03*
D10*
X173540000Y-104170000D03*
X167190000Y-106710000D03*
G04 #@! TD*
D13*
G04 #@! TO.C,SW16*
X195080000Y-109250000D03*
D14*
X190000000Y-109250000D03*
D13*
X184920000Y-109250000D03*
D10*
X192540000Y-104170000D03*
X186190000Y-106710000D03*
G04 #@! TD*
D13*
G04 #@! TO.C,SW21*
X100080000Y-128250000D03*
D14*
X95000000Y-128250000D03*
D13*
X89920000Y-128250000D03*
D10*
X97540000Y-123170000D03*
X91190000Y-125710000D03*
G04 #@! TD*
D13*
G04 #@! TO.C,SW22*
X119080000Y-128250000D03*
X108920000Y-128250000D03*
D14*
X114000000Y-128250000D03*
D10*
X116540000Y-123170000D03*
X110190000Y-125710000D03*
G04 #@! TD*
D13*
G04 #@! TO.C,SW23*
X127920000Y-128250000D03*
X138080000Y-128250000D03*
D14*
X133000000Y-128250000D03*
D10*
X135540000Y-123170000D03*
X129190000Y-125710000D03*
G04 #@! TD*
D13*
G04 #@! TO.C,SW24*
X146920000Y-128250000D03*
X157080000Y-128250000D03*
D14*
X152000000Y-128250000D03*
D10*
X154540000Y-123170000D03*
X148190000Y-125710000D03*
G04 #@! TD*
D14*
G04 #@! TO.C,SW25*
X171000000Y-128250000D03*
D13*
X176080000Y-128250000D03*
X165920000Y-128250000D03*
D10*
X173540000Y-123170000D03*
X167190000Y-125710000D03*
G04 #@! TD*
D14*
G04 #@! TO.C,SW26*
X190000000Y-128250000D03*
D13*
X195080000Y-128250000D03*
X184920000Y-128250000D03*
D10*
X192540000Y-123170000D03*
X186190000Y-125710000D03*
G04 #@! TD*
D13*
G04 #@! TO.C,SW31*
X100080000Y-147250000D03*
D14*
X95000000Y-147250000D03*
D13*
X89920000Y-147250000D03*
D10*
X97540000Y-142170000D03*
X91190000Y-144710000D03*
G04 #@! TD*
D13*
G04 #@! TO.C,SW32*
X108920000Y-147250000D03*
X119080000Y-147250000D03*
D14*
X114000000Y-147250000D03*
D10*
X116540000Y-142170000D03*
X110190000Y-144710000D03*
G04 #@! TD*
D13*
G04 #@! TO.C,SW33*
X127920000Y-147250000D03*
X138080000Y-147250000D03*
D14*
X133000000Y-147250000D03*
D10*
X135540000Y-142170000D03*
X129190000Y-144710000D03*
G04 #@! TD*
D13*
G04 #@! TO.C,SW34*
X146920000Y-147250000D03*
X157080000Y-147250000D03*
D14*
X152000000Y-147250000D03*
D10*
X154540000Y-142170000D03*
X148190000Y-144710000D03*
G04 #@! TD*
D14*
G04 #@! TO.C,SW35*
X171000000Y-147250000D03*
D13*
X165920000Y-147250000D03*
X176080000Y-147250000D03*
D10*
X173540000Y-142170000D03*
X167190000Y-144710000D03*
G04 #@! TD*
D13*
G04 #@! TO.C,SW36*
X184920000Y-147250000D03*
X195080000Y-147250000D03*
D14*
X190000000Y-147250000D03*
D10*
X192540000Y-142170000D03*
X186190000Y-144710000D03*
G04 #@! TD*
D15*
G04 #@! TO.C,D101*
X187000000Y-84000000D03*
G04 #@! TD*
G04 #@! TO.C,D102*
X179000000Y-84000000D03*
G04 #@! TD*
G04 #@! TO.C,D103*
X168000000Y-84000000D03*
G04 #@! TD*
G04 #@! TO.C,D104*
X160000000Y-84000000D03*
G04 #@! TD*
G04 #@! TO.C,D105*
X149000000Y-84000000D03*
G04 #@! TD*
G04 #@! TO.C,D106*
X141000000Y-84000000D03*
G04 #@! TD*
G04 #@! TO.C,D107*
X130000000Y-84000000D03*
G04 #@! TD*
G04 #@! TO.C,D108*
X122000000Y-84000000D03*
G04 #@! TD*
G04 #@! TO.C,D109*
X111000000Y-84000000D03*
G04 #@! TD*
G04 #@! TO.C,D110*
X103000000Y-84000000D03*
G04 #@! TD*
G04 #@! TO.C,D111*
X92000000Y-84000000D03*
G04 #@! TD*
G04 #@! TO.C,D112*
X194700000Y-95250000D03*
G04 #@! TD*
G04 #@! TO.C,D113*
X185000000Y-95600000D03*
G04 #@! TD*
G04 #@! TO.C,D114*
X174900000Y-95350000D03*
G04 #@! TD*
G04 #@! TO.C,D115*
X166000000Y-96100000D03*
G04 #@! TD*
G04 #@! TO.C,D116*
X155700000Y-95500000D03*
G04 #@! TD*
G04 #@! TO.C,D117*
X147000000Y-96100000D03*
G04 #@! TD*
G04 #@! TO.C,D118*
X136600000Y-95700000D03*
G04 #@! TD*
G04 #@! TO.C,D119*
X128000000Y-96100000D03*
G04 #@! TD*
G04 #@! TO.C,D120*
X117900000Y-95450000D03*
G04 #@! TD*
G04 #@! TO.C,D121*
X108000000Y-96100000D03*
G04 #@! TD*
G04 #@! TO.C,D122*
X98000000Y-95500000D03*
G04 #@! TD*
G04 #@! TO.C,D123*
X90000000Y-95500000D03*
G04 #@! TD*
G04 #@! TO.C,D124*
X187000000Y-102200000D03*
G04 #@! TD*
G04 #@! TO.C,D125*
X177800000Y-102500000D03*
G04 #@! TD*
G04 #@! TO.C,D126*
X170600000Y-101000000D03*
G04 #@! TD*
G04 #@! TO.C,D127*
X160400000Y-101600000D03*
G04 #@! TD*
G04 #@! TO.C,D128*
X151700000Y-101100000D03*
G04 #@! TD*
G04 #@! TO.C,D129*
X141700000Y-101700000D03*
G04 #@! TD*
G04 #@! TO.C,D130*
X132400000Y-101300000D03*
G04 #@! TD*
G04 #@! TO.C,D131*
X122400000Y-102000000D03*
G04 #@! TD*
G04 #@! TO.C,D132*
X112600000Y-101250000D03*
G04 #@! TD*
G04 #@! TO.C,D133*
X103300000Y-101700000D03*
G04 #@! TD*
G04 #@! TO.C,D134*
X91500000Y-102250000D03*
G04 #@! TD*
G04 #@! TO.C,D135*
X194250000Y-114750000D03*
G04 #@! TD*
G04 #@! TO.C,D136*
X185750000Y-114750000D03*
G04 #@! TD*
G04 #@! TO.C,D137*
X174400000Y-113500000D03*
G04 #@! TD*
G04 #@! TO.C,D138*
X165400000Y-113800000D03*
G04 #@! TD*
G04 #@! TO.C,D139*
X155500000Y-114100000D03*
G04 #@! TD*
G04 #@! TO.C,D140*
X146900000Y-114250000D03*
G04 #@! TD*
G04 #@! TO.C,D141*
X136100000Y-114450000D03*
G04 #@! TD*
G04 #@! TO.C,D142*
X128000000Y-114300000D03*
G04 #@! TD*
G04 #@! TO.C,D143*
X117500000Y-114000000D03*
G04 #@! TD*
G04 #@! TO.C,D144*
X109400000Y-114300000D03*
G04 #@! TD*
G04 #@! TO.C,D145*
X98700000Y-113950000D03*
G04 #@! TD*
G04 #@! TO.C,D146*
X90000000Y-114750000D03*
G04 #@! TD*
G04 #@! TO.C,D147*
X195050000Y-120250000D03*
G04 #@! TD*
G04 #@! TO.C,D148*
X178800000Y-123700000D03*
G04 #@! TD*
G04 #@! TO.C,D149*
X168000000Y-121200000D03*
G04 #@! TD*
G04 #@! TO.C,D150*
X159700000Y-123200000D03*
G04 #@! TD*
G04 #@! TO.C,D151*
X149100000Y-121200000D03*
G04 #@! TD*
G04 #@! TO.C,D152*
X140800000Y-123400000D03*
G04 #@! TD*
G04 #@! TO.C,D153*
X130250000Y-121400000D03*
G04 #@! TD*
G04 #@! TO.C,D154*
X121700000Y-123400000D03*
G04 #@! TD*
G04 #@! TO.C,D155*
X110400000Y-121400000D03*
G04 #@! TD*
G04 #@! TO.C,D156*
X102800000Y-123700000D03*
G04 #@! TD*
G04 #@! TO.C,D157*
X92000000Y-121250000D03*
G04 #@! TD*
G04 #@! TO.C,D158*
X194000000Y-133000000D03*
G04 #@! TD*
G04 #@! TO.C,D159*
X185200000Y-133600000D03*
G04 #@! TD*
G04 #@! TO.C,D160*
X171900000Y-134500000D03*
G04 #@! TD*
G04 #@! TO.C,D161*
X163800000Y-134900000D03*
G04 #@! TD*
G04 #@! TO.C,D162*
X153400000Y-134650000D03*
G04 #@! TD*
G04 #@! TO.C,D163*
X145300000Y-134600000D03*
G04 #@! TD*
G04 #@! TO.C,D164*
X134000000Y-134600000D03*
G04 #@! TD*
G04 #@! TO.C,D165*
X125800000Y-134600000D03*
G04 #@! TD*
G04 #@! TO.C,D166*
X115000000Y-134600000D03*
G04 #@! TD*
G04 #@! TO.C,D167*
X107300000Y-134600000D03*
G04 #@! TD*
G04 #@! TO.C,D168*
X98700000Y-134600000D03*
G04 #@! TD*
G04 #@! TO.C,D169*
X90600000Y-134100000D03*
G04 #@! TD*
G04 #@! TO.C,D170*
X194250000Y-139000000D03*
G04 #@! TD*
G04 #@! TO.C,D171*
X177500000Y-141000000D03*
G04 #@! TD*
G04 #@! TO.C,D172*
X168000000Y-140250000D03*
G04 #@! TD*
G04 #@! TO.C,D173*
X159750000Y-140500000D03*
G04 #@! TD*
G04 #@! TO.C,D174*
X149250000Y-140250000D03*
G04 #@! TD*
G04 #@! TO.C,D175*
X140750000Y-140250000D03*
G04 #@! TD*
G04 #@! TO.C,D176*
X130000000Y-140250000D03*
G04 #@! TD*
G04 #@! TO.C,D177*
X121500000Y-140250000D03*
G04 #@! TD*
G04 #@! TO.C,D178*
X111250000Y-140250000D03*
G04 #@! TD*
G04 #@! TO.C,D179*
X102750000Y-140250000D03*
G04 #@! TD*
G04 #@! TO.C,D180*
X92250000Y-140250000D03*
G04 #@! TD*
G04 #@! TO.C,D181*
X193500000Y-151750000D03*
G04 #@! TD*
G04 #@! TO.C,D182*
X185000000Y-153500000D03*
G04 #@! TD*
G04 #@! TO.C,D183*
X174900000Y-153250000D03*
G04 #@! TD*
G04 #@! TO.C,D184*
X166000000Y-153500000D03*
G04 #@! TD*
G04 #@! TO.C,D185*
X155800000Y-153250000D03*
G04 #@! TD*
G04 #@! TO.C,D186*
X146750000Y-153500000D03*
G04 #@! TD*
G04 #@! TO.C,D187*
X136400000Y-153500000D03*
G04 #@! TD*
G04 #@! TO.C,D188*
X128000000Y-153500000D03*
G04 #@! TD*
G04 #@! TO.C,D189*
X117400000Y-153500000D03*
G04 #@! TD*
G04 #@! TO.C,D190*
X109000000Y-153500000D03*
G04 #@! TD*
G04 #@! TO.C,D191*
X98800000Y-153250000D03*
G04 #@! TD*
G04 #@! TO.C,D192*
X90250000Y-153500000D03*
G04 #@! TD*
G04 #@! TO.C,D193*
X103500000Y-148900000D03*
D16*
X102750000Y-146100000D03*
X102750000Y-151700000D03*
D17*
X104250000Y-151700000D03*
X104250000Y-146100000D03*
G04 #@! TD*
D15*
G04 #@! TO.C,D194*
X103500000Y-129700000D03*
D16*
X102750000Y-126900000D03*
X102750000Y-132500000D03*
D17*
X104250000Y-132500000D03*
X104250000Y-126900000D03*
G04 #@! TD*
D15*
G04 #@! TO.C,D195*
X103500000Y-109600000D03*
D16*
X102750000Y-106800000D03*
X102750000Y-112400000D03*
D17*
X104250000Y-112400000D03*
X104250000Y-106800000D03*
G04 #@! TD*
D15*
G04 #@! TO.C,D196*
X103750000Y-91000000D03*
D16*
X103000000Y-88200000D03*
X103000000Y-93800000D03*
D17*
X104500000Y-93800000D03*
X104500000Y-88200000D03*
G04 #@! TD*
D15*
G04 #@! TO.C,D197*
X122500000Y-149100000D03*
D16*
X121750000Y-146300000D03*
X121750000Y-151900000D03*
D17*
X123250000Y-151900000D03*
X123250000Y-146300000D03*
G04 #@! TD*
D15*
G04 #@! TO.C,D198*
X122500000Y-130000000D03*
D16*
X121750000Y-127200000D03*
X121750000Y-132800000D03*
D17*
X123250000Y-132800000D03*
X123250000Y-127200000D03*
G04 #@! TD*
D15*
G04 #@! TO.C,D199*
X122800000Y-109900000D03*
D16*
X122050000Y-107100000D03*
X122050000Y-112700000D03*
D17*
X123550000Y-112700000D03*
X123550000Y-107100000D03*
G04 #@! TD*
D15*
G04 #@! TO.C,D200*
X122750000Y-91000000D03*
D16*
X122000000Y-88200000D03*
X122000000Y-93800000D03*
D17*
X123500000Y-93800000D03*
X123500000Y-88200000D03*
G04 #@! TD*
D15*
G04 #@! TO.C,D201*
X141500000Y-149100000D03*
D16*
X140750000Y-146300000D03*
X140750000Y-151900000D03*
D17*
X142250000Y-151900000D03*
X142250000Y-146300000D03*
G04 #@! TD*
D15*
G04 #@! TO.C,D202*
X141500000Y-130000000D03*
D16*
X140750000Y-127200000D03*
X140750000Y-132800000D03*
D17*
X142250000Y-132800000D03*
X142250000Y-127200000D03*
G04 #@! TD*
D15*
G04 #@! TO.C,D203*
X141800000Y-109000000D03*
D16*
X141050000Y-106200000D03*
X141050000Y-111800000D03*
D17*
X142550000Y-111800000D03*
X142550000Y-106200000D03*
G04 #@! TD*
D15*
G04 #@! TO.C,D204*
X141750000Y-91200000D03*
D16*
X141000000Y-88400000D03*
X141000000Y-94000000D03*
D17*
X142500000Y-94000000D03*
X142500000Y-88400000D03*
G04 #@! TD*
D15*
G04 #@! TO.C,D205*
X160750000Y-148900000D03*
D16*
X160000000Y-146100000D03*
X160000000Y-151700000D03*
D17*
X161500000Y-151700000D03*
X161500000Y-146100000D03*
G04 #@! TD*
D15*
G04 #@! TO.C,D206*
X160500000Y-130200000D03*
D16*
X159750000Y-127400000D03*
X159750000Y-133000000D03*
D17*
X161250000Y-133000000D03*
X161250000Y-127400000D03*
G04 #@! TD*
D15*
G04 #@! TO.C,D207*
X160800000Y-109100000D03*
D16*
X160050000Y-106300000D03*
X160050000Y-111900000D03*
D17*
X161550000Y-111900000D03*
X161550000Y-106300000D03*
G04 #@! TD*
D15*
G04 #@! TO.C,D208*
X160750000Y-91000000D03*
D16*
X160000000Y-88200000D03*
X160000000Y-93800000D03*
D17*
X161500000Y-93800000D03*
X161500000Y-88200000D03*
G04 #@! TD*
D15*
G04 #@! TO.C,D209*
X180000000Y-148800000D03*
D16*
X179250000Y-146000000D03*
X179250000Y-151600000D03*
D17*
X180750000Y-151600000D03*
X180750000Y-146000000D03*
G04 #@! TD*
D15*
G04 #@! TO.C,D210*
X179500000Y-130100000D03*
D16*
X178750000Y-127300000D03*
X178750000Y-132900000D03*
D17*
X180250000Y-132900000D03*
X180250000Y-127300000D03*
G04 #@! TD*
D15*
G04 #@! TO.C,D211*
X179750000Y-109500000D03*
D16*
X179000000Y-106700000D03*
X179000000Y-112300000D03*
D17*
X180500000Y-112300000D03*
X180500000Y-106700000D03*
G04 #@! TD*
D15*
G04 #@! TO.C,D212*
X179800000Y-91000000D03*
D16*
X179050000Y-88200000D03*
X179050000Y-93800000D03*
D17*
X180550000Y-93800000D03*
X180550000Y-88200000D03*
G04 #@! TD*
D15*
G04 #@! TO.C,D99*
X73500000Y-147250000D03*
G04 #@! TD*
D18*
G04 #@! TO.C,U1*
X62610000Y-89620000D03*
X62610000Y-92160000D03*
X62610000Y-94700000D03*
X62610000Y-97240000D03*
X62610000Y-99780000D03*
X62610000Y-102320000D03*
X62610000Y-104860000D03*
X62610000Y-107400000D03*
X62610000Y-109940000D03*
X62610000Y-112480000D03*
X62610000Y-115020000D03*
X62610000Y-117560000D03*
X62610000Y-120100000D03*
X62610000Y-122640000D03*
X62610000Y-125180000D03*
X62610000Y-127720000D03*
X62610000Y-130260000D03*
X62610000Y-132800000D03*
X62610000Y-135340000D03*
X62610000Y-137880000D03*
X80390000Y-137880000D03*
X80390000Y-135340000D03*
X80390000Y-132800000D03*
X80390000Y-130260000D03*
X80390000Y-127720000D03*
X80390000Y-125180000D03*
X80390000Y-122640000D03*
X80390000Y-120100000D03*
X80390000Y-117560000D03*
X80390000Y-115020000D03*
X80390000Y-112480000D03*
X80390000Y-109940000D03*
X80390000Y-107400000D03*
X80390000Y-104860000D03*
X80390000Y-102320000D03*
X80390000Y-99780000D03*
X80390000Y-97240000D03*
X80390000Y-94700000D03*
X80390000Y-92160000D03*
X80390000Y-89620000D03*
G04 #@! TD*
D15*
G04 #@! TO.C,D213*
X195000000Y-101250000D03*
G04 #@! TD*
G04 #@! TO.C,D214*
X187300000Y-121400000D03*
G04 #@! TD*
G04 #@! TO.C,D215*
X186800000Y-140250000D03*
G04 #@! TD*
D19*
G04 #@! TO.C,J1*
X60600000Y-150500000D03*
X67600000Y-150500000D03*
D20*
X70300000Y-153750000D03*
X62200000Y-147250000D03*
X65200000Y-147250000D03*
X69200000Y-147250000D03*
G04 #@! TD*
D21*
G04 #@! TO.C,SW51*
X71960000Y-142500000D03*
X74500000Y-142500000D03*
X77040000Y-142500000D03*
G04 #@! TD*
D15*
G04 #@! TO.C,D216*
X103300000Y-117800000D03*
G04 #@! TD*
G04 #@! TO.C,D217*
X121600000Y-117900000D03*
G04 #@! TD*
G04 #@! TO.C,D218*
X141100000Y-118050000D03*
G04 #@! TD*
G04 #@! TO.C,D219*
X160000000Y-117700000D03*
G04 #@! TD*
G04 #@! TO.C,D220*
X179700000Y-118100000D03*
G04 #@! TD*
G04 #@! TO.C,D221*
X196200000Y-85050000D03*
G04 #@! TD*
M02*
