G04 #@! TF.GenerationSoftware,KiCad,Pcbnew,(6.0.1)*
G04 #@! TF.CreationDate,2022-02-20T21:27:19+09:00*
G04 #@! TF.ProjectId,kidoairaku,6b69646f-6169-4726-916b-752e6b696361,rev?*
G04 #@! TF.SameCoordinates,Original*
G04 #@! TF.FileFunction,Copper,L2,Bot*
G04 #@! TF.FilePolarity,Positive*
%FSLAX46Y46*%
G04 Gerber Fmt 4.6, Leading zero omitted, Abs format (unit mm)*
G04 Created by KiCad (PCBNEW (6.0.1)) date 2022-02-20 21:27:19*
%MOMM*%
%LPD*%
G01*
G04 APERTURE LIST*
G04 Aperture macros list*
%AMRoundRect*
0 Rectangle with rounded corners*
0 $1 Rounding radius*
0 $2 $3 $4 $5 $6 $7 $8 $9 X,Y pos of 4 corners*
0 Add a 4 corners polygon primitive as box body*
4,1,4,$2,$3,$4,$5,$6,$7,$8,$9,$2,$3,0*
0 Add four circle primitives for the rounded corners*
1,1,$1+$1,$2,$3*
1,1,$1+$1,$4,$5*
1,1,$1+$1,$6,$7*
1,1,$1+$1,$8,$9*
0 Add four rect primitives between the rounded corners*
20,1,$1+$1,$2,$3,$4,$5,0*
20,1,$1+$1,$4,$5,$6,$7,0*
20,1,$1+$1,$6,$7,$8,$9,0*
20,1,$1+$1,$8,$9,$2,$3,0*%
%AMRotRect*
0 Rectangle, with rotation*
0 The origin of the aperture is its center*
0 $1 length*
0 $2 width*
0 $3 Rotation angle, in degrees counterclockwise*
0 Add horizontal line*
21,1,$1,$2,0,0,$3*%
%AMOutline4P*
0 Free polygon, 4 corners , with rotation*
0 The origin of the aperture is its center*
0 number of corners: always 4*
0 $1 to $8 corner X, Y*
0 $9 Rotation angle, in degrees counterclockwise*
0 create outline with 4 corners*
4,1,4,$1,$2,$3,$4,$5,$6,$7,$8,$1,$2,$9*%
G04 Aperture macros list end*
G04 #@! TA.AperFunction,ComponentPad*
%ADD10R,2.000000X2.000000*%
G04 #@! TD*
G04 #@! TA.AperFunction,ComponentPad*
%ADD11C,2.000000*%
G04 #@! TD*
G04 #@! TA.AperFunction,ComponentPad*
%ADD12C,2.200000*%
G04 #@! TD*
G04 #@! TA.AperFunction,SMDPad,CuDef*
%ADD13Outline4P,-0.650000X-0.410000X0.650000X-0.410000X0.350000X0.410000X-0.350000X0.410000X0.000000*%
G04 #@! TD*
G04 #@! TA.AperFunction,SMDPad,CuDef*
%ADD14Outline4P,-0.350000X-0.410000X0.350000X-0.410000X0.650000X0.410000X-0.650000X0.410000X180.000000*%
G04 #@! TD*
G04 #@! TA.AperFunction,SMDPad,CuDef*
%ADD15Outline4P,-0.650000X-0.410000X0.650000X-0.410000X0.350000X0.410000X-0.350000X0.410000X180.000000*%
G04 #@! TD*
G04 #@! TA.AperFunction,SMDPad,CuDef*
%ADD16Outline4P,-0.350000X-0.410000X0.350000X-0.410000X0.650000X0.410000X-0.650000X0.410000X0.000000*%
G04 #@! TD*
G04 #@! TA.AperFunction,SMDPad,CuDef*
%ADD17Outline4P,-0.650000X-0.410000X0.650000X-0.410000X0.350000X0.410000X-0.350000X0.410000X315.000000*%
G04 #@! TD*
G04 #@! TA.AperFunction,SMDPad,CuDef*
%ADD18Outline4P,-0.350000X-0.410000X0.350000X-0.410000X0.650000X0.410000X-0.650000X0.410000X135.000000*%
G04 #@! TD*
G04 #@! TA.AperFunction,SMDPad,CuDef*
%ADD19Outline4P,-0.650000X-0.410000X0.650000X-0.410000X0.350000X0.410000X-0.350000X0.410000X135.000000*%
G04 #@! TD*
G04 #@! TA.AperFunction,SMDPad,CuDef*
%ADD20Outline4P,-0.350000X-0.410000X0.350000X-0.410000X0.650000X0.410000X-0.650000X0.410000X315.000000*%
G04 #@! TD*
G04 #@! TA.AperFunction,SMDPad,CuDef*
%ADD21Outline4P,-0.650000X-0.410000X0.650000X-0.410000X0.350000X0.410000X-0.350000X0.410000X330.000000*%
G04 #@! TD*
G04 #@! TA.AperFunction,SMDPad,CuDef*
%ADD22Outline4P,-0.350000X-0.410000X0.350000X-0.410000X0.650000X0.410000X-0.650000X0.410000X150.000000*%
G04 #@! TD*
G04 #@! TA.AperFunction,SMDPad,CuDef*
%ADD23Outline4P,-0.650000X-0.410000X0.650000X-0.410000X0.350000X0.410000X-0.350000X0.410000X150.000000*%
G04 #@! TD*
G04 #@! TA.AperFunction,SMDPad,CuDef*
%ADD24Outline4P,-0.350000X-0.410000X0.350000X-0.410000X0.650000X0.410000X-0.650000X0.410000X330.000000*%
G04 #@! TD*
G04 #@! TA.AperFunction,ComponentPad*
%ADD25C,1.800000*%
G04 #@! TD*
G04 #@! TA.AperFunction,ComponentPad*
%ADD26C,1.524000*%
G04 #@! TD*
G04 #@! TA.AperFunction,SMDPad,CuDef*
%ADD27Outline4P,-0.650000X-0.410000X0.650000X-0.410000X0.350000X0.410000X-0.350000X0.410000X300.000000*%
G04 #@! TD*
G04 #@! TA.AperFunction,SMDPad,CuDef*
%ADD28Outline4P,-0.350000X-0.410000X0.350000X-0.410000X0.650000X0.410000X-0.650000X0.410000X120.000000*%
G04 #@! TD*
G04 #@! TA.AperFunction,SMDPad,CuDef*
%ADD29Outline4P,-0.650000X-0.410000X0.650000X-0.410000X0.350000X0.410000X-0.350000X0.410000X120.000000*%
G04 #@! TD*
G04 #@! TA.AperFunction,SMDPad,CuDef*
%ADD30Outline4P,-0.350000X-0.410000X0.350000X-0.410000X0.650000X0.410000X-0.650000X0.410000X300.000000*%
G04 #@! TD*
G04 #@! TA.AperFunction,SMDPad,CuDef*
%ADD31RoundRect,0.249997X0.650003X-0.412503X0.650003X0.412503X-0.650003X0.412503X-0.650003X-0.412503X0*%
G04 #@! TD*
G04 #@! TA.AperFunction,SMDPad,CuDef*
%ADD32R,1.200000X0.900000*%
G04 #@! TD*
G04 #@! TA.AperFunction,SMDPad,CuDef*
%ADD33RotRect,0.900000X1.200000X30.000000*%
G04 #@! TD*
G04 #@! TA.AperFunction,SMDPad,CuDef*
%ADD34RotRect,0.900000X1.200000X45.000000*%
G04 #@! TD*
G04 #@! TA.AperFunction,SMDPad,CuDef*
%ADD35R,0.900000X1.200000*%
G04 #@! TD*
G04 #@! TA.AperFunction,SMDPad,CuDef*
%ADD36RotRect,0.900000X1.200000X60.000000*%
G04 #@! TD*
G04 #@! TA.AperFunction,SMDPad,CuDef*
%ADD37RoundRect,0.150000X-0.587500X-0.150000X0.587500X-0.150000X0.587500X0.150000X-0.587500X0.150000X0*%
G04 #@! TD*
G04 #@! TA.AperFunction,SMDPad,CuDef*
%ADD38RoundRect,0.249999X0.625001X-0.400001X0.625001X0.400001X-0.625001X0.400001X-0.625001X-0.400001X0*%
G04 #@! TD*
G04 #@! TA.AperFunction,SMDPad,CuDef*
%ADD39RoundRect,0.250000X-0.625000X0.400000X-0.625000X-0.400000X0.625000X-0.400000X0.625000X0.400000X0*%
G04 #@! TD*
G04 #@! TA.AperFunction,SMDPad,CuDef*
%ADD40RoundRect,0.250000X-0.450000X0.325000X-0.450000X-0.325000X0.450000X-0.325000X0.450000X0.325000X0*%
G04 #@! TD*
G04 #@! TA.AperFunction,ViaPad*
%ADD41C,0.800000*%
G04 #@! TD*
G04 #@! TA.AperFunction,Conductor*
%ADD42C,0.500000*%
G04 #@! TD*
G04 #@! TA.AperFunction,Conductor*
%ADD43C,0.254000*%
G04 #@! TD*
G04 APERTURE END LIST*
D10*
G04 #@! TO.P,J51,1,Pin_1*
G04 #@! TO.N,Net-(D51-Pad2)*
X62250000Y-143250000D03*
G04 #@! TD*
D11*
G04 #@! TO.P,J52,1,Pin_1*
G04 #@! TO.N,GND*
X81534000Y-147250000D03*
G04 #@! TD*
D12*
G04 #@! TO.P,SW1,1,1*
G04 #@! TO.N,col1*
X97540000Y-85170000D03*
G04 #@! TO.P,SW1,2,2*
G04 #@! TO.N,Net-(D1-Pad2)*
X91190000Y-87710000D03*
G04 #@! TD*
G04 #@! TO.P,SW2,1,1*
G04 #@! TO.N,col2*
X116540000Y-85170000D03*
G04 #@! TO.P,SW2,2,2*
G04 #@! TO.N,Net-(D2-Pad2)*
X110190000Y-87710000D03*
G04 #@! TD*
G04 #@! TO.P,SW3,1,1*
G04 #@! TO.N,col3*
X135540000Y-85170000D03*
G04 #@! TO.P,SW3,2,2*
G04 #@! TO.N,Net-(D3-Pad2)*
X129190000Y-87710000D03*
G04 #@! TD*
G04 #@! TO.P,SW4,1,1*
G04 #@! TO.N,col4*
X154540000Y-85170000D03*
G04 #@! TO.P,SW4,2,2*
G04 #@! TO.N,Net-(D4-Pad2)*
X148190000Y-87710000D03*
G04 #@! TD*
G04 #@! TO.P,SW5,1,1*
G04 #@! TO.N,col5*
X173540000Y-85170000D03*
G04 #@! TO.P,SW5,2,2*
G04 #@! TO.N,Net-(D5-Pad2)*
X167190000Y-87710000D03*
G04 #@! TD*
G04 #@! TO.P,SW6,1,1*
G04 #@! TO.N,col6*
X192540000Y-85170000D03*
G04 #@! TO.P,SW6,2,2*
G04 #@! TO.N,Net-(D6-Pad2)*
X186190000Y-87710000D03*
G04 #@! TD*
G04 #@! TO.P,SW11,1,1*
G04 #@! TO.N,col1*
X97540000Y-104170000D03*
G04 #@! TO.P,SW11,2,2*
G04 #@! TO.N,Net-(D11-Pad2)*
X91190000Y-106710000D03*
G04 #@! TD*
G04 #@! TO.P,SW12,1,1*
G04 #@! TO.N,col2*
X116540000Y-104170000D03*
G04 #@! TO.P,SW12,2,2*
G04 #@! TO.N,Net-(D12-Pad2)*
X110190000Y-106710000D03*
G04 #@! TD*
G04 #@! TO.P,SW13,1,1*
G04 #@! TO.N,col3*
X135540000Y-104170000D03*
G04 #@! TO.P,SW13,2,2*
G04 #@! TO.N,Net-(D13-Pad2)*
X129190000Y-106710000D03*
G04 #@! TD*
G04 #@! TO.P,SW14,1,1*
G04 #@! TO.N,col4*
X154540000Y-104170000D03*
G04 #@! TO.P,SW14,2,2*
G04 #@! TO.N,Net-(D14-Pad2)*
X148190000Y-106710000D03*
G04 #@! TD*
G04 #@! TO.P,SW15,1,1*
G04 #@! TO.N,col5*
X173540000Y-104170000D03*
G04 #@! TO.P,SW15,2,2*
G04 #@! TO.N,Net-(D15-Pad2)*
X167190000Y-106710000D03*
G04 #@! TD*
G04 #@! TO.P,SW16,1,1*
G04 #@! TO.N,col6*
X192540000Y-104170000D03*
G04 #@! TO.P,SW16,2,2*
G04 #@! TO.N,Net-(D16-Pad2)*
X186190000Y-106710000D03*
G04 #@! TD*
G04 #@! TO.P,SW21,1,1*
G04 #@! TO.N,col1*
X97540000Y-123170000D03*
G04 #@! TO.P,SW21,2,2*
G04 #@! TO.N,Net-(D21-Pad2)*
X91190000Y-125710000D03*
G04 #@! TD*
G04 #@! TO.P,SW22,1,1*
G04 #@! TO.N,col2*
X116540000Y-123170000D03*
G04 #@! TO.P,SW22,2,2*
G04 #@! TO.N,Net-(D22-Pad2)*
X110190000Y-125710000D03*
G04 #@! TD*
G04 #@! TO.P,SW23,1,1*
G04 #@! TO.N,col3*
X135540000Y-123170000D03*
G04 #@! TO.P,SW23,2,2*
G04 #@! TO.N,Net-(D23-Pad2)*
X129190000Y-125710000D03*
G04 #@! TD*
G04 #@! TO.P,SW24,1,1*
G04 #@! TO.N,col4*
X154540000Y-123170000D03*
G04 #@! TO.P,SW24,2,2*
G04 #@! TO.N,Net-(D24-Pad2)*
X148190000Y-125710000D03*
G04 #@! TD*
G04 #@! TO.P,SW25,1,1*
G04 #@! TO.N,col5*
X173540000Y-123170000D03*
G04 #@! TO.P,SW25,2,2*
G04 #@! TO.N,Net-(D25-Pad2)*
X167190000Y-125710000D03*
G04 #@! TD*
G04 #@! TO.P,SW26,1,1*
G04 #@! TO.N,col6*
X192540000Y-123170000D03*
G04 #@! TO.P,SW26,2,2*
G04 #@! TO.N,Net-(D26-Pad2)*
X186190000Y-125710000D03*
G04 #@! TD*
G04 #@! TO.P,SW31,1,1*
G04 #@! TO.N,col1*
X97540000Y-142170000D03*
G04 #@! TO.P,SW31,2,2*
G04 #@! TO.N,Net-(D31-Pad2)*
X91190000Y-144710000D03*
G04 #@! TD*
G04 #@! TO.P,SW32,1,1*
G04 #@! TO.N,col2*
X116540000Y-142170000D03*
G04 #@! TO.P,SW32,2,2*
G04 #@! TO.N,Net-(D32-Pad2)*
X110190000Y-144710000D03*
G04 #@! TD*
G04 #@! TO.P,SW33,1,1*
G04 #@! TO.N,col3*
X135540000Y-142170000D03*
G04 #@! TO.P,SW33,2,2*
G04 #@! TO.N,Net-(D33-Pad2)*
X129190000Y-144710000D03*
G04 #@! TD*
G04 #@! TO.P,SW34,1,1*
G04 #@! TO.N,col4*
X154540000Y-142170000D03*
G04 #@! TO.P,SW34,2,2*
G04 #@! TO.N,Net-(D34-Pad2)*
X148190000Y-144710000D03*
G04 #@! TD*
G04 #@! TO.P,SW35,1,1*
G04 #@! TO.N,col5*
X173540000Y-142170000D03*
G04 #@! TO.P,SW35,2,2*
G04 #@! TO.N,Net-(D35-Pad2)*
X167190000Y-144710000D03*
G04 #@! TD*
G04 #@! TO.P,SW36,1,1*
G04 #@! TO.N,col6*
X192540000Y-142170000D03*
G04 #@! TO.P,SW36,2,2*
G04 #@! TO.N,Net-(D36-Pad2)*
X186190000Y-144710000D03*
G04 #@! TD*
D13*
G04 #@! TO.P,D101,1,DOUT*
G04 #@! TO.N,Net-(D101-Pad1)*
X184200000Y-84750000D03*
D14*
G04 #@! TO.P,D101,2,VSS*
G04 #@! TO.N,GND*
X189800000Y-84750000D03*
D15*
G04 #@! TO.P,D101,3,DIN*
G04 #@! TO.N,Net-(D101-Pad3)*
X189800000Y-83250000D03*
D16*
G04 #@! TO.P,D101,4,VDD*
G04 #@! TO.N,VDD*
X184200000Y-83250000D03*
G04 #@! TD*
D13*
G04 #@! TO.P,D102,1,DOUT*
G04 #@! TO.N,Net-(D102-Pad1)*
X176200000Y-84750000D03*
D14*
G04 #@! TO.P,D102,2,VSS*
G04 #@! TO.N,GND*
X181800000Y-84750000D03*
D15*
G04 #@! TO.P,D102,3,DIN*
G04 #@! TO.N,Net-(D101-Pad1)*
X181800000Y-83250000D03*
D16*
G04 #@! TO.P,D102,4,VDD*
G04 #@! TO.N,VDD*
X176200000Y-83250000D03*
G04 #@! TD*
D13*
G04 #@! TO.P,D103,1,DOUT*
G04 #@! TO.N,Net-(D103-Pad1)*
X165200000Y-84750000D03*
D14*
G04 #@! TO.P,D103,2,VSS*
G04 #@! TO.N,GND*
X170800000Y-84750000D03*
D15*
G04 #@! TO.P,D103,3,DIN*
G04 #@! TO.N,Net-(D102-Pad1)*
X170800000Y-83250000D03*
D16*
G04 #@! TO.P,D103,4,VDD*
G04 #@! TO.N,VDD*
X165200000Y-83250000D03*
G04 #@! TD*
D13*
G04 #@! TO.P,D104,1,DOUT*
G04 #@! TO.N,Net-(D104-Pad1)*
X157200000Y-84750000D03*
D14*
G04 #@! TO.P,D104,2,VSS*
G04 #@! TO.N,GND*
X162800000Y-84750000D03*
D15*
G04 #@! TO.P,D104,3,DIN*
G04 #@! TO.N,Net-(D103-Pad1)*
X162800000Y-83250000D03*
D16*
G04 #@! TO.P,D104,4,VDD*
G04 #@! TO.N,VDD*
X157200000Y-83250000D03*
G04 #@! TD*
D13*
G04 #@! TO.P,D105,1,DOUT*
G04 #@! TO.N,Net-(D105-Pad1)*
X146200000Y-84750000D03*
D14*
G04 #@! TO.P,D105,2,VSS*
G04 #@! TO.N,GND*
X151800000Y-84750000D03*
D15*
G04 #@! TO.P,D105,3,DIN*
G04 #@! TO.N,Net-(D104-Pad1)*
X151800000Y-83250000D03*
D16*
G04 #@! TO.P,D105,4,VDD*
G04 #@! TO.N,VDD*
X146200000Y-83250000D03*
G04 #@! TD*
D13*
G04 #@! TO.P,D106,1,DOUT*
G04 #@! TO.N,Net-(D106-Pad1)*
X138200000Y-84750000D03*
D14*
G04 #@! TO.P,D106,2,VSS*
G04 #@! TO.N,GND*
X143800000Y-84750000D03*
D15*
G04 #@! TO.P,D106,3,DIN*
G04 #@! TO.N,Net-(D105-Pad1)*
X143800000Y-83250000D03*
D16*
G04 #@! TO.P,D106,4,VDD*
G04 #@! TO.N,VDD*
X138200000Y-83250000D03*
G04 #@! TD*
D13*
G04 #@! TO.P,D107,1,DOUT*
G04 #@! TO.N,Net-(D107-Pad1)*
X127200000Y-84750000D03*
D14*
G04 #@! TO.P,D107,2,VSS*
G04 #@! TO.N,GND*
X132800000Y-84750000D03*
D15*
G04 #@! TO.P,D107,3,DIN*
G04 #@! TO.N,Net-(D106-Pad1)*
X132800000Y-83250000D03*
D16*
G04 #@! TO.P,D107,4,VDD*
G04 #@! TO.N,VDD*
X127200000Y-83250000D03*
G04 #@! TD*
D13*
G04 #@! TO.P,D108,1,DOUT*
G04 #@! TO.N,Net-(D108-Pad1)*
X119200000Y-84750000D03*
D14*
G04 #@! TO.P,D108,2,VSS*
G04 #@! TO.N,GND*
X124800000Y-84750000D03*
D15*
G04 #@! TO.P,D108,3,DIN*
G04 #@! TO.N,Net-(D107-Pad1)*
X124800000Y-83250000D03*
D16*
G04 #@! TO.P,D108,4,VDD*
G04 #@! TO.N,VDD*
X119200000Y-83250000D03*
G04 #@! TD*
D13*
G04 #@! TO.P,D109,1,DOUT*
G04 #@! TO.N,Net-(D109-Pad1)*
X108200000Y-84750000D03*
D14*
G04 #@! TO.P,D109,2,VSS*
G04 #@! TO.N,GND*
X113800000Y-84750000D03*
D15*
G04 #@! TO.P,D109,3,DIN*
G04 #@! TO.N,Net-(D108-Pad1)*
X113800000Y-83250000D03*
D16*
G04 #@! TO.P,D109,4,VDD*
G04 #@! TO.N,VDD*
X108200000Y-83250000D03*
G04 #@! TD*
D13*
G04 #@! TO.P,D110,1,DOUT*
G04 #@! TO.N,Net-(D110-Pad1)*
X100200000Y-84750000D03*
D14*
G04 #@! TO.P,D110,2,VSS*
G04 #@! TO.N,GND*
X105800000Y-84750000D03*
D15*
G04 #@! TO.P,D110,3,DIN*
G04 #@! TO.N,Net-(D109-Pad1)*
X105800000Y-83250000D03*
D16*
G04 #@! TO.P,D110,4,VDD*
G04 #@! TO.N,VDD*
X100200000Y-83250000D03*
G04 #@! TD*
D13*
G04 #@! TO.P,D111,1,DOUT*
G04 #@! TO.N,Net-(D111-Pad1)*
X89200000Y-84750000D03*
D14*
G04 #@! TO.P,D111,2,VSS*
G04 #@! TO.N,GND*
X94800000Y-84750000D03*
D15*
G04 #@! TO.P,D111,3,DIN*
G04 #@! TO.N,Net-(D110-Pad1)*
X94800000Y-83250000D03*
D16*
G04 #@! TO.P,D111,4,VDD*
G04 #@! TO.N,VDD*
X89200000Y-83250000D03*
G04 #@! TD*
D13*
G04 #@! TO.P,D112,1,DOUT*
G04 #@! TO.N,Net-(D112-Pad1)*
X191900000Y-96000000D03*
D14*
G04 #@! TO.P,D112,2,VSS*
G04 #@! TO.N,GND*
X197500000Y-96000000D03*
D15*
G04 #@! TO.P,D112,3,DIN*
G04 #@! TO.N,Net-(D111-Pad1)*
X197500000Y-94500000D03*
D16*
G04 #@! TO.P,D112,4,VDD*
G04 #@! TO.N,VDD*
X191900000Y-94500000D03*
G04 #@! TD*
D13*
G04 #@! TO.P,D113,1,DOUT*
G04 #@! TO.N,Net-(D113-Pad1)*
X182200000Y-96350000D03*
D14*
G04 #@! TO.P,D113,2,VSS*
G04 #@! TO.N,GND*
X187800000Y-96350000D03*
D15*
G04 #@! TO.P,D113,3,DIN*
G04 #@! TO.N,Net-(D112-Pad1)*
X187800000Y-94850000D03*
D16*
G04 #@! TO.P,D113,4,VDD*
G04 #@! TO.N,VDD*
X182200000Y-94850000D03*
G04 #@! TD*
D13*
G04 #@! TO.P,D114,1,DOUT*
G04 #@! TO.N,Net-(D114-Pad1)*
X172100000Y-96100000D03*
D14*
G04 #@! TO.P,D114,2,VSS*
G04 #@! TO.N,GND*
X177700000Y-96100000D03*
D15*
G04 #@! TO.P,D114,3,DIN*
G04 #@! TO.N,Net-(D113-Pad1)*
X177700000Y-94600000D03*
D16*
G04 #@! TO.P,D114,4,VDD*
G04 #@! TO.N,VDD*
X172100000Y-94600000D03*
G04 #@! TD*
D13*
G04 #@! TO.P,D115,1,DOUT*
G04 #@! TO.N,Net-(D115-Pad1)*
X163200000Y-96850000D03*
D14*
G04 #@! TO.P,D115,2,VSS*
G04 #@! TO.N,GND*
X168800000Y-96850000D03*
D15*
G04 #@! TO.P,D115,3,DIN*
G04 #@! TO.N,Net-(D114-Pad1)*
X168800000Y-95350000D03*
D16*
G04 #@! TO.P,D115,4,VDD*
G04 #@! TO.N,VDD*
X163200000Y-95350000D03*
G04 #@! TD*
D13*
G04 #@! TO.P,D116,1,DOUT*
G04 #@! TO.N,Net-(D116-Pad1)*
X152900000Y-96250000D03*
D14*
G04 #@! TO.P,D116,2,VSS*
G04 #@! TO.N,GND*
X158500000Y-96250000D03*
D15*
G04 #@! TO.P,D116,3,DIN*
G04 #@! TO.N,Net-(D115-Pad1)*
X158500000Y-94750000D03*
D16*
G04 #@! TO.P,D116,4,VDD*
G04 #@! TO.N,VDD*
X152900000Y-94750000D03*
G04 #@! TD*
D13*
G04 #@! TO.P,D117,1,DOUT*
G04 #@! TO.N,Net-(D117-Pad1)*
X144200000Y-96850000D03*
D14*
G04 #@! TO.P,D117,2,VSS*
G04 #@! TO.N,GND*
X149800000Y-96850000D03*
D15*
G04 #@! TO.P,D117,3,DIN*
G04 #@! TO.N,Net-(D116-Pad1)*
X149800000Y-95350000D03*
D16*
G04 #@! TO.P,D117,4,VDD*
G04 #@! TO.N,VDD*
X144200000Y-95350000D03*
G04 #@! TD*
D13*
G04 #@! TO.P,D118,1,DOUT*
G04 #@! TO.N,Net-(D118-Pad1)*
X133800000Y-96450000D03*
D14*
G04 #@! TO.P,D118,2,VSS*
G04 #@! TO.N,GND*
X139400000Y-96450000D03*
D15*
G04 #@! TO.P,D118,3,DIN*
G04 #@! TO.N,Net-(D117-Pad1)*
X139400000Y-94950000D03*
D16*
G04 #@! TO.P,D118,4,VDD*
G04 #@! TO.N,VDD*
X133800000Y-94950000D03*
G04 #@! TD*
D13*
G04 #@! TO.P,D119,1,DOUT*
G04 #@! TO.N,Net-(D119-Pad1)*
X125200000Y-96850000D03*
D14*
G04 #@! TO.P,D119,2,VSS*
G04 #@! TO.N,GND*
X130800000Y-96850000D03*
D15*
G04 #@! TO.P,D119,3,DIN*
G04 #@! TO.N,Net-(D118-Pad1)*
X130800000Y-95350000D03*
D16*
G04 #@! TO.P,D119,4,VDD*
G04 #@! TO.N,VDD*
X125200000Y-95350000D03*
G04 #@! TD*
D13*
G04 #@! TO.P,D120,1,DOUT*
G04 #@! TO.N,Net-(D120-Pad1)*
X115100000Y-96200000D03*
D14*
G04 #@! TO.P,D120,2,VSS*
G04 #@! TO.N,GND*
X120700000Y-96200000D03*
D15*
G04 #@! TO.P,D120,3,DIN*
G04 #@! TO.N,Net-(D119-Pad1)*
X120700000Y-94700000D03*
D16*
G04 #@! TO.P,D120,4,VDD*
G04 #@! TO.N,VDD*
X115100000Y-94700000D03*
G04 #@! TD*
D13*
G04 #@! TO.P,D121,1,DOUT*
G04 #@! TO.N,Net-(D121-Pad1)*
X105200000Y-96850000D03*
D14*
G04 #@! TO.P,D121,2,VSS*
G04 #@! TO.N,GND*
X110800000Y-96850000D03*
D15*
G04 #@! TO.P,D121,3,DIN*
G04 #@! TO.N,Net-(D120-Pad1)*
X110800000Y-95350000D03*
D16*
G04 #@! TO.P,D121,4,VDD*
G04 #@! TO.N,VDD*
X105200000Y-95350000D03*
G04 #@! TD*
D13*
G04 #@! TO.P,D122,1,DOUT*
G04 #@! TO.N,Net-(D122-Pad1)*
X95200000Y-96250000D03*
D14*
G04 #@! TO.P,D122,2,VSS*
G04 #@! TO.N,GND*
X100800000Y-96250000D03*
D15*
G04 #@! TO.P,D122,3,DIN*
G04 #@! TO.N,Net-(D121-Pad1)*
X100800000Y-94750000D03*
D16*
G04 #@! TO.P,D122,4,VDD*
G04 #@! TO.N,VDD*
X95200000Y-94750000D03*
G04 #@! TD*
D13*
G04 #@! TO.P,D123,1,DOUT*
G04 #@! TO.N,Net-(D123-Pad1)*
X87200000Y-96250000D03*
D14*
G04 #@! TO.P,D123,2,VSS*
G04 #@! TO.N,GND*
X92800000Y-96250000D03*
D15*
G04 #@! TO.P,D123,3,DIN*
G04 #@! TO.N,Net-(D122-Pad1)*
X92800000Y-94750000D03*
D16*
G04 #@! TO.P,D123,4,VDD*
G04 #@! TO.N,VDD*
X87200000Y-94750000D03*
G04 #@! TD*
D13*
G04 #@! TO.P,D124,1,DOUT*
G04 #@! TO.N,Net-(D124-Pad1)*
X184200000Y-102950000D03*
D14*
G04 #@! TO.P,D124,2,VSS*
G04 #@! TO.N,GND*
X189800000Y-102950000D03*
D15*
G04 #@! TO.P,D124,3,DIN*
G04 #@! TO.N,Net-(D124-Pad3)*
X189800000Y-101450000D03*
D16*
G04 #@! TO.P,D124,4,VDD*
G04 #@! TO.N,VDD*
X184200000Y-101450000D03*
G04 #@! TD*
D17*
G04 #@! TO.P,D125,1,DOUT*
G04 #@! TO.N,Net-(D125-Pad1)*
X175289771Y-101050431D03*
D18*
G04 #@! TO.P,D125,2,VSS*
G04 #@! TO.N,GND*
X179249569Y-105010229D03*
D19*
G04 #@! TO.P,D125,3,DIN*
G04 #@! TO.N,Net-(D124-Pad1)*
X180310229Y-103949569D03*
D20*
G04 #@! TO.P,D125,4,VDD*
G04 #@! TO.N,VDD*
X176350431Y-99989771D03*
G04 #@! TD*
D13*
G04 #@! TO.P,D126,1,DOUT*
G04 #@! TO.N,Net-(D126-Pad1)*
X167800000Y-101750000D03*
D14*
G04 #@! TO.P,D126,2,VSS*
G04 #@! TO.N,GND*
X173400000Y-101750000D03*
D15*
G04 #@! TO.P,D126,3,DIN*
G04 #@! TO.N,Net-(D125-Pad1)*
X173400000Y-100250000D03*
D16*
G04 #@! TO.P,D126,4,VDD*
G04 #@! TO.N,VDD*
X167800000Y-100250000D03*
G04 #@! TD*
D13*
G04 #@! TO.P,D127,1,DOUT*
G04 #@! TO.N,Net-(D127-Pad1)*
X157600000Y-102350000D03*
D14*
G04 #@! TO.P,D127,2,VSS*
G04 #@! TO.N,GND*
X163200000Y-102350000D03*
D15*
G04 #@! TO.P,D127,3,DIN*
G04 #@! TO.N,Net-(D126-Pad1)*
X163200000Y-100850000D03*
D16*
G04 #@! TO.P,D127,4,VDD*
G04 #@! TO.N,VDD*
X157600000Y-100850000D03*
G04 #@! TD*
D13*
G04 #@! TO.P,D128,1,DOUT*
G04 #@! TO.N,Net-(D128-Pad1)*
X148900000Y-101850000D03*
D14*
G04 #@! TO.P,D128,2,VSS*
G04 #@! TO.N,GND*
X154500000Y-101850000D03*
D15*
G04 #@! TO.P,D128,3,DIN*
G04 #@! TO.N,Net-(D127-Pad1)*
X154500000Y-100350000D03*
D16*
G04 #@! TO.P,D128,4,VDD*
G04 #@! TO.N,VDD*
X148900000Y-100350000D03*
G04 #@! TD*
D13*
G04 #@! TO.P,D129,1,DOUT*
G04 #@! TO.N,Net-(D129-Pad1)*
X138900000Y-102450000D03*
D14*
G04 #@! TO.P,D129,2,VSS*
G04 #@! TO.N,GND*
X144500000Y-102450000D03*
D15*
G04 #@! TO.P,D129,3,DIN*
G04 #@! TO.N,Net-(D128-Pad1)*
X144500000Y-100950000D03*
D16*
G04 #@! TO.P,D129,4,VDD*
G04 #@! TO.N,VDD*
X138900000Y-100950000D03*
G04 #@! TD*
D13*
G04 #@! TO.P,D130,1,DOUT*
G04 #@! TO.N,Net-(D130-Pad1)*
X129600000Y-102050000D03*
D14*
G04 #@! TO.P,D130,2,VSS*
G04 #@! TO.N,GND*
X135200000Y-102050000D03*
D15*
G04 #@! TO.P,D130,3,DIN*
G04 #@! TO.N,Net-(D129-Pad1)*
X135200000Y-100550000D03*
D16*
G04 #@! TO.P,D130,4,VDD*
G04 #@! TO.N,VDD*
X129600000Y-100550000D03*
G04 #@! TD*
D13*
G04 #@! TO.P,D131,1,DOUT*
G04 #@! TO.N,Net-(D131-Pad1)*
X119600000Y-102750000D03*
D14*
G04 #@! TO.P,D131,2,VSS*
G04 #@! TO.N,GND*
X125200000Y-102750000D03*
D15*
G04 #@! TO.P,D131,3,DIN*
G04 #@! TO.N,Net-(D130-Pad1)*
X125200000Y-101250000D03*
D16*
G04 #@! TO.P,D131,4,VDD*
G04 #@! TO.N,VDD*
X119600000Y-101250000D03*
G04 #@! TD*
D13*
G04 #@! TO.P,D132,1,DOUT*
G04 #@! TO.N,Net-(D132-Pad1)*
X109800000Y-102000000D03*
D14*
G04 #@! TO.P,D132,2,VSS*
G04 #@! TO.N,GND*
X115400000Y-102000000D03*
D15*
G04 #@! TO.P,D132,3,DIN*
G04 #@! TO.N,Net-(D131-Pad1)*
X115400000Y-100500000D03*
D16*
G04 #@! TO.P,D132,4,VDD*
G04 #@! TO.N,VDD*
X109800000Y-100500000D03*
G04 #@! TD*
D13*
G04 #@! TO.P,D133,1,DOUT*
G04 #@! TO.N,Net-(D133-Pad1)*
X100500000Y-102450000D03*
D14*
G04 #@! TO.P,D133,2,VSS*
G04 #@! TO.N,GND*
X106100000Y-102450000D03*
D15*
G04 #@! TO.P,D133,3,DIN*
G04 #@! TO.N,Net-(D132-Pad1)*
X106100000Y-100950000D03*
D16*
G04 #@! TO.P,D133,4,VDD*
G04 #@! TO.N,VDD*
X100500000Y-100950000D03*
G04 #@! TD*
D13*
G04 #@! TO.P,D134,1,DOUT*
G04 #@! TO.N,Net-(D134-Pad1)*
X88700000Y-103000000D03*
D14*
G04 #@! TO.P,D134,2,VSS*
G04 #@! TO.N,GND*
X94300000Y-103000000D03*
D15*
G04 #@! TO.P,D134,3,DIN*
G04 #@! TO.N,Net-(D133-Pad1)*
X94300000Y-101500000D03*
D16*
G04 #@! TO.P,D134,4,VDD*
G04 #@! TO.N,VDD*
X88700000Y-101500000D03*
G04 #@! TD*
D13*
G04 #@! TO.P,D135,1,DOUT*
G04 #@! TO.N,Net-(D135-Pad1)*
X191450000Y-115500000D03*
D14*
G04 #@! TO.P,D135,2,VSS*
G04 #@! TO.N,GND*
X197050000Y-115500000D03*
D15*
G04 #@! TO.P,D135,3,DIN*
G04 #@! TO.N,Net-(D134-Pad1)*
X197050000Y-114000000D03*
D16*
G04 #@! TO.P,D135,4,VDD*
G04 #@! TO.N,VDD*
X191450000Y-114000000D03*
G04 #@! TD*
D13*
G04 #@! TO.P,D136,1,DOUT*
G04 #@! TO.N,Net-(D136-Pad1)*
X182950000Y-115500000D03*
D14*
G04 #@! TO.P,D136,2,VSS*
G04 #@! TO.N,GND*
X188550000Y-115500000D03*
D15*
G04 #@! TO.P,D136,3,DIN*
G04 #@! TO.N,Net-(D135-Pad1)*
X188550000Y-114000000D03*
D16*
G04 #@! TO.P,D136,4,VDD*
G04 #@! TO.N,VDD*
X182950000Y-114000000D03*
G04 #@! TD*
D13*
G04 #@! TO.P,D137,1,DOUT*
G04 #@! TO.N,Net-(D137-Pad1)*
X171600000Y-114250000D03*
D14*
G04 #@! TO.P,D137,2,VSS*
G04 #@! TO.N,GND*
X177200000Y-114250000D03*
D15*
G04 #@! TO.P,D137,3,DIN*
G04 #@! TO.N,Net-(D136-Pad1)*
X177200000Y-112750000D03*
D16*
G04 #@! TO.P,D137,4,VDD*
G04 #@! TO.N,VDD*
X171600000Y-112750000D03*
G04 #@! TD*
D13*
G04 #@! TO.P,D138,1,DOUT*
G04 #@! TO.N,Net-(D138-Pad1)*
X162600000Y-114550000D03*
D14*
G04 #@! TO.P,D138,2,VSS*
G04 #@! TO.N,GND*
X168200000Y-114550000D03*
D15*
G04 #@! TO.P,D138,3,DIN*
G04 #@! TO.N,Net-(D137-Pad1)*
X168200000Y-113050000D03*
D16*
G04 #@! TO.P,D138,4,VDD*
G04 #@! TO.N,VDD*
X162600000Y-113050000D03*
G04 #@! TD*
D13*
G04 #@! TO.P,D139,1,DOUT*
G04 #@! TO.N,Net-(D139-Pad1)*
X152700000Y-114850000D03*
D14*
G04 #@! TO.P,D139,2,VSS*
G04 #@! TO.N,GND*
X158300000Y-114850000D03*
D15*
G04 #@! TO.P,D139,3,DIN*
G04 #@! TO.N,Net-(D138-Pad1)*
X158300000Y-113350000D03*
D16*
G04 #@! TO.P,D139,4,VDD*
G04 #@! TO.N,VDD*
X152700000Y-113350000D03*
G04 #@! TD*
D13*
G04 #@! TO.P,D140,1,DOUT*
G04 #@! TO.N,Net-(D140-Pad1)*
X144100000Y-115000000D03*
D14*
G04 #@! TO.P,D140,2,VSS*
G04 #@! TO.N,GND*
X149700000Y-115000000D03*
D15*
G04 #@! TO.P,D140,3,DIN*
G04 #@! TO.N,Net-(D139-Pad1)*
X149700000Y-113500000D03*
D16*
G04 #@! TO.P,D140,4,VDD*
G04 #@! TO.N,VDD*
X144100000Y-113500000D03*
G04 #@! TD*
D13*
G04 #@! TO.P,D141,1,DOUT*
G04 #@! TO.N,Net-(D141-Pad1)*
X133300000Y-115200000D03*
D14*
G04 #@! TO.P,D141,2,VSS*
G04 #@! TO.N,GND*
X138900000Y-115200000D03*
D15*
G04 #@! TO.P,D141,3,DIN*
G04 #@! TO.N,Net-(D140-Pad1)*
X138900000Y-113700000D03*
D16*
G04 #@! TO.P,D141,4,VDD*
G04 #@! TO.N,VDD*
X133300000Y-113700000D03*
G04 #@! TD*
D13*
G04 #@! TO.P,D142,1,DOUT*
G04 #@! TO.N,Net-(D142-Pad1)*
X125200000Y-115050000D03*
D14*
G04 #@! TO.P,D142,2,VSS*
G04 #@! TO.N,GND*
X130800000Y-115050000D03*
D15*
G04 #@! TO.P,D142,3,DIN*
G04 #@! TO.N,Net-(D141-Pad1)*
X130800000Y-113550000D03*
D16*
G04 #@! TO.P,D142,4,VDD*
G04 #@! TO.N,VDD*
X125200000Y-113550000D03*
G04 #@! TD*
D13*
G04 #@! TO.P,D143,1,DOUT*
G04 #@! TO.N,Net-(D143-Pad1)*
X114700000Y-114750000D03*
D14*
G04 #@! TO.P,D143,2,VSS*
G04 #@! TO.N,GND*
X120300000Y-114750000D03*
D15*
G04 #@! TO.P,D143,3,DIN*
G04 #@! TO.N,Net-(D142-Pad1)*
X120300000Y-113250000D03*
D16*
G04 #@! TO.P,D143,4,VDD*
G04 #@! TO.N,VDD*
X114700000Y-113250000D03*
G04 #@! TD*
D13*
G04 #@! TO.P,D144,1,DOUT*
G04 #@! TO.N,Net-(D144-Pad1)*
X106600000Y-115050000D03*
D14*
G04 #@! TO.P,D144,2,VSS*
G04 #@! TO.N,GND*
X112200000Y-115050000D03*
D15*
G04 #@! TO.P,D144,3,DIN*
G04 #@! TO.N,Net-(D143-Pad1)*
X112200000Y-113550000D03*
D16*
G04 #@! TO.P,D144,4,VDD*
G04 #@! TO.N,VDD*
X106600000Y-113550000D03*
G04 #@! TD*
D13*
G04 #@! TO.P,D145,1,DOUT*
G04 #@! TO.N,Net-(D145-Pad1)*
X95900000Y-114700000D03*
D14*
G04 #@! TO.P,D145,2,VSS*
G04 #@! TO.N,GND*
X101500000Y-114700000D03*
D15*
G04 #@! TO.P,D145,3,DIN*
G04 #@! TO.N,Net-(D144-Pad1)*
X101500000Y-113200000D03*
D16*
G04 #@! TO.P,D145,4,VDD*
G04 #@! TO.N,VDD*
X95900000Y-113200000D03*
G04 #@! TD*
D13*
G04 #@! TO.P,D146,1,DOUT*
G04 #@! TO.N,Net-(D146-Pad1)*
X87200000Y-115500000D03*
D14*
G04 #@! TO.P,D146,2,VSS*
G04 #@! TO.N,GND*
X92800000Y-115500000D03*
D15*
G04 #@! TO.P,D146,3,DIN*
G04 #@! TO.N,Net-(D145-Pad1)*
X92800000Y-114000000D03*
D16*
G04 #@! TO.P,D146,4,VDD*
G04 #@! TO.N,VDD*
X87200000Y-114000000D03*
G04 #@! TD*
D13*
G04 #@! TO.P,D147,1,DOUT*
G04 #@! TO.N,Net-(D147-Pad1)*
X192250000Y-121000000D03*
D14*
G04 #@! TO.P,D147,2,VSS*
G04 #@! TO.N,GND*
X197850000Y-121000000D03*
D15*
G04 #@! TO.P,D147,3,DIN*
G04 #@! TO.N,Net-(D147-Pad3)*
X197850000Y-119500000D03*
D16*
G04 #@! TO.P,D147,4,VDD*
G04 #@! TO.N,VDD*
X192250000Y-119500000D03*
G04 #@! TD*
D13*
G04 #@! TO.P,D148,1,DOUT*
G04 #@! TO.N,Net-(D148-Pad1)*
X176000000Y-124450000D03*
D14*
G04 #@! TO.P,D148,2,VSS*
G04 #@! TO.N,GND*
X181600000Y-124450000D03*
D15*
G04 #@! TO.P,D148,3,DIN*
G04 #@! TO.N,Net-(D148-Pad3)*
X181600000Y-122950000D03*
D16*
G04 #@! TO.P,D148,4,VDD*
G04 #@! TO.N,VDD*
X176000000Y-122950000D03*
G04 #@! TD*
D13*
G04 #@! TO.P,D149,1,DOUT*
G04 #@! TO.N,Net-(D149-Pad1)*
X165200000Y-121950000D03*
D14*
G04 #@! TO.P,D149,2,VSS*
G04 #@! TO.N,GND*
X170800000Y-121950000D03*
D15*
G04 #@! TO.P,D149,3,DIN*
G04 #@! TO.N,Net-(D148-Pad1)*
X170800000Y-120450000D03*
D16*
G04 #@! TO.P,D149,4,VDD*
G04 #@! TO.N,VDD*
X165200000Y-120450000D03*
G04 #@! TD*
D13*
G04 #@! TO.P,D150,1,DOUT*
G04 #@! TO.N,Net-(D150-Pad1)*
X156900000Y-123950000D03*
D14*
G04 #@! TO.P,D150,2,VSS*
G04 #@! TO.N,GND*
X162500000Y-123950000D03*
D15*
G04 #@! TO.P,D150,3,DIN*
G04 #@! TO.N,Net-(D149-Pad1)*
X162500000Y-122450000D03*
D16*
G04 #@! TO.P,D150,4,VDD*
G04 #@! TO.N,VDD*
X156900000Y-122450000D03*
G04 #@! TD*
D13*
G04 #@! TO.P,D151,1,DOUT*
G04 #@! TO.N,Net-(D151-Pad1)*
X146300000Y-121950000D03*
D14*
G04 #@! TO.P,D151,2,VSS*
G04 #@! TO.N,GND*
X151900000Y-121950000D03*
D15*
G04 #@! TO.P,D151,3,DIN*
G04 #@! TO.N,Net-(D150-Pad1)*
X151900000Y-120450000D03*
D16*
G04 #@! TO.P,D151,4,VDD*
G04 #@! TO.N,VDD*
X146300000Y-120450000D03*
G04 #@! TD*
D13*
G04 #@! TO.P,D152,1,DOUT*
G04 #@! TO.N,Net-(D152-Pad1)*
X138000000Y-124150000D03*
D14*
G04 #@! TO.P,D152,2,VSS*
G04 #@! TO.N,GND*
X143600000Y-124150000D03*
D15*
G04 #@! TO.P,D152,3,DIN*
G04 #@! TO.N,Net-(D151-Pad1)*
X143600000Y-122650000D03*
D16*
G04 #@! TO.P,D152,4,VDD*
G04 #@! TO.N,VDD*
X138000000Y-122650000D03*
G04 #@! TD*
D13*
G04 #@! TO.P,D153,1,DOUT*
G04 #@! TO.N,Net-(D153-Pad1)*
X127450000Y-122150000D03*
D14*
G04 #@! TO.P,D153,2,VSS*
G04 #@! TO.N,GND*
X133050000Y-122150000D03*
D15*
G04 #@! TO.P,D153,3,DIN*
G04 #@! TO.N,Net-(D152-Pad1)*
X133050000Y-120650000D03*
D16*
G04 #@! TO.P,D153,4,VDD*
G04 #@! TO.N,VDD*
X127450000Y-120650000D03*
G04 #@! TD*
D13*
G04 #@! TO.P,D154,1,DOUT*
G04 #@! TO.N,Net-(D154-Pad1)*
X118900000Y-124150000D03*
D14*
G04 #@! TO.P,D154,2,VSS*
G04 #@! TO.N,GND*
X124500000Y-124150000D03*
D15*
G04 #@! TO.P,D154,3,DIN*
G04 #@! TO.N,Net-(D153-Pad1)*
X124500000Y-122650000D03*
D16*
G04 #@! TO.P,D154,4,VDD*
G04 #@! TO.N,VDD*
X118900000Y-122650000D03*
G04 #@! TD*
D13*
G04 #@! TO.P,D155,1,DOUT*
G04 #@! TO.N,Net-(D155-Pad1)*
X107600000Y-122150000D03*
D14*
G04 #@! TO.P,D155,2,VSS*
G04 #@! TO.N,GND*
X113200000Y-122150000D03*
D15*
G04 #@! TO.P,D155,3,DIN*
G04 #@! TO.N,Net-(D154-Pad1)*
X113200000Y-120650000D03*
D16*
G04 #@! TO.P,D155,4,VDD*
G04 #@! TO.N,VDD*
X107600000Y-120650000D03*
G04 #@! TD*
D13*
G04 #@! TO.P,D156,1,DOUT*
G04 #@! TO.N,Net-(D156-Pad1)*
X100000000Y-124450000D03*
D14*
G04 #@! TO.P,D156,2,VSS*
G04 #@! TO.N,GND*
X105600000Y-124450000D03*
D15*
G04 #@! TO.P,D156,3,DIN*
G04 #@! TO.N,Net-(D155-Pad1)*
X105600000Y-122950000D03*
D16*
G04 #@! TO.P,D156,4,VDD*
G04 #@! TO.N,VDD*
X100000000Y-122950000D03*
G04 #@! TD*
D13*
G04 #@! TO.P,D157,1,DOUT*
G04 #@! TO.N,Net-(D157-Pad1)*
X89200000Y-122000000D03*
D14*
G04 #@! TO.P,D157,2,VSS*
G04 #@! TO.N,GND*
X94800000Y-122000000D03*
D15*
G04 #@! TO.P,D157,3,DIN*
G04 #@! TO.N,Net-(D156-Pad1)*
X94800000Y-120500000D03*
D16*
G04 #@! TO.P,D157,4,VDD*
G04 #@! TO.N,VDD*
X89200000Y-120500000D03*
G04 #@! TD*
D13*
G04 #@! TO.P,D158,1,DOUT*
G04 #@! TO.N,Net-(D158-Pad1)*
X191200000Y-133750000D03*
D14*
G04 #@! TO.P,D158,2,VSS*
G04 #@! TO.N,GND*
X196800000Y-133750000D03*
D15*
G04 #@! TO.P,D158,3,DIN*
G04 #@! TO.N,Net-(D157-Pad1)*
X196800000Y-132250000D03*
D16*
G04 #@! TO.P,D158,4,VDD*
G04 #@! TO.N,VDD*
X191200000Y-132250000D03*
G04 #@! TD*
D13*
G04 #@! TO.P,D159,1,DOUT*
G04 #@! TO.N,Net-(D159-Pad1)*
X182400000Y-134350000D03*
D14*
G04 #@! TO.P,D159,2,VSS*
G04 #@! TO.N,GND*
X188000000Y-134350000D03*
D15*
G04 #@! TO.P,D159,3,DIN*
G04 #@! TO.N,Net-(D158-Pad1)*
X188000000Y-132850000D03*
D16*
G04 #@! TO.P,D159,4,VDD*
G04 #@! TO.N,VDD*
X182400000Y-132850000D03*
G04 #@! TD*
D13*
G04 #@! TO.P,D160,1,DOUT*
G04 #@! TO.N,Net-(D160-Pad1)*
X169100000Y-135250000D03*
D14*
G04 #@! TO.P,D160,2,VSS*
G04 #@! TO.N,GND*
X174700000Y-135250000D03*
D15*
G04 #@! TO.P,D160,3,DIN*
G04 #@! TO.N,Net-(D159-Pad1)*
X174700000Y-133750000D03*
D16*
G04 #@! TO.P,D160,4,VDD*
G04 #@! TO.N,VDD*
X169100000Y-133750000D03*
G04 #@! TD*
D13*
G04 #@! TO.P,D161,1,DOUT*
G04 #@! TO.N,Net-(D161-Pad1)*
X161000000Y-135650000D03*
D14*
G04 #@! TO.P,D161,2,VSS*
G04 #@! TO.N,GND*
X166600000Y-135650000D03*
D15*
G04 #@! TO.P,D161,3,DIN*
G04 #@! TO.N,Net-(D160-Pad1)*
X166600000Y-134150000D03*
D16*
G04 #@! TO.P,D161,4,VDD*
G04 #@! TO.N,VDD*
X161000000Y-134150000D03*
G04 #@! TD*
D13*
G04 #@! TO.P,D162,1,DOUT*
G04 #@! TO.N,Net-(D162-Pad1)*
X150600000Y-135400000D03*
D14*
G04 #@! TO.P,D162,2,VSS*
G04 #@! TO.N,GND*
X156200000Y-135400000D03*
D15*
G04 #@! TO.P,D162,3,DIN*
G04 #@! TO.N,Net-(D161-Pad1)*
X156200000Y-133900000D03*
D16*
G04 #@! TO.P,D162,4,VDD*
G04 #@! TO.N,VDD*
X150600000Y-133900000D03*
G04 #@! TD*
D13*
G04 #@! TO.P,D163,1,DOUT*
G04 #@! TO.N,Net-(D163-Pad1)*
X142500000Y-135350000D03*
D14*
G04 #@! TO.P,D163,2,VSS*
G04 #@! TO.N,GND*
X148100000Y-135350000D03*
D15*
G04 #@! TO.P,D163,3,DIN*
G04 #@! TO.N,Net-(D162-Pad1)*
X148100000Y-133850000D03*
D16*
G04 #@! TO.P,D163,4,VDD*
G04 #@! TO.N,VDD*
X142500000Y-133850000D03*
G04 #@! TD*
D13*
G04 #@! TO.P,D164,1,DOUT*
G04 #@! TO.N,Net-(D164-Pad1)*
X131200000Y-135350000D03*
D14*
G04 #@! TO.P,D164,2,VSS*
G04 #@! TO.N,GND*
X136800000Y-135350000D03*
D15*
G04 #@! TO.P,D164,3,DIN*
G04 #@! TO.N,Net-(D163-Pad1)*
X136800000Y-133850000D03*
D16*
G04 #@! TO.P,D164,4,VDD*
G04 #@! TO.N,VDD*
X131200000Y-133850000D03*
G04 #@! TD*
D13*
G04 #@! TO.P,D165,1,DOUT*
G04 #@! TO.N,Net-(D165-Pad1)*
X123000000Y-135350000D03*
D14*
G04 #@! TO.P,D165,2,VSS*
G04 #@! TO.N,GND*
X128600000Y-135350000D03*
D15*
G04 #@! TO.P,D165,3,DIN*
G04 #@! TO.N,Net-(D164-Pad1)*
X128600000Y-133850000D03*
D16*
G04 #@! TO.P,D165,4,VDD*
G04 #@! TO.N,VDD*
X123000000Y-133850000D03*
G04 #@! TD*
D13*
G04 #@! TO.P,D166,1,DOUT*
G04 #@! TO.N,Net-(D166-Pad1)*
X112200000Y-135350000D03*
D14*
G04 #@! TO.P,D166,2,VSS*
G04 #@! TO.N,GND*
X117800000Y-135350000D03*
D15*
G04 #@! TO.P,D166,3,DIN*
G04 #@! TO.N,Net-(D165-Pad1)*
X117800000Y-133850000D03*
D16*
G04 #@! TO.P,D166,4,VDD*
G04 #@! TO.N,VDD*
X112200000Y-133850000D03*
G04 #@! TD*
D13*
G04 #@! TO.P,D167,1,DOUT*
G04 #@! TO.N,Net-(D167-Pad1)*
X104500000Y-135350000D03*
D14*
G04 #@! TO.P,D167,2,VSS*
G04 #@! TO.N,GND*
X110100000Y-135350000D03*
D15*
G04 #@! TO.P,D167,3,DIN*
G04 #@! TO.N,Net-(D166-Pad1)*
X110100000Y-133850000D03*
D16*
G04 #@! TO.P,D167,4,VDD*
G04 #@! TO.N,VDD*
X104500000Y-133850000D03*
G04 #@! TD*
D13*
G04 #@! TO.P,D168,1,DOUT*
G04 #@! TO.N,Net-(D168-Pad1)*
X95900000Y-135350000D03*
D14*
G04 #@! TO.P,D168,2,VSS*
G04 #@! TO.N,GND*
X101500000Y-135350000D03*
D15*
G04 #@! TO.P,D168,3,DIN*
G04 #@! TO.N,Net-(D167-Pad1)*
X101500000Y-133850000D03*
D16*
G04 #@! TO.P,D168,4,VDD*
G04 #@! TO.N,VDD*
X95900000Y-133850000D03*
G04 #@! TD*
D13*
G04 #@! TO.P,D169,1,DOUT*
G04 #@! TO.N,Net-(D169-Pad1)*
X87800000Y-134850000D03*
D14*
G04 #@! TO.P,D169,2,VSS*
G04 #@! TO.N,GND*
X93400000Y-134850000D03*
D15*
G04 #@! TO.P,D169,3,DIN*
G04 #@! TO.N,Net-(D168-Pad1)*
X93400000Y-133350000D03*
D16*
G04 #@! TO.P,D169,4,VDD*
G04 #@! TO.N,VDD*
X87800000Y-133350000D03*
G04 #@! TD*
D13*
G04 #@! TO.P,D170,1,DOUT*
G04 #@! TO.N,Net-(D170-Pad1)*
X191450000Y-139750000D03*
D14*
G04 #@! TO.P,D170,2,VSS*
G04 #@! TO.N,GND*
X197050000Y-139750000D03*
D15*
G04 #@! TO.P,D170,3,DIN*
G04 #@! TO.N,Net-(D169-Pad1)*
X197050000Y-138250000D03*
D16*
G04 #@! TO.P,D170,4,VDD*
G04 #@! TO.N,VDD*
X191450000Y-138250000D03*
G04 #@! TD*
D21*
G04 #@! TO.P,D171,1,DOUT*
G04 #@! TO.N,Net-(D171-Pad1)*
X174700129Y-140249519D03*
D22*
G04 #@! TO.P,D171,2,VSS*
G04 #@! TO.N,GND*
X179549871Y-143049519D03*
D23*
G04 #@! TO.P,D171,3,DIN*
G04 #@! TO.N,Net-(D171-Pad3)*
X180299871Y-141750481D03*
D24*
G04 #@! TO.P,D171,4,VDD*
G04 #@! TO.N,VDD*
X175450129Y-138950481D03*
G04 #@! TD*
D13*
G04 #@! TO.P,D172,1,DOUT*
G04 #@! TO.N,Net-(D172-Pad1)*
X165200000Y-141000000D03*
D14*
G04 #@! TO.P,D172,2,VSS*
G04 #@! TO.N,GND*
X170800000Y-141000000D03*
D15*
G04 #@! TO.P,D172,3,DIN*
G04 #@! TO.N,Net-(D171-Pad1)*
X170800000Y-139500000D03*
D16*
G04 #@! TO.P,D172,4,VDD*
G04 #@! TO.N,VDD*
X165200000Y-139500000D03*
G04 #@! TD*
D13*
G04 #@! TO.P,D173,1,DOUT*
G04 #@! TO.N,Net-(D173-Pad1)*
X156950000Y-141250000D03*
D14*
G04 #@! TO.P,D173,2,VSS*
G04 #@! TO.N,GND*
X162550000Y-141250000D03*
D15*
G04 #@! TO.P,D173,3,DIN*
G04 #@! TO.N,Net-(D172-Pad1)*
X162550000Y-139750000D03*
D16*
G04 #@! TO.P,D173,4,VDD*
G04 #@! TO.N,VDD*
X156950000Y-139750000D03*
G04 #@! TD*
D13*
G04 #@! TO.P,D174,1,DOUT*
G04 #@! TO.N,Net-(D174-Pad1)*
X146450000Y-141000000D03*
D14*
G04 #@! TO.P,D174,2,VSS*
G04 #@! TO.N,GND*
X152050000Y-141000000D03*
D15*
G04 #@! TO.P,D174,3,DIN*
G04 #@! TO.N,Net-(D173-Pad1)*
X152050000Y-139500000D03*
D16*
G04 #@! TO.P,D174,4,VDD*
G04 #@! TO.N,VDD*
X146450000Y-139500000D03*
G04 #@! TD*
D13*
G04 #@! TO.P,D175,1,DOUT*
G04 #@! TO.N,Net-(D175-Pad1)*
X137950000Y-141000000D03*
D14*
G04 #@! TO.P,D175,2,VSS*
G04 #@! TO.N,GND*
X143550000Y-141000000D03*
D15*
G04 #@! TO.P,D175,3,DIN*
G04 #@! TO.N,Net-(D174-Pad1)*
X143550000Y-139500000D03*
D16*
G04 #@! TO.P,D175,4,VDD*
G04 #@! TO.N,VDD*
X137950000Y-139500000D03*
G04 #@! TD*
D13*
G04 #@! TO.P,D176,1,DOUT*
G04 #@! TO.N,Net-(D176-Pad1)*
X127200000Y-141000000D03*
D14*
G04 #@! TO.P,D176,2,VSS*
G04 #@! TO.N,GND*
X132800000Y-141000000D03*
D15*
G04 #@! TO.P,D176,3,DIN*
G04 #@! TO.N,Net-(D175-Pad1)*
X132800000Y-139500000D03*
D16*
G04 #@! TO.P,D176,4,VDD*
G04 #@! TO.N,VDD*
X127200000Y-139500000D03*
G04 #@! TD*
D13*
G04 #@! TO.P,D177,1,DOUT*
G04 #@! TO.N,Net-(D177-Pad1)*
X118700000Y-141000000D03*
D14*
G04 #@! TO.P,D177,2,VSS*
G04 #@! TO.N,GND*
X124300000Y-141000000D03*
D15*
G04 #@! TO.P,D177,3,DIN*
G04 #@! TO.N,Net-(D176-Pad1)*
X124300000Y-139500000D03*
D16*
G04 #@! TO.P,D177,4,VDD*
G04 #@! TO.N,VDD*
X118700000Y-139500000D03*
G04 #@! TD*
D13*
G04 #@! TO.P,D178,1,DOUT*
G04 #@! TO.N,Net-(D178-Pad1)*
X108450000Y-141000000D03*
D14*
G04 #@! TO.P,D178,2,VSS*
G04 #@! TO.N,GND*
X114050000Y-141000000D03*
D15*
G04 #@! TO.P,D178,3,DIN*
G04 #@! TO.N,Net-(D177-Pad1)*
X114050000Y-139500000D03*
D16*
G04 #@! TO.P,D178,4,VDD*
G04 #@! TO.N,VDD*
X108450000Y-139500000D03*
G04 #@! TD*
D13*
G04 #@! TO.P,D179,1,DOUT*
G04 #@! TO.N,Net-(D179-Pad1)*
X99950000Y-141000000D03*
D14*
G04 #@! TO.P,D179,2,VSS*
G04 #@! TO.N,GND*
X105550000Y-141000000D03*
D15*
G04 #@! TO.P,D179,3,DIN*
G04 #@! TO.N,Net-(D178-Pad1)*
X105550000Y-139500000D03*
D16*
G04 #@! TO.P,D179,4,VDD*
G04 #@! TO.N,VDD*
X99950000Y-139500000D03*
G04 #@! TD*
D13*
G04 #@! TO.P,D180,1,DOUT*
G04 #@! TO.N,Net-(D180-Pad1)*
X89450000Y-141000000D03*
D14*
G04 #@! TO.P,D180,2,VSS*
G04 #@! TO.N,GND*
X95050000Y-141000000D03*
D15*
G04 #@! TO.P,D180,3,DIN*
G04 #@! TO.N,Net-(D179-Pad1)*
X95050000Y-139500000D03*
D16*
G04 #@! TO.P,D180,4,VDD*
G04 #@! TO.N,VDD*
X89450000Y-139500000D03*
G04 #@! TD*
D13*
G04 #@! TO.P,D181,1,DOUT*
G04 #@! TO.N,Net-(D181-Pad1)*
X190700000Y-152500000D03*
D14*
G04 #@! TO.P,D181,2,VSS*
G04 #@! TO.N,GND*
X196300000Y-152500000D03*
D15*
G04 #@! TO.P,D181,3,DIN*
G04 #@! TO.N,Net-(D180-Pad1)*
X196300000Y-151000000D03*
D16*
G04 #@! TO.P,D181,4,VDD*
G04 #@! TO.N,VDD*
X190700000Y-151000000D03*
G04 #@! TD*
D13*
G04 #@! TO.P,D182,1,DOUT*
G04 #@! TO.N,Net-(D182-Pad1)*
X182200000Y-154250000D03*
D14*
G04 #@! TO.P,D182,2,VSS*
G04 #@! TO.N,GND*
X187800000Y-154250000D03*
D15*
G04 #@! TO.P,D182,3,DIN*
G04 #@! TO.N,Net-(D181-Pad1)*
X187800000Y-152750000D03*
D16*
G04 #@! TO.P,D182,4,VDD*
G04 #@! TO.N,VDD*
X182200000Y-152750000D03*
G04 #@! TD*
D13*
G04 #@! TO.P,D183,1,DOUT*
G04 #@! TO.N,Net-(D183-Pad1)*
X172100000Y-154000000D03*
D14*
G04 #@! TO.P,D183,2,VSS*
G04 #@! TO.N,GND*
X177700000Y-154000000D03*
D15*
G04 #@! TO.P,D183,3,DIN*
G04 #@! TO.N,Net-(D182-Pad1)*
X177700000Y-152500000D03*
D16*
G04 #@! TO.P,D183,4,VDD*
G04 #@! TO.N,VDD*
X172100000Y-152500000D03*
G04 #@! TD*
D13*
G04 #@! TO.P,D184,1,DOUT*
G04 #@! TO.N,Net-(D184-Pad1)*
X163200000Y-154250000D03*
D14*
G04 #@! TO.P,D184,2,VSS*
G04 #@! TO.N,GND*
X168800000Y-154250000D03*
D15*
G04 #@! TO.P,D184,3,DIN*
G04 #@! TO.N,Net-(D183-Pad1)*
X168800000Y-152750000D03*
D16*
G04 #@! TO.P,D184,4,VDD*
G04 #@! TO.N,VDD*
X163200000Y-152750000D03*
G04 #@! TD*
D13*
G04 #@! TO.P,D185,1,DOUT*
G04 #@! TO.N,Net-(D185-Pad1)*
X153000000Y-154000000D03*
D14*
G04 #@! TO.P,D185,2,VSS*
G04 #@! TO.N,GND*
X158600000Y-154000000D03*
D15*
G04 #@! TO.P,D185,3,DIN*
G04 #@! TO.N,Net-(D184-Pad1)*
X158600000Y-152500000D03*
D16*
G04 #@! TO.P,D185,4,VDD*
G04 #@! TO.N,VDD*
X153000000Y-152500000D03*
G04 #@! TD*
D13*
G04 #@! TO.P,D186,1,DOUT*
G04 #@! TO.N,Net-(D186-Pad1)*
X143950000Y-154250000D03*
D14*
G04 #@! TO.P,D186,2,VSS*
G04 #@! TO.N,GND*
X149550000Y-154250000D03*
D15*
G04 #@! TO.P,D186,3,DIN*
G04 #@! TO.N,Net-(D185-Pad1)*
X149550000Y-152750000D03*
D16*
G04 #@! TO.P,D186,4,VDD*
G04 #@! TO.N,VDD*
X143950000Y-152750000D03*
G04 #@! TD*
D13*
G04 #@! TO.P,D187,1,DOUT*
G04 #@! TO.N,Net-(D187-Pad1)*
X133600000Y-154250000D03*
D14*
G04 #@! TO.P,D187,2,VSS*
G04 #@! TO.N,GND*
X139200000Y-154250000D03*
D15*
G04 #@! TO.P,D187,3,DIN*
G04 #@! TO.N,Net-(D186-Pad1)*
X139200000Y-152750000D03*
D16*
G04 #@! TO.P,D187,4,VDD*
G04 #@! TO.N,VDD*
X133600000Y-152750000D03*
G04 #@! TD*
D13*
G04 #@! TO.P,D188,1,DOUT*
G04 #@! TO.N,Net-(D188-Pad1)*
X125200000Y-154250000D03*
D14*
G04 #@! TO.P,D188,2,VSS*
G04 #@! TO.N,GND*
X130800000Y-154250000D03*
D15*
G04 #@! TO.P,D188,3,DIN*
G04 #@! TO.N,Net-(D187-Pad1)*
X130800000Y-152750000D03*
D16*
G04 #@! TO.P,D188,4,VDD*
G04 #@! TO.N,VDD*
X125200000Y-152750000D03*
G04 #@! TD*
D13*
G04 #@! TO.P,D189,1,DOUT*
G04 #@! TO.N,Net-(D189-Pad1)*
X114600000Y-154250000D03*
D14*
G04 #@! TO.P,D189,2,VSS*
G04 #@! TO.N,GND*
X120200000Y-154250000D03*
D15*
G04 #@! TO.P,D189,3,DIN*
G04 #@! TO.N,Net-(D188-Pad1)*
X120200000Y-152750000D03*
D16*
G04 #@! TO.P,D189,4,VDD*
G04 #@! TO.N,VDD*
X114600000Y-152750000D03*
G04 #@! TD*
D13*
G04 #@! TO.P,D190,1,DOUT*
G04 #@! TO.N,Net-(D190-Pad1)*
X106200000Y-154250000D03*
D14*
G04 #@! TO.P,D190,2,VSS*
G04 #@! TO.N,GND*
X111800000Y-154250000D03*
D15*
G04 #@! TO.P,D190,3,DIN*
G04 #@! TO.N,Net-(D189-Pad1)*
X111800000Y-152750000D03*
D16*
G04 #@! TO.P,D190,4,VDD*
G04 #@! TO.N,VDD*
X106200000Y-152750000D03*
G04 #@! TD*
D13*
G04 #@! TO.P,D191,1,DOUT*
G04 #@! TO.N,Net-(D191-Pad1)*
X96000000Y-154000000D03*
D14*
G04 #@! TO.P,D191,2,VSS*
G04 #@! TO.N,GND*
X101600000Y-154000000D03*
D15*
G04 #@! TO.P,D191,3,DIN*
G04 #@! TO.N,Net-(D190-Pad1)*
X101600000Y-152500000D03*
D16*
G04 #@! TO.P,D191,4,VDD*
G04 #@! TO.N,VDD*
X96000000Y-152500000D03*
G04 #@! TD*
D13*
G04 #@! TO.P,D192,1,DOUT*
G04 #@! TO.N,Net-(D192-Pad1)*
X87450000Y-154250000D03*
D14*
G04 #@! TO.P,D192,2,VSS*
G04 #@! TO.N,GND*
X93050000Y-154250000D03*
D15*
G04 #@! TO.P,D192,3,DIN*
G04 #@! TO.N,Net-(D191-Pad1)*
X93050000Y-152750000D03*
D16*
G04 #@! TO.P,D192,4,VDD*
G04 #@! TO.N,VDD*
X87450000Y-152750000D03*
G04 #@! TD*
D13*
G04 #@! TO.P,D99,1,DOUT*
G04 #@! TO.N,/NeoPixel/NeoPixel*
X70700000Y-148000000D03*
D14*
G04 #@! TO.P,D99,2,VSS*
G04 #@! TO.N,GND*
X76300000Y-148000000D03*
D15*
G04 #@! TO.P,D99,3,DIN*
G04 #@! TO.N,Net-(D99-Pad3)*
X76300000Y-146500000D03*
D16*
G04 #@! TO.P,D99,4,VDD*
G04 #@! TO.N,Net-(D55-Pad1)*
X70700000Y-146500000D03*
G04 #@! TD*
D25*
G04 #@! TO.P,U1,1*
G04 #@! TO.N,N/C*
X62610000Y-89620000D03*
G04 #@! TO.P,U1,2*
X62610000Y-92160000D03*
G04 #@! TO.P,U1,3*
X62610000Y-94700000D03*
G04 #@! TO.P,U1,4,GP2/P0.31*
G04 #@! TO.N,row4*
X62610000Y-97240000D03*
G04 #@! TO.P,U1,5,GP3/P0.11*
G04 #@! TO.N,/SERIAL*
X62610000Y-99780000D03*
G04 #@! TO.P,U1,6,GP4/P0.30*
G04 #@! TO.N,col1*
X62610000Y-102320000D03*
G04 #@! TO.P,U1,7,GP5/P0.19*
G04 #@! TO.N,col2*
X62610000Y-104860000D03*
G04 #@! TO.P,U1,8*
G04 #@! TO.N,N/C*
X62610000Y-107400000D03*
G04 #@! TO.P,U1,9,GP6/P0.23*
G04 #@! TO.N,col3*
X62610000Y-109940000D03*
G04 #@! TO.P,U1,10,GP7/P0.28*
G04 #@! TO.N,col4*
X62610000Y-112480000D03*
G04 #@! TO.P,U1,11,GP8/P0.09*
G04 #@! TO.N,col5*
X62610000Y-115020000D03*
G04 #@! TO.P,U1,12,GP9/P0.12*
G04 #@! TO.N,col6*
X62610000Y-117560000D03*
G04 #@! TO.P,U1,13*
G04 #@! TO.N,N/C*
X62610000Y-120100000D03*
G04 #@! TO.P,U1,14,GP10/P0.14*
G04 #@! TO.N,NEOPIXEL_EN*
X62610000Y-122640000D03*
G04 #@! TO.P,U1,15,GP11/P0.26*
G04 #@! TO.N,NEOPIXEL*
X62610000Y-125180000D03*
G04 #@! TO.P,U1,16*
G04 #@! TO.N,N/C*
X62610000Y-127720000D03*
G04 #@! TO.P,U1,17*
X62610000Y-130260000D03*
G04 #@! TO.P,U1,18*
X62610000Y-132800000D03*
G04 #@! TO.P,U1,19*
X62610000Y-135340000D03*
G04 #@! TO.P,U1,20*
X62610000Y-137880000D03*
G04 #@! TO.P,U1,21*
X80390000Y-137880000D03*
G04 #@! TO.P,U1,22*
X80390000Y-135340000D03*
G04 #@! TO.P,U1,23*
X80390000Y-132800000D03*
G04 #@! TO.P,U1,24*
X80390000Y-130260000D03*
G04 #@! TO.P,U1,25*
X80390000Y-127720000D03*
G04 #@! TO.P,U1,26*
X80390000Y-125180000D03*
G04 #@! TO.P,U1,27*
X80390000Y-122640000D03*
G04 #@! TO.P,U1,28,GND*
G04 #@! TO.N,GND*
X80390000Y-120100000D03*
G04 #@! TO.P,U1,29,GP22/P0.17*
G04 #@! TO.N,row3*
X80390000Y-117560000D03*
G04 #@! TO.P,U1,30*
G04 #@! TO.N,N/C*
X80390000Y-115020000D03*
G04 #@! TO.P,U1,31,GP26/P0.08*
G04 #@! TO.N,row2*
X80390000Y-112480000D03*
G04 #@! TO.P,U1,32,GP27/P0.07*
G04 #@! TO.N,row1*
X80390000Y-109940000D03*
G04 #@! TO.P,U1,33*
G04 #@! TO.N,N/C*
X80390000Y-107400000D03*
G04 #@! TO.P,U1,34,GP28/P0.04(ADC)*
G04 #@! TO.N,/VDIV*
X80390000Y-104860000D03*
G04 #@! TO.P,U1,35*
G04 #@! TO.N,N/C*
X80390000Y-102320000D03*
G04 #@! TO.P,U1,36*
X80390000Y-99780000D03*
G04 #@! TO.P,U1,37*
X80390000Y-97240000D03*
G04 #@! TO.P,U1,38*
X80390000Y-94700000D03*
G04 #@! TO.P,U1,39*
X80390000Y-92160000D03*
G04 #@! TO.P,U1,40,5V*
G04 #@! TO.N,+5V*
X80390000Y-89620000D03*
G04 #@! TD*
D13*
G04 #@! TO.P,D213,1,DOUT*
G04 #@! TO.N,Net-(D124-Pad3)*
X192200000Y-102000000D03*
D14*
G04 #@! TO.P,D213,2,VSS*
G04 #@! TO.N,GND*
X197800000Y-102000000D03*
D15*
G04 #@! TO.P,D213,3,DIN*
G04 #@! TO.N,Net-(D123-Pad1)*
X197800000Y-100500000D03*
D16*
G04 #@! TO.P,D213,4,VDD*
G04 #@! TO.N,VDD*
X192200000Y-100500000D03*
G04 #@! TD*
D13*
G04 #@! TO.P,D214,1,DOUT*
G04 #@! TO.N,Net-(D148-Pad3)*
X184500000Y-122150000D03*
D14*
G04 #@! TO.P,D214,2,VSS*
G04 #@! TO.N,GND*
X190100000Y-122150000D03*
D15*
G04 #@! TO.P,D214,3,DIN*
G04 #@! TO.N,Net-(D147-Pad1)*
X190100000Y-120650000D03*
D16*
G04 #@! TO.P,D214,4,VDD*
G04 #@! TO.N,VDD*
X184500000Y-120650000D03*
G04 #@! TD*
D13*
G04 #@! TO.P,D215,1,DOUT*
G04 #@! TO.N,Net-(D171-Pad3)*
X184000000Y-141000000D03*
D14*
G04 #@! TO.P,D215,2,VSS*
G04 #@! TO.N,GND*
X189600000Y-141000000D03*
D15*
G04 #@! TO.P,D215,3,DIN*
G04 #@! TO.N,Net-(D170-Pad1)*
X189600000Y-139500000D03*
D16*
G04 #@! TO.P,D215,4,VDD*
G04 #@! TO.N,VDD*
X184000000Y-139500000D03*
G04 #@! TD*
D26*
G04 #@! TO.P,SW51,1,A*
G04 #@! TO.N,unconnected-(SW51-Pad1)*
X71960000Y-142500000D03*
G04 #@! TO.P,SW51,2,B*
G04 #@! TO.N,NEOPIXEL*
X74500000Y-142500000D03*
G04 #@! TO.P,SW51,3,C*
G04 #@! TO.N,Net-(D99-Pad3)*
X77040000Y-142500000D03*
G04 #@! TD*
D15*
G04 #@! TO.P,D216,1,DOUT*
G04 #@! TO.N,Net-(D216-Pad1)*
X106100000Y-117050000D03*
D16*
G04 #@! TO.P,D216,2,VSS*
G04 #@! TO.N,GND*
X100500000Y-117050000D03*
D13*
G04 #@! TO.P,D216,3,DIN*
G04 #@! TO.N,Net-(D146-Pad1)*
X100500000Y-118550000D03*
D14*
G04 #@! TO.P,D216,4,VDD*
G04 #@! TO.N,VDD*
X106100000Y-118550000D03*
G04 #@! TD*
D15*
G04 #@! TO.P,D217,1,DOUT*
G04 #@! TO.N,Net-(D217-Pad1)*
X124400000Y-117150000D03*
D16*
G04 #@! TO.P,D217,2,VSS*
G04 #@! TO.N,GND*
X118800000Y-117150000D03*
D13*
G04 #@! TO.P,D217,3,DIN*
G04 #@! TO.N,Net-(D216-Pad1)*
X118800000Y-118650000D03*
D14*
G04 #@! TO.P,D217,4,VDD*
G04 #@! TO.N,VDD*
X124400000Y-118650000D03*
G04 #@! TD*
D15*
G04 #@! TO.P,D218,1,DOUT*
G04 #@! TO.N,Net-(D218-Pad1)*
X143900000Y-117300000D03*
D16*
G04 #@! TO.P,D218,2,VSS*
G04 #@! TO.N,GND*
X138300000Y-117300000D03*
D13*
G04 #@! TO.P,D218,3,DIN*
G04 #@! TO.N,Net-(D217-Pad1)*
X138300000Y-118800000D03*
D14*
G04 #@! TO.P,D218,4,VDD*
G04 #@! TO.N,VDD*
X143900000Y-118800000D03*
G04 #@! TD*
D15*
G04 #@! TO.P,D219,1,DOUT*
G04 #@! TO.N,Net-(D219-Pad1)*
X162800000Y-116950000D03*
D16*
G04 #@! TO.P,D219,2,VSS*
G04 #@! TO.N,GND*
X157200000Y-116950000D03*
D13*
G04 #@! TO.P,D219,3,DIN*
G04 #@! TO.N,Net-(D218-Pad1)*
X157200000Y-118450000D03*
D14*
G04 #@! TO.P,D219,4,VDD*
G04 #@! TO.N,VDD*
X162800000Y-118450000D03*
G04 #@! TD*
D15*
G04 #@! TO.P,D220,1,DOUT*
G04 #@! TO.N,Net-(D147-Pad3)*
X182500000Y-117350000D03*
D16*
G04 #@! TO.P,D220,2,VSS*
G04 #@! TO.N,GND*
X176900000Y-117350000D03*
D13*
G04 #@! TO.P,D220,3,DIN*
G04 #@! TO.N,Net-(D219-Pad1)*
X176900000Y-118850000D03*
D14*
G04 #@! TO.P,D220,4,VDD*
G04 #@! TO.N,VDD*
X182500000Y-118850000D03*
G04 #@! TD*
D27*
G04 #@! TO.P,D221,1,DOUT*
G04 #@! TO.N,Net-(D101-Pad3)*
X194150481Y-83000129D03*
D28*
G04 #@! TO.P,D221,2,VSS*
G04 #@! TO.N,GND*
X196950481Y-87849871D03*
D29*
G04 #@! TO.P,D221,3,DIN*
G04 #@! TO.N,/NeoPixel/NeoPixel*
X198249519Y-87099871D03*
D30*
G04 #@! TO.P,D221,4,VDD*
G04 #@! TO.N,VDD*
X195449519Y-82250129D03*
G04 #@! TD*
D31*
G04 #@! TO.P,C51,1*
G04 #@! TO.N,+5V*
X81300000Y-153675000D03*
G04 #@! TO.P,C51,2*
G04 #@! TO.N,GND*
X81300000Y-150550000D03*
G04 #@! TD*
D32*
G04 #@! TO.P,D1,1,K*
G04 #@! TO.N,row1*
X85500000Y-87150000D03*
G04 #@! TO.P,D1,2,A*
G04 #@! TO.N,Net-(D1-Pad2)*
X85500000Y-83850000D03*
G04 #@! TD*
D33*
G04 #@! TO.P,D2,1,K*
G04 #@! TO.N,row1*
X105371058Y-88250000D03*
G04 #@! TO.P,D2,2,A*
G04 #@! TO.N,Net-(D2-Pad2)*
X108228942Y-86600000D03*
G04 #@! TD*
G04 #@! TO.P,D3,1,K*
G04 #@! TO.N,row1*
X124342116Y-88250000D03*
G04 #@! TO.P,D3,2,A*
G04 #@! TO.N,Net-(D3-Pad2)*
X127200000Y-86600000D03*
G04 #@! TD*
G04 #@! TO.P,D4,1,K*
G04 #@! TO.N,row1*
X143392116Y-88150000D03*
G04 #@! TO.P,D4,2,A*
G04 #@! TO.N,Net-(D4-Pad2)*
X146250000Y-86500000D03*
G04 #@! TD*
G04 #@! TO.P,D5,1,K*
G04 #@! TO.N,row1*
X162392116Y-87900000D03*
G04 #@! TO.P,D5,2,A*
G04 #@! TO.N,Net-(D5-Pad2)*
X165250000Y-86250000D03*
G04 #@! TD*
D34*
G04 #@! TO.P,D6,1,K*
G04 #@! TO.N,row1*
X181800000Y-88800000D03*
G04 #@! TO.P,D6,2,A*
G04 #@! TO.N,Net-(D6-Pad2)*
X184133452Y-86466548D03*
G04 #@! TD*
D32*
G04 #@! TO.P,D11,1,K*
G04 #@! TO.N,row2*
X85598000Y-107950000D03*
G04 #@! TO.P,D11,2,A*
G04 #@! TO.N,Net-(D11-Pad2)*
X85598000Y-104650000D03*
G04 #@! TD*
D34*
G04 #@! TO.P,D12,1,K*
G04 #@! TO.N,row2*
X105533274Y-107466726D03*
G04 #@! TO.P,D12,2,A*
G04 #@! TO.N,Net-(D12-Pad2)*
X107866726Y-105133274D03*
G04 #@! TD*
D33*
G04 #@! TO.P,D13,1,K*
G04 #@! TO.N,row2*
X124542116Y-107000000D03*
G04 #@! TO.P,D13,2,A*
G04 #@! TO.N,Net-(D13-Pad2)*
X127400000Y-105350000D03*
G04 #@! TD*
D35*
G04 #@! TO.P,D14,1,K*
G04 #@! TO.N,row2*
X142950000Y-106000000D03*
G04 #@! TO.P,D14,2,A*
G04 #@! TO.N,Net-(D14-Pad2)*
X146250000Y-106000000D03*
G04 #@! TD*
G04 #@! TO.P,D15,1,K*
G04 #@! TO.N,row2*
X161950000Y-106000000D03*
G04 #@! TO.P,D15,2,A*
G04 #@! TO.N,Net-(D15-Pad2)*
X165250000Y-106000000D03*
G04 #@! TD*
D32*
G04 #@! TO.P,D16,1,K*
G04 #@! TO.N,row2*
X183000000Y-109900000D03*
G04 #@! TO.P,D16,2,A*
G04 #@! TO.N,Net-(D16-Pad2)*
X183000000Y-106600000D03*
G04 #@! TD*
G04 #@! TO.P,D21,1,K*
G04 #@! TO.N,row3*
X85500000Y-125150000D03*
G04 #@! TO.P,D21,2,A*
G04 #@! TO.N,Net-(D21-Pad2)*
X85500000Y-121850000D03*
G04 #@! TD*
D34*
G04 #@! TO.P,D22,1,K*
G04 #@! TO.N,row3*
X105566548Y-127233452D03*
G04 #@! TO.P,D22,2,A*
G04 #@! TO.N,Net-(D22-Pad2)*
X107900000Y-124900000D03*
G04 #@! TD*
D36*
G04 #@! TO.P,D23,1,K*
G04 #@! TO.N,row3*
X124900000Y-127400000D03*
G04 #@! TO.P,D23,2,A*
G04 #@! TO.N,Net-(D23-Pad2)*
X126550000Y-124542116D03*
G04 #@! TD*
G04 #@! TO.P,D24,1,K*
G04 #@! TO.N,row3*
X144350000Y-127457884D03*
G04 #@! TO.P,D24,2,A*
G04 #@! TO.N,Net-(D24-Pad2)*
X146000000Y-124600000D03*
G04 #@! TD*
G04 #@! TO.P,D25,1,K*
G04 #@! TO.N,row3*
X162700000Y-128000000D03*
G04 #@! TO.P,D25,2,A*
G04 #@! TO.N,Net-(D25-Pad2)*
X164350000Y-125142116D03*
G04 #@! TD*
G04 #@! TO.P,D26,1,K*
G04 #@! TO.N,row3*
X182050000Y-128157884D03*
G04 #@! TO.P,D26,2,A*
G04 #@! TO.N,Net-(D26-Pad2)*
X183700000Y-125300000D03*
G04 #@! TD*
D32*
G04 #@! TO.P,D31,1,K*
G04 #@! TO.N,row4*
X85500000Y-148844000D03*
G04 #@! TO.P,D31,2,A*
G04 #@! TO.N,Net-(D31-Pad2)*
X85500000Y-145544000D03*
G04 #@! TD*
D36*
G04 #@! TO.P,D32,1,K*
G04 #@! TO.N,row4*
X105800000Y-146000000D03*
G04 #@! TO.P,D32,2,A*
G04 #@! TO.N,Net-(D32-Pad2)*
X107450000Y-143142116D03*
G04 #@! TD*
G04 #@! TO.P,D33,1,K*
G04 #@! TO.N,row4*
X124650000Y-146057884D03*
G04 #@! TO.P,D33,2,A*
G04 #@! TO.N,Net-(D33-Pad2)*
X126300000Y-143200000D03*
G04 #@! TD*
G04 #@! TO.P,D34,1,K*
G04 #@! TO.N,row4*
X143300000Y-145900000D03*
G04 #@! TO.P,D34,2,A*
G04 #@! TO.N,Net-(D34-Pad2)*
X144950000Y-143042116D03*
G04 #@! TD*
D34*
G04 #@! TO.P,D35,1,K*
G04 #@! TO.N,row4*
X163066548Y-145533452D03*
G04 #@! TO.P,D35,2,A*
G04 #@! TO.N,Net-(D35-Pad2)*
X165400000Y-143200000D03*
G04 #@! TD*
G04 #@! TO.P,D36,1,K*
G04 #@! TO.N,row4*
X181666548Y-146166726D03*
G04 #@! TO.P,D36,2,A*
G04 #@! TO.N,Net-(D36-Pad2)*
X184000000Y-143833274D03*
G04 #@! TD*
D32*
G04 #@! TO.P,D51,1,K*
G04 #@! TO.N,+5V*
X73250000Y-132500000D03*
G04 #@! TO.P,D51,2,A*
G04 #@! TO.N,Net-(D51-Pad2)*
X73250000Y-129200000D03*
G04 #@! TD*
D37*
G04 #@! TO.P,Q51,1,G*
G04 #@! TO.N,NEOPIXEL_EN*
X67262500Y-154550000D03*
G04 #@! TO.P,Q51,2,S*
G04 #@! TO.N,GND*
X67262500Y-152650000D03*
G04 #@! TO.P,Q51,3,D*
G04 #@! TO.N,Net-(Q1-Pad1)*
X69137500Y-153600000D03*
G04 #@! TD*
D38*
G04 #@! TO.P,R51,1*
G04 #@! TO.N,NEOPIXEL_EN*
X63100000Y-154738000D03*
G04 #@! TO.P,R51,2*
G04 #@! TO.N,GND*
X63100000Y-151638000D03*
G04 #@! TD*
G04 #@! TO.P,R52,1*
G04 #@! TO.N,+5V*
X67028000Y-144070000D03*
G04 #@! TO.P,R52,2*
G04 #@! TO.N,/VDIV*
X67028000Y-140970000D03*
G04 #@! TD*
G04 #@! TO.P,R53,1*
G04 #@! TO.N,/VDIV*
X67028000Y-137466000D03*
G04 #@! TO.P,R53,2*
G04 #@! TO.N,GND*
X67028000Y-134366000D03*
G04 #@! TD*
D32*
G04 #@! TO.P,D55,1,K*
G04 #@! TO.N,Net-(D55-Pad1)*
X73250000Y-138800000D03*
G04 #@! TO.P,D55,2,A*
G04 #@! TO.N,VDD*
X73250000Y-135500000D03*
G04 #@! TD*
D37*
G04 #@! TO.P,Q1,1,G*
G04 #@! TO.N,Net-(Q1-Pad1)*
X72962500Y-152950000D03*
G04 #@! TO.P,Q1,2,S*
G04 #@! TO.N,+5V*
X72962500Y-151050000D03*
G04 #@! TO.P,Q1,3,D*
G04 #@! TO.N,Net-(F1-Pad1)*
X74837500Y-152000000D03*
G04 #@! TD*
D39*
G04 #@! TO.P,R1,1*
G04 #@! TO.N,+5V*
X78200000Y-150500000D03*
G04 #@! TO.P,R1,2*
G04 #@! TO.N,Net-(Q1-Pad1)*
X78200000Y-153600000D03*
G04 #@! TD*
D40*
G04 #@! TO.P,F1,1*
G04 #@! TO.N,Net-(F1-Pad1)*
X84400000Y-151025000D03*
G04 #@! TO.P,F1,2*
G04 #@! TO.N,VDD*
X84400000Y-153075000D03*
G04 #@! TD*
D41*
G04 #@! TO.N,GND*
X154600000Y-144600000D03*
X174100000Y-117000000D03*
X155200000Y-117500000D03*
X117725000Y-102775000D03*
X157500000Y-125450000D03*
X175874001Y-143774001D03*
X117600000Y-117600000D03*
X94800000Y-124100000D03*
X98700000Y-117450000D03*
X155800000Y-102300000D03*
X65300000Y-150450000D03*
X176100000Y-126150000D03*
X178600000Y-115050000D03*
X100000000Y-104000000D03*
X122150000Y-154600000D03*
X133400000Y-143650000D03*
X136420021Y-125879979D03*
X103000000Y-97350000D03*
X119100000Y-86300000D03*
X178800000Y-155100000D03*
X103000000Y-154650000D03*
X138000000Y-136400000D03*
X179700000Y-95850000D03*
X141300000Y-96450000D03*
X158400000Y-135350000D03*
X66900000Y-132100000D03*
X137825999Y-86774001D03*
X141075000Y-154775000D03*
X136800000Y-101900000D03*
X161300000Y-153900000D03*
X176300000Y-106150000D03*
X97300000Y-144300000D03*
X121300000Y-97600000D03*
X157075999Y-86774001D03*
X157800000Y-97750000D03*
X113900000Y-143300000D03*
X100025999Y-86774001D03*
X177600000Y-135500000D03*
X116700000Y-125800000D03*
G04 #@! TO.N,+5V*
X75750000Y-150500000D03*
X69200000Y-144200000D03*
X75350000Y-134150000D03*
X76025000Y-154225000D03*
X77900000Y-109950000D03*
G04 #@! TO.N,row1*
X82900000Y-87300000D03*
X82900000Y-92800000D03*
G04 #@! TO.N,row4*
X87500000Y-149000000D03*
X86500000Y-140200000D03*
G04 #@! TO.N,Net-(D51-Pad2)*
X70800000Y-133900000D03*
G04 #@! TO.N,NEOPIXEL_EN*
X64500000Y-129300000D03*
G04 #@! TO.N,/VDIV*
X70000000Y-139600000D03*
G04 #@! TO.N,col2*
X95100000Y-105800000D03*
X113300000Y-105600000D03*
G04 #@! TO.N,col3*
X132000000Y-105800000D03*
X93400000Y-106400000D03*
G04 #@! TO.N,col4*
X155000000Y-130750000D03*
G04 #@! TO.N,col5*
X163300000Y-143100000D03*
G04 #@! TO.N,col6*
X189500000Y-143900000D03*
G04 #@! TO.N,Net-(D180-Pad1)*
X88800000Y-142700000D03*
X163400000Y-150700000D03*
X87150000Y-151150000D03*
X165300000Y-149262001D03*
G04 #@! TO.N,Net-(D192-Pad1)*
X93000000Y-156000000D03*
G04 #@! TO.N,Net-(D208-Pad1)*
X170700000Y-143400000D03*
X173500000Y-145400000D03*
G04 #@! TO.N,/NeoPixel/NeoPixel*
X59600000Y-145900000D03*
X192800000Y-88850000D03*
G04 #@! TO.N,VDD*
X154200000Y-139550000D03*
X166900000Y-132700000D03*
X107600000Y-118700000D03*
X79600000Y-142850000D03*
X106000000Y-151000000D03*
X182900000Y-150150000D03*
X145100000Y-108250000D03*
X144100000Y-121100000D03*
X184000000Y-111350000D03*
X144200000Y-150900000D03*
X182345999Y-92381923D03*
X106462011Y-111237989D03*
X109954001Y-132226079D03*
X125500000Y-111800000D03*
X165500000Y-100750000D03*
X149300000Y-132450000D03*
X125600000Y-120200000D03*
X163300000Y-93100000D03*
X107000000Y-139600000D03*
X150400000Y-143850000D03*
X184200000Y-119150000D03*
X173200000Y-82450000D03*
X125054001Y-93154001D03*
X182852849Y-140152821D03*
X167900000Y-111600000D03*
X164800000Y-118800000D03*
X144100000Y-92950000D03*
X128454001Y-131994001D03*
X106200000Y-92750000D03*
X127400000Y-100700000D03*
X184500000Y-99900000D03*
X125300000Y-151050000D03*
X146600000Y-100600000D03*
X108300000Y-100450000D03*
X83200000Y-154650000D03*
X134900000Y-139500000D03*
X152700000Y-144050000D03*
X183400000Y-130300000D03*
G04 #@! TD*
D42*
G04 #@! TO.N,GND*
X118144001Y-104355999D02*
X118144001Y-103194001D01*
X132800000Y-84750000D02*
X132800000Y-86473922D01*
X110100000Y-135350000D02*
X110100000Y-135767958D01*
X121313961Y-97013961D02*
X120273921Y-98054001D01*
X178800000Y-96050000D02*
X180050000Y-97300000D01*
X96824001Y-86774001D02*
X94800000Y-84750000D01*
X104780000Y-86180000D02*
X104747922Y-86180000D01*
X132800000Y-141000000D02*
X132800000Y-141803922D01*
X182772078Y-97300000D02*
X183726079Y-98254001D01*
X189800000Y-103803922D02*
X191770079Y-105774001D01*
X132800000Y-84750000D02*
X134824001Y-86774001D01*
X198204010Y-138595990D02*
X198204010Y-137631230D01*
X133050000Y-122150000D02*
X133050000Y-125125978D01*
X112508481Y-142951519D02*
X109498625Y-142951519D01*
X177888961Y-155288961D02*
X178654001Y-154523921D01*
X110800000Y-96850000D02*
X110800000Y-97227922D01*
X138000000Y-136400000D02*
X138443657Y-136843657D01*
X145754001Y-98754001D02*
X148305999Y-98754001D01*
X153351961Y-143351961D02*
X154600000Y-144600000D01*
X95518743Y-136333979D02*
X94883979Y-136333979D01*
X76300000Y-148000000D02*
X80784000Y-148000000D01*
X99641230Y-103364010D02*
X99641230Y-103641230D01*
X157300000Y-116950000D02*
X157300000Y-116227922D01*
X160500000Y-96250000D02*
X162125000Y-97875000D01*
X110666021Y-136333979D02*
X109453335Y-136333979D01*
X155425999Y-143774001D02*
X153770079Y-143774001D01*
X125450000Y-123200000D02*
X126754990Y-123200000D01*
X140550000Y-154660000D02*
X140550000Y-154250000D01*
X110305999Y-156154001D02*
X111800000Y-154660000D01*
X104400000Y-114700000D02*
X105700000Y-116000000D01*
X106464010Y-141914010D02*
X105550000Y-141000000D01*
X168800000Y-97227922D02*
X168800000Y-96850000D01*
X103153921Y-143774001D02*
X105404001Y-141523921D01*
X108455175Y-124105999D02*
X108002704Y-123653528D01*
X94800000Y-124100000D02*
X94800000Y-122000000D01*
X168495999Y-88777923D02*
X170800000Y-86473922D01*
X170721077Y-137258391D02*
X169796665Y-136333979D01*
X170454001Y-103654001D02*
X164504001Y-103654001D01*
X153476696Y-97164010D02*
X150114010Y-97164010D01*
X170800000Y-141000000D02*
X170800000Y-141803922D01*
X181800000Y-85160000D02*
X181800000Y-84750000D01*
X176350129Y-116150481D02*
X175677441Y-116150481D01*
X143005999Y-104354001D02*
X144500000Y-102860000D01*
X126565999Y-87765999D02*
X124800000Y-86000000D01*
X139400000Y-96450000D02*
X140800000Y-96450000D01*
X196372780Y-135800000D02*
X192811736Y-135800000D01*
X150555999Y-142904001D02*
X152050000Y-141410000D01*
X140800000Y-96450000D02*
X140800000Y-96860000D01*
X138300000Y-116177922D02*
X138900000Y-115577922D01*
X138300000Y-117300000D02*
X138300000Y-116177922D01*
X189800000Y-102950000D02*
X189800000Y-103803922D01*
X169014010Y-97064010D02*
X168800000Y-96850000D01*
X175144001Y-103494001D02*
X173400000Y-101750000D01*
X138900000Y-115200000D02*
X142250000Y-115200000D01*
X198954010Y-98904010D02*
X198954010Y-99595990D01*
X113551519Y-142951519D02*
X113900000Y-143300000D01*
X164726079Y-98754001D02*
X167273921Y-98754001D01*
X108461116Y-141914010D02*
X106464010Y-141914010D01*
X152785990Y-115764010D02*
X150464010Y-115764010D01*
X178750000Y-96100000D02*
X178800000Y-96150000D01*
X143550000Y-124200000D02*
X143600000Y-124150000D01*
X81300000Y-147484000D02*
X81534000Y-147250000D01*
X120966021Y-136333979D02*
X119703335Y-136333979D01*
X170454001Y-155904001D02*
X177273921Y-155904001D01*
X157395999Y-98154001D02*
X157104001Y-98154001D01*
X180850481Y-143049519D02*
X181800000Y-142100000D01*
X153348039Y-143351961D02*
X153351961Y-143351961D01*
X126726079Y-117154001D02*
X129273921Y-117154001D01*
X191770079Y-143774001D02*
X193435999Y-143774001D01*
X101004001Y-98154001D02*
X94704001Y-98154001D01*
X101500000Y-115110000D02*
X101500000Y-114700000D01*
X110274001Y-89999921D02*
X113654001Y-86619921D01*
X178654001Y-154145999D02*
X178800000Y-154000000D01*
X142481136Y-126318864D02*
X143550000Y-125250000D01*
X132654001Y-142904001D02*
X131273921Y-142904001D01*
X121800000Y-154250000D02*
X122150000Y-154600000D01*
X178654001Y-154523921D02*
X178654001Y-154145999D01*
X167273921Y-98754001D02*
X168800000Y-97227922D01*
X96986088Y-116164010D02*
X97772078Y-116950000D01*
X96791734Y-137606970D02*
X95518743Y-136333979D01*
X158683979Y-136583979D02*
X157921257Y-136583979D01*
X129033979Y-136333979D02*
X128203335Y-136333979D01*
X173345999Y-116245999D02*
X173345999Y-116154001D01*
X132800000Y-141803922D02*
X134770079Y-143774001D01*
X136309921Y-105774001D02*
X137144001Y-104939921D01*
X98843219Y-102565999D02*
X99641230Y-103364010D01*
X156144001Y-103494001D02*
X158366079Y-103494001D01*
X143800000Y-85597106D02*
X145800000Y-87597106D01*
X197500000Y-96541980D02*
X198954010Y-97995990D01*
X120154001Y-115273921D02*
X118773921Y-116654001D01*
X118179921Y-142904001D02*
X117309921Y-143774001D01*
X147569921Y-91604001D02*
X149000000Y-90173922D01*
X141950000Y-96450000D02*
X143325000Y-97825000D01*
X125736088Y-116164010D02*
X126726079Y-117154001D01*
X124286656Y-137323970D02*
X123296665Y-136333979D01*
X151800000Y-86473922D02*
X151800000Y-84750000D01*
X153770079Y-143774001D02*
X153348039Y-143351961D01*
X100910000Y-115700000D02*
X101500000Y-115110000D01*
X162550000Y-141660000D02*
X161055999Y-143154001D01*
X170800000Y-84750000D02*
X172824001Y-86774001D01*
X153474001Y-105774001D02*
X155309921Y-105774001D01*
X108002704Y-123653528D02*
X106396472Y-123653528D01*
X135793922Y-102050000D02*
X136650000Y-102050000D01*
X101036088Y-103364010D02*
X102026079Y-104354001D01*
X97772078Y-116950000D02*
X100500000Y-116950000D01*
X161468743Y-136583979D02*
X158683979Y-136583979D01*
X148100000Y-135350000D02*
X148100000Y-135687314D01*
X174700000Y-135250000D02*
X174700000Y-136600000D01*
X160880019Y-125879981D02*
X157970019Y-125879981D01*
X157921257Y-135828743D02*
X158400000Y-135350000D01*
X114050000Y-142053922D02*
X114050000Y-141000000D01*
X157921257Y-136583979D02*
X157921257Y-135828743D01*
X133050000Y-125125978D02*
X133162011Y-125237989D01*
X109273921Y-98754001D02*
X106288765Y-98754001D01*
X169804001Y-116154001D02*
X168200000Y-114550000D01*
X154466687Y-98154001D02*
X153476696Y-97164010D01*
X120273921Y-156154001D02*
X121800000Y-154627922D01*
X124800000Y-86000000D02*
X124800000Y-84750000D01*
X178600000Y-115050000D02*
X179400000Y-114250000D01*
X140550000Y-154250000D02*
X139200000Y-154250000D01*
X168800000Y-154660000D02*
X168800000Y-154250000D01*
X113200000Y-122150000D02*
X113200000Y-122560000D01*
X131333979Y-97383979D02*
X130800000Y-96850000D01*
X198204010Y-134104010D02*
X198204010Y-130095990D01*
X184270079Y-91604001D02*
X185569921Y-91604001D01*
X111800000Y-96850000D02*
X110800000Y-96850000D01*
X189704001Y-98254001D02*
X193357735Y-98254001D01*
X172224912Y-125768990D02*
X172155922Y-125700000D01*
X145800000Y-89366078D02*
X145565999Y-89600079D01*
X81300000Y-150550000D02*
X81300000Y-147484000D01*
X157970019Y-125879981D02*
X156017320Y-125879982D01*
X130100000Y-89173922D02*
X130100000Y-90073922D01*
X170800000Y-121950000D02*
X170800000Y-124344078D01*
X152208734Y-137323970D02*
X151218743Y-136333979D01*
X136420021Y-125879979D02*
X139142677Y-125879979D01*
X146463344Y-137323970D02*
X143608734Y-137323970D01*
X161535990Y-115464010D02*
X163186790Y-115464010D01*
X196800000Y-133750000D02*
X197850000Y-133750000D01*
X115386656Y-98323970D02*
X114396665Y-97333979D01*
X186274001Y-90899921D02*
X186274001Y-89999921D01*
X178800000Y-96560000D02*
X177305999Y-98054001D01*
X148100000Y-135687314D02*
X147453335Y-136333979D01*
X102400000Y-155350000D02*
X102954001Y-155904001D01*
X132800002Y-104200002D02*
X133196080Y-104200002D01*
X108254001Y-116954001D02*
X110673921Y-116954001D01*
X107300000Y-116000000D02*
X108254001Y-116954001D01*
X151600000Y-116950000D02*
X152785990Y-115764010D01*
X114050000Y-141410000D02*
X112508481Y-142951519D01*
X137144001Y-103400079D02*
X135793922Y-102050000D01*
X115364010Y-115664010D02*
X113435990Y-115664010D01*
X197850000Y-133750000D02*
X198204010Y-134104010D01*
X116354001Y-116654001D02*
X115364010Y-115664010D01*
X198954010Y-97995990D02*
X198954010Y-98904010D01*
X144500000Y-102450000D02*
X145018990Y-102968990D01*
X136425999Y-143774001D02*
X137295999Y-142904001D01*
X138953335Y-136333979D02*
X138443657Y-136843657D01*
X123425000Y-97775000D02*
X124425000Y-97775000D01*
X123296665Y-136333979D02*
X120966021Y-136333979D01*
X162125000Y-97875000D02*
X163847078Y-97875000D01*
X105800000Y-84750000D02*
X105800000Y-85993164D01*
X162550000Y-141250000D02*
X163214010Y-141914010D01*
X117309921Y-105774001D02*
X115774001Y-105774001D01*
X112508481Y-142951519D02*
X113551519Y-142951519D01*
X65212000Y-150538000D02*
X65300000Y-150450000D01*
X122150000Y-154600000D02*
X123704001Y-156154001D01*
X155309921Y-105774001D02*
X156144001Y-104939921D01*
X164504001Y-103654001D02*
X163200000Y-102350000D01*
X170800000Y-86473922D02*
X170800000Y-84750000D01*
X168048395Y-123948395D02*
X162798395Y-123948395D01*
X99100000Y-117050000D02*
X98700000Y-117450000D01*
X66900000Y-134238000D02*
X67028000Y-134366000D01*
X134824001Y-86774001D02*
X137825999Y-86774001D01*
X106350000Y-102700000D02*
X106100000Y-102450000D01*
X177200000Y-115300610D02*
X176350129Y-116150481D01*
X124425000Y-97775000D02*
X124435990Y-97764010D01*
X105884764Y-137300000D02*
X104918743Y-136333979D01*
X189983979Y-136333979D02*
X190133979Y-136333979D01*
X187800000Y-154627922D02*
X187800000Y-154250000D01*
X143550000Y-125250000D02*
X143550000Y-124200000D01*
X117800000Y-135350000D02*
X119018657Y-136568657D01*
X138443657Y-136843657D02*
X137963344Y-137323970D01*
X149204001Y-123904001D02*
X148895999Y-123904001D01*
X159800000Y-96250000D02*
X159800000Y-96627922D01*
X157104001Y-98154001D02*
X154466687Y-98154001D01*
X119574001Y-86774001D02*
X119674001Y-86774001D01*
X159800000Y-154000000D02*
X160500000Y-154700000D01*
X101900000Y-97350000D02*
X101854001Y-97304001D01*
X175074001Y-105774001D02*
X175144001Y-105704001D01*
X150686039Y-104013961D02*
X151713961Y-104013961D01*
X124435990Y-97764010D02*
X125736088Y-97764010D01*
X135046243Y-125879979D02*
X136420021Y-125879979D01*
X126754990Y-123200000D02*
X127660989Y-124105999D01*
X138900000Y-115577922D02*
X138900000Y-115200000D01*
X157075999Y-86774001D02*
X161102575Y-86774001D01*
X137963344Y-137323970D02*
X132786656Y-137323970D01*
X151204001Y-155904001D02*
X158305999Y-155904001D01*
X100953335Y-136333979D02*
X99680344Y-137606970D01*
X124300000Y-141000000D02*
X125214010Y-141914010D01*
X164531010Y-87773354D02*
X164531010Y-90864932D01*
X134304001Y-117154001D02*
X138154001Y-117154001D01*
X130336039Y-103163961D02*
X131372078Y-104200000D01*
X100800000Y-96250000D02*
X102800000Y-96250000D01*
X196175999Y-105774001D02*
X197800000Y-104150000D01*
X157300000Y-116227922D02*
X158300000Y-115227922D01*
X140800000Y-96860000D02*
X139305999Y-98354001D01*
X133400000Y-143650000D02*
X132654001Y-142904001D01*
X170800000Y-141803922D02*
X172770079Y-143774001D01*
X162800000Y-86042344D02*
X164531010Y-87773354D01*
X63100000Y-151638000D02*
X65212000Y-151638000D01*
X145322780Y-116950000D02*
X151600000Y-116950000D01*
X119100000Y-86300000D02*
X119574001Y-86774001D01*
X145018990Y-102968990D02*
X149641068Y-102968990D01*
X185569921Y-91604001D02*
X186274001Y-90899921D01*
X119674001Y-86774001D02*
X123185999Y-86774001D01*
X93050000Y-154250000D02*
X94704001Y-155904001D01*
X175144001Y-105704001D02*
X175144001Y-103494001D01*
X111654001Y-124105999D02*
X108455175Y-124105999D01*
X187954001Y-154404001D02*
X194773921Y-154404001D01*
X152050000Y-141000000D02*
X152050000Y-142053922D01*
X149550000Y-154250000D02*
X151204001Y-155904001D01*
X150355999Y-123904001D02*
X148895999Y-123904001D01*
X94300000Y-103000000D02*
X94734001Y-102565999D01*
X193615746Y-97995990D02*
X198954010Y-97995990D01*
X131875000Y-155125000D02*
X131875000Y-155325000D01*
X119703335Y-136333979D02*
X119468657Y-136568657D01*
X198954010Y-99595990D02*
X198954010Y-100845990D01*
X118773921Y-117123921D02*
X118800000Y-117150000D01*
X133162011Y-125237989D02*
X134404253Y-125237989D01*
X130800000Y-115050000D02*
X132900000Y-117150000D01*
X156045999Y-143154001D02*
X155425999Y-143774001D01*
X107565999Y-90899921D02*
X108270079Y-91604001D01*
X178959656Y-105300142D02*
X177049858Y-105300142D01*
X166705999Y-116454001D02*
X168200000Y-114960000D01*
X142250000Y-115200000D02*
X143435990Y-116385990D01*
X179777922Y-114250000D02*
X177200000Y-114250000D01*
X158500000Y-96250000D02*
X159800000Y-96250000D01*
X160921980Y-114850000D02*
X161535990Y-115464010D01*
X115824001Y-86774001D02*
X119674001Y-86774001D01*
X130800000Y-154250000D02*
X131875000Y-155325000D01*
X176900000Y-117350000D02*
X176900000Y-116700352D01*
X146270079Y-91604001D02*
X147569921Y-91604001D01*
X149550000Y-154660000D02*
X149550000Y-154250000D01*
X118773921Y-116654001D02*
X116354001Y-116654001D01*
X177600000Y-137258391D02*
X177600000Y-135500000D01*
X177085541Y-125768990D02*
X177746531Y-126429980D01*
X177700000Y-154000000D02*
X178800000Y-154000000D01*
X133196080Y-104200002D02*
X134770079Y-105774001D01*
X99641230Y-103364010D02*
X101036088Y-103364010D01*
X197050000Y-140160000D02*
X197050000Y-139750000D01*
X120300000Y-114750000D02*
X123127220Y-114750000D01*
X183565999Y-88165293D02*
X183565999Y-90899921D01*
X141075000Y-154775000D02*
X142454001Y-156154001D01*
X109453335Y-136333979D02*
X108487314Y-137300000D01*
X189600000Y-141603922D02*
X191770079Y-143774001D01*
X178800000Y-96150000D02*
X178800000Y-96560000D01*
X197050000Y-139750000D02*
X198204010Y-138595990D01*
X94704001Y-155904001D02*
X102954001Y-155904001D01*
X94734001Y-102565999D02*
X98843219Y-102565999D01*
X156200000Y-135400000D02*
X156737278Y-135400000D01*
X166804001Y-142904001D02*
X169305999Y-142904001D01*
X111800000Y-154250000D02*
X113175000Y-155625000D01*
X175874001Y-143774001D02*
X178825389Y-143774001D01*
X178800000Y-154000000D02*
X180954001Y-156154001D01*
X184194001Y-124105999D02*
X182994001Y-124105999D01*
X159800000Y-96627922D02*
X158273921Y-98154001D01*
X118761235Y-98054001D02*
X118491266Y-98323970D01*
X162500000Y-124260000D02*
X160880019Y-125879981D01*
X65212000Y-151638000D02*
X65688000Y-151638000D01*
X119604001Y-104654001D02*
X124146978Y-104654001D01*
X176300000Y-106150000D02*
X177049858Y-105400142D01*
X120154001Y-114845999D02*
X120154001Y-115273921D01*
X178825389Y-143774001D02*
X179549871Y-143049519D01*
X100025999Y-86774001D02*
X96824001Y-86774001D01*
X131372078Y-104200000D02*
X132800000Y-104200000D01*
X144758770Y-116385990D02*
X145322780Y-116950000D01*
X158600000Y-154000000D02*
X159800000Y-154000000D01*
X116085736Y-125800000D02*
X116700000Y-125800000D01*
X124541230Y-116164010D02*
X125736088Y-116164010D01*
X181941932Y-116414010D02*
X179777922Y-114250000D01*
X121300000Y-97027922D02*
X121313961Y-97013961D01*
X152050000Y-141410000D02*
X152050000Y-141000000D01*
X163200000Y-102760000D02*
X163200000Y-102350000D01*
X165270079Y-91604001D02*
X166569921Y-91604001D01*
X143550000Y-141000000D02*
X144677220Y-141000000D01*
X193357735Y-98254001D02*
X193615746Y-97995990D01*
X113175000Y-155625000D02*
X113704001Y-156154001D01*
X175547860Y-105300142D02*
X175074001Y-105774001D01*
X148895999Y-123904001D02*
X147695999Y-123904001D01*
X184476079Y-117404001D02*
X187023921Y-117404001D01*
X148055999Y-156154001D02*
X149550000Y-154660000D01*
X147040393Y-123248395D02*
X144501605Y-123248395D01*
X198954010Y-99595990D02*
X198954010Y-100595990D01*
X176900000Y-116700352D02*
X176350129Y-116150481D01*
X102800000Y-96358002D02*
X101854001Y-97304001D01*
X175673921Y-116154001D02*
X173345999Y-116154001D01*
X197500000Y-96000000D02*
X197500000Y-96541980D01*
X143325000Y-97825000D02*
X144825000Y-97825000D01*
X181800000Y-142100000D02*
X184722078Y-142100000D01*
X153567747Y-125282011D02*
X151900000Y-123614264D01*
X172155922Y-125700000D02*
X169800000Y-125700000D01*
X115400000Y-102000000D02*
X116950000Y-102000000D01*
X118773921Y-116654001D02*
X118773921Y-117123921D01*
X124300000Y-141000000D02*
X124300000Y-141410000D01*
X132800000Y-104200000D02*
X132800002Y-104200002D01*
X151900000Y-122360000D02*
X150355999Y-123904001D01*
X151713961Y-104013961D02*
X153474001Y-105774001D01*
X138000000Y-136400000D02*
X137850000Y-136400000D01*
X151900000Y-121950000D02*
X151900000Y-122360000D01*
X197800000Y-104150000D02*
X197800000Y-101750000D01*
X183565999Y-90899921D02*
X184270079Y-91604001D01*
X172574001Y-105774001D02*
X170454001Y-103654001D01*
X166466021Y-136333979D02*
X166203335Y-136333979D01*
X146581221Y-142904001D02*
X150555999Y-142904001D01*
X112821980Y-115050000D02*
X113435990Y-115664010D01*
X185526079Y-142904001D02*
X188105999Y-142904001D01*
X124500000Y-124150000D02*
X125450000Y-123200000D01*
X121750000Y-96200000D02*
X121800000Y-96150000D01*
X131625991Y-125237989D02*
X133162011Y-125237989D01*
X177305999Y-98054001D02*
X173366687Y-98054001D01*
X190100000Y-122560000D02*
X188554001Y-124105999D01*
X123704001Y-156154001D02*
X129305999Y-156154001D01*
X182994001Y-124105999D02*
X181944001Y-124105999D01*
X198900000Y-113650000D02*
X197050000Y-115500000D01*
X187444001Y-124105999D02*
X184194001Y-124105999D01*
X145800000Y-87597106D02*
X145800000Y-89366078D01*
X193435999Y-143774001D02*
X197050000Y-140160000D01*
X104954001Y-156154001D02*
X110305999Y-156154001D01*
X179249569Y-105010229D02*
X178959656Y-105300142D01*
X125214010Y-141914010D02*
X127736088Y-141914010D01*
X150464010Y-115764010D02*
X149700000Y-115000000D01*
X156144001Y-104939921D02*
X156144001Y-103494001D01*
X123127220Y-114750000D02*
X124541230Y-116164010D01*
X109661374Y-104018992D02*
X108350000Y-102707618D01*
X159800000Y-96250000D02*
X160500000Y-96250000D01*
X178750000Y-96100000D02*
X179450000Y-96100000D01*
X114018992Y-104018992D02*
X109661374Y-104018992D01*
X156737278Y-135400000D02*
X157921257Y-136583979D01*
X123185999Y-86774001D02*
X124800000Y-85160000D01*
X166203335Y-136333979D02*
X164963344Y-137573970D01*
X163847078Y-97875000D02*
X164726079Y-98754001D01*
X190100000Y-122150000D02*
X190100000Y-122560000D01*
X132786656Y-137323970D02*
X131796665Y-136333979D01*
X105800000Y-85160000D02*
X104780000Y-86180000D01*
X125637017Y-103163961D02*
X130336039Y-103163961D01*
X140426079Y-104354001D02*
X143005999Y-104354001D01*
X182400000Y-135450000D02*
X179408391Y-135450000D01*
X117725000Y-102775000D02*
X117100000Y-102150000D01*
X177200000Y-114250000D02*
X177200000Y-114660000D01*
X147453335Y-136333979D02*
X146463344Y-137323970D01*
X112480000Y-123280000D02*
X113565736Y-123280000D01*
X155350000Y-101850000D02*
X155800000Y-102300000D01*
X115774001Y-105774001D02*
X114018992Y-104018992D01*
X121800000Y-96527922D02*
X121800000Y-96150000D01*
X144501605Y-123248395D02*
X143600000Y-124150000D01*
X141300000Y-96450000D02*
X141950000Y-96450000D01*
X188554001Y-124105999D02*
X187444001Y-124105999D01*
X137144001Y-103400079D02*
X139472157Y-103400079D01*
X197800000Y-101750000D02*
X198900000Y-102850000D01*
X179408391Y-135450000D02*
X178712392Y-136145999D01*
X101500000Y-135350000D02*
X101500000Y-135867958D01*
X130800000Y-97260000D02*
X130800000Y-96850000D01*
X188000000Y-134350000D02*
X189983979Y-136333979D01*
X198204010Y-130095990D02*
X197850000Y-129741980D01*
X108487314Y-137300000D02*
X105884764Y-137300000D01*
X101500000Y-135867958D02*
X101966021Y-136333979D01*
X166569921Y-91604001D02*
X168495999Y-89677923D01*
X134404253Y-125237989D02*
X135046243Y-125879979D01*
X128726079Y-142904001D02*
X131273921Y-142904001D01*
X126726079Y-98754001D02*
X129305999Y-98754001D01*
X154422078Y-116950000D02*
X154650000Y-116950000D01*
X119018657Y-136568657D02*
X119468657Y-136568657D01*
X120273921Y-98054001D02*
X118761235Y-98054001D01*
X129305999Y-98754001D02*
X130800000Y-97260000D01*
X196300000Y-152877922D02*
X196300000Y-152500000D01*
X157181266Y-137323970D02*
X152208734Y-137323970D01*
X112283979Y-97333979D02*
X111800000Y-96850000D01*
X127213344Y-137323970D02*
X124286656Y-137323970D01*
X192277757Y-136333979D02*
X190133979Y-136333979D01*
X145565999Y-90899921D02*
X146270079Y-91604001D01*
X176100000Y-126150000D02*
X176418990Y-125831010D01*
X125450490Y-103350490D02*
X125637017Y-103163961D01*
X80784000Y-148000000D02*
X81534000Y-147250000D01*
X121800000Y-154627922D02*
X121800000Y-154250000D01*
X157921257Y-136583979D02*
X157181266Y-137323970D01*
X188550000Y-115877922D02*
X188550000Y-115500000D01*
X181800000Y-84750000D02*
X181800000Y-86399294D01*
X136650000Y-102050000D02*
X136800000Y-101900000D01*
X177049858Y-105300142D02*
X175547860Y-105300142D01*
X114050000Y-141000000D02*
X114050000Y-141410000D01*
X155532011Y-125282011D02*
X153567747Y-125282011D01*
X176418990Y-125831010D02*
X176418990Y-125768990D01*
X196300000Y-152500000D02*
X198204010Y-150595990D01*
X139142677Y-125879979D02*
X139581562Y-126318864D01*
X143800000Y-85160000D02*
X143800000Y-84750000D01*
X120300000Y-114750000D02*
X120250000Y-114750000D01*
X113704001Y-156154001D02*
X120273921Y-156154001D01*
X198204010Y-134104010D02*
X198204010Y-137631230D01*
X188105999Y-142904001D02*
X189600000Y-141410000D01*
X102800000Y-96250000D02*
X102800000Y-96358002D01*
X180670020Y-126429980D02*
X182994001Y-124105999D01*
X105800000Y-85993164D02*
X107565999Y-87759163D01*
X192811736Y-135800000D02*
X192277757Y-136333979D01*
X160500000Y-154700000D02*
X161954001Y-156154001D01*
X129273921Y-117154001D02*
X130800000Y-115627922D01*
X132800000Y-86473922D02*
X130100000Y-89173922D01*
X101500000Y-114700000D02*
X104400000Y-114700000D01*
X118713344Y-137323970D02*
X113908734Y-137323970D01*
X127660989Y-124105999D02*
X130494001Y-124105999D01*
X131796665Y-136333979D02*
X129033979Y-136333979D01*
X180954001Y-156154001D02*
X186273921Y-156154001D01*
X124146978Y-104654001D02*
X125450490Y-103350490D01*
X120700000Y-96200000D02*
X121750000Y-96200000D01*
X101966021Y-136333979D02*
X100953335Y-136333979D01*
X139581562Y-126318864D02*
X142481136Y-126318864D01*
X101600000Y-154550000D02*
X102400000Y-155350000D01*
X142185999Y-86774001D02*
X143800000Y-85160000D01*
X181800000Y-86399294D02*
X183565999Y-88165293D01*
X119468657Y-136568657D02*
X118713344Y-137323970D01*
X157800000Y-97750000D02*
X157395999Y-98154001D01*
X177700000Y-96100000D02*
X178750000Y-96100000D01*
X170800000Y-124344078D02*
X172155922Y-125700000D01*
X142618743Y-136333979D02*
X138953335Y-136333979D01*
X96770079Y-143774001D02*
X96774001Y-143774001D01*
X113565736Y-123280000D02*
X116085736Y-125800000D01*
X187800000Y-96350000D02*
X189704001Y-98254001D01*
X65688000Y-151638000D02*
X66700000Y-152650000D01*
X128600000Y-135350000D02*
X128600000Y-135900000D01*
X104314010Y-97764010D02*
X102800000Y-96250000D01*
X162800000Y-84750000D02*
X162800000Y-86042344D01*
X178611039Y-155288961D02*
X178800000Y-155100000D01*
X105404001Y-141145999D02*
X105550000Y-141000000D01*
X157929981Y-125879981D02*
X157970019Y-125879981D01*
X161300000Y-153900000D02*
X159900000Y-153900000D01*
X139472157Y-103400079D02*
X140426079Y-104354001D01*
X158366079Y-103494001D02*
X159126079Y-104254001D01*
X184194001Y-124105999D02*
X183905999Y-124105999D01*
X139305999Y-98354001D02*
X135166687Y-98354001D01*
X168200000Y-114960000D02*
X168200000Y-114550000D01*
X183283979Y-136333979D02*
X182400000Y-135450000D01*
X191770079Y-105774001D02*
X196175999Y-105774001D01*
X143550000Y-124950000D02*
X143550000Y-125250000D01*
X183486088Y-116414010D02*
X184476079Y-117404001D01*
X128203335Y-136333979D02*
X127213344Y-137323970D01*
X118144001Y-104355999D02*
X118144001Y-104000000D01*
X132800000Y-141377922D02*
X132800000Y-141000000D01*
X112480000Y-123280000D02*
X111654001Y-124105999D01*
X177600000Y-137258391D02*
X175358391Y-137258391D01*
X118144001Y-103194001D02*
X119604001Y-104654001D01*
X161954001Y-156154001D02*
X167305999Y-156154001D01*
X148305999Y-98754001D02*
X149800000Y-97260000D01*
X137144001Y-104939921D02*
X137144001Y-103400079D01*
X169796665Y-136333979D02*
X166466021Y-136333979D01*
X117309921Y-143774001D02*
X115770079Y-143774001D01*
X144500000Y-102860000D02*
X144500000Y-102450000D01*
X140550000Y-154250000D02*
X141075000Y-154775000D01*
X158305999Y-155904001D02*
X159800000Y-154410000D01*
X118144001Y-104355999D02*
X118144001Y-104939921D01*
X191175949Y-87849871D02*
X196950481Y-87849871D01*
X179549871Y-143049519D02*
X180850481Y-143049519D01*
X198900000Y-102850000D02*
X198900000Y-113650000D01*
X128569921Y-91604001D02*
X127270079Y-91604001D01*
X169305999Y-142904001D02*
X170800000Y-141410000D01*
X189800000Y-86473922D02*
X191175949Y-87849871D01*
X99641230Y-103641230D02*
X100000000Y-104000000D01*
X162458734Y-137573970D02*
X161468743Y-136583979D01*
X121300000Y-97600000D02*
X121300000Y-97027922D01*
X135793922Y-102050000D02*
X135200000Y-102050000D01*
X112200000Y-115050000D02*
X112821980Y-115050000D01*
X161102575Y-86774001D02*
X162800000Y-85076576D01*
X144825000Y-97825000D02*
X145754001Y-98754001D01*
X81562500Y-147278500D02*
X81534000Y-147250000D01*
X184722078Y-142100000D02*
X185526079Y-142904001D01*
X186274001Y-89999921D02*
X189800000Y-86473922D01*
X101600000Y-154000000D02*
X101600000Y-154550000D01*
X153824001Y-86774001D02*
X157075999Y-86774001D01*
X153236088Y-115764010D02*
X154422078Y-116950000D01*
X143608734Y-137323970D02*
X142618743Y-136333979D01*
X108350000Y-102700000D02*
X106350000Y-102700000D01*
X118144001Y-103194001D02*
X117725000Y-102775000D01*
X104747922Y-86180000D02*
X104153921Y-86774001D01*
X145565999Y-89600079D02*
X145565999Y-90899921D01*
X183486088Y-116414010D02*
X181941932Y-116414010D01*
X108270079Y-91604001D02*
X109569921Y-91604001D01*
X125450490Y-103350490D02*
X125450490Y-103000490D01*
X135166687Y-98354001D02*
X134196665Y-97383979D01*
X161055999Y-143154001D02*
X156045999Y-143154001D01*
X168800000Y-154250000D02*
X170454001Y-155904001D01*
X186273921Y-156154001D02*
X187800000Y-154627922D01*
X105700000Y-116000000D02*
X107300000Y-116000000D01*
X154650000Y-116950000D02*
X155200000Y-117500000D01*
X198954010Y-100845990D02*
X197800000Y-102000000D01*
X173345999Y-116154001D02*
X169804001Y-116154001D01*
X118491266Y-98323970D02*
X115386656Y-98323970D01*
X163214010Y-141914010D02*
X165814010Y-141914010D01*
X189600000Y-141410000D02*
X189600000Y-141000000D01*
X127270079Y-91604001D02*
X126565999Y-90899921D01*
X107565999Y-87759163D02*
X107565999Y-90899921D01*
X127736088Y-141914010D02*
X128726079Y-142904001D01*
X152050000Y-142053922D02*
X153348039Y-143351961D01*
X179400000Y-114250000D02*
X179777922Y-114250000D01*
X104605999Y-104354001D02*
X106100000Y-102860000D01*
X96774001Y-143774001D02*
X97300000Y-144300000D01*
X163186790Y-115464010D02*
X164176781Y-116454001D01*
X162500000Y-123850000D02*
X162500000Y-124260000D01*
X162550000Y-141250000D02*
X162550000Y-141660000D01*
X128600000Y-135900000D02*
X129033979Y-136333979D01*
X190133979Y-136333979D02*
X183283979Y-136333979D01*
X92800000Y-115500000D02*
X93464010Y-116164010D01*
X151218743Y-136333979D02*
X147453335Y-136333979D01*
X137850000Y-136400000D02*
X136800000Y-135350000D01*
X118144001Y-104939921D02*
X117309921Y-105774001D01*
X66900000Y-132100000D02*
X66900000Y-134238000D01*
X169800000Y-125700000D02*
X168048395Y-123948395D01*
X130100000Y-90073922D02*
X128569921Y-91604001D01*
X110800000Y-97227922D02*
X109273921Y-98754001D01*
X149000000Y-89273922D02*
X151800000Y-86473922D01*
X94883979Y-136333979D02*
X93400000Y-134850000D01*
X140800000Y-96450000D02*
X141300000Y-96450000D01*
X110100000Y-135767958D02*
X110666021Y-136333979D01*
X134770079Y-143774001D02*
X136425999Y-143774001D01*
X198204010Y-137631230D02*
X196372780Y-135800000D01*
X152785990Y-115764010D02*
X153236088Y-115764010D01*
X115770079Y-143774001D02*
X114050000Y-142053922D01*
X142454001Y-156154001D02*
X148055999Y-156154001D01*
X186273921Y-98254001D02*
X187800000Y-96727922D01*
X131273921Y-142904001D02*
X132800000Y-141377922D01*
X187800000Y-154250000D02*
X187954001Y-154404001D01*
X142055999Y-142904001D02*
X143550000Y-141410000D01*
X112200000Y-115427922D02*
X112200000Y-115050000D01*
X177049858Y-105400142D02*
X177049858Y-105300142D01*
X158700000Y-114850000D02*
X160921980Y-114850000D01*
X102026079Y-104354001D02*
X104605999Y-104354001D01*
X95050000Y-142053922D02*
X96770079Y-143774001D01*
X113654001Y-84895999D02*
X113800000Y-84750000D01*
X93464010Y-116164010D02*
X96986088Y-116164010D01*
X113200000Y-122560000D02*
X112480000Y-123280000D01*
X113654001Y-86619921D02*
X113654001Y-84895999D01*
X105404001Y-141523921D02*
X105404001Y-141145999D01*
X159800000Y-154410000D02*
X159800000Y-154000000D01*
X178800000Y-96460000D02*
X178800000Y-96050000D01*
X149800000Y-97260000D02*
X149800000Y-96850000D01*
X156017320Y-125767320D02*
X155532011Y-125282011D01*
X178712392Y-136145999D02*
X177600000Y-137258391D01*
X179450000Y-96100000D02*
X179700000Y-95850000D01*
X156017320Y-125879982D02*
X155691339Y-125554001D01*
X147695999Y-123904001D02*
X147040393Y-123248395D01*
X187023921Y-117404001D02*
X188550000Y-115877922D01*
X159900000Y-153900000D02*
X159800000Y-154000000D01*
X100910000Y-116540000D02*
X100910000Y-115700000D01*
X149641068Y-102968990D02*
X150686039Y-104013961D01*
X100500000Y-117050000D02*
X99100000Y-117050000D01*
X122805999Y-142904001D02*
X118179921Y-142904001D01*
X96770079Y-143774001D02*
X103153921Y-143774001D01*
X106396472Y-123653528D02*
X105600000Y-124450000D01*
X106288765Y-98754001D02*
X105298774Y-97764010D01*
X176418990Y-125768990D02*
X172224912Y-125768990D01*
X114396665Y-97333979D02*
X112283979Y-97333979D01*
X102400000Y-155250000D02*
X103000000Y-154650000D01*
X143550000Y-141410000D02*
X143550000Y-141000000D01*
X158273921Y-98154001D02*
X157104001Y-98154001D01*
X116654001Y-116654001D02*
X116354001Y-116654001D01*
X126565999Y-90899921D02*
X126565999Y-87765999D01*
X130800000Y-115627922D02*
X130800000Y-115250000D01*
X175677441Y-116150481D02*
X175673921Y-116154001D01*
X109498625Y-142951519D02*
X108461116Y-141914010D01*
X94704001Y-98154001D02*
X92800000Y-96250000D01*
X172376696Y-97064010D02*
X169014010Y-97064010D01*
X111800000Y-154660000D02*
X111800000Y-154250000D01*
X181944001Y-124105999D02*
X181600000Y-124450000D01*
X198204010Y-150595990D02*
X198204010Y-138595990D01*
X105298774Y-97764010D02*
X104314010Y-97764010D01*
X194773921Y-154404001D02*
X196300000Y-152877922D01*
X117600000Y-117600000D02*
X116654001Y-116654001D01*
X165814010Y-141914010D02*
X166804001Y-142904001D01*
X102400000Y-155350000D02*
X102400000Y-155250000D01*
X156144001Y-103494001D02*
X154500000Y-101850000D01*
X125450490Y-103000490D02*
X125200000Y-102750000D01*
X104918743Y-136333979D02*
X101966021Y-136333979D01*
X175074001Y-105774001D02*
X172574001Y-105774001D01*
X110274001Y-90899921D02*
X110274001Y-89999921D01*
X170800000Y-141410000D02*
X170800000Y-141000000D01*
X132704001Y-156154001D02*
X139055999Y-156154001D01*
X149000000Y-90173922D02*
X149000000Y-89273922D01*
X154422078Y-116950000D02*
X157300000Y-116950000D01*
X174100000Y-117000000D02*
X173345999Y-116245999D01*
X137825999Y-86774001D02*
X142185999Y-86774001D01*
X134770079Y-105774001D02*
X136309921Y-105774001D01*
X162800000Y-85076576D02*
X162800000Y-84750000D01*
X166600000Y-136200000D02*
X166466021Y-136333979D01*
X130494001Y-124105999D02*
X131625991Y-125237989D01*
X173366687Y-98054001D02*
X172376696Y-97064010D01*
X95050000Y-141000000D02*
X95050000Y-142053922D01*
X174700000Y-136600000D02*
X175358391Y-137258391D01*
X172824001Y-86774001D02*
X180185999Y-86774001D01*
X124800000Y-85160000D02*
X124800000Y-84750000D01*
X180185999Y-86774001D02*
X181800000Y-85160000D01*
X101854001Y-97304001D02*
X101004001Y-98154001D01*
X158300000Y-115227922D02*
X158300000Y-114850000D01*
X106100000Y-102860000D02*
X106100000Y-102450000D01*
X151800000Y-84750000D02*
X153824001Y-86774001D01*
X134196665Y-97383979D02*
X131333979Y-97383979D01*
X164963344Y-137573970D02*
X162458734Y-137573970D01*
X177273921Y-155904001D02*
X177888961Y-155288961D01*
X105800000Y-84750000D02*
X105800000Y-85160000D01*
X132900000Y-117150000D02*
X134300000Y-117150000D01*
X143800000Y-84750000D02*
X143800000Y-85597106D01*
X183726079Y-98254001D02*
X186273921Y-98254001D01*
X109569921Y-91604001D02*
X110274001Y-90899921D01*
X189600000Y-141000000D02*
X189600000Y-141603922D01*
X151900000Y-123614264D02*
X151900000Y-121950000D01*
X159126079Y-104254001D02*
X161705999Y-104254001D01*
X116950000Y-102000000D02*
X117100000Y-102150000D01*
X164531010Y-90864932D02*
X165270079Y-91604001D01*
X131875000Y-155325000D02*
X132704001Y-156154001D01*
X120200000Y-154250000D02*
X121800000Y-154250000D01*
X167305999Y-156154001D02*
X168800000Y-154660000D01*
X175358391Y-137258391D02*
X170721077Y-137258391D01*
X100500000Y-116950000D02*
X100910000Y-116540000D01*
X99680344Y-137606970D02*
X96791734Y-137606970D01*
X176968990Y-125768990D02*
X177085541Y-125768990D01*
X157500000Y-125450000D02*
X157929981Y-125879981D01*
X177746531Y-126429980D02*
X180670020Y-126429980D01*
X161705999Y-104254001D02*
X163200000Y-102760000D01*
X129305999Y-156154001D02*
X130800000Y-154660000D01*
X154500000Y-101850000D02*
X155350000Y-101850000D01*
X112918743Y-136333979D02*
X110666021Y-136333979D01*
X110673921Y-116954001D02*
X112200000Y-115427922D01*
X172770079Y-143774001D02*
X175874001Y-143774001D01*
X108350000Y-102707618D02*
X108350000Y-102700000D01*
X166600000Y-135650000D02*
X166600000Y-136200000D01*
X120250000Y-114750000D02*
X120154001Y-114845999D01*
X130800000Y-154660000D02*
X130800000Y-154250000D01*
X102954001Y-155904001D02*
X104704001Y-155904001D01*
X177200000Y-114250000D02*
X177200000Y-115300610D01*
X177888961Y-155288961D02*
X178611039Y-155288961D01*
X143435990Y-116385990D02*
X144758770Y-116385990D01*
X168495999Y-89677923D02*
X168495999Y-88777923D01*
X144677220Y-141000000D02*
X146581221Y-142904001D01*
X139055999Y-156154001D02*
X140550000Y-154660000D01*
X113908734Y-137323970D02*
X112918743Y-136333979D01*
X125736088Y-97764010D02*
X126726079Y-98754001D01*
X180050000Y-97300000D02*
X182772078Y-97300000D01*
X187800000Y-96727922D02*
X187800000Y-96350000D01*
X104153921Y-86774001D02*
X100025999Y-86774001D01*
X138154001Y-117154001D02*
X138300000Y-117300000D01*
X113800000Y-84750000D02*
X115824001Y-86774001D01*
X121313961Y-97013961D02*
X121800000Y-96527922D01*
X137295999Y-142904001D02*
X142055999Y-142904001D01*
X189800000Y-86473922D02*
X189800000Y-84750000D01*
X65212000Y-151638000D02*
X65212000Y-150538000D01*
X197850000Y-129741980D02*
X197850000Y-121000000D01*
X134300000Y-117150000D02*
X134304001Y-117154001D01*
X156017320Y-125879982D02*
X156017320Y-125767320D01*
X164176781Y-116454001D02*
X166705999Y-116454001D01*
X176968990Y-125768990D02*
X176418990Y-125768990D01*
X121800000Y-96150000D02*
X123425000Y-97775000D01*
X103000000Y-97350000D02*
X101900000Y-97350000D01*
X124300000Y-141410000D02*
X122805999Y-142904001D01*
X104704001Y-155904001D02*
X104954001Y-156154001D01*
X150114010Y-97164010D02*
X149800000Y-96850000D01*
G04 #@! TO.N,+5V*
X77900000Y-92110000D02*
X80390000Y-89620000D01*
X76554010Y-154754010D02*
X80220990Y-154754010D01*
X78200000Y-150500000D02*
X75750000Y-150500000D01*
X80220990Y-154754010D02*
X81300000Y-153675000D01*
X74900000Y-134150000D02*
X73250000Y-132500000D01*
X72950000Y-150500000D02*
X72400000Y-151050000D01*
X69200000Y-144200000D02*
X67158000Y-144200000D01*
X75350000Y-134150000D02*
X74900000Y-134150000D01*
X75750000Y-150500000D02*
X72950000Y-150500000D01*
X67158000Y-144200000D02*
X67028000Y-144070000D01*
X76025000Y-154225000D02*
X76554010Y-154754010D01*
X77900000Y-109950000D02*
X77900000Y-92110000D01*
D43*
G04 #@! TO.N,Net-(D1-Pad2)*
X85500000Y-83850000D02*
X89360000Y-87710000D01*
X89360000Y-87710000D02*
X91190000Y-87710000D01*
G04 #@! TO.N,row1*
X131150555Y-93139011D02*
X134460989Y-93139011D01*
X85500000Y-87150000D02*
X85500000Y-88600000D01*
X97800000Y-90973882D02*
X97800000Y-89750000D01*
X82900000Y-107430000D02*
X82900000Y-92800000D01*
X85350000Y-87300000D02*
X85500000Y-87150000D01*
X89114989Y-92214989D02*
X93441107Y-92214989D01*
X153353306Y-93139010D02*
X149750555Y-93139011D01*
X82900000Y-87300000D02*
X85350000Y-87300000D01*
X149750555Y-93139011D02*
X149354565Y-92743021D01*
X154889011Y-90300000D02*
X154889011Y-91603305D01*
X99172991Y-88377009D02*
X105244049Y-88377009D01*
X112758575Y-93139011D02*
X115477422Y-93139010D01*
X125281001Y-89188885D02*
X125281001Y-91225739D01*
X136300000Y-91300000D02*
X136300000Y-90208118D01*
X117107009Y-91509423D02*
X117107009Y-89311425D01*
X141350000Y-88150000D02*
X143392116Y-88150000D01*
X93441107Y-92214989D02*
X93857119Y-92631001D01*
X118310424Y-88108010D02*
X124200126Y-88108010D01*
X163391990Y-88899874D02*
X162392116Y-87900000D01*
X96142881Y-92631001D02*
X97800000Y-90973882D01*
X106426980Y-91371718D02*
X107798283Y-92743021D01*
X107798283Y-92743021D02*
X112362585Y-92743021D01*
X134460989Y-93139011D02*
X136300000Y-91300000D01*
X169054565Y-92743021D02*
X164798283Y-92743021D01*
X106426979Y-89305921D02*
X106426980Y-91371718D01*
X80390000Y-109940000D02*
X82900000Y-107430000D01*
X125281001Y-91225739D02*
X126798283Y-92743021D01*
X161823117Y-88468999D02*
X156720011Y-88468999D01*
X164798283Y-92743021D02*
X163391990Y-91336728D01*
X154889011Y-91603305D02*
X153353306Y-93139010D01*
X140595941Y-88904059D02*
X141350000Y-88150000D01*
X115477422Y-93139010D02*
X117107009Y-91509423D01*
X163391990Y-91336728D02*
X163391990Y-88899874D01*
X112362585Y-92743021D02*
X112758575Y-93139011D01*
X126798283Y-92743021D02*
X130754565Y-92743021D01*
X172379423Y-93139011D02*
X169450555Y-93139011D01*
X156720011Y-88468999D02*
X154889011Y-90300000D01*
X137604059Y-88904059D02*
X140595941Y-88904059D01*
X136300000Y-90208118D02*
X137604059Y-88904059D01*
X144281001Y-91225739D02*
X144281001Y-89038885D01*
X169450555Y-93139011D02*
X169054565Y-92743021D01*
X144281001Y-89038885D02*
X143392116Y-88150000D01*
X124200126Y-88108010D02*
X124342116Y-88250000D01*
X145798283Y-92743021D02*
X144281001Y-91225739D01*
X85500000Y-88600000D02*
X89114989Y-92214989D01*
X174849435Y-88468999D02*
X174008010Y-89310424D01*
X162392116Y-87900000D02*
X161823117Y-88468999D01*
X174008010Y-91510424D02*
X172379423Y-93139011D01*
X174008010Y-89310424D02*
X174008010Y-91510424D01*
X97800000Y-89750000D02*
X99172991Y-88377009D01*
X93857119Y-92631001D02*
X96142881Y-92631001D01*
X130754565Y-92743021D02*
X131150555Y-93139011D01*
X181700000Y-88833452D02*
X182131001Y-89264453D01*
X149354565Y-92743021D02*
X145798283Y-92743021D01*
X105371058Y-88250000D02*
X106426979Y-89305921D01*
X181802095Y-88468999D02*
X174849435Y-88468999D01*
X124342116Y-88250000D02*
X125281001Y-89188885D01*
X117107009Y-89311425D02*
X118310424Y-88108010D01*
X105244049Y-88377009D02*
X105371058Y-88250000D01*
G04 #@! TO.N,Net-(D2-Pad2)*
X108000000Y-86500000D02*
X108980000Y-86500000D01*
X108980000Y-86500000D02*
X110190000Y-87710000D01*
G04 #@! TO.N,Net-(D3-Pad2)*
X127178942Y-86425000D02*
X127905000Y-86425000D01*
X127905000Y-86425000D02*
X129190000Y-87710000D01*
G04 #@! TO.N,Net-(D4-Pad2)*
X146980000Y-86500000D02*
X148190000Y-87710000D01*
X146250000Y-86500000D02*
X146980000Y-86500000D01*
G04 #@! TO.N,Net-(D5-Pad2)*
X165250000Y-86250000D02*
X166710000Y-87710000D01*
X166710000Y-87710000D02*
X167190000Y-87710000D01*
G04 #@! TO.N,Net-(D6-Pad2)*
X184946548Y-86466548D02*
X186190000Y-87710000D01*
X184133452Y-86466548D02*
X184946548Y-86466548D01*
G04 #@! TO.N,Net-(D11-Pad2)*
X85598000Y-104650000D02*
X89130000Y-104650000D01*
X89130000Y-104650000D02*
X91190000Y-106710000D01*
G04 #@! TO.N,row2*
X144300000Y-106000000D02*
X145600000Y-104700000D01*
X152600000Y-106600000D02*
X152913021Y-106913021D01*
X177245634Y-107930408D02*
X178263021Y-106913021D01*
X98186941Y-109586941D02*
X96142881Y-111631001D01*
X181713021Y-106913021D02*
X183000000Y-108200000D01*
X126900000Y-111000000D02*
X131200000Y-111000000D01*
X131200000Y-111000000D02*
X131831001Y-111631001D01*
X163350000Y-109150000D02*
X164700000Y-110500000D01*
X163331001Y-107381001D02*
X163331001Y-108338885D01*
X164700000Y-110500000D02*
X166900000Y-110500000D01*
X96142881Y-111631001D02*
X93031001Y-111631001D01*
X151661262Y-106600000D02*
X152600000Y-106600000D01*
X80390000Y-112480000D02*
X82016000Y-112480000D01*
X91900000Y-110500000D02*
X87200000Y-110500000D01*
X173119592Y-107930408D02*
X177245634Y-107930408D01*
X125021058Y-107928942D02*
X125075000Y-107928942D01*
X108210989Y-110989011D02*
X112215129Y-110989011D01*
X170126118Y-106600000D02*
X171789184Y-106600000D01*
X98848999Y-108659119D02*
X99754059Y-107754059D01*
X161950000Y-106000000D02*
X163331001Y-107381001D01*
X112215129Y-110989011D02*
X112857119Y-111631001D01*
X142950000Y-106000000D02*
X144300000Y-106000000D01*
X124042116Y-106950000D02*
X125021058Y-107928942D01*
X138500000Y-106000000D02*
X140000000Y-106000000D01*
X140000000Y-106000000D02*
X139508118Y-106000000D01*
X167151001Y-109575117D02*
X170126118Y-106600000D01*
X171789184Y-106600000D02*
X173119592Y-107930408D01*
X158508118Y-106000000D02*
X161950000Y-106000000D01*
X112857119Y-111631001D02*
X115142881Y-111631001D01*
X116536941Y-110236941D02*
X116563059Y-110236941D01*
X105533274Y-107466726D02*
X107180989Y-109114441D01*
X116563059Y-110236941D02*
X117848999Y-108951001D01*
X99754059Y-107754059D02*
X99939119Y-107568999D01*
X125331001Y-109431001D02*
X126900000Y-111000000D01*
X135400000Y-109100000D02*
X138500000Y-106000000D01*
X82016000Y-112480000D02*
X85598000Y-108898000D01*
X149761262Y-104700000D02*
X151661262Y-106600000D01*
X98186941Y-109321177D02*
X98848999Y-108659119D01*
X131831001Y-111631001D02*
X134142881Y-111631001D01*
X145600000Y-104700000D02*
X149761262Y-104700000D01*
X108118695Y-110989011D02*
X108210989Y-110989011D01*
X166900000Y-110500000D02*
X167151001Y-110248999D01*
X125331001Y-108184943D02*
X125331001Y-109431001D01*
X105661115Y-107568999D02*
X105950000Y-107857884D01*
X183000000Y-109000000D02*
X183000000Y-109900000D01*
X119558118Y-106950000D02*
X124042116Y-106950000D01*
X155940679Y-106754059D02*
X157754059Y-106754059D01*
X134142881Y-111631001D02*
X135400000Y-110373882D01*
X105533274Y-107466726D02*
X104582568Y-106516020D01*
X98186941Y-109586941D02*
X98186941Y-109321177D01*
X183000000Y-108200000D02*
X183000000Y-109000000D01*
X157754059Y-106754059D02*
X158508118Y-106000000D01*
X107180990Y-110051306D02*
X108118695Y-110989011D01*
X155781717Y-106913021D02*
X155940679Y-106754059D01*
X163350000Y-108357884D02*
X163350000Y-109150000D01*
X100992098Y-106516020D02*
X99754059Y-107754059D01*
X142950000Y-106000000D02*
X140000000Y-106000000D01*
X152913021Y-106913021D02*
X155781717Y-106913021D01*
X117848999Y-108659119D02*
X119558118Y-106950000D01*
X167151001Y-110248999D02*
X167151001Y-109575117D01*
X163331001Y-108338885D02*
X163350000Y-108357884D01*
X135400000Y-110373882D02*
X135400000Y-109100000D01*
X178263021Y-106913021D02*
X181713021Y-106913021D01*
X117848999Y-108951001D02*
X117848999Y-108659119D01*
X125075000Y-107928942D02*
X125331001Y-108184943D01*
X104582568Y-106516020D02*
X100992098Y-106516020D01*
X115142881Y-111631001D02*
X116536941Y-110236941D01*
X85598000Y-108898000D02*
X87200000Y-110500000D01*
X107180989Y-109114441D02*
X107180990Y-110051306D01*
X93031001Y-111631001D02*
X91900000Y-110500000D01*
X85598000Y-107950000D02*
X85598000Y-108898000D01*
G04 #@! TO.N,Net-(D12-Pad2)*
X109460000Y-106710000D02*
X107883274Y-105133274D01*
X110190000Y-106710000D02*
X109460000Y-106710000D01*
X107883274Y-105133274D02*
X107866726Y-105133274D01*
G04 #@! TO.N,Net-(D13-Pad2)*
X127551058Y-105071058D02*
X129190000Y-106710000D01*
G04 #@! TO.N,Net-(D14-Pad2)*
X146250000Y-106000000D02*
X147480000Y-106000000D01*
X147480000Y-106000000D02*
X148190000Y-106710000D01*
G04 #@! TO.N,Net-(D15-Pad2)*
X165000000Y-105500000D02*
X165980000Y-105500000D01*
X165980000Y-105500000D02*
X167190000Y-106710000D01*
G04 #@! TO.N,Net-(D16-Pad2)*
X186080000Y-106600000D02*
X186190000Y-106710000D01*
X183000000Y-106600000D02*
X186080000Y-106600000D01*
G04 #@! TO.N,Net-(D21-Pad2)*
X85500000Y-121850000D02*
X87330000Y-121850000D01*
X87330000Y-121850000D02*
X91190000Y-125710000D01*
G04 #@! TO.N,row3*
X93857119Y-130631001D02*
X93533097Y-130306979D01*
X116900000Y-127889684D02*
X116900000Y-129513960D01*
X176793128Y-131139010D02*
X178285119Y-132631001D01*
X162700000Y-128000000D02*
X165839011Y-131139011D01*
X104935770Y-126789712D02*
X105122808Y-126789712D01*
X115606980Y-130806980D02*
X107506979Y-130806979D01*
X139109766Y-127457884D02*
X144350000Y-127457884D01*
X104935770Y-126789712D02*
X99718406Y-126789712D01*
X155848999Y-128631437D02*
X155848999Y-127659119D01*
X105122808Y-126789712D02*
X105566548Y-127233452D01*
X143900000Y-127819614D02*
X146711387Y-130631001D01*
X137489119Y-127018999D02*
X138670881Y-127018999D01*
X127363635Y-130233951D02*
X130971949Y-130233951D01*
X124010989Y-126510989D02*
X118278694Y-126510990D01*
X98848999Y-127659119D02*
X98848999Y-127924883D01*
X99718406Y-126789712D02*
X98848999Y-127659119D01*
X138670881Y-127018999D02*
X139109766Y-127457884D01*
X130971949Y-130233951D02*
X131368999Y-130631001D01*
X180714881Y-132631001D02*
X182050000Y-131295882D01*
X83925000Y-123575000D02*
X85500000Y-125150000D01*
X85500000Y-126370316D02*
X85500000Y-125150000D01*
X83925000Y-121095000D02*
X83925000Y-123575000D01*
X125339230Y-127839230D02*
X125339230Y-128209546D01*
X106031001Y-129331001D02*
X106031001Y-127884943D01*
X89436663Y-130306979D02*
X85500000Y-126370316D01*
X93533097Y-130306979D02*
X89436663Y-130306979D01*
X106031001Y-127884943D02*
X104935770Y-126789712D01*
X165839011Y-131139011D02*
X176793128Y-131139010D01*
X182050000Y-131295882D02*
X182050000Y-128157884D01*
X136848999Y-127659119D02*
X137489119Y-127018999D01*
X156489119Y-127018999D02*
X161718999Y-127018999D01*
X143900000Y-127300000D02*
X143900000Y-127819614D01*
X153849435Y-130631001D02*
X155848999Y-128631437D01*
X116900000Y-129513960D02*
X115606980Y-130806980D01*
X107506979Y-130806979D02*
X106031001Y-129331001D01*
X124900000Y-127400000D02*
X125339230Y-127839230D01*
X146711387Y-130631001D02*
X153849435Y-130631001D01*
X118278694Y-126510990D02*
X116900000Y-127889684D01*
X136848999Y-128643317D02*
X136848999Y-127659119D01*
X155848999Y-127659119D02*
X156489119Y-127018999D01*
X131368999Y-130631001D02*
X134861315Y-130631001D01*
X178285119Y-132631001D02*
X180714881Y-132631001D01*
X161718999Y-127018999D02*
X162700000Y-128000000D01*
X80390000Y-117560000D02*
X83925000Y-121095000D01*
X124900000Y-127400000D02*
X124010989Y-126510989D01*
X96142881Y-130631001D02*
X93857119Y-130631001D01*
X98848999Y-127924883D02*
X96142881Y-130631001D01*
X134861315Y-130631001D02*
X136848999Y-128643317D01*
X125339230Y-128209546D02*
X127363635Y-130233951D01*
G04 #@! TO.N,Net-(D22-Pad2)*
X109380000Y-124900000D02*
X110190000Y-125710000D01*
X107900000Y-124900000D02*
X109380000Y-124900000D01*
G04 #@! TO.N,Net-(D23-Pad2)*
X127717884Y-125710000D02*
X129190000Y-125710000D01*
X126550000Y-124542116D02*
X127717884Y-125710000D01*
G04 #@! TO.N,Net-(D24-Pad2)*
X147080000Y-124600000D02*
X148190000Y-125710000D01*
X146000000Y-124600000D02*
X147080000Y-124600000D01*
G04 #@! TO.N,Net-(D25-Pad2)*
X166622116Y-125142116D02*
X167190000Y-125710000D01*
X164350000Y-125142116D02*
X166622116Y-125142116D01*
G04 #@! TO.N,Net-(D26-Pad2)*
X183700000Y-125300000D02*
X185780000Y-125300000D01*
X185780000Y-125300000D02*
X186190000Y-125710000D01*
G04 #@! TO.N,Net-(D31-Pad2)*
X90356000Y-145544000D02*
X91190000Y-144710000D01*
X85500000Y-145544000D02*
X90356000Y-145544000D01*
G04 #@! TO.N,row4*
X106539011Y-148639011D02*
X107606979Y-149706979D01*
X87500000Y-149000000D02*
X85656000Y-149000000D01*
X85656000Y-149000000D02*
X85500000Y-148844000D01*
X155848999Y-146651001D02*
X155848999Y-147801413D01*
X92139402Y-149631001D02*
X92647413Y-150139011D01*
X111206979Y-149706979D02*
X111600000Y-150100000D01*
X81900000Y-140200000D02*
X86500000Y-140200000D01*
X125396058Y-147531742D02*
X125539011Y-147674695D01*
X144539011Y-147674695D02*
X143300000Y-146435684D01*
X105487289Y-145437289D02*
X106050000Y-146000000D01*
X163908010Y-149708010D02*
X164414991Y-150214991D01*
X87500000Y-149000000D02*
X88131001Y-149631001D01*
X80814118Y-140200000D02*
X81900000Y-140200000D01*
X105800000Y-146000000D02*
X105800000Y-146735684D01*
X163066548Y-146218430D02*
X163908010Y-147059892D01*
X106539011Y-147474695D02*
X106539011Y-148639011D01*
X150389011Y-150139011D02*
X149956980Y-149706980D01*
X98104424Y-148387892D02*
X98104424Y-146414010D01*
X143300000Y-146435684D02*
X143300000Y-145900000D01*
X169004241Y-150214991D02*
X169436272Y-150647020D01*
X98104424Y-146414010D02*
X99081145Y-145437289D01*
X176100941Y-149050941D02*
X178985156Y-146166726D01*
X125396058Y-146803942D02*
X125396058Y-147531742D01*
X135944951Y-148547365D02*
X135944951Y-146584299D01*
X135944951Y-146584299D02*
X137978219Y-144551031D01*
X111600000Y-150100000D02*
X112607684Y-150100000D01*
X117423261Y-145495173D02*
X124087289Y-145495173D01*
X124650000Y-146057884D02*
X125396058Y-146803942D01*
X115353306Y-150139010D02*
X116889011Y-148603305D01*
X163908010Y-147059892D02*
X163908010Y-149708010D01*
X112646695Y-150139011D02*
X115353306Y-150139010D01*
X131646695Y-150139011D02*
X134353306Y-150139010D01*
X131214663Y-149706979D02*
X131646695Y-150139011D01*
X137978219Y-144551031D02*
X141951031Y-144551031D01*
X116889011Y-146029423D02*
X117423261Y-145495173D01*
X174399059Y-149050941D02*
X176100941Y-149050941D01*
X134353306Y-150139010D02*
X135944951Y-148547365D01*
X125539011Y-147674695D02*
X125539011Y-149120577D01*
X126125413Y-149706979D02*
X131214663Y-149706979D01*
X141951031Y-144551031D02*
X143300000Y-145900000D01*
X163066548Y-145533452D02*
X162739011Y-145860989D01*
X144539011Y-149150555D02*
X144539011Y-147674695D01*
X78800000Y-138185882D02*
X80814118Y-140200000D01*
X124087289Y-145495173D02*
X124650000Y-146057884D01*
X96353306Y-150139010D02*
X98104424Y-148387892D01*
X155848999Y-147801413D02*
X153511402Y-150139010D01*
X99081145Y-145437289D02*
X105487289Y-145437289D01*
X92647413Y-150139011D02*
X96353306Y-150139010D01*
X163066548Y-145533452D02*
X163066548Y-146218430D01*
X112607684Y-150100000D02*
X112646695Y-150139011D01*
X78800000Y-113430000D02*
X78800000Y-138185882D01*
X178985156Y-146166726D02*
X181666548Y-146166726D01*
X88131001Y-149631001D02*
X92139402Y-149631001D01*
X149956980Y-149706980D02*
X145095435Y-149706979D01*
X145095435Y-149706979D02*
X144539011Y-149150555D01*
X164414991Y-150214991D02*
X169004241Y-150214991D01*
X172802980Y-150647020D02*
X174399059Y-149050941D01*
X153511402Y-150139010D02*
X150389011Y-150139011D01*
X107606979Y-149706979D02*
X111206979Y-149706979D01*
X156639011Y-145860989D02*
X155848999Y-146651001D01*
X116889011Y-148603305D02*
X116889011Y-146029423D01*
X105800000Y-146735684D02*
X106539011Y-147474695D01*
X125539011Y-149120577D02*
X126125413Y-149706979D01*
X62610000Y-97240000D02*
X78800000Y-113430000D01*
X169436272Y-150647020D02*
X172802980Y-150647020D01*
X162739011Y-145860989D02*
X156639011Y-145860989D01*
G04 #@! TO.N,Net-(D32-Pad2)*
X108622116Y-143142116D02*
X110190000Y-144710000D01*
X107450000Y-143142116D02*
X108622116Y-143142116D01*
G04 #@! TO.N,Net-(D33-Pad2)*
X126300000Y-143200000D02*
X127680000Y-143200000D01*
X127680000Y-143200000D02*
X129190000Y-144710000D01*
G04 #@! TO.N,Net-(D34-Pad2)*
X146617884Y-144710000D02*
X148190000Y-144710000D01*
X144950000Y-143042116D02*
X146617884Y-144710000D01*
G04 #@! TO.N,Net-(D35-Pad2)*
X167190000Y-144710000D02*
X166910000Y-144710000D01*
X166910000Y-144710000D02*
X165400000Y-143200000D01*
G04 #@! TO.N,Net-(D36-Pad2)*
X184000000Y-143833274D02*
X185313274Y-143833274D01*
X185313274Y-143833274D02*
X186190000Y-144710000D01*
D42*
G04 #@! TO.N,Net-(D51-Pad2)*
X70800000Y-131650000D02*
X73250000Y-129200000D01*
X70800000Y-133900000D02*
X70800000Y-131650000D01*
D43*
G04 #@! TO.N,NEOPIXEL_EN*
X66700000Y-154550000D02*
X63288000Y-154550000D01*
X60888000Y-154738000D02*
X63100000Y-154738000D01*
X61100000Y-140700000D02*
X58000000Y-143800000D01*
X63288000Y-154550000D02*
X63100000Y-154738000D01*
X58000000Y-151850000D02*
X60888000Y-154738000D01*
X64500000Y-129300000D02*
X64500000Y-139900000D01*
X58000000Y-143800000D02*
X58000000Y-151850000D01*
X64500000Y-139900000D02*
X63700000Y-140700000D01*
X63700000Y-140700000D02*
X61100000Y-140700000D01*
G04 #@! TO.N,/VDIV*
X67028000Y-138828000D02*
X67028000Y-137466000D01*
X67028000Y-140970000D02*
X67028000Y-138828000D01*
X69228000Y-138828000D02*
X70000000Y-139600000D01*
X67028000Y-138828000D02*
X69228000Y-138828000D01*
G04 #@! TO.N,col2*
X111200000Y-105600000D02*
X110825000Y-105225000D01*
X110825000Y-105225000D02*
X109175000Y-105225000D01*
X107879279Y-103929279D02*
X106970721Y-103929279D01*
X105400000Y-105500000D02*
X99300000Y-105500000D01*
X113300000Y-105600000D02*
X111200000Y-105600000D01*
X99300000Y-105500000D02*
X98600001Y-106199999D01*
X95499999Y-106199999D02*
X95100000Y-105800000D01*
X106970721Y-103929279D02*
X105400000Y-105500000D01*
X109175000Y-105225000D02*
X107879279Y-103929279D01*
X98600001Y-106199999D02*
X95499999Y-106199999D01*
G04 #@! TO.N,col3*
X115142881Y-106868999D02*
X115186903Y-106913021D01*
X109781001Y-110481001D02*
X110151001Y-110111001D01*
X127329119Y-110481001D02*
X128510881Y-110481001D01*
X98800001Y-106799999D02*
X99591990Y-106008010D01*
X128510881Y-110481001D02*
X130671001Y-108320881D01*
X108329119Y-110481001D02*
X109781001Y-110481001D01*
X115186903Y-106913021D02*
X118086979Y-106913021D01*
X93799999Y-106799999D02*
X98800001Y-106799999D01*
X130671001Y-108320881D02*
X130671001Y-107128999D01*
X106308010Y-106008010D02*
X107688999Y-107388999D01*
X99591990Y-106008010D02*
X106308010Y-106008010D01*
X130671001Y-107128999D02*
X132000000Y-105800000D01*
X112857119Y-106868999D02*
X115142881Y-106868999D01*
X110151001Y-110111001D02*
X110151001Y-109575117D01*
X93400000Y-106400000D02*
X93799999Y-106799999D01*
X110151001Y-109575117D02*
X112857119Y-106868999D01*
X118086979Y-106913021D02*
X119206979Y-105793021D01*
X107688999Y-109840881D02*
X108329119Y-110481001D01*
X125593021Y-105793021D02*
X126688999Y-106888999D01*
X126688999Y-109840881D02*
X127329119Y-110481001D01*
X126688999Y-106888999D02*
X126688999Y-109840881D01*
X119206979Y-105793021D02*
X125593021Y-105793021D01*
X107688999Y-107388999D02*
X107688999Y-109840881D01*
G04 #@! TO.N,col4*
X87281001Y-141081001D02*
X87281001Y-135929833D01*
X78200000Y-128100000D02*
X78200000Y-138304316D01*
X139900000Y-133199616D02*
X140999616Y-133199616D01*
X116114989Y-131314989D02*
X116114989Y-131285011D01*
X87281001Y-135929833D02*
X86225584Y-134874416D01*
X78200000Y-138304316D02*
X80695684Y-140800000D01*
X141199232Y-133000000D02*
X142079696Y-133000000D01*
X75415000Y-125315000D02*
X78200000Y-128100000D01*
X88736179Y-130814989D02*
X92135293Y-130814989D01*
X92635293Y-131314989D02*
X100235293Y-131314989D01*
X85200000Y-140800000D02*
X86000000Y-141600000D01*
X130761525Y-130741961D02*
X131334553Y-131314989D01*
X126868803Y-130741961D02*
X130761525Y-130741961D01*
X80695684Y-140800000D02*
X85200000Y-140800000D01*
X123145841Y-127018999D02*
X126868803Y-130741961D01*
X138015373Y-131314989D02*
X139900000Y-133199616D01*
X86225584Y-133325584D02*
X88736179Y-130814989D01*
X62610000Y-112480000D02*
X75415000Y-125285000D01*
X101225284Y-132304980D02*
X104742638Y-132304980D01*
X86000000Y-141600000D02*
X86762002Y-141600000D01*
X154435011Y-131314989D02*
X155000000Y-130750000D01*
X143764707Y-131314989D02*
X154435011Y-131314989D01*
X75415000Y-125285000D02*
X75415000Y-125315000D01*
X105732629Y-131314989D02*
X116114989Y-131314989D01*
X118489119Y-127018999D02*
X123145841Y-127018999D01*
X100235293Y-131314989D02*
X101225284Y-132304980D01*
X142079696Y-133000000D02*
X143764707Y-131314989D01*
X104742638Y-132304980D02*
X105732629Y-131314989D01*
X92135293Y-130814989D02*
X92635293Y-131314989D01*
X131334553Y-131314989D02*
X138015373Y-131314989D01*
X86762002Y-141600000D02*
X87281001Y-141081001D01*
X86225584Y-134874416D02*
X86225584Y-133325584D01*
X117800000Y-127708118D02*
X118489119Y-127018999D01*
X117800000Y-129600000D02*
X117800000Y-127708118D01*
X116114989Y-131285011D02*
X117800000Y-129600000D01*
X140999616Y-133199616D02*
X141199232Y-133000000D01*
G04 #@! TO.N,col5*
X93857119Y-144868999D02*
X92618999Y-146107119D01*
X96268999Y-144868999D02*
X93857119Y-144868999D01*
X106546603Y-144405011D02*
X98676555Y-144405011D01*
X154100000Y-145900000D02*
X153068999Y-144868999D01*
X155081566Y-145900000D02*
X154100000Y-145900000D01*
X153068999Y-144868999D02*
X150857119Y-144868999D01*
X77691991Y-138514741D02*
X77691991Y-130101991D01*
X130618999Y-146372883D02*
X128300923Y-148690959D01*
X145688999Y-148188999D02*
X145688999Y-146197407D01*
X110318999Y-148481001D02*
X108329119Y-148481001D01*
X92618999Y-146500000D02*
X90637998Y-148481001D01*
X145688999Y-146197407D02*
X145234726Y-145743134D01*
X143429978Y-143600000D02*
X143364989Y-143535011D01*
X111618999Y-146107119D02*
X111618999Y-147181001D01*
X89329119Y-148481001D02*
X88340108Y-147491990D01*
X128300923Y-148690959D02*
X127200000Y-148690959D01*
X149618999Y-146107119D02*
X149618999Y-146581001D01*
X145981001Y-148481001D02*
X145688999Y-148188999D01*
X83858010Y-144680760D02*
X77691991Y-138514741D01*
X111618999Y-147181001D02*
X110318999Y-148481001D01*
X144134726Y-143600000D02*
X143429978Y-143600000D01*
X107688999Y-147840881D02*
X107688999Y-145547407D01*
X143364989Y-143535011D02*
X137557371Y-143535011D01*
X83858010Y-146339576D02*
X83858010Y-144680760D01*
X137557371Y-143535011D02*
X136223383Y-144868999D01*
X150857119Y-144868999D02*
X149618999Y-146107119D01*
X90637998Y-148481001D02*
X89329119Y-148481001D01*
X145234726Y-145743134D02*
X145234726Y-144700000D01*
X98676555Y-144405011D02*
X97681566Y-145400000D01*
X163300000Y-143100000D02*
X161994989Y-144405011D01*
X88340108Y-147491990D02*
X85010424Y-147491990D01*
X96800000Y-145400000D02*
X96268999Y-144868999D01*
X97681566Y-145400000D02*
X96800000Y-145400000D01*
X108329119Y-148481001D02*
X107688999Y-147840881D01*
X161994989Y-144405011D02*
X156576555Y-144405011D01*
X127200000Y-148690959D02*
X126600000Y-148090959D01*
X113246965Y-144479153D02*
X111618999Y-146107119D01*
X126600000Y-145500000D02*
X125579153Y-144479153D01*
X77691991Y-130101991D02*
X75745000Y-128155000D01*
X145234726Y-144700000D02*
X144134726Y-143600000D01*
X75745000Y-128155000D02*
X62610000Y-115020000D01*
X156576555Y-144405011D02*
X155081566Y-145900000D01*
X92618999Y-146107119D02*
X92618999Y-146500000D01*
X149618999Y-146581001D02*
X147718999Y-148481001D01*
X136223383Y-144868999D02*
X131531001Y-144868999D01*
X85010424Y-147491990D02*
X83858010Y-146339576D01*
X107688999Y-145547407D02*
X106546603Y-144405011D01*
X130618999Y-145781001D02*
X130618999Y-146372883D01*
X126600000Y-148090959D02*
X126600000Y-145500000D01*
X147718999Y-148481001D02*
X145981001Y-148481001D01*
X131531001Y-144868999D02*
X130618999Y-145781001D01*
X125579153Y-144479153D02*
X113246965Y-144479153D01*
G04 #@! TO.N,col6*
X181928729Y-144535245D02*
X183300000Y-145906516D01*
X145398970Y-149198970D02*
X150425088Y-149198970D01*
X126047021Y-145931747D02*
X126047021Y-148910153D01*
X143154565Y-144043021D02*
X143736579Y-144625035D01*
X62610000Y-117560000D02*
X64360000Y-117560000D01*
X97596414Y-148177468D02*
X97596414Y-146203586D01*
X92377009Y-149122991D02*
X92377009Y-149150174D01*
X174340990Y-146448694D02*
X175347694Y-145441990D01*
X143736579Y-144625035D02*
X143736579Y-144963421D01*
X92857837Y-149631001D02*
X96142881Y-149631001D01*
X164600000Y-147800000D02*
X165281001Y-148481001D01*
X178207507Y-145441990D02*
X179114252Y-144535245D01*
X150425088Y-149198970D02*
X150857119Y-149631001D01*
X98870721Y-144929279D02*
X106352437Y-144929279D01*
X188300000Y-145100000D02*
X189500000Y-143900000D01*
X84800000Y-148000000D02*
X87655882Y-148000000D01*
X184175000Y-148575000D02*
X185425000Y-148575000D01*
X116381001Y-148392881D02*
X116381001Y-145818999D01*
X135436941Y-148336941D02*
X135436941Y-146373875D01*
X126335837Y-149198969D02*
X131425087Y-149198969D01*
X179946321Y-144535245D02*
X180264755Y-144535245D01*
X183300000Y-145906516D02*
X183300000Y-147700000D01*
X77183981Y-130383981D02*
X77183982Y-138725166D01*
X77183982Y-138725166D02*
X83350000Y-144891184D01*
X131425087Y-149198969D02*
X131857119Y-149631001D01*
X107047021Y-148428587D02*
X107817403Y-149198969D01*
X135436941Y-146373875D02*
X137767795Y-144043021D01*
X137767795Y-144043021D02*
X143154565Y-144043021D01*
X64360000Y-117560000D02*
X77183981Y-130383981D01*
X175347694Y-145441990D02*
X178207507Y-145441990D01*
X155340989Y-147590989D02*
X155340989Y-146359011D01*
X96142881Y-149631001D02*
X97596414Y-148177468D01*
X125102437Y-144987163D02*
X126047021Y-145931747D01*
X156650000Y-145050000D02*
X162150000Y-145050000D01*
X87655882Y-148000000D02*
X88778873Y-149122991D01*
X107047021Y-145623863D02*
X107047021Y-148428587D01*
X143736579Y-144963421D02*
X145047021Y-146273863D01*
X185425000Y-148575000D02*
X187618999Y-146381001D01*
X131857119Y-149631001D02*
X134142881Y-149631001D01*
X179114252Y-144535245D02*
X180264755Y-144535245D01*
X180264755Y-144535245D02*
X181928729Y-144535245D01*
X88778873Y-149122991D02*
X92377009Y-149122991D01*
X112425087Y-149198969D02*
X112857119Y-149631001D01*
X162790020Y-144409980D02*
X163209980Y-144409980D01*
X187618999Y-145781001D02*
X188300000Y-145100000D01*
X165281001Y-148481001D02*
X168707119Y-148481001D01*
X168707119Y-148481001D02*
X169857119Y-149631001D01*
X117212837Y-144987163D02*
X125102437Y-144987163D01*
X163209980Y-144409980D02*
X164600000Y-145800000D01*
X162150000Y-145050000D02*
X162790020Y-144409980D01*
X107817403Y-149198969D02*
X112425087Y-149198969D01*
X116381001Y-145818999D02*
X117212837Y-144987163D01*
X172100977Y-149631001D02*
X174340989Y-147390989D01*
X183300000Y-147700000D02*
X184175000Y-148575000D01*
X83350000Y-146550000D02*
X84800000Y-148000000D01*
X155340989Y-146359011D02*
X156650000Y-145050000D01*
X134142881Y-149631001D02*
X135436941Y-148336941D01*
X187618999Y-146381001D02*
X187618999Y-145781001D01*
X92377009Y-149150174D02*
X92857837Y-149631001D01*
X97596414Y-146203586D02*
X98870721Y-144929279D01*
X145047021Y-148847021D02*
X145398970Y-149198970D01*
X169857119Y-149631001D02*
X172100977Y-149631001D01*
X83350000Y-144891184D02*
X83350000Y-146550000D01*
X174340989Y-147390989D02*
X174340990Y-146448694D01*
X106352437Y-144929279D02*
X107047021Y-145623863D01*
X145047021Y-146273863D02*
X145047021Y-148847021D01*
X115142881Y-149631001D02*
X116381001Y-148392881D01*
X150857119Y-149631001D02*
X153300977Y-149631001D01*
X164600000Y-145800000D02*
X164600000Y-147800000D01*
X126047021Y-148910153D02*
X126335837Y-149198969D01*
X112857119Y-149631001D02*
X115142881Y-149631001D01*
X153300977Y-149631001D02*
X155340989Y-147590989D01*
G04 #@! TO.N,Net-(D101-Pad1)*
X181800000Y-83250000D02*
X182700000Y-83250000D01*
X182700000Y-83250000D02*
X184200000Y-84750000D01*
G04 #@! TO.N,Net-(D102-Pad1)*
X170800000Y-83250000D02*
X174700000Y-83250000D01*
X174700000Y-83250000D02*
X176200000Y-84750000D01*
G04 #@! TO.N,Net-(D103-Pad1)*
X162800000Y-83250000D02*
X163700000Y-83250000D01*
X163700000Y-83250000D02*
X165200000Y-84750000D01*
G04 #@! TO.N,Net-(D104-Pad1)*
X155700000Y-83250000D02*
X157200000Y-84750000D01*
X151800000Y-83250000D02*
X155700000Y-83250000D01*
G04 #@! TO.N,Net-(D105-Pad1)*
X144700000Y-83250000D02*
X146200000Y-84750000D01*
X143800000Y-83250000D02*
X144700000Y-83250000D01*
G04 #@! TO.N,Net-(D106-Pad1)*
X138200000Y-84548832D02*
X138200000Y-84750000D01*
X136901168Y-83250000D02*
X138200000Y-84548832D01*
X132800000Y-83250000D02*
X136901168Y-83250000D01*
G04 #@! TO.N,Net-(D107-Pad1)*
X125700000Y-83250000D02*
X127200000Y-84750000D01*
X124800000Y-83250000D02*
X125700000Y-83250000D01*
G04 #@! TO.N,Net-(D108-Pad1)*
X113800000Y-83250000D02*
X117700000Y-83250000D01*
X117700000Y-83250000D02*
X119200000Y-84750000D01*
G04 #@! TO.N,Net-(D109-Pad1)*
X105800000Y-83250000D02*
X107250000Y-84700000D01*
X108150000Y-84700000D02*
X108200000Y-84750000D01*
X107250000Y-84700000D02*
X108150000Y-84700000D01*
G04 #@! TO.N,Net-(D110-Pad1)*
X94800000Y-83250000D02*
X98700000Y-83250000D01*
X98700000Y-83250000D02*
X100200000Y-84750000D01*
G04 #@! TO.N,Net-(D111-Pad1)*
X137389684Y-88400000D02*
X137393635Y-88396049D01*
X161994583Y-86774375D02*
X162639649Y-86774375D01*
X106934989Y-88020535D02*
X106934989Y-91161293D01*
X172142881Y-92631001D02*
X173500000Y-91273882D01*
X124724375Y-87124375D02*
X125934989Y-88334989D01*
X154381001Y-90089576D02*
X156509589Y-87960989D01*
X146008707Y-92235011D02*
X149564989Y-92235011D01*
X130964989Y-92235011D02*
X131360979Y-92631001D01*
X142994583Y-87024375D02*
X143639649Y-87024375D01*
X103951305Y-87868999D02*
X105020304Y-86800000D01*
X135350000Y-91450000D02*
X135350000Y-91423882D01*
X123468958Y-87600000D02*
X123944583Y-87124375D01*
X131360979Y-92631001D02*
X134168999Y-92631001D01*
X193485119Y-92718999D02*
X196128999Y-92718999D01*
X105714454Y-86800000D02*
X106934989Y-88020535D01*
X188461129Y-92235011D02*
X189195117Y-92968999D01*
X163900000Y-91126304D02*
X165008707Y-92235011D01*
X143639649Y-87024375D02*
X144934989Y-88319715D01*
X87250565Y-86800565D02*
X87250565Y-89402447D01*
X135381001Y-89218999D02*
X136200000Y-88400000D01*
X189195117Y-92968999D02*
X193235119Y-92968999D01*
X181908324Y-87400000D02*
X182823472Y-88315148D01*
X90618999Y-91481001D02*
X92618999Y-89481001D01*
X160807969Y-87960989D02*
X161994583Y-86774375D01*
X196128999Y-92718999D02*
X197500000Y-94090000D01*
X169264989Y-92235011D02*
X169660979Y-92631001D01*
X173500000Y-91273882D02*
X173500000Y-89100000D01*
X140385517Y-88396049D02*
X141376555Y-87405011D01*
X141376555Y-87405011D02*
X142613947Y-87405011D01*
X135350000Y-91423882D02*
X135381001Y-91392881D01*
X86000000Y-85550000D02*
X87250565Y-86800565D01*
X136200000Y-88400000D02*
X137389684Y-88400000D01*
X134168999Y-92631001D02*
X135350000Y-91450000D01*
X108008707Y-92235011D02*
X112573009Y-92235011D01*
X112573009Y-92235011D02*
X112968999Y-92631001D01*
X180452382Y-87400000D02*
X181908324Y-87400000D01*
X149960979Y-92631001D02*
X153142881Y-92631001D01*
X125934989Y-91161293D02*
X127008707Y-92235011D01*
X84000000Y-83614198D02*
X84000000Y-84450000D01*
X106934989Y-91161293D02*
X108008707Y-92235011D01*
X144934989Y-88319715D02*
X144934989Y-91161293D01*
X154381001Y-91392881D02*
X154381001Y-90089576D01*
X87250565Y-89402447D02*
X89329119Y-91481001D01*
X182823472Y-88323472D02*
X182934989Y-88434989D01*
X127008707Y-92235011D02*
X130964989Y-92235011D01*
X149564989Y-92235011D02*
X149960979Y-92631001D01*
X116598999Y-91298999D02*
X116598999Y-89101001D01*
X197500000Y-94090000D02*
X197500000Y-94500000D01*
X182934989Y-88434989D02*
X182934989Y-91161293D01*
X180447371Y-87405011D02*
X180452382Y-87400000D01*
X137393635Y-88396049D02*
X140385517Y-88396049D01*
X112968999Y-92631001D02*
X115266997Y-92631001D01*
X87468999Y-83018999D02*
X84595199Y-83018999D01*
X182934989Y-91161293D02*
X184008707Y-92235011D01*
X118100000Y-87600000D02*
X123468958Y-87600000D01*
X84000000Y-84450000D02*
X85100000Y-85550000D01*
X116598999Y-89101001D02*
X118100000Y-87600000D01*
X105020304Y-86800000D02*
X105714454Y-86800000D01*
X173500000Y-89100000D02*
X175194989Y-87405011D01*
X115266997Y-92631001D02*
X116598999Y-91298999D01*
X93857119Y-87868999D02*
X103951305Y-87868999D01*
X85100000Y-85550000D02*
X86000000Y-85550000D01*
X165008707Y-92235011D02*
X169264989Y-92235011D01*
X182823472Y-88315148D02*
X182823472Y-88323472D01*
X135381001Y-91392881D02*
X135381001Y-89218999D01*
X193235119Y-92968999D02*
X193485119Y-92718999D01*
X92618999Y-89481001D02*
X92618999Y-89107119D01*
X92618999Y-89107119D02*
X93857119Y-87868999D01*
X89329119Y-91481001D02*
X90618999Y-91481001D01*
X153142881Y-92631001D02*
X154381001Y-91392881D01*
X123944583Y-87124375D02*
X124724375Y-87124375D01*
X162639649Y-86774375D02*
X163900000Y-88034726D01*
X163900000Y-88034726D02*
X163900000Y-91126304D01*
X142613947Y-87405011D02*
X142994583Y-87024375D01*
X169660979Y-92631001D02*
X172142881Y-92631001D01*
X156509589Y-87960989D02*
X160807969Y-87960989D01*
X84595199Y-83018999D02*
X84000000Y-83614198D01*
X89200000Y-84750000D02*
X87468999Y-83018999D01*
X144934989Y-91161293D02*
X146008707Y-92235011D01*
X175194989Y-87405011D02*
X180447371Y-87405011D01*
X125934989Y-88334989D02*
X125934989Y-91161293D01*
X184008707Y-92235011D02*
X188461129Y-92235011D01*
G04 #@! TO.N,Net-(D112-Pad1)*
X187800000Y-94850000D02*
X190750000Y-94850000D01*
X190750000Y-94850000D02*
X191900000Y-96000000D01*
G04 #@! TO.N,Net-(D113-Pad1)*
X177700000Y-94600000D02*
X178950000Y-94600000D01*
X177700000Y-94600000D02*
X180450000Y-94600000D01*
X180450000Y-94600000D02*
X182200000Y-96350000D01*
G04 #@! TO.N,Net-(D114-Pad1)*
X172100000Y-96100000D02*
X169550000Y-96100000D01*
X169550000Y-96100000D02*
X168800000Y-95350000D01*
G04 #@! TO.N,Net-(D115-Pad1)*
X158500000Y-94750000D02*
X161100000Y-94750000D01*
X161100000Y-94750000D02*
X163200000Y-96850000D01*
G04 #@! TO.N,Net-(D116-Pad1)*
X149800000Y-95350000D02*
X152000000Y-95350000D01*
X152000000Y-95350000D02*
X152900000Y-96250000D01*
G04 #@! TO.N,Net-(D117-Pad1)*
X142300000Y-94950000D02*
X144200000Y-96850000D01*
X139400000Y-94950000D02*
X142300000Y-94950000D01*
G04 #@! TO.N,Net-(D118-Pad1)*
X130800000Y-95350000D02*
X132700000Y-95350000D01*
X132700000Y-95350000D02*
X133800000Y-96450000D01*
G04 #@! TO.N,NEOPIXEL*
X74500000Y-142500000D02*
X74500000Y-138314198D01*
X65500000Y-131900000D02*
X66250000Y-131150000D01*
X74500000Y-138314198D02*
X72620792Y-136434990D01*
X66265000Y-128835000D02*
X64965000Y-127535000D01*
X72620792Y-136434990D02*
X66834990Y-136434990D01*
X66834990Y-136434990D02*
X65500000Y-135100000D01*
X66250000Y-128850000D02*
X66265000Y-128835000D01*
X65500000Y-135100000D02*
X65500000Y-131900000D01*
X66250000Y-131150000D02*
X66250000Y-128850000D01*
X64965000Y-127535000D02*
X62610000Y-125180000D01*
G04 #@! TO.N,Net-(D119-Pad1)*
X123000000Y-94650000D02*
X125200000Y-96850000D01*
X121800000Y-94650000D02*
X122000000Y-94650000D01*
X122000000Y-94650000D02*
X123000000Y-94650000D01*
X121950000Y-94700000D02*
X122000000Y-94650000D01*
X120700000Y-94700000D02*
X121950000Y-94700000D01*
G04 #@! TO.N,Net-(D120-Pad1)*
X111800000Y-95350000D02*
X112600000Y-96150000D01*
X115050000Y-96150000D02*
X115100000Y-96200000D01*
X112600000Y-96150000D02*
X115050000Y-96150000D01*
X110800000Y-95350000D02*
X111800000Y-95350000D01*
G04 #@! TO.N,Net-(D121-Pad1)*
X100800000Y-94750000D02*
X102800000Y-94750000D01*
X104900000Y-96850000D02*
X102950000Y-94900000D01*
X102800000Y-94750000D02*
X102950000Y-94900000D01*
G04 #@! TO.N,Net-(D122-Pad1)*
X93700000Y-94750000D02*
X95200000Y-96250000D01*
X92800000Y-94750000D02*
X93700000Y-94750000D01*
G04 #@! TO.N,Net-(D123-Pad1)*
X159820304Y-97500000D02*
X160857618Y-97500000D01*
X193619107Y-98885011D02*
X193785119Y-98718999D01*
X148567371Y-99385011D02*
X150157362Y-97795020D01*
X87200000Y-96250000D02*
X87200000Y-96660000D01*
X182510706Y-97931010D02*
X183464707Y-98885011D01*
X125714989Y-98685011D02*
X126414989Y-99385011D01*
X130937393Y-98014989D02*
X133935293Y-98014989D01*
X145492629Y-99385011D02*
X148567371Y-99385011D01*
X163585706Y-98506010D02*
X164464707Y-99385011D01*
X160857618Y-97500000D02*
X161863628Y-98506010D01*
X87200000Y-96660000D02*
X89340000Y-98800000D01*
X139567371Y-98985011D02*
X140952382Y-97600000D01*
X143063628Y-98456010D02*
X144563628Y-98456010D01*
X169225284Y-97695020D02*
X172115324Y-97695020D01*
X133935293Y-98014989D02*
X134905315Y-98985011D01*
X158535293Y-98785011D02*
X159820304Y-97500000D01*
X153215324Y-97795020D02*
X154205315Y-98785011D01*
X89340000Y-98800000D02*
X101552382Y-98800000D01*
X129567371Y-99385011D02*
X130937393Y-98014989D01*
X114135293Y-97964989D02*
X115125284Y-98954980D01*
X126414989Y-99385011D02*
X129567371Y-99385011D01*
X105037402Y-98395020D02*
X106027393Y-99385011D01*
X150157362Y-97795020D02*
X153215324Y-97795020D01*
X178468990Y-97931010D02*
X182510706Y-97931010D01*
X142207618Y-97600000D02*
X143063628Y-98456010D01*
X134905315Y-98985011D02*
X139567371Y-98985011D01*
X110955315Y-97964989D02*
X114135293Y-97964989D01*
X177714989Y-98685011D02*
X178468990Y-97931010D01*
X144563628Y-98456010D02*
X145492629Y-99385011D01*
X154205315Y-98785011D02*
X158535293Y-98785011D01*
X118752638Y-98954980D02*
X119022607Y-98685011D01*
X161863628Y-98506010D02*
X163585706Y-98506010D01*
X101552382Y-98800000D02*
X101957362Y-98395020D01*
X173105315Y-98685011D02*
X177714989Y-98685011D01*
X193785119Y-98718999D02*
X196428999Y-98718999D01*
X106027393Y-99385011D02*
X109535293Y-99385011D01*
X167535293Y-99385011D02*
X169225284Y-97695020D01*
X101957362Y-98395020D02*
X105037402Y-98395020D01*
X140952382Y-97600000D02*
X142207618Y-97600000D01*
X193064989Y-98885011D02*
X193619107Y-98885011D01*
X172115324Y-97695020D02*
X173105315Y-98685011D01*
X119022607Y-98685011D02*
X125714989Y-98685011D01*
X115125284Y-98954980D02*
X118752638Y-98954980D01*
X109535293Y-99385011D02*
X110955315Y-97964989D01*
X197800000Y-100090000D02*
X197800000Y-100500000D01*
X164464707Y-99385011D02*
X167535293Y-99385011D01*
X193064989Y-98885011D02*
X193369107Y-98885011D01*
X196428999Y-98718999D02*
X197800000Y-100090000D01*
X183464707Y-98885011D02*
X193064989Y-98885011D01*
G04 #@! TO.N,Net-(D124-Pad1)*
X180310229Y-103949569D02*
X183200431Y-103949569D01*
X183200431Y-103949569D02*
X184200000Y-102950000D01*
G04 #@! TO.N,Net-(D125-Pad1)*
X174489340Y-100250000D02*
X175289771Y-101050431D01*
X173400000Y-100250000D02*
X174489340Y-100250000D01*
G04 #@! TO.N,Net-(D126-Pad1)*
X167800000Y-101750000D02*
X164100000Y-101750000D01*
X164100000Y-101750000D02*
X163200000Y-100850000D01*
G04 #@! TO.N,Net-(D127-Pad1)*
X154500000Y-100350000D02*
X155600000Y-100350000D01*
X155600000Y-100350000D02*
X157600000Y-102350000D01*
G04 #@! TO.N,Net-(D128-Pad1)*
X148900000Y-101850000D02*
X145400000Y-101850000D01*
X145400000Y-101850000D02*
X144500000Y-100950000D01*
G04 #@! TO.N,Net-(D129-Pad1)*
X137100000Y-100550000D02*
X138900000Y-102350000D01*
X135200000Y-100550000D02*
X137100000Y-100550000D01*
G04 #@! TO.N,Net-(D130-Pad1)*
X129600000Y-102050000D02*
X126000000Y-102050000D01*
X126000000Y-102050000D02*
X125200000Y-101250000D01*
G04 #@! TO.N,Net-(D131-Pad1)*
X115400000Y-100500000D02*
X117350000Y-100500000D01*
X119600000Y-102750000D02*
X117450000Y-100600000D01*
X117350000Y-100500000D02*
X117450000Y-100600000D01*
G04 #@! TO.N,Net-(D132-Pad1)*
X107100000Y-100950000D02*
X108150000Y-102000000D01*
X108150000Y-102000000D02*
X109800000Y-102000000D01*
X106100000Y-100950000D02*
X107100000Y-100950000D01*
G04 #@! TO.N,Net-(D133-Pad1)*
X94300000Y-101500000D02*
X99550000Y-101500000D01*
X99550000Y-101500000D02*
X100500000Y-102450000D01*
G04 #@! TO.N,Net-(D134-Pad1)*
X109400000Y-104650000D02*
X108081010Y-103331010D01*
X88700000Y-103195882D02*
X88700000Y-103000000D01*
X104914989Y-104985011D02*
X98914989Y-104985011D01*
X162567373Y-104285009D02*
X161967371Y-104885011D01*
X155571293Y-106405011D02*
X153212629Y-106405011D01*
X106568990Y-103331010D02*
X104914989Y-104985011D01*
X161967371Y-104885011D02*
X157091293Y-104885011D01*
X134508707Y-106405011D02*
X132934706Y-104831010D01*
X125793361Y-103900000D02*
X124408350Y-105285011D01*
X98248999Y-105651001D02*
X96829119Y-105651001D01*
X143267371Y-104985011D02*
X138014989Y-104985011D01*
X150424667Y-104644971D02*
X149379696Y-103600000D01*
X173330016Y-107422398D02*
X170192627Y-104285009D01*
X153212629Y-106405011D02*
X151452589Y-104644971D01*
X96078118Y-104900000D02*
X90404118Y-104900000D01*
X90404118Y-104900000D02*
X88700000Y-103195882D01*
X138014989Y-104985011D02*
X136594989Y-106405011D01*
X118691293Y-105285011D02*
X117571293Y-106405011D01*
X180994989Y-106405011D02*
X178052596Y-106405012D01*
X197050000Y-114000000D02*
X197050000Y-109160022D01*
X124408350Y-105285011D02*
X118691293Y-105285011D01*
X190332695Y-105228999D02*
X185479119Y-105228999D01*
X194294989Y-106405011D02*
X191508707Y-106405011D01*
X157091293Y-104885011D02*
X155571293Y-106405011D01*
X131110706Y-104831010D02*
X130179696Y-103900000D01*
X170192627Y-104285009D02*
X162567373Y-104285009D01*
X185249184Y-105458934D02*
X181941066Y-105458934D01*
X117571293Y-106405011D02*
X115512629Y-106405011D01*
X115512629Y-106405011D02*
X113757618Y-104650000D01*
X144652382Y-103600000D02*
X143267371Y-104985011D01*
X185479119Y-105228999D02*
X185249184Y-105458934D01*
X177035210Y-107422398D02*
X173330016Y-107422398D01*
X197050000Y-109160022D02*
X194294989Y-106405011D01*
X113757618Y-104650000D02*
X109400000Y-104650000D01*
X151452589Y-104644971D02*
X150424667Y-104644971D01*
X178052596Y-106405012D02*
X177035210Y-107422398D01*
X136594989Y-106405011D02*
X134508707Y-106405011D01*
X98914989Y-104985011D02*
X98248999Y-105651001D01*
X181941066Y-105458934D02*
X180994989Y-106405011D01*
X149379696Y-103600000D02*
X144652382Y-103600000D01*
X96829119Y-105651001D02*
X96078118Y-104900000D01*
X108081010Y-103331010D02*
X106568990Y-103331010D01*
X132934706Y-104831010D02*
X131110706Y-104831010D01*
X191508707Y-106405011D02*
X190332695Y-105228999D01*
X130179696Y-103900000D02*
X125793361Y-103900000D01*
G04 #@! TO.N,Net-(D135-Pad1)*
X190050000Y-115500000D02*
X191450000Y-115500000D01*
X188550000Y-114000000D02*
X190050000Y-115500000D01*
G04 #@! TO.N,Net-(D136-Pad1)*
X177200000Y-112750000D02*
X177566071Y-113116071D01*
X180566071Y-113116071D02*
X182950000Y-115500000D01*
X177566071Y-113116071D02*
X180566071Y-113116071D01*
G04 #@! TO.N,Net-(D137-Pad1)*
X168200000Y-113050000D02*
X170400000Y-113050000D01*
X170400000Y-113050000D02*
X171600000Y-114250000D01*
G04 #@! TO.N,Net-(D138-Pad1)*
X161600000Y-113750000D02*
X162600000Y-114750000D01*
X158300000Y-113350000D02*
X158700000Y-113750000D01*
X158700000Y-113750000D02*
X161600000Y-113750000D01*
G04 #@! TO.N,Net-(D139-Pad1)*
X149700000Y-113500000D02*
X151350000Y-113500000D01*
X151350000Y-113500000D02*
X152700000Y-114850000D01*
G04 #@! TO.N,Net-(D140-Pad1)*
X138900000Y-113700000D02*
X142800000Y-113700000D01*
X142800000Y-113700000D02*
X144100000Y-115000000D01*
G04 #@! TO.N,Net-(D141-Pad1)*
X131650000Y-113550000D02*
X133300000Y-115200000D01*
X130800000Y-113550000D02*
X131650000Y-113550000D01*
G04 #@! TO.N,Net-(D142-Pad1)*
X123766071Y-113616071D02*
X125200000Y-115050000D01*
X120666071Y-113616071D02*
X123766071Y-113616071D01*
X120300000Y-113250000D02*
X120666071Y-113616071D01*
G04 #@! TO.N,Net-(D143-Pad1)*
X113500000Y-113550000D02*
X114700000Y-114750000D01*
X112200000Y-113550000D02*
X113500000Y-113550000D01*
G04 #@! TO.N,Net-(D144-Pad1)*
X101500000Y-113200000D02*
X102368990Y-114068990D01*
X102368990Y-114068990D02*
X105618990Y-114068990D01*
X105618990Y-114068990D02*
X106600000Y-115050000D01*
G04 #@! TO.N,Net-(D145-Pad1)*
X95200000Y-114000000D02*
X95900000Y-114700000D01*
X92800000Y-114000000D02*
X95200000Y-114000000D01*
G04 #@! TO.N,Net-(D146-Pad1)*
X100500000Y-118550000D02*
X99500000Y-119550000D01*
X88571001Y-117281001D02*
X87200000Y-115910000D01*
X94931001Y-117281001D02*
X88571001Y-117281001D01*
X99500000Y-119550000D02*
X97200000Y-119550000D01*
X97200000Y-119550000D02*
X94931001Y-117281001D01*
X87200000Y-115910000D02*
X87200000Y-115500000D01*
G04 #@! TO.N,Net-(D147-Pad1)*
X190100000Y-120550000D02*
X191800000Y-120550000D01*
X191800000Y-120550000D02*
X192250000Y-121000000D01*
G04 #@! TO.N,Net-(D148-Pad1)*
X174510000Y-124860000D02*
X173038118Y-124860000D01*
X171831010Y-121481010D02*
X170800000Y-120450000D01*
X171831010Y-123652892D02*
X171831010Y-121481010D01*
X173038118Y-124860000D02*
X171831010Y-123652892D01*
X176000000Y-124450000D02*
X174920000Y-124450000D01*
X174920000Y-124450000D02*
X174510000Y-124860000D01*
G04 #@! TO.N,Net-(D149-Pad1)*
X164700000Y-122450000D02*
X165200000Y-121950000D01*
X162500000Y-122450000D02*
X164700000Y-122450000D01*
G04 #@! TO.N,Net-(D150-Pad1)*
X153829119Y-124651001D02*
X156198999Y-124651001D01*
X156198999Y-124651001D02*
X156900000Y-123950000D01*
X151900000Y-120450000D02*
X152931010Y-121481010D01*
X152931010Y-123752892D02*
X153829119Y-124651001D01*
X152931010Y-121481010D02*
X152931010Y-123752892D01*
G04 #@! TO.N,Net-(D151-Pad1)*
X143600000Y-122650000D02*
X144300000Y-121950000D01*
X144300000Y-121950000D02*
X146300000Y-121950000D01*
G04 #@! TO.N,Net-(D152-Pad1)*
X137498999Y-124651001D02*
X134829119Y-124651001D01*
X133857822Y-122941010D02*
X134081010Y-122717822D01*
X138000000Y-124150000D02*
X137498999Y-124651001D01*
X134829119Y-124651001D02*
X133857822Y-123679704D01*
X134081010Y-121681010D02*
X133050000Y-120650000D01*
X133857822Y-123679704D02*
X133857822Y-122941010D01*
X134081010Y-122717822D02*
X134081010Y-121681010D01*
G04 #@! TO.N,Net-(D153-Pad1)*
X125000000Y-122150000D02*
X127450000Y-122150000D01*
X124500000Y-122650000D02*
X125000000Y-122150000D01*
G04 #@! TO.N,Net-(D154-Pad1)*
X114700000Y-123521882D02*
X115829119Y-124651001D01*
X113200000Y-120650000D02*
X114700000Y-122150000D01*
X114700000Y-122150000D02*
X114700000Y-123521882D01*
X115829119Y-124651001D02*
X118398999Y-124651001D01*
X118398999Y-124651001D02*
X118900000Y-124150000D01*
G04 #@! TO.N,Net-(D155-Pad1)*
X106800000Y-122950000D02*
X107600000Y-122150000D01*
X105600000Y-122950000D02*
X106800000Y-122950000D01*
G04 #@! TO.N,Net-(D156-Pad1)*
X95831010Y-123652892D02*
X95831010Y-121531010D01*
X97038118Y-124860000D02*
X95831010Y-123652892D01*
X100000000Y-124450000D02*
X98570000Y-124450000D01*
X95831010Y-121531010D02*
X94800000Y-120500000D01*
X98570000Y-124450000D02*
X98160000Y-124860000D01*
X98160000Y-124860000D02*
X97038118Y-124860000D01*
G04 #@! TO.N,Net-(D157-Pad1)*
X126025625Y-128177507D02*
X126025625Y-127152467D01*
X96286941Y-125813059D02*
X94686941Y-125813059D01*
X103818298Y-126281702D02*
X96755584Y-126281702D01*
X189026171Y-130726171D02*
X187800000Y-129500000D01*
X106900000Y-128051882D02*
X106900000Y-127380784D01*
X108574059Y-129725941D02*
X106900000Y-128051882D01*
X176670881Y-127018999D02*
X175489119Y-127018999D01*
X145524059Y-128675941D02*
X145524059Y-127258785D01*
X166479119Y-130631001D02*
X164324059Y-128475941D01*
X184300000Y-129500000D02*
X183175625Y-128375625D01*
X111618999Y-127372883D02*
X109265941Y-129725941D01*
X116373882Y-127100000D02*
X115142881Y-125868999D01*
X115142881Y-125868999D02*
X114768999Y-125868999D01*
X173381001Y-129392881D02*
X172142881Y-130631001D01*
X196800000Y-131840000D02*
X195428999Y-130468999D01*
X148500000Y-128491882D02*
X147440941Y-129550941D01*
X153904344Y-126510990D02*
X153262353Y-125868999D01*
X138881306Y-126510990D02*
X137278694Y-126510990D01*
X183175625Y-128375625D02*
X183175625Y-127910351D01*
X191526171Y-130726171D02*
X189026171Y-130726171D01*
X143739011Y-126160989D02*
X142950126Y-126949874D01*
X146399059Y-129550941D02*
X145524059Y-128675941D01*
X173381001Y-129127117D02*
X173381001Y-129392881D01*
X124876137Y-126002979D02*
X118068271Y-126002979D01*
X182326265Y-127060991D02*
X176712871Y-127060989D01*
X116971250Y-127100000D02*
X116373882Y-127100000D01*
X183175625Y-127910351D02*
X182326265Y-127060991D01*
X130618999Y-127107119D02*
X130618999Y-127372883D01*
X142950126Y-126949874D02*
X139320190Y-126949874D01*
X196800000Y-132250000D02*
X196800000Y-131840000D01*
X145524059Y-127258785D02*
X144426263Y-126160989D01*
X126025625Y-127152467D02*
X124876137Y-126002979D01*
X109265941Y-129725941D02*
X108574059Y-129725941D01*
X96755584Y-126281702D02*
X96286941Y-125813059D01*
X105332275Y-125813059D02*
X104286941Y-125813059D01*
X111618999Y-127107119D02*
X111618999Y-127372883D01*
X106900000Y-127380784D02*
X105332275Y-125813059D01*
X134142881Y-125868999D02*
X131857119Y-125868999D01*
X130618999Y-127372883D02*
X128265941Y-129725941D01*
X195428999Y-130468999D02*
X191783343Y-130468999D01*
X104286941Y-125813059D02*
X103818298Y-126281702D01*
X187800000Y-129500000D02*
X184300000Y-129500000D01*
X175489119Y-127018999D02*
X173381001Y-129127117D01*
X94686941Y-125813059D02*
X93102881Y-124228999D01*
X89200000Y-122410000D02*
X89200000Y-122000000D01*
X91018999Y-124228999D02*
X89200000Y-122410000D01*
X144426263Y-126160989D02*
X143739011Y-126160989D01*
X153262353Y-125868999D02*
X150281001Y-125868999D01*
X162910989Y-126510989D02*
X153904344Y-126510990D01*
X128265941Y-129725941D02*
X127574059Y-129725941D01*
X137278694Y-126510990D02*
X136682565Y-127107119D01*
X127574059Y-129725941D02*
X126025625Y-128177507D01*
X114763059Y-125863059D02*
X112863059Y-125863059D01*
X131857119Y-125868999D02*
X130618999Y-127107119D01*
X118068271Y-126002979D02*
X116971250Y-127100000D01*
X112863059Y-125863059D02*
X111618999Y-127107119D01*
X164324059Y-127924059D02*
X162910989Y-126510989D01*
X135381001Y-127107119D02*
X134142881Y-125868999D01*
X148500000Y-127650000D02*
X148500000Y-128491882D01*
X139320190Y-126949874D02*
X138881306Y-126510990D01*
X147440941Y-129550941D02*
X146399059Y-129550941D01*
X93102881Y-124228999D02*
X91018999Y-124228999D01*
X164324059Y-128475941D02*
X164324059Y-127924059D01*
X136682565Y-127107119D02*
X135381001Y-127107119D01*
X114768999Y-125868999D02*
X114763059Y-125863059D01*
X176712871Y-127060989D02*
X176670881Y-127018999D01*
X191783343Y-130468999D02*
X191526171Y-130726171D01*
X172142881Y-130631001D02*
X166479119Y-130631001D01*
X150281001Y-125868999D02*
X148500000Y-127650000D01*
G04 #@! TO.N,Net-(D158-Pad1)*
X190300000Y-132850000D02*
X191200000Y-133750000D01*
X188000000Y-132850000D02*
X190300000Y-132850000D01*
G04 #@! TO.N,Net-(D159-Pad1)*
X182400000Y-134350000D02*
X175300000Y-134350000D01*
X175300000Y-134350000D02*
X174700000Y-133750000D01*
G04 #@! TO.N,Net-(D160-Pad1)*
X168000000Y-134150000D02*
X169100000Y-135250000D01*
X166600000Y-134150000D02*
X168000000Y-134150000D01*
G04 #@! TO.N,Net-(D161-Pad1)*
X159050000Y-133900000D02*
X160800000Y-135650000D01*
X156200000Y-133900000D02*
X159050000Y-133900000D01*
X160800000Y-135650000D02*
X161000000Y-135650000D01*
G04 #@! TO.N,Net-(D162-Pad1)*
X149600000Y-135350000D02*
X150550000Y-135350000D01*
X148100000Y-133850000D02*
X149600000Y-135350000D01*
X150550000Y-135350000D02*
X150600000Y-135400000D01*
G04 #@! TO.N,Net-(D163-Pad1)*
X138300000Y-135350000D02*
X142500000Y-135350000D01*
X136800000Y-133850000D02*
X138300000Y-135350000D01*
G04 #@! TO.N,Net-(D164-Pad1)*
X128600000Y-133850000D02*
X130100000Y-135350000D01*
X130100000Y-135350000D02*
X131200000Y-135350000D01*
G04 #@! TO.N,Net-(D165-Pad1)*
X119300000Y-135350000D02*
X123000000Y-135350000D01*
X117800000Y-133850000D02*
X119300000Y-135350000D01*
G04 #@! TO.N,Net-(D166-Pad1)*
X110700000Y-133850000D02*
X112200000Y-135350000D01*
X110100000Y-133850000D02*
X110700000Y-133850000D01*
G04 #@! TO.N,Net-(D167-Pad1)*
X101500000Y-133850000D02*
X103000000Y-135350000D01*
X103000000Y-135350000D02*
X104500000Y-135350000D01*
G04 #@! TO.N,Net-(D168-Pad1)*
X93400000Y-133350000D02*
X93900000Y-133350000D01*
X93900000Y-133350000D02*
X95900000Y-135350000D01*
G04 #@! TO.N,Net-(D169-Pad1)*
X95257371Y-136964989D02*
X96530362Y-138237980D01*
X157442638Y-137954980D02*
X158182629Y-137214989D01*
X123035293Y-136964989D02*
X124025284Y-137954980D01*
X112657371Y-136964989D02*
X113647362Y-137954980D01*
X193035119Y-136468999D02*
X195678999Y-136468999D01*
X127400000Y-138000000D02*
X127429696Y-138000000D01*
X109714707Y-136964989D02*
X112657371Y-136964989D01*
X96530362Y-138237980D02*
X99941716Y-138237980D01*
X113647362Y-137954980D02*
X118974716Y-137954980D01*
X124025284Y-137954980D02*
X127354980Y-137954980D01*
X147714707Y-136964989D02*
X150957371Y-136964989D01*
X178135283Y-137889401D02*
X179622941Y-139377059D01*
X101214707Y-136964989D02*
X104657371Y-136964989D01*
X142357371Y-136964989D02*
X143347362Y-137954980D01*
X197050000Y-137840000D02*
X197050000Y-138250000D01*
X119964707Y-136964989D02*
X123035293Y-136964989D01*
X99941716Y-138237980D02*
X101214707Y-136964989D01*
X169535293Y-136964989D02*
X170525284Y-137954980D01*
X108724716Y-137954980D02*
X109714707Y-136964989D01*
X174868813Y-137954980D02*
X174934392Y-137889401D01*
X104657371Y-136964989D02*
X105647362Y-137954980D01*
X166464707Y-136964989D02*
X169535293Y-136964989D01*
X139214707Y-136964989D02*
X142357371Y-136964989D01*
X127429696Y-138000000D02*
X128464707Y-136964989D01*
X174934392Y-137889401D02*
X178135283Y-137889401D01*
X162197362Y-138204980D02*
X165224716Y-138204980D01*
X179622941Y-139377059D02*
X181722941Y-139377059D01*
X184135011Y-136964989D02*
X192539129Y-136964989D01*
X158182629Y-137214989D02*
X161207371Y-137214989D01*
X181722941Y-139377059D02*
X184135011Y-136964989D01*
X150957371Y-136964989D02*
X151947362Y-137954980D01*
X165224716Y-138204980D02*
X166464707Y-136964989D01*
X131535293Y-136964989D02*
X132525284Y-137954980D01*
X195678999Y-136468999D02*
X197050000Y-137840000D01*
X192539129Y-136964989D02*
X193035119Y-136468999D01*
X170525284Y-137954980D02*
X174868813Y-137954980D01*
X146724716Y-137954980D02*
X147714707Y-136964989D01*
X151947362Y-137954980D02*
X157442638Y-137954980D01*
X105647362Y-137954980D02*
X108724716Y-137954980D01*
X127354980Y-137954980D02*
X127400000Y-138000000D01*
X161207371Y-137214989D02*
X162197362Y-138204980D01*
X143347362Y-137954980D02*
X146724716Y-137954980D01*
X87800000Y-134850000D02*
X87800000Y-135260000D01*
X138224716Y-137954980D02*
X139214707Y-136964989D01*
X132525284Y-137954980D02*
X138224716Y-137954980D01*
X87800000Y-135260000D02*
X89504989Y-136964989D01*
X128464707Y-136964989D02*
X131535293Y-136964989D01*
X118974716Y-137954980D02*
X119964707Y-136964989D01*
X89504989Y-136964989D02*
X95257371Y-136964989D01*
G04 #@! TO.N,Net-(D170-Pad1)*
X191450000Y-139750000D02*
X189850000Y-139750000D01*
X189850000Y-139750000D02*
X189600000Y-139500000D01*
G04 #@! TO.N,Net-(D171-Pad1)*
X173950610Y-139500000D02*
X174700129Y-140249519D01*
X170800000Y-139500000D02*
X173950610Y-139500000D01*
G04 #@! TO.N,Net-(D172-Pad1)*
X162550000Y-139750000D02*
X163800000Y-141000000D01*
X163800000Y-141000000D02*
X165200000Y-141000000D01*
G04 #@! TO.N,Net-(D173-Pad1)*
X152950000Y-140400000D02*
X156100000Y-140400000D01*
X156350000Y-140650000D02*
X156950000Y-141250000D01*
X152050000Y-139500000D02*
X152950000Y-140400000D01*
X156100000Y-140400000D02*
X156350000Y-140650000D01*
G04 #@! TO.N,Net-(D174-Pad1)*
X144950000Y-139500000D02*
X146450000Y-141000000D01*
X143550000Y-139500000D02*
X144950000Y-139500000D01*
G04 #@! TO.N,Net-(D175-Pad1)*
X137550000Y-140600000D02*
X137950000Y-141000000D01*
X132800000Y-139500000D02*
X133900000Y-140600000D01*
X133900000Y-140600000D02*
X137550000Y-140600000D01*
G04 #@! TO.N,Net-(D176-Pad1)*
X124300000Y-139500000D02*
X125700000Y-139500000D01*
X125700000Y-139500000D02*
X127200000Y-141000000D01*
G04 #@! TO.N,Net-(D177-Pad1)*
X114050000Y-139500000D02*
X117200000Y-139500000D01*
X117200000Y-139500000D02*
X118700000Y-141000000D01*
G04 #@! TO.N,Net-(D178-Pad1)*
X105550000Y-139500000D02*
X107100000Y-141050000D01*
X107100000Y-141050000D02*
X108400000Y-141050000D01*
X108400000Y-141050000D02*
X108450000Y-141000000D01*
G04 #@! TO.N,Net-(D179-Pad1)*
X95050000Y-139500000D02*
X98450000Y-139500000D01*
X98450000Y-139500000D02*
X99950000Y-141000000D01*
G04 #@! TO.N,Net-(D180-Pad1)*
X115563731Y-150647019D02*
X117600000Y-148610750D01*
X92436989Y-150647020D02*
X96563731Y-150647019D01*
X87150000Y-151150000D02*
X88085011Y-150214989D01*
X136848999Y-148361751D02*
X136848999Y-146659119D01*
X163400000Y-147804118D02*
X163400000Y-150700000D01*
X107385011Y-150214989D02*
X110707371Y-150214989D01*
X125031001Y-149331001D02*
X125914989Y-150214989D01*
X96563731Y-150647019D02*
X98613641Y-148597109D01*
X98613641Y-148597109D02*
X98613641Y-147413641D01*
X165300000Y-149262001D02*
X168769685Y-149262001D01*
X142714881Y-146568999D02*
X144031001Y-147885119D01*
X111071191Y-150578809D02*
X111360375Y-150578809D01*
X168769685Y-149262001D02*
X169646695Y-150139011D01*
X136848999Y-146659119D02*
X137489119Y-146018999D01*
X118496817Y-146003183D02*
X120969303Y-146003183D01*
X88085011Y-150214989D02*
X92004958Y-150214989D01*
X111360375Y-150578809D02*
X111428585Y-150647019D01*
X158311001Y-147688999D02*
X159631001Y-146368999D01*
X131436272Y-150647020D02*
X134563731Y-150647019D01*
X117600000Y-148610750D02*
X117600000Y-146900000D01*
X104291181Y-145945299D02*
X106031001Y-147685119D01*
X153721827Y-150647019D02*
X155467905Y-148900941D01*
X121535119Y-146568999D02*
X123714881Y-146568999D01*
X169646695Y-150139011D02*
X172311402Y-150139010D01*
X184311941Y-149761941D02*
X191011941Y-149761941D01*
X144031001Y-149360979D02*
X144885010Y-150214988D01*
X106031001Y-147685119D02*
X106031001Y-148860979D01*
X181718304Y-145043254D02*
X182790020Y-146114970D01*
X111428585Y-150647019D02*
X115563731Y-150647019D01*
X125031001Y-147885119D02*
X125031001Y-149331001D01*
X117600000Y-146900000D02*
X118496817Y-146003183D01*
X191011941Y-149761941D02*
X191773882Y-149000000D01*
X179390194Y-145043254D02*
X181718304Y-145043254D01*
X98612434Y-146895684D02*
X99562819Y-145945299D01*
X144031001Y-147885119D02*
X144031001Y-149360979D01*
X98612434Y-147412434D02*
X98612434Y-146895684D01*
X191773882Y-149000000D02*
X194400000Y-149000000D01*
X140032883Y-146018999D02*
X140582883Y-146568999D01*
X137489119Y-146018999D02*
X140032883Y-146018999D01*
X140582883Y-146568999D02*
X142714881Y-146568999D01*
X161964881Y-146368999D02*
X163400000Y-147804118D01*
X158311001Y-147840881D02*
X158311001Y-147688999D01*
X174848999Y-146659119D02*
X175558118Y-145950000D01*
X131004239Y-150214989D02*
X131436272Y-150647020D01*
X172311402Y-150139010D02*
X174848999Y-147601413D01*
X182790020Y-146114970D02*
X182790020Y-148240020D01*
X89450000Y-141000000D02*
X89450000Y-142050000D01*
X194400000Y-149000000D02*
X195890000Y-150490000D01*
X195890000Y-150590000D02*
X196300000Y-151000000D01*
X125914989Y-150214989D02*
X131004239Y-150214989D01*
X174848999Y-147601413D02*
X174848999Y-146659119D01*
X178483448Y-145950000D02*
X179390194Y-145043254D01*
X87150000Y-151150000D02*
X87100000Y-151200000D01*
X144885010Y-150214988D02*
X149746555Y-150214989D01*
X98613641Y-147413641D02*
X98612434Y-147412434D01*
X134563731Y-150647019D02*
X136848999Y-148361751D01*
X182790020Y-148240020D02*
X184311941Y-149761941D01*
X120969303Y-146003183D02*
X121535119Y-146568999D01*
X155467905Y-148900941D02*
X157250941Y-148900941D01*
X159631001Y-146368999D02*
X161964881Y-146368999D01*
X92004958Y-150214989D02*
X92436989Y-150647020D01*
X150178588Y-150647020D02*
X153721827Y-150647019D01*
X175558118Y-145950000D02*
X178483448Y-145950000D01*
X106031001Y-148860979D02*
X107385011Y-150214989D01*
X99562819Y-145945299D02*
X104291181Y-145945299D01*
X89450000Y-142050000D02*
X88800000Y-142700000D01*
X123714881Y-146568999D02*
X125031001Y-147885119D01*
X149746555Y-150214989D02*
X150178588Y-150647020D01*
X110707371Y-150214989D02*
X111071191Y-150578809D01*
X157250941Y-148900941D02*
X158311001Y-147840881D01*
X195890000Y-150490000D02*
X195890000Y-150590000D01*
G04 #@! TO.N,Net-(D181-Pad1)*
X190450000Y-152750000D02*
X190700000Y-152500000D01*
X187800000Y-152750000D02*
X190450000Y-152750000D01*
G04 #@! TO.N,Net-(D182-Pad1)*
X180450000Y-152500000D02*
X182200000Y-154250000D01*
X177700000Y-152500000D02*
X180450000Y-152500000D01*
G04 #@! TO.N,Net-(D183-Pad1)*
X168800000Y-152750000D02*
X170850000Y-152750000D01*
X170850000Y-152750000D02*
X172100000Y-154000000D01*
G04 #@! TO.N,Net-(D184-Pad1)*
X160150000Y-152500000D02*
X158600000Y-152500000D01*
X159800000Y-152500000D02*
X160150000Y-152500000D01*
X160150000Y-152500000D02*
X161450000Y-152500000D01*
X161450000Y-152500000D02*
X163200000Y-154250000D01*
G04 #@! TO.N,Net-(D185-Pad1)*
X150800000Y-154000000D02*
X149550000Y-152750000D01*
X153000000Y-154000000D02*
X150800000Y-154000000D01*
G04 #@! TO.N,Net-(D186-Pad1)*
X142450000Y-152750000D02*
X143950000Y-154250000D01*
X139200000Y-152750000D02*
X142450000Y-152750000D01*
G04 #@! TO.N,Net-(D187-Pad1)*
X132100000Y-152750000D02*
X133600000Y-154250000D01*
X130800000Y-152750000D02*
X132100000Y-152750000D01*
G04 #@! TO.N,Net-(D188-Pad1)*
X123700000Y-152750000D02*
X125200000Y-154250000D01*
X120200000Y-152750000D02*
X123700000Y-152750000D01*
G04 #@! TO.N,Net-(D189-Pad1)*
X111800000Y-152750000D02*
X113100000Y-152750000D01*
X113100000Y-152750000D02*
X114600000Y-154250000D01*
G04 #@! TO.N,Net-(D190-Pad1)*
X101600000Y-152500000D02*
X102800000Y-152500000D01*
X104550000Y-154250000D02*
X106200000Y-154250000D01*
X102800000Y-152500000D02*
X104550000Y-154250000D01*
G04 #@! TO.N,Net-(D191-Pad1)*
X94750000Y-152750000D02*
X96000000Y-154000000D01*
X93050000Y-152750000D02*
X94750000Y-152750000D01*
G04 #@! TO.N,Net-(D192-Pad1)*
X92968999Y-156031001D02*
X93000000Y-156000000D01*
X87450000Y-154660000D02*
X88821001Y-156031001D01*
X87450000Y-154250000D02*
X87450000Y-154660000D01*
X88821001Y-156031001D02*
X92968999Y-156031001D01*
G04 #@! TO.N,Net-(D208-Pad1)*
X172803696Y-144703696D02*
X173500000Y-145400000D01*
X171503696Y-143400000D02*
X172803696Y-144700000D01*
X170700000Y-143400000D02*
X171503696Y-143400000D01*
X172803696Y-144700000D02*
X172803696Y-144703696D01*
G04 #@! TO.N,Net-(D124-Pad3)*
X191900000Y-101450000D02*
X192200000Y-101750000D01*
X189800000Y-101450000D02*
X191900000Y-101450000D01*
G04 #@! TO.N,Net-(D148-Pad3)*
X181600000Y-122550000D02*
X182100000Y-122050000D01*
X182100000Y-122050000D02*
X184500000Y-122050000D01*
X181600000Y-122950000D02*
X181600000Y-122550000D01*
G04 #@! TO.N,Net-(D171-Pad3)*
X180299871Y-141750481D02*
X181050352Y-141000000D01*
X181050352Y-141000000D02*
X184000000Y-141000000D01*
G04 #@! TO.N,Net-(D55-Pad1)*
X70700000Y-141300000D02*
X70700000Y-146500000D01*
X73200000Y-138800000D02*
X70700000Y-141300000D01*
X73250000Y-138800000D02*
X73200000Y-138800000D01*
G04 #@! TO.N,/NeoPixel/NeoPixel*
X61700000Y-148000000D02*
X70700000Y-148000000D01*
X59600000Y-145900000D02*
X61700000Y-148000000D01*
X198249519Y-89100481D02*
X198249519Y-87099871D01*
X195868999Y-91481001D02*
X198249519Y-89100481D01*
X192800000Y-88850000D02*
X192948798Y-88998798D01*
X192948798Y-88998798D02*
X192948798Y-89940680D01*
X192948798Y-89940680D02*
X194489119Y-91481001D01*
X194489119Y-91481001D02*
X195868999Y-91481001D01*
G04 #@! TO.N,Net-(D99-Pad3)*
X77040000Y-142500000D02*
X77040000Y-145760000D01*
X77040000Y-145760000D02*
X76300000Y-146500000D01*
G04 #@! TO.N,Net-(D216-Pad1)*
X106635011Y-117585011D02*
X115514989Y-117585011D01*
X118800000Y-118650000D02*
X116579978Y-118650000D01*
X106100000Y-117050000D02*
X106635011Y-117585011D01*
X116579978Y-118650000D02*
X115514989Y-117585011D01*
G04 #@! TO.N,Net-(D217-Pad1)*
X125035011Y-117785011D02*
X124400000Y-117150000D01*
X138150000Y-118650000D02*
X138300000Y-118800000D01*
X135529978Y-118650000D02*
X134664989Y-117785011D01*
X135529978Y-118650000D02*
X138150000Y-118650000D01*
X134664989Y-117785011D02*
X125035011Y-117785011D01*
G04 #@! TO.N,Net-(D218-Pad1)*
X144181008Y-117581008D02*
X143900000Y-117300000D01*
X153618992Y-117581008D02*
X144181008Y-117581008D01*
X154487984Y-118450000D02*
X153618992Y-117581008D01*
X157200000Y-118450000D02*
X154487984Y-118450000D01*
G04 #@! TO.N,Net-(D219-Pad1)*
X162950000Y-117100000D02*
X162800000Y-116950000D01*
X174050000Y-118850000D02*
X172300000Y-117100000D01*
X162800000Y-117050000D02*
X163166071Y-117416071D01*
X172300000Y-117100000D02*
X162950000Y-117100000D01*
X176900000Y-118850000D02*
X174050000Y-118850000D01*
G04 #@! TO.N,Net-(D147-Pad3)*
X192868999Y-117718999D02*
X191800000Y-116650000D01*
X188900000Y-116650000D02*
X187435011Y-118114989D01*
X197850000Y-119090000D02*
X196478999Y-117718999D01*
X197850000Y-119500000D02*
X197850000Y-119090000D01*
X196478999Y-117718999D02*
X192868999Y-117718999D01*
X187435011Y-118114989D02*
X183264989Y-118114989D01*
X191800000Y-116650000D02*
X188900000Y-116650000D01*
X183264989Y-118114989D02*
X182500000Y-117350000D01*
X182500000Y-117350000D02*
X182500000Y-117300000D01*
G04 #@! TO.N,Net-(D101-Pad3)*
X189800000Y-83250000D02*
X193900610Y-83250000D01*
X193900610Y-83250000D02*
X194150481Y-83000129D01*
G04 #@! TO.N,Net-(Q1-Pad1)*
X72400000Y-152950000D02*
X77550000Y-152950000D01*
X69700000Y-153600000D02*
X71750000Y-153600000D01*
X71750000Y-153600000D02*
X72400000Y-152950000D01*
X77550000Y-152950000D02*
X78200000Y-153600000D01*
D42*
G04 #@! TO.N,VDD*
X146195999Y-120554001D02*
X146300000Y-120450000D01*
X137095999Y-93045999D02*
X135446383Y-93045999D01*
X119200000Y-82872078D02*
X120726079Y-81345999D01*
X104600000Y-152527220D02*
X104600000Y-152400000D01*
X106200000Y-152372078D02*
X107726079Y-150845999D01*
X122645999Y-120745999D02*
X120426079Y-120745999D01*
X124554001Y-93654001D02*
X125054001Y-93154001D01*
X104500000Y-133440000D02*
X105994001Y-131945999D01*
X83200000Y-154275000D02*
X84400000Y-153075000D01*
X144004001Y-120554001D02*
X146195999Y-120554001D01*
X99950000Y-139500000D02*
X99950000Y-139122078D01*
X135257133Y-150845999D02*
X134267142Y-151835990D01*
X115100000Y-94700000D02*
X115100000Y-94050000D01*
X165200000Y-139122078D02*
X166726079Y-137595999D01*
X105977220Y-152527220D02*
X106200000Y-152750000D01*
X99973921Y-131945999D02*
X100963912Y-132935990D01*
X190545999Y-150845999D02*
X190700000Y-151000000D01*
X154200000Y-139550000D02*
X155164010Y-138585990D01*
X182500000Y-118850000D02*
X182800000Y-118850000D01*
X112497204Y-93770020D02*
X114820020Y-93770020D01*
X182950000Y-113622078D02*
X184476079Y-112095999D01*
X138900000Y-99700000D02*
X138816021Y-99616021D01*
X128083979Y-100016021D02*
X128116021Y-100016021D01*
X95200000Y-94750000D02*
X95200000Y-93450000D01*
X120426079Y-120745999D02*
X118900000Y-122272078D01*
X144295999Y-81345999D02*
X146200000Y-83250000D01*
X109183979Y-100016021D02*
X109616021Y-100016021D01*
X129828743Y-100016021D02*
X129566021Y-100016021D01*
X88694001Y-92845999D02*
X93179735Y-92845999D01*
X190795999Y-137595999D02*
X185494001Y-137595999D01*
X173200000Y-82450000D02*
X172095999Y-81345999D01*
X134885990Y-138585990D02*
X134885990Y-139485990D01*
X147976079Y-137595999D02*
X150695999Y-137595999D01*
X127000000Y-120200000D02*
X127450000Y-120650000D01*
X153000000Y-152261226D02*
X153983198Y-151278028D01*
X147690000Y-118650000D02*
X144050000Y-118650000D01*
X91873921Y-131445999D02*
X89294001Y-131445999D01*
X119750000Y-133850000D02*
X123000000Y-133850000D01*
X160945999Y-137845999D02*
X161935990Y-138835990D01*
X93595747Y-93262011D02*
X95387989Y-93262011D01*
X184500000Y-120550000D02*
X184195999Y-120854001D01*
X99342382Y-139500000D02*
X99950000Y-139500000D01*
X113694001Y-131945999D02*
X116273921Y-131945999D01*
X155231257Y-99416021D02*
X158416021Y-99416021D01*
X129273921Y-150845999D02*
X130200000Y-151772078D01*
X141213754Y-98231010D02*
X141946246Y-98231010D01*
X138195999Y-110604001D02*
X139476079Y-110604001D01*
X153943943Y-99416021D02*
X155231257Y-99416021D01*
X120286039Y-111313961D02*
X121526079Y-112554001D01*
X110831343Y-98981343D02*
X109796665Y-100016021D01*
X108350000Y-100500000D02*
X108300000Y-100450000D01*
X190785990Y-131835990D02*
X191200000Y-132250000D01*
X155785990Y-138585990D02*
X156950000Y-139750000D01*
X183095000Y-93545000D02*
X183694001Y-92945999D01*
X100500000Y-99800000D02*
X100868990Y-99431010D01*
X139450000Y-133850000D02*
X142500000Y-133850000D01*
X104935990Y-112764010D02*
X106462011Y-111237989D01*
X158726079Y-81345999D02*
X163295999Y-81345999D01*
X184345999Y-83204001D02*
X184345999Y-82726079D01*
X138900000Y-100850000D02*
X138900000Y-99700000D01*
X161000000Y-134150000D02*
X161050000Y-134150000D01*
X101476079Y-137595999D02*
X104395999Y-137595999D01*
X159172078Y-111400000D02*
X160608068Y-112835990D01*
X184200000Y-101000000D02*
X185683979Y-99516021D01*
X168793193Y-93374031D02*
X164765969Y-93374031D01*
X144761039Y-151561039D02*
X145476079Y-150845999D01*
X109563912Y-132935990D02*
X110958770Y-132935990D01*
X155004001Y-131945999D02*
X154026079Y-131945999D01*
X189408770Y-113085990D02*
X190322780Y-114000000D01*
X154665229Y-150595999D02*
X153983198Y-151278028D01*
X142815236Y-99100000D02*
X144315236Y-99100000D01*
X184000000Y-111350000D02*
X184745999Y-112095999D01*
X130372780Y-133850000D02*
X131200000Y-133850000D01*
X109976079Y-137595999D02*
X112395999Y-137595999D01*
X84400000Y-153075000D02*
X87125000Y-153075000D01*
X127200000Y-139122078D02*
X128726079Y-137595999D01*
X190322780Y-114000000D02*
X191450000Y-114000000D01*
X182145999Y-112154001D02*
X182950000Y-112958002D01*
X121263912Y-151835990D02*
X120273921Y-150845999D01*
X178526079Y-93654001D02*
X177372078Y-92500000D01*
X134885990Y-138585990D02*
X137035990Y-138585990D01*
X160500000Y-134150000D02*
X158295999Y-131945999D01*
X102263912Y-151585990D02*
X103658770Y-151585990D01*
X129600000Y-100550000D02*
X129600000Y-100244764D01*
X164203335Y-100016021D02*
X163324334Y-99137020D01*
X126581010Y-121518990D02*
X123746912Y-121518990D01*
X127935990Y-132935990D02*
X129458770Y-132935990D01*
X89450000Y-139500000D02*
X89450000Y-139122078D01*
X183400000Y-130300000D02*
X183726079Y-130626079D01*
X125200000Y-95350000D02*
X125200000Y-94710942D01*
X110958770Y-132935990D02*
X111872780Y-133850000D01*
X156754001Y-150595999D02*
X158295999Y-150595999D01*
X163200000Y-95350000D02*
X163200000Y-94940000D01*
X133600000Y-152503132D02*
X134267142Y-151835990D01*
X116257133Y-150845999D02*
X114600000Y-152503132D01*
X163920000Y-93720000D02*
X163300000Y-93100000D01*
X139935990Y-151835990D02*
X143035990Y-151835990D01*
X155694001Y-150595999D02*
X156754001Y-150595999D01*
X159658068Y-93835990D02*
X161685990Y-93835990D01*
X146300000Y-120040000D02*
X146300000Y-120450000D01*
X186273921Y-130845999D02*
X187263912Y-131835990D01*
X169454001Y-111754001D02*
X172045999Y-111754001D01*
X169273921Y-137595999D02*
X170263912Y-138585990D01*
X138200000Y-82872078D02*
X139726079Y-81345999D01*
X156295999Y-92845999D02*
X154538699Y-92845999D01*
X174745999Y-131845999D02*
X175750000Y-132850000D01*
X184300000Y-83250000D02*
X184345999Y-83204001D01*
X146450000Y-139122078D02*
X147976079Y-137595999D01*
X108450000Y-139122078D02*
X109976079Y-137595999D01*
X138816021Y-99616021D02*
X134643943Y-99616021D01*
X184500000Y-120172078D02*
X184500000Y-120550000D01*
X147726079Y-81345999D02*
X155295999Y-81345999D01*
X90726079Y-81345999D02*
X98295999Y-81345999D01*
X127200000Y-139500000D02*
X127200000Y-139122078D01*
X177372078Y-92500000D02*
X173910816Y-92500000D01*
X158796665Y-99416021D02*
X158416021Y-99416021D01*
X111435990Y-151835990D02*
X113685990Y-151835990D01*
X191466021Y-99516021D02*
X192200000Y-100250000D01*
X100900000Y-110800000D02*
X102935990Y-112835990D01*
X184200000Y-83250000D02*
X184300000Y-83250000D01*
X166726079Y-137595999D02*
X169273921Y-137595999D01*
X101890000Y-120650000D02*
X100000000Y-122540000D01*
X100200000Y-82840000D02*
X100200000Y-83250000D01*
X174833979Y-99316021D02*
X172843943Y-99316021D01*
X118700000Y-139122078D02*
X120226079Y-137595999D01*
X153000000Y-152500000D02*
X153000000Y-152261226D01*
X125200000Y-152750000D02*
X125200000Y-152372078D01*
X130272078Y-151772078D02*
X130335990Y-151835990D01*
X73250000Y-135500000D02*
X75131008Y-137381008D01*
X132263912Y-138585990D02*
X134885990Y-138585990D01*
X156950000Y-139340000D02*
X158444001Y-137845999D01*
X125500000Y-112600000D02*
X125584819Y-112684819D01*
X189300000Y-119500000D02*
X188545999Y-118745999D01*
X137545999Y-131945999D02*
X139450000Y-133850000D01*
X185300000Y-99900000D02*
X185683979Y-99516021D01*
X108350000Y-139600000D02*
X108450000Y-139500000D01*
X152500000Y-143850000D02*
X152700000Y-144050000D01*
X107000000Y-139600000D02*
X108350000Y-139600000D01*
X122973921Y-120745999D02*
X122645999Y-120745999D01*
X145231257Y-100016021D02*
X148976361Y-100016021D01*
X184195999Y-120854001D02*
X177285999Y-120854001D01*
X167354001Y-132245999D02*
X167595999Y-132245999D01*
X105200000Y-94940000D02*
X105200000Y-95350000D01*
X125200000Y-94710942D02*
X126536911Y-93374031D01*
X94286039Y-132236039D02*
X92663961Y-132236039D01*
X174153617Y-99316021D02*
X174833979Y-99316021D01*
X185926079Y-118745999D02*
X184500000Y-120172078D01*
X150798079Y-111754001D02*
X153201921Y-111754001D01*
X161935990Y-138835990D02*
X163408770Y-138835990D01*
X164900000Y-120450000D02*
X162900000Y-118450000D01*
X107225000Y-82275000D02*
X106295999Y-81345999D01*
X109796665Y-100496665D02*
X109800000Y-100500000D01*
X165200000Y-120450000D02*
X158490000Y-120450000D01*
X107535990Y-138585990D02*
X108450000Y-139500000D01*
X144315236Y-99100000D02*
X145231257Y-100016021D01*
X164765969Y-93374031D02*
X163920000Y-94220000D01*
X129458770Y-132935990D02*
X130372780Y-133850000D01*
X163200000Y-152750000D02*
X163200000Y-152372078D01*
X105535990Y-112835990D02*
X106200000Y-113500000D01*
X103685990Y-93835990D02*
X105200000Y-95350000D01*
X121526079Y-112554001D02*
X123254001Y-112554001D01*
X134267142Y-151835990D02*
X134035990Y-151835990D01*
X166694001Y-81345999D02*
X171595999Y-81345999D01*
X120226079Y-137595999D02*
X122773921Y-137595999D01*
X175045999Y-150595999D02*
X173746383Y-150595999D01*
X88976079Y-150845999D02*
X91445999Y-150845999D01*
X143085990Y-138585990D02*
X145535990Y-138585990D01*
X127450000Y-120272078D02*
X128976079Y-118745999D01*
X126285990Y-138585990D02*
X127200000Y-139500000D01*
X144100000Y-113500000D02*
X144100000Y-112800000D01*
X125183979Y-99316021D02*
X125883979Y-100016021D01*
X149644078Y-110600000D02*
X150798079Y-111754001D01*
X144050000Y-118650000D02*
X143900000Y-118800000D01*
X161145999Y-134054001D02*
X161145999Y-133626079D01*
X182800000Y-118850000D02*
X184500000Y-120550000D01*
X92435990Y-151835990D02*
X95335990Y-151835990D01*
X144200000Y-94850000D02*
X144200000Y-95350000D01*
X176926079Y-110604001D02*
X178476079Y-112154001D01*
X137950000Y-139500000D02*
X137950000Y-139122078D01*
X156295999Y-92845999D02*
X158668077Y-92845999D01*
X126638628Y-111631010D02*
X125584819Y-112684819D01*
X104600000Y-152527220D02*
X105977220Y-152527220D01*
X155164010Y-138585990D02*
X155785990Y-138585990D01*
X117295999Y-81345999D02*
X119200000Y-83250000D01*
X108200000Y-83250000D02*
X108200000Y-82872078D01*
X148900000Y-100350000D02*
X146850000Y-100350000D01*
X123763912Y-138585990D02*
X126285990Y-138585990D01*
X139726079Y-81345999D02*
X144295999Y-81345999D01*
X87450000Y-152372078D02*
X88976079Y-150845999D01*
X143385990Y-94035990D02*
X144200000Y-94850000D01*
X187252922Y-93925000D02*
X191325000Y-93925000D01*
X94995999Y-137595999D02*
X96268990Y-138868990D01*
X163408770Y-138835990D02*
X164072780Y-139500000D01*
X149300000Y-132450000D02*
X149950000Y-132450000D01*
X136726079Y-93045999D02*
X137095999Y-93045999D01*
X155295999Y-81345999D02*
X157200000Y-83250000D01*
X119200000Y-83250000D02*
X119200000Y-82872078D01*
X163324334Y-99137020D02*
X161602256Y-99137020D01*
X116273921Y-131945999D02*
X117127922Y-132800000D01*
X155694001Y-92845999D02*
X156295999Y-92845999D01*
X150600000Y-133100000D02*
X150025000Y-132525000D01*
X125200000Y-152372078D02*
X125561039Y-152011039D01*
X184604001Y-118745999D02*
X184200000Y-119150000D01*
X114700000Y-113250000D02*
X114700000Y-112966264D01*
X120273921Y-150845999D02*
X116257133Y-150845999D01*
X183726079Y-130845999D02*
X186273921Y-130845999D01*
X185494001Y-137595999D02*
X184000000Y-139090000D01*
X191450000Y-138250000D02*
X190795999Y-137595999D01*
X156900000Y-122040000D02*
X156900000Y-122450000D01*
X151685990Y-138585990D02*
X155785990Y-138585990D01*
X88700000Y-101500000D02*
X88700000Y-101090000D01*
X139828743Y-99616021D02*
X141213754Y-98231010D01*
X156754001Y-150595999D02*
X154665229Y-150595999D01*
X101273921Y-150595999D02*
X102263912Y-151585990D01*
X157045999Y-131945999D02*
X155004001Y-131945999D01*
X169486656Y-98326030D02*
X167796665Y-100016021D01*
X146850000Y-100350000D02*
X146600000Y-100600000D01*
X182750000Y-81800000D02*
X182625000Y-81675000D01*
X133673921Y-98645999D02*
X131198765Y-98645999D01*
X148900000Y-99944764D02*
X150418734Y-98426030D01*
X182200000Y-152372078D02*
X183726079Y-150845999D01*
X155004001Y-131945999D02*
X154145253Y-131945999D01*
X178476079Y-112154001D02*
X182145999Y-112154001D01*
X117127922Y-132800000D02*
X118522780Y-132800000D01*
X130335990Y-151835990D02*
X134035990Y-151835990D01*
X167900000Y-111600000D02*
X169100000Y-111600000D01*
X145145999Y-108295999D02*
X145100000Y-108250000D01*
X144200000Y-94940000D02*
X145694001Y-93445999D01*
X106200000Y-92750000D02*
X106694001Y-93244001D01*
X144595999Y-93445999D02*
X144100000Y-92950000D01*
X114995999Y-118745999D02*
X118900000Y-122650000D01*
X182295999Y-81345999D02*
X182625000Y-81675000D01*
X184745999Y-112095999D02*
X185045999Y-112095999D01*
X125584819Y-112684819D02*
X125200000Y-113069638D01*
X146450000Y-139500000D02*
X146450000Y-139122078D01*
X161321579Y-98856343D02*
X159356343Y-98856343D01*
X95200000Y-93450000D02*
X95387989Y-93262011D01*
X108450000Y-139500000D02*
X108450000Y-139122078D01*
X136095999Y-110604001D02*
X134437989Y-112262011D01*
X87125000Y-153075000D02*
X87450000Y-152750000D01*
X163200000Y-152372078D02*
X164726079Y-150845999D01*
X142987997Y-120554001D02*
X144004001Y-120554001D01*
X119283979Y-99484331D02*
X119283979Y-99316021D01*
X106200000Y-113090000D02*
X107669979Y-111620021D01*
X161602256Y-99137020D02*
X161321579Y-98856343D01*
X119750129Y-99950481D02*
X119750129Y-101099871D01*
X143950000Y-152372078D02*
X144761039Y-151561039D01*
X123535990Y-112835990D02*
X124485990Y-112835990D01*
X87200000Y-114000000D02*
X87200000Y-113590000D01*
X174833979Y-99316021D02*
X175676681Y-99316021D01*
X146004001Y-93445999D02*
X148273921Y-93445999D01*
X122773921Y-137595999D02*
X123763912Y-138585990D01*
X108573921Y-131945999D02*
X109563912Y-132935990D01*
X150418734Y-98426030D02*
X152953952Y-98426030D01*
X91273921Y-112095999D02*
X92263912Y-113085990D01*
X145145999Y-110604001D02*
X145145999Y-108295999D01*
X105994001Y-131945999D02*
X108573921Y-131945999D01*
X112395999Y-137595999D02*
X113385990Y-138585990D01*
X143554001Y-120554001D02*
X143545999Y-120554001D01*
X145535990Y-138585990D02*
X146450000Y-139500000D01*
X187023921Y-112095999D02*
X188013912Y-113085990D01*
X152900000Y-94750000D02*
X152900000Y-94484696D01*
X111216687Y-98595999D02*
X110831343Y-98981343D01*
X90976079Y-137595999D02*
X94995999Y-137595999D01*
X128726079Y-81345999D02*
X136295999Y-81345999D01*
X131273921Y-137595999D02*
X132263912Y-138585990D01*
X157600000Y-100850000D02*
X157600000Y-100232042D01*
X156950000Y-139750000D02*
X156950000Y-139340000D01*
X152400000Y-113266264D02*
X154266264Y-111400000D01*
X100500000Y-100950000D02*
X100500000Y-99800000D01*
X106694001Y-93244001D02*
X106694001Y-93445999D01*
X129458770Y-132935990D02*
X130448761Y-131945999D01*
X130200000Y-151772078D02*
X130272078Y-151772078D01*
X139526079Y-120745999D02*
X142795999Y-120745999D01*
X174295999Y-81345999D02*
X176200000Y-83250000D01*
X172640795Y-93770021D02*
X169189183Y-93770021D01*
X182900000Y-150150000D02*
X183595999Y-150845999D01*
X112173181Y-93445999D02*
X112497204Y-93770020D01*
X181104001Y-93654001D02*
X178526079Y-93654001D01*
X183694001Y-92945999D02*
X186273921Y-92945999D01*
X127200000Y-83250000D02*
X127200000Y-82872078D01*
X146200000Y-83250000D02*
X146200000Y-82872078D01*
X133800000Y-93990042D02*
X134020021Y-93770021D01*
X90358990Y-99431010D02*
X100268990Y-99431010D01*
X178385990Y-151585990D02*
X181035990Y-151585990D01*
X137950000Y-139122078D02*
X139476079Y-137595999D01*
X105385990Y-138585990D02*
X107535990Y-138585990D01*
X94668779Y-118595999D02*
X97500000Y-121427220D01*
X147794001Y-118545999D02*
X147690000Y-118650000D01*
X166300000Y-118800000D02*
X166370000Y-118870000D01*
X147945999Y-150845999D02*
X148125000Y-151025000D01*
X143035990Y-151835990D02*
X143950000Y-152750000D01*
X173746383Y-150595999D02*
X173064352Y-151278030D01*
X120222078Y-92400000D02*
X121476079Y-93654001D01*
X129600000Y-100244764D02*
X129828743Y-100016021D01*
X184200000Y-101450000D02*
X184200000Y-101000000D01*
X124400000Y-119145999D02*
X122800000Y-120745999D01*
X162600000Y-112500000D02*
X163968990Y-111131010D01*
X108200000Y-82872078D02*
X109726079Y-81345999D01*
X161050000Y-134150000D02*
X161145999Y-134054001D01*
X182200000Y-152750000D02*
X182200000Y-152372078D01*
X183505670Y-139500000D02*
X182852849Y-140152821D01*
X167578030Y-151278030D02*
X167425000Y-151125000D01*
X100000000Y-122540000D02*
X100000000Y-122950000D01*
X135446383Y-93045999D02*
X134722361Y-93770021D01*
X185683979Y-99516021D02*
X191466021Y-99516021D01*
X107600000Y-118700000D02*
X109080080Y-118700000D01*
X138877078Y-121395000D02*
X139526079Y-120745999D01*
X124526079Y-131945999D02*
X126945999Y-131945999D01*
X138195999Y-110604001D02*
X137304001Y-110604001D01*
X109126079Y-118745999D02*
X114995999Y-118745999D01*
X144100000Y-112800000D02*
X142954001Y-111654001D01*
X87450000Y-152750000D02*
X87450000Y-152372078D01*
X161145999Y-133626079D02*
X162526079Y-132245999D01*
X138000000Y-122240000D02*
X138845000Y-121395000D01*
X101694001Y-81345999D02*
X100200000Y-82840000D01*
X184000000Y-139500000D02*
X183505670Y-139500000D01*
X101273921Y-150595999D02*
X97507133Y-150595999D01*
X126945999Y-131945999D02*
X127935990Y-132935990D01*
X173064352Y-151278030D02*
X172328030Y-151278030D01*
X142500000Y-133850000D02*
X142500000Y-133472078D01*
X124485990Y-112835990D02*
X125200000Y-113550000D01*
X147573922Y-110600000D02*
X149644078Y-110600000D01*
X145476079Y-150845999D02*
X147945999Y-150845999D01*
X122927220Y-133777220D02*
X123000000Y-133850000D01*
X113685990Y-151835990D02*
X114600000Y-152750000D01*
X177285999Y-120854001D02*
X176200000Y-121940000D01*
X118522780Y-132800000D02*
X119572780Y-133850000D01*
X186273921Y-92945999D02*
X187252922Y-93925000D01*
X169100000Y-111600000D02*
X169200000Y-111500000D01*
X137095999Y-93045999D02*
X139668077Y-93045999D01*
X97500000Y-121427220D02*
X98171142Y-121427220D01*
X159356343Y-98856343D02*
X158796665Y-99416021D01*
X176200000Y-83250000D02*
X176200000Y-82840000D01*
X83200000Y-154650000D02*
X83200000Y-154275000D01*
X136476079Y-150845999D02*
X136895999Y-150845999D01*
X141946246Y-98231010D02*
X142815236Y-99100000D01*
X149950000Y-132450000D02*
X150025000Y-132525000D01*
X146004001Y-93445999D02*
X144595999Y-93445999D01*
X183595999Y-150845999D02*
X183726079Y-150845999D01*
X126536911Y-93374031D02*
X130493193Y-93374031D01*
X172095999Y-81345999D02*
X171595999Y-81345999D01*
X176200000Y-82840000D02*
X177694001Y-81345999D01*
X101273921Y-92845999D02*
X102263912Y-93835990D01*
X139668077Y-93045999D02*
X140658068Y-94035990D01*
X87200000Y-113590000D02*
X88694001Y-112095999D01*
X148900000Y-100350000D02*
X148900000Y-99944764D01*
X132879979Y-93770021D02*
X134020021Y-93770021D01*
X125883979Y-100016021D02*
X128116021Y-100016021D01*
X184476079Y-112095999D02*
X185045999Y-112095999D01*
X109616021Y-100016021D02*
X105766021Y-100016021D01*
X107669979Y-111620021D02*
X111953757Y-111620021D01*
X122800000Y-120745999D02*
X122645999Y-120745999D01*
X176200000Y-121940000D02*
X176200000Y-122350000D01*
X115100000Y-94050000D02*
X114820020Y-93770020D01*
X104395999Y-137595999D02*
X105385990Y-138585990D01*
X92663961Y-132236039D02*
X91873921Y-131445999D01*
X183095000Y-93545000D02*
X183095000Y-93130924D01*
X119283979Y-99316021D02*
X125183979Y-99316021D01*
X165200000Y-120450000D02*
X164900000Y-120450000D01*
X118900000Y-122272078D02*
X118900000Y-122650000D01*
X148273921Y-93445999D02*
X148538961Y-93711039D01*
X153555922Y-111400000D02*
X154266264Y-111400000D01*
X106694001Y-93445999D02*
X105200000Y-94940000D01*
X170626079Y-131845999D02*
X174745999Y-131845999D01*
X102218734Y-99026030D02*
X101813754Y-99431010D01*
X163920000Y-94220000D02*
X163920000Y-93720000D01*
X125561039Y-152011039D02*
X126726079Y-150845999D01*
X146200000Y-82872078D02*
X147726079Y-81345999D01*
X171853952Y-98326030D02*
X171276030Y-98326030D01*
X154266264Y-111400000D02*
X159172078Y-111400000D01*
X118700000Y-139500000D02*
X118700000Y-139122078D01*
X125200000Y-152750000D02*
X124285990Y-151835990D01*
X112666868Y-112333132D02*
X113783132Y-112333132D01*
X119750129Y-99950481D02*
X119283979Y-99484331D01*
X124004001Y-93654001D02*
X125200000Y-94850000D01*
X107600000Y-120272078D02*
X109126079Y-118745999D01*
X90726079Y-118595999D02*
X94668779Y-118595999D01*
X142095999Y-137595999D02*
X143085990Y-138585990D01*
X144761039Y-151561039D02*
X144761039Y-151461039D01*
X165200000Y-83250000D02*
X165200000Y-82840000D01*
X112173181Y-93445999D02*
X106694001Y-93445999D01*
X176200000Y-122750000D02*
X176000000Y-122950000D01*
X150600000Y-133900000D02*
X150600000Y-133100000D01*
X145145999Y-110604001D02*
X147569921Y-110604001D01*
X109673921Y-131945999D02*
X109954001Y-132226079D01*
X123000000Y-133850000D02*
X123000000Y-133472078D01*
X138200000Y-83250000D02*
X138200000Y-82872078D01*
X161685990Y-93835990D02*
X163200000Y-95350000D01*
X182200000Y-132750000D02*
X182200000Y-132372078D01*
X158295999Y-150595999D02*
X159285990Y-151585990D01*
X87200000Y-94750000D02*
X87200000Y-94340000D01*
X125500000Y-111800000D02*
X125500000Y-112600000D01*
X121900000Y-133777220D02*
X122927220Y-133777220D01*
X106200000Y-113500000D02*
X106200000Y-113090000D01*
X124004001Y-93654001D02*
X124554001Y-93654001D01*
X99950000Y-139122078D02*
X101476079Y-137595999D01*
X133300000Y-113400000D02*
X134437989Y-112262011D01*
X127450000Y-120650000D02*
X127450000Y-120272078D01*
X171276030Y-98326030D02*
X169486656Y-98326030D01*
X160608068Y-112835990D02*
X162185990Y-112835990D01*
X102935990Y-112835990D02*
X104935990Y-112835990D01*
X177694001Y-81345999D02*
X182295999Y-81345999D01*
X128405999Y-131945999D02*
X128454001Y-131994001D01*
X159285990Y-151585990D02*
X162035990Y-151585990D01*
X98295999Y-81345999D02*
X100200000Y-83250000D01*
X109800000Y-100500000D02*
X108350000Y-100500000D01*
X140526079Y-111654001D02*
X142954001Y-111654001D01*
X175045999Y-150595999D02*
X177395999Y-150595999D01*
X133800000Y-94950000D02*
X133800000Y-93990042D01*
X144200000Y-95350000D02*
X144200000Y-94940000D01*
X125200000Y-113069638D02*
X125200000Y-113550000D01*
X183726079Y-150845999D02*
X190545999Y-150845999D01*
X114863912Y-99585990D02*
X113873921Y-98595999D01*
X130889183Y-93770021D02*
X132879979Y-93770021D01*
X125200000Y-113172078D02*
X125200000Y-113550000D01*
X133600000Y-152750000D02*
X133600000Y-152503132D01*
X138945999Y-150845999D02*
X139935990Y-151835990D01*
X182950000Y-112958002D02*
X182950000Y-114000000D01*
X158295999Y-131945999D02*
X157045999Y-131945999D01*
X89200000Y-120500000D02*
X89200000Y-120122078D01*
X182200000Y-94440000D02*
X183095000Y-93545000D01*
X130448761Y-131945999D02*
X137545999Y-131945999D01*
X97394001Y-131945999D02*
X99973921Y-131945999D01*
X125295999Y-81345999D02*
X127200000Y-83250000D01*
X93179735Y-92845999D02*
X93595747Y-93262011D01*
X109080080Y-118700000D02*
X109126079Y-118745999D01*
X145694001Y-93445999D02*
X146004001Y-93445999D01*
X96820265Y-92845999D02*
X101273921Y-92845999D01*
X153983198Y-151278028D02*
X148378028Y-151278028D01*
X175676681Y-99316021D02*
X176350431Y-99989771D01*
X172100000Y-94310816D02*
X172640795Y-93770021D01*
X183726079Y-130626079D02*
X183726079Y-130845999D01*
X101813754Y-99431010D02*
X100868990Y-99431010D01*
X138000000Y-122650000D02*
X138000000Y-122240000D01*
X187263912Y-131835990D02*
X190785990Y-131835990D01*
X110445999Y-150845999D02*
X111435990Y-151835990D01*
X107726079Y-150845999D02*
X110445999Y-150845999D01*
X134643943Y-99616021D02*
X133673921Y-98645999D01*
X97866264Y-110800000D02*
X100900000Y-110800000D01*
X173910816Y-92500000D02*
X172640795Y-93770021D01*
X164726079Y-150845999D02*
X167145999Y-150845999D01*
X158668077Y-92845999D02*
X159658068Y-93835990D01*
X168831010Y-111131010D02*
X169200000Y-111500000D01*
X112200000Y-133850000D02*
X112200000Y-133440000D01*
X115738796Y-93770018D02*
X117108814Y-92400000D01*
X169189183Y-93770021D02*
X168793193Y-93374031D01*
X171600000Y-112200000D02*
X171600000Y-112750000D01*
X106100000Y-119150000D02*
X107600000Y-120650000D01*
X167145999Y-150845999D02*
X167425000Y-151125000D01*
X91445999Y-150845999D02*
X92435990Y-151835990D01*
X152995999Y-118545999D02*
X147794001Y-118545999D01*
X121476079Y-93654001D02*
X124004001Y-93654001D01*
X119750129Y-101099871D02*
X119600000Y-101250000D01*
X133300000Y-113700000D02*
X133300000Y-113400000D01*
X148597941Y-93770019D02*
X148538961Y-93711039D01*
X165200000Y-120040000D02*
X166370000Y-118870000D01*
X112200000Y-133440000D02*
X113694001Y-131945999D01*
X130493193Y-93374031D02*
X130889183Y-93770021D01*
X114600000Y-152503132D02*
X114600000Y-152750000D01*
X182625000Y-81675000D02*
X184200000Y-83250000D01*
X157200000Y-82872078D02*
X158726079Y-81345999D01*
X102263912Y-93835990D02*
X103685990Y-93835990D01*
X166370000Y-118870000D02*
X166694001Y-118545999D01*
X102358770Y-132935990D02*
X103272780Y-133850000D01*
X119572780Y-133850000D02*
X119750000Y-133850000D01*
X101890000Y-120650000D02*
X107600000Y-120650000D01*
X138195999Y-110604001D02*
X136095999Y-110604001D01*
X169100000Y-133750000D02*
X169100000Y-133372078D01*
X191325000Y-93925000D02*
X191900000Y-94500000D01*
X105766021Y-100016021D02*
X104776030Y-99026030D01*
X97507133Y-150595999D02*
X96000000Y-152103132D01*
X100963912Y-132935990D02*
X102358770Y-132935990D01*
X147569921Y-110604001D02*
X147573922Y-110600000D01*
X165200000Y-139500000D02*
X165200000Y-139122078D01*
X177395999Y-150595999D02*
X178385990Y-151585990D01*
X144026079Y-131945999D02*
X149445999Y-131945999D01*
X185926079Y-118745999D02*
X184604001Y-118745999D01*
X115279980Y-93770020D02*
X115738796Y-93770018D01*
X113783132Y-112333132D02*
X114700000Y-113250000D01*
X104600000Y-152400000D02*
X106000000Y-151000000D01*
X96000000Y-152103132D02*
X96000000Y-152500000D01*
X95900000Y-133850000D02*
X95900000Y-133440000D01*
X117785990Y-138585990D02*
X118700000Y-139500000D01*
X188013912Y-113085990D02*
X189408770Y-113085990D01*
X123254001Y-112554001D02*
X123535990Y-112835990D01*
X95335990Y-151835990D02*
X96000000Y-152500000D01*
X134095999Y-118745999D02*
X138000000Y-122650000D01*
X184000000Y-139090000D02*
X184000000Y-139500000D01*
X176200000Y-122350000D02*
X176200000Y-122750000D01*
X103272780Y-133850000D02*
X104500000Y-133850000D01*
X114820020Y-93770020D02*
X115279980Y-93770020D01*
X95580274Y-113085990D02*
X97866264Y-110800000D01*
X136895999Y-150845999D02*
X135257133Y-150845999D01*
X128976079Y-118745999D02*
X134095999Y-118745999D01*
X192250000Y-119500000D02*
X189300000Y-119500000D01*
X89450000Y-139122078D02*
X90976079Y-137595999D01*
X134437989Y-112262011D02*
X131569629Y-112262011D01*
X89294001Y-131445999D02*
X87800000Y-132940000D01*
X106100000Y-118550000D02*
X106100000Y-119150000D01*
X126726079Y-150845999D02*
X129273921Y-150845999D01*
X175750000Y-132850000D02*
X175750000Y-132900000D01*
X169200000Y-111500000D02*
X169454001Y-111754001D01*
X166900000Y-132700000D02*
X167354001Y-132245999D01*
X138816021Y-99616021D02*
X139828743Y-99616021D01*
X104935990Y-112835990D02*
X105535990Y-112835990D01*
X87200000Y-94340000D02*
X88694001Y-92845999D01*
X164072780Y-139500000D02*
X165200000Y-139500000D01*
X166033979Y-100016021D02*
X164203335Y-100016021D01*
X144761039Y-151461039D02*
X144200000Y-150900000D01*
X172395999Y-118545999D02*
X176200000Y-122350000D01*
X175085638Y-138585990D02*
X175450129Y-138950481D01*
X88700000Y-101090000D02*
X90358990Y-99431010D01*
X109796665Y-100016021D02*
X109796665Y-100496665D01*
X95900000Y-133850000D02*
X94286039Y-132236039D01*
X152900000Y-94484696D02*
X153614677Y-93770019D01*
X157200000Y-83250000D02*
X157200000Y-82872078D01*
X95387989Y-93262011D02*
X96404253Y-93262011D01*
X104776030Y-99026030D02*
X102218734Y-99026030D01*
X165200000Y-120450000D02*
X165200000Y-120040000D01*
X109726079Y-81345999D02*
X117295999Y-81345999D01*
X96404253Y-93262011D02*
X96820265Y-92845999D01*
X124285990Y-151835990D02*
X121263912Y-151835990D01*
X153614677Y-93770019D02*
X148597941Y-93770019D01*
X108573921Y-131945999D02*
X109673921Y-131945999D01*
X166033979Y-100016021D02*
X166033979Y-100216021D01*
X116352303Y-111313961D02*
X120286039Y-111313961D01*
X162526079Y-132245999D02*
X167354001Y-132245999D01*
X162600000Y-113250000D02*
X162600000Y-112500000D01*
X169100000Y-133372078D02*
X170626079Y-131845999D01*
X182950000Y-114000000D02*
X182950000Y-113622078D01*
X182200000Y-132372078D02*
X183726079Y-130845999D01*
X137035990Y-138585990D02*
X137950000Y-139500000D01*
X163968990Y-111131010D02*
X168831010Y-111131010D01*
X164800000Y-118800000D02*
X166300000Y-118800000D01*
X136295999Y-81345999D02*
X138200000Y-83250000D01*
X119014010Y-99585990D02*
X114863912Y-99585990D01*
X125600000Y-120200000D02*
X127000000Y-120200000D01*
X154026079Y-131945999D02*
X149445999Y-131945999D01*
X127400000Y-100700000D02*
X128083979Y-100016021D01*
X157600000Y-100232042D02*
X158416021Y-99416021D01*
X139476079Y-137595999D02*
X142095999Y-137595999D01*
X144100000Y-121100000D02*
X143554001Y-120554001D01*
X183095000Y-93130924D02*
X182345999Y-92381923D01*
X104500000Y-133850000D02*
X104500000Y-133440000D01*
X173195999Y-110604001D02*
X176926079Y-110604001D01*
X117108814Y-92400000D02*
X117592382Y-92400000D01*
X142954001Y-111654001D02*
X144004001Y-110604001D01*
X117592382Y-92400000D02*
X120222078Y-92400000D01*
X108200000Y-83250000D02*
X107225000Y-82275000D01*
X175750000Y-132900000D02*
X176568990Y-133718990D01*
X120726079Y-81345999D02*
X125295999Y-81345999D01*
X184345999Y-82726079D02*
X185726079Y-81345999D01*
X158490000Y-120450000D02*
X156900000Y-122040000D01*
X172100000Y-151506060D02*
X172328030Y-151278030D01*
X134885990Y-139485990D02*
X134900000Y-139500000D01*
X185726079Y-81345999D02*
X194545389Y-81345999D01*
X142795999Y-120745999D02*
X142987997Y-120554001D01*
X172328030Y-151278030D02*
X167578030Y-151278030D01*
X176568990Y-133718990D02*
X181531010Y-133718990D01*
X106200000Y-152750000D02*
X106200000Y-152372078D01*
X172100000Y-152500000D02*
X172100000Y-151506060D01*
X89200000Y-83250000D02*
X89200000Y-82872078D01*
X88694001Y-112095999D02*
X91273921Y-112095999D01*
X185045999Y-112095999D02*
X187023921Y-112095999D01*
X109796665Y-100016021D02*
X109616021Y-100016021D01*
X181531010Y-133718990D02*
X182400000Y-132850000D01*
X123000000Y-133472078D02*
X124526079Y-131945999D01*
X100268990Y-99431010D02*
X100868990Y-99431010D01*
X148378028Y-151278028D02*
X148125000Y-151025000D01*
X154538699Y-92845999D02*
X153614677Y-93770019D01*
X119283979Y-99316021D02*
X119014010Y-99585990D01*
X123746912Y-121518990D02*
X122973921Y-120745999D01*
X182200000Y-94850000D02*
X182200000Y-94440000D01*
X143950000Y-152750000D02*
X143950000Y-152372078D01*
X113385990Y-138585990D02*
X117785990Y-138585990D01*
X139476079Y-110604001D02*
X140526079Y-111654001D01*
X153201921Y-111754001D02*
X153555922Y-111400000D01*
X167595999Y-132245999D02*
X169100000Y-133750000D01*
X144004001Y-110604001D02*
X145145999Y-110604001D01*
X128726079Y-137595999D02*
X131273921Y-137595999D01*
X98711372Y-138868990D02*
X99342382Y-139500000D01*
X143545999Y-120554001D02*
X144004001Y-120554001D01*
X103658770Y-151585990D02*
X104600000Y-152527220D01*
X142500000Y-133472078D02*
X144026079Y-131945999D01*
X150695999Y-137595999D02*
X151685990Y-138585990D01*
X99693922Y-122950000D02*
X100000000Y-122950000D01*
X128116021Y-100016021D02*
X129566021Y-100016021D01*
X162185990Y-112835990D02*
X162600000Y-113250000D01*
X172045999Y-111754001D02*
X173195999Y-110604001D01*
X107600000Y-120650000D02*
X107600000Y-120272078D01*
X113873921Y-98595999D02*
X111216687Y-98595999D01*
X96268990Y-138868990D02*
X98711372Y-138868990D01*
X163295999Y-81345999D02*
X165200000Y-83250000D01*
X152953952Y-98426030D02*
X153943943Y-99416021D01*
X127200000Y-82872078D02*
X128726079Y-81345999D01*
X194545389Y-81345999D02*
X195449519Y-82250129D01*
X134722361Y-93770021D02*
X132879979Y-93770021D01*
X89200000Y-120122078D02*
X90726079Y-118595999D01*
X166033979Y-100216021D02*
X165500000Y-100750000D01*
X182200000Y-94750000D02*
X181104001Y-93654001D01*
X184500000Y-99900000D02*
X185300000Y-99900000D01*
X126945999Y-131945999D02*
X128405999Y-131945999D01*
X174694001Y-150595999D02*
X175045999Y-150595999D01*
X92263912Y-113085990D02*
X95580274Y-113085990D01*
X156900000Y-122450000D02*
X152995999Y-118545999D01*
X125300000Y-151050000D02*
X125300000Y-151750000D01*
X188545999Y-118745999D02*
X185926079Y-118745999D01*
X124400000Y-118650000D02*
X124400000Y-119145999D01*
X158444001Y-137845999D02*
X160945999Y-137845999D01*
X140658068Y-94035990D02*
X143385990Y-94035990D01*
X75131008Y-138381008D02*
X79600000Y-142850000D01*
X127450000Y-120650000D02*
X126581010Y-121518990D01*
X131198765Y-98645999D02*
X129828743Y-100016021D01*
X130938628Y-111631010D02*
X126638628Y-111631010D01*
X166694001Y-118545999D02*
X172395999Y-118545999D01*
X172100000Y-94600000D02*
X172100000Y-94310816D01*
X170263912Y-138585990D02*
X175085638Y-138585990D01*
X165200000Y-82840000D02*
X166694001Y-81345999D01*
X106295999Y-81345999D02*
X101694001Y-81345999D01*
X150400000Y-143850000D02*
X152500000Y-143850000D01*
X95900000Y-133440000D02*
X97394001Y-131945999D01*
X131569629Y-112262011D02*
X130938628Y-111631010D01*
X104935990Y-112835990D02*
X104935990Y-112764010D01*
X111953757Y-111620021D02*
X112666868Y-112333132D01*
X161000000Y-134150000D02*
X160500000Y-134150000D01*
X150025000Y-132525000D02*
X149445999Y-131945999D01*
X147794001Y-118545999D02*
X146300000Y-120040000D01*
X98171142Y-121427220D02*
X99693922Y-122950000D01*
X172045999Y-111754001D02*
X171600000Y-112200000D01*
X114700000Y-112966264D02*
X116352303Y-111313961D01*
X87800000Y-132940000D02*
X87800000Y-133350000D01*
X163200000Y-94940000D02*
X163920000Y-94220000D01*
X125300000Y-151750000D02*
X125561039Y-152011039D01*
X136895999Y-150845999D02*
X138945999Y-150845999D01*
X89200000Y-82872078D02*
X90726079Y-81345999D01*
X162035990Y-151585990D02*
X163200000Y-152750000D01*
X172843943Y-99316021D02*
X171853952Y-98326030D01*
X171595999Y-81345999D02*
X174295999Y-81345999D01*
X167796665Y-100016021D02*
X166033979Y-100016021D01*
X75131008Y-137381008D02*
X75131008Y-138381008D01*
X181035990Y-151585990D02*
X182200000Y-152750000D01*
G04 #@! TO.N,Net-(F1-Pad1)*
X83425000Y-152000000D02*
X84400000Y-151025000D01*
X75400000Y-152000000D02*
X83425000Y-152000000D01*
G04 #@! TD*
M02*
