M48
; DRILL file {KiCad (6.0.1)} date 2022年02月20日 21時27分38秒
; FORMAT={-:-/ absolute / inch / decimal}
; #@! TF.CreationDate,2022-02-20T21:27:38+09:00
; #@! TF.GenerationSoftware,Kicad,Pcbnew,(6.0.1)
; #@! TF.FileFunction,MixedPlating,1,2
FMAT,2
INCH
; #@! TA.AperFunction,Plated,PTH,ViaDrill
T1C0.0157
; #@! TA.AperFunction,Plated,PTH,ComponentDrill
T2C0.0197
; #@! TA.AperFunction,Plated,PTH,ComponentDrill
T3C0.0354
; #@! TA.AperFunction,Plated,PTH,ComponentDrill
T4C0.0394
; #@! TA.AperFunction,Plated,PTH,ComponentDrill
T5C0.0591
; #@! TA.AperFunction,NonPlated,NPTH,ComponentDrill
T6C0.0591
; #@! TA.AperFunction,NonPlated,NPTH,ComponentDrill
T7C0.0669
; #@! TA.AperFunction,NonPlated,NPTH,ComponentDrill
T8C0.0866
; #@! TA.AperFunction,NonPlated,NPTH,ComponentDrill
T9C0.1575
; #@! TA.AperFunction,NonPlated,NPTH,ComponentDrill
T10C0.1693
%
G90
G05
T1
X2.3465Y-5.7441
X2.5394Y-5.0906
X2.5709Y-5.9232
X2.6339Y-5.2008
X2.7244Y-5.6772
X2.7559Y-5.4961
X2.7874Y-5.2717
X2.9665Y-5.2815
X2.9823Y-5.9252
X2.9931Y-6.0719
X3.0669Y-4.3287
X3.1339Y-5.624
X3.2638Y-3.437
X3.2638Y-3.6535
X3.2756Y-6.0886
X3.4055Y-5.5197
X3.4311Y-5.9508
X3.4449Y-5.8661
X3.4961Y-5.6181
X3.6614Y-6.1417
X3.6772Y-4.189
X3.7323Y-4.8858
X3.7441Y-4.1654
X3.8307Y-5.6811
X3.8858Y-4.624
X3.937Y-4.0945
X3.938Y-3.4163
X4.0551Y-3.8327
X4.0551Y-6.0886
X4.1732Y-5.9449
X4.1811Y-3.6516
X4.1914Y-4.3794
X4.2126Y-5.4961
X4.2362Y-4.6732
X4.2638Y-3.9547
X4.3289Y-5.2058
X4.4606Y-4.1575
X4.4843Y-5.6417
X4.5945Y-4.9528
X4.6299Y-4.6299
X4.6348Y-4.0463
X4.689Y-3.3976
X4.7756Y-3.8425
X4.8091Y-6.0866
X4.9234Y-3.6675
X4.9331Y-5.9469
X4.9409Y-4.4016
X4.9449Y-4.7323
X5.0157Y-3.9646
X5.0572Y-5.1966
X5.1969Y-4.1654
X5.252Y-5.6555
X5.311Y-5.4921
X5.3709Y-4.9559
X5.3858Y-4.0118
X5.4262Y-3.4163
X5.4331Y-5.3701
X5.5541Y-6.0935
X5.563Y-3.7972
X5.6732Y-3.6594
X5.6732Y-4.7677
X5.6772Y-5.9409
X5.7126Y-4.2618
X5.7717Y-3.9606
X5.878Y-5.2146
X5.9213Y-5.6634
X6.0118Y-5.6713
X6.0709Y-5.4941
X6.0866Y-5.6929
X6.1024Y-5.1476
X6.1102Y-4.626
X6.1339Y-4.0276
X6.1841Y-3.4163
X6.2008Y-4.939
X6.2126Y-3.8484
X6.2362Y-5.3287
X6.3504Y-6.0591
X6.4291Y-3.6654
X6.4291Y-5.6339
X6.4331Y-5.9331
X6.4882Y-4.6772
X6.5079Y-5.8765
X6.5157Y-3.9665
X6.5709Y-5.2244
X6.6102Y-4.3937
X6.7205Y-5.6457
X6.8189Y-3.2461
X6.8307Y-5.7244
X6.8543Y-4.6063
X6.9242Y-5.6604
X6.9331Y-4.9665
X6.9409Y-4.1791
X6.9921Y-5.3346
X7.0315Y-4.5295
X7.0394Y-6.1063
X7.0748Y-3.7736
X7.179Y-3.6371
X7.1989Y-5.5178
X7.2008Y-5.9114
X7.2205Y-5.1299
X7.2441Y-4.3839
X7.252Y-4.6909
X7.2638Y-3.9331
X7.4606Y-5.6654
X7.5906Y-3.498
T3
X2.465Y-3.5283
X2.465Y-3.6283
X2.465Y-3.7283
X2.465Y-3.8283
X2.465Y-3.9283
X2.465Y-4.0283
X2.465Y-4.1283
X2.465Y-4.2283
X2.465Y-4.3283
X2.465Y-4.4283
X2.465Y-4.5283
X2.465Y-4.6283
X2.465Y-4.7283
X2.465Y-4.8283
X2.465Y-4.9283
X2.465Y-5.0283
X2.465Y-5.1283
X2.465Y-5.2283
X2.465Y-5.3283
X2.465Y-5.4283
X3.165Y-3.5283
X3.165Y-3.6283
X3.165Y-3.7283
X3.165Y-3.8283
X3.165Y-3.9283
X3.165Y-4.0283
X3.165Y-4.1283
X3.165Y-4.2283
X3.165Y-4.3283
X3.165Y-4.4283
X3.165Y-4.5283
X3.165Y-4.6283
X3.165Y-4.7283
X3.165Y-4.8283
X3.165Y-4.9283
X3.165Y-5.0283
X3.165Y-5.1283
X3.165Y-5.2283
X3.165Y-5.3283
X3.165Y-5.4283
T4
X2.4508Y-5.6398
X3.21Y-5.7972
T5
X3.5902Y-3.4531
X3.5902Y-4.2012
X3.5902Y-4.9492
X3.5902Y-5.6972
X3.8402Y-3.3531
X3.8402Y-4.1012
X3.8402Y-4.8492
X3.8402Y-5.5972
X4.3382Y-3.4531
X4.3382Y-4.2012
X4.3382Y-4.9492
X4.3382Y-5.6972
X4.5882Y-3.3531
X4.5882Y-4.1012
X4.5882Y-4.8492
X4.5882Y-5.5972
X5.0862Y-3.4531
X5.0862Y-4.2012
X5.0862Y-4.9492
X5.0862Y-5.6972
X5.3362Y-3.3531
X5.3362Y-4.1012
X5.3362Y-4.8492
X5.3362Y-5.5972
X5.8343Y-3.4531
X5.8343Y-4.2012
X5.8343Y-4.9492
X5.8343Y-5.6972
X6.0843Y-3.3531
X6.0843Y-4.1012
X6.0843Y-4.8492
X6.0843Y-5.5972
X6.5823Y-3.4531
X6.5823Y-4.2012
X6.5823Y-4.9492
X6.5823Y-5.6972
X6.8323Y-3.3531
X6.8323Y-4.1012
X6.8323Y-4.8492
X6.8323Y-5.5972
X7.3303Y-3.4531
X7.3303Y-4.2012
X7.3303Y-4.9492
X7.3303Y-5.6972
X7.5803Y-3.3531
X7.5803Y-4.1012
X7.5803Y-4.8492
X7.5803Y-5.5972
T6
X2.3858Y-5.9252
X2.6614Y-5.9252
T7
X3.5402Y-3.5531
X3.5402Y-4.3012
X3.5402Y-5.0492
X3.5402Y-5.7972
X3.9402Y-3.5531
X3.9402Y-4.3012
X3.9402Y-5.0492
X3.9402Y-5.7972
X4.2882Y-3.5531
X4.2882Y-4.3012
X4.2882Y-5.0492
X4.2882Y-5.7972
X4.6882Y-3.5531
X4.6882Y-4.3012
X4.6882Y-5.0492
X4.6882Y-5.7972
X5.0362Y-3.5531
X5.0362Y-4.3012
X5.0362Y-5.0492
X5.0362Y-5.7972
X5.4362Y-3.5531
X5.4362Y-4.3012
X5.4362Y-5.0492
X5.4362Y-5.7972
X5.7843Y-3.5531
X5.7843Y-4.3012
X5.7843Y-5.0492
X5.7843Y-5.7972
X6.1843Y-3.5531
X6.1843Y-4.3012
X6.1843Y-5.0492
X6.1843Y-5.7972
X6.5323Y-3.5531
X6.5323Y-4.3012
X6.5323Y-5.0492
X6.5323Y-5.7972
X6.9323Y-3.5531
X6.9323Y-4.3012
X6.9323Y-5.0492
X6.9323Y-5.7972
X7.2803Y-3.5531
X7.2803Y-4.3012
X7.2803Y-5.0492
X7.2803Y-5.7972
X7.6803Y-3.5531
X7.6803Y-4.3012
X7.6803Y-5.0492
X7.6803Y-5.7972
T8
X3.3661Y-3.9272
X3.3661Y-5.4232
X7.1063Y-3.9272
X7.1063Y-5.4232
T9
X3.7402Y-3.5531
X3.7402Y-4.3012
X3.7402Y-5.0492
X3.7402Y-5.7972
X4.4882Y-3.5531
X4.4882Y-4.3012
X4.4882Y-5.0492
X4.4882Y-5.7972
X5.2362Y-3.5531
X5.2362Y-4.3012
X5.2362Y-5.0492
X5.2362Y-5.7972
X5.9843Y-3.5531
X5.9843Y-4.3012
X5.9843Y-5.0492
X5.9843Y-5.7972
X6.7323Y-3.5531
X6.7323Y-4.3012
X6.7323Y-5.0492
X6.7323Y-5.7972
X7.4803Y-3.5531
X7.4803Y-4.3012
X7.4803Y-5.0492
X7.4803Y-5.7972
T10
X2.8937Y-5.7972
X3.5433Y-3.7598
X3.5433Y-4.5177
X3.5531Y-6.0433
X3.5669Y-5.2795
X3.6024Y-4.0256
X3.622Y-3.3071
X3.622Y-4.7736
X3.6319Y-5.5217
X3.8583Y-3.7598
X3.8858Y-4.4862
X3.8858Y-5.2992
X3.8898Y-6.0335
X4.0453Y-5.5217
X4.0472Y-4.8701
X4.0551Y-3.3071
X4.0669Y-4.0039
X4.0669Y-4.6378
X4.0748Y-4.315
X4.0748Y-5.1063
X4.0748Y-5.8622
X4.0846Y-3.5827
X4.2244Y-5.2992
X4.252Y-3.7835
X4.2913Y-6.0433
X4.3071Y-4.5
X4.3465Y-4.7795
X4.3701Y-3.3071
X4.3799Y-5.5217
X4.4331Y-3.9862
X4.5276Y-5.2992
X4.622Y-6.0433
X4.626Y-4.4882
X4.6417Y-3.7579
X4.7835Y-5.5217
X4.7874Y-4.6417
X4.7913Y-4.8583
X4.8031Y-3.3071
X4.8189Y-4.0157
X4.8228Y-5.1181
X4.8228Y-5.8701
X4.8327Y-3.5827
X4.8346Y-4.3268
X4.9528Y-5.2992
X5.0394Y-3.7835
X5.0394Y-4.5
X5.0394Y-6.0433
X5.1181Y-3.3071
X5.1181Y-5.5217
X5.128Y-4.7795
X5.2126Y-3.9882
X5.2756Y-5.2992
X5.3583Y-4.5059
X5.3701Y-6.0433
X5.378Y-3.7677
X5.5413Y-5.5217
X5.5433Y-4.8583
X5.5512Y-3.3071
X5.5551Y-4.6476
X5.5709Y-5.1181
X5.5709Y-5.8701
X5.5787Y-4.0039
X5.5807Y-3.5906
X5.5827Y-4.2913
X5.7205Y-5.2992
X5.7776Y-6.0433
X5.7835Y-4.498
X5.7874Y-3.7835
X5.8661Y-3.3071
X5.8701Y-4.7717
X5.876Y-5.5217
X5.9724Y-3.9803
X6.0394Y-5.3012
X6.122Y-4.4921
X6.1299Y-3.7598
X6.1339Y-6.0335
X6.2874Y-4.8504
X6.2894Y-5.5315
X6.2992Y-3.3071
X6.2992Y-4.6339
X6.315Y-4.0
X6.3189Y-5.126
X6.3287Y-3.5827
X6.3287Y-5.8622
X6.3307Y-4.2953
X6.4488Y-5.311
X6.5118Y-4.4803
X6.5354Y-3.7835
X6.5354Y-6.0433
X6.6142Y-3.3071
X6.6142Y-4.7717
X6.6142Y-5.5217
X6.7165Y-3.9764
X6.7677Y-5.2953
X6.8661Y-4.4685
X6.8858Y-3.7539
X6.8858Y-6.0335
X6.9882Y-5.5512
X7.0Y-4.0354
X7.0394Y-4.8701
X7.0472Y-3.3071
X7.0669Y-5.122
X7.0748Y-4.6496
X7.0768Y-4.311
X7.0787Y-3.5827
X7.0866Y-5.8583
X7.2835Y-3.7638
X7.2835Y-6.0433
X7.2913Y-5.2598
X7.313Y-4.5177
X7.3543Y-5.5217
X7.3622Y-3.3071
X7.3622Y-4.0236
X7.374Y-4.7795
X7.6181Y-5.9744
X7.6378Y-5.2362
X7.6476Y-4.5177
X7.6476Y-5.4724
X7.6654Y-3.75
X7.6772Y-3.9862
X7.6791Y-4.7343
X7.7244Y-3.3484
T2
G00X2.8272Y-5.6102
M15
G01X2.839Y-5.6102
M16
G05
G00X2.9272Y-5.6102
M15
G01X2.939Y-5.6102
M16
G05
G00X3.0272Y-5.6102
M15
G01X3.039Y-5.6102
M16
G05
T0
M30
