G04 #@! TF.GenerationSoftware,KiCad,Pcbnew,(6.0.2)*
G04 #@! TF.CreationDate,2022-03-10T07:57:26+09:00*
G04 #@! TF.ProjectId,kidoairaku,6b69646f-6169-4726-916b-752e6b696361,rev?*
G04 #@! TF.SameCoordinates,Original*
G04 #@! TF.FileFunction,Soldermask,Bot*
G04 #@! TF.FilePolarity,Negative*
%FSLAX46Y46*%
G04 Gerber Fmt 4.6, Leading zero omitted, Abs format (unit mm)*
G04 Created by KiCad (PCBNEW (6.0.2)) date 2022-03-10 07:57:26*
%MOMM*%
%LPD*%
G01*
G04 APERTURE LIST*
G04 Aperture macros list*
%AMRoundRect*
0 Rectangle with rounded corners*
0 $1 Rounding radius*
0 $2 $3 $4 $5 $6 $7 $8 $9 X,Y pos of 4 corners*
0 Add a 4 corners polygon primitive as box body*
4,1,4,$2,$3,$4,$5,$6,$7,$8,$9,$2,$3,0*
0 Add four circle primitives for the rounded corners*
1,1,$1+$1,$2,$3*
1,1,$1+$1,$4,$5*
1,1,$1+$1,$6,$7*
1,1,$1+$1,$8,$9*
0 Add four rect primitives between the rounded corners*
20,1,$1+$1,$2,$3,$4,$5,0*
20,1,$1+$1,$4,$5,$6,$7,0*
20,1,$1+$1,$6,$7,$8,$9,0*
20,1,$1+$1,$8,$9,$2,$3,0*%
%AMRotRect*
0 Rectangle, with rotation*
0 The origin of the aperture is its center*
0 $1 length*
0 $2 width*
0 $3 Rotation angle, in degrees counterclockwise*
0 Add horizontal line*
21,1,$1,$2,0,0,$3*%
%AMOutline4P*
0 Free polygon, 4 corners , with rotation*
0 The origin of the aperture is its center*
0 number of corners: always 4*
0 $1 to $8 corner X, Y*
0 $9 Rotation angle, in degrees counterclockwise*
0 create outline with 4 corners*
4,1,4,$1,$2,$3,$4,$5,$6,$7,$8,$1,$2,$9*%
G04 Aperture macros list end*
%ADD10C,2.200000*%
%ADD11R,2.000000X2.000000*%
%ADD12C,2.000000*%
%ADD13C,1.700000*%
%ADD14C,4.000000*%
%ADD15C,4.300000*%
%ADD16Outline4P,-0.650000X-0.410000X0.650000X-0.410000X0.350000X0.410000X-0.350000X0.410000X0.000000*%
%ADD17Outline4P,-0.350000X-0.410000X0.350000X-0.410000X0.650000X0.410000X-0.650000X0.410000X180.000000*%
%ADD18Outline4P,-0.650000X-0.410000X0.650000X-0.410000X0.350000X0.410000X-0.350000X0.410000X180.000000*%
%ADD19Outline4P,-0.350000X-0.410000X0.350000X-0.410000X0.650000X0.410000X-0.650000X0.410000X0.000000*%
%ADD20Outline4P,-0.650000X-0.410000X0.650000X-0.410000X0.350000X0.410000X-0.350000X0.410000X315.000000*%
%ADD21Outline4P,-0.350000X-0.410000X0.350000X-0.410000X0.650000X0.410000X-0.650000X0.410000X135.000000*%
%ADD22Outline4P,-0.650000X-0.410000X0.650000X-0.410000X0.350000X0.410000X-0.350000X0.410000X135.000000*%
%ADD23Outline4P,-0.350000X-0.410000X0.350000X-0.410000X0.650000X0.410000X-0.650000X0.410000X315.000000*%
%ADD24Outline4P,-0.650000X-0.410000X0.650000X-0.410000X0.350000X0.410000X-0.350000X0.410000X330.000000*%
%ADD25Outline4P,-0.350000X-0.410000X0.350000X-0.410000X0.650000X0.410000X-0.650000X0.410000X150.000000*%
%ADD26Outline4P,-0.650000X-0.410000X0.650000X-0.410000X0.350000X0.410000X-0.350000X0.410000X150.000000*%
%ADD27Outline4P,-0.350000X-0.410000X0.350000X-0.410000X0.650000X0.410000X-0.650000X0.410000X330.000000*%
%ADD28C,1.800000*%
%ADD29C,1.500000*%
%ADD30C,1.524000*%
%ADD31Outline4P,-0.650000X-0.410000X0.650000X-0.410000X0.350000X0.410000X-0.350000X0.410000X300.000000*%
%ADD32Outline4P,-0.350000X-0.410000X0.350000X-0.410000X0.650000X0.410000X-0.650000X0.410000X120.000000*%
%ADD33Outline4P,-0.650000X-0.410000X0.650000X-0.410000X0.350000X0.410000X-0.350000X0.410000X120.000000*%
%ADD34Outline4P,-0.350000X-0.410000X0.350000X-0.410000X0.650000X0.410000X-0.650000X0.410000X300.000000*%
%ADD35RoundRect,0.249997X0.650003X-0.412503X0.650003X0.412503X-0.650003X0.412503X-0.650003X-0.412503X0*%
%ADD36R,1.200000X0.900000*%
%ADD37RotRect,0.900000X1.200000X30.000000*%
%ADD38RotRect,0.900000X1.200000X45.000000*%
%ADD39R,0.900000X1.200000*%
%ADD40RotRect,0.900000X1.200000X60.000000*%
%ADD41RoundRect,0.150000X-0.587500X-0.150000X0.587500X-0.150000X0.587500X0.150000X-0.587500X0.150000X0*%
%ADD42RoundRect,0.249999X0.625001X-0.400001X0.625001X0.400001X-0.625001X0.400001X-0.625001X-0.400001X0*%
%ADD43RoundRect,0.250000X-0.625000X0.400000X-0.625000X-0.400000X0.625000X-0.400000X0.625000X0.400000X0*%
%ADD44RoundRect,0.250000X-0.450000X0.325000X-0.450000X-0.325000X0.450000X-0.325000X0.450000X0.325000X0*%
G04 APERTURE END LIST*
D10*
G04 #@! TO.C,H3*
X85500000Y-137750000D03*
G04 #@! TD*
G04 #@! TO.C,H4*
X180500000Y-99750000D03*
G04 #@! TD*
G04 #@! TO.C,H6*
X180500000Y-137750000D03*
G04 #@! TD*
G04 #@! TO.C,H9*
X85500000Y-99750000D03*
G04 #@! TD*
D11*
G04 #@! TO.C,J51*
X62250000Y-143250000D03*
G04 #@! TD*
D12*
G04 #@! TO.C,J52*
X81534000Y-147250000D03*
G04 #@! TD*
D13*
G04 #@! TO.C,SW1*
X100080000Y-90250000D03*
D14*
X95000000Y-90250000D03*
D13*
X89920000Y-90250000D03*
D10*
X97540000Y-85170000D03*
X91190000Y-87710000D03*
G04 #@! TD*
D13*
G04 #@! TO.C,SW2*
X119080000Y-90250000D03*
X108920000Y-90250000D03*
D14*
X114000000Y-90250000D03*
D10*
X116540000Y-85170000D03*
X110190000Y-87710000D03*
G04 #@! TD*
D13*
G04 #@! TO.C,SW3*
X138080000Y-90250000D03*
X127920000Y-90250000D03*
D14*
X133000000Y-90250000D03*
D10*
X135540000Y-85170000D03*
X129190000Y-87710000D03*
G04 #@! TD*
D14*
G04 #@! TO.C,SW4*
X152000000Y-90250000D03*
D13*
X146920000Y-90250000D03*
X157080000Y-90250000D03*
D10*
X154540000Y-85170000D03*
X148190000Y-87710000D03*
G04 #@! TD*
D13*
G04 #@! TO.C,SW5*
X165920000Y-90250000D03*
X176080000Y-90250000D03*
D14*
X171000000Y-90250000D03*
D10*
X173540000Y-85170000D03*
X167190000Y-87710000D03*
G04 #@! TD*
D13*
G04 #@! TO.C,SW6*
X184920000Y-90250000D03*
X195080000Y-90250000D03*
D14*
X190000000Y-90250000D03*
D10*
X192540000Y-85170000D03*
X186190000Y-87710000D03*
G04 #@! TD*
D14*
G04 #@! TO.C,SW11*
X95000000Y-109250000D03*
D13*
X100080000Y-109250000D03*
X89920000Y-109250000D03*
D10*
X97540000Y-104170000D03*
X91190000Y-106710000D03*
G04 #@! TD*
D13*
G04 #@! TO.C,SW12*
X108920000Y-109250000D03*
X119080000Y-109250000D03*
D14*
X114000000Y-109250000D03*
D10*
X116540000Y-104170000D03*
X110190000Y-106710000D03*
G04 #@! TD*
D13*
G04 #@! TO.C,SW13*
X138080000Y-109250000D03*
X127920000Y-109250000D03*
D14*
X133000000Y-109250000D03*
D10*
X135540000Y-104170000D03*
X129190000Y-106710000D03*
G04 #@! TD*
D13*
G04 #@! TO.C,SW14*
X146920000Y-109250000D03*
X157080000Y-109250000D03*
D14*
X152000000Y-109250000D03*
D10*
X154540000Y-104170000D03*
X148190000Y-106710000D03*
G04 #@! TD*
D14*
G04 #@! TO.C,SW15*
X171000000Y-109250000D03*
D13*
X165920000Y-109250000D03*
X176080000Y-109250000D03*
D10*
X173540000Y-104170000D03*
X167190000Y-106710000D03*
G04 #@! TD*
D13*
G04 #@! TO.C,SW16*
X195080000Y-109250000D03*
D14*
X190000000Y-109250000D03*
D13*
X184920000Y-109250000D03*
D10*
X192540000Y-104170000D03*
X186190000Y-106710000D03*
G04 #@! TD*
D13*
G04 #@! TO.C,SW21*
X100080000Y-128250000D03*
D14*
X95000000Y-128250000D03*
D13*
X89920000Y-128250000D03*
D10*
X97540000Y-123170000D03*
X91190000Y-125710000D03*
G04 #@! TD*
D13*
G04 #@! TO.C,SW22*
X119080000Y-128250000D03*
X108920000Y-128250000D03*
D14*
X114000000Y-128250000D03*
D10*
X116540000Y-123170000D03*
X110190000Y-125710000D03*
G04 #@! TD*
D13*
G04 #@! TO.C,SW23*
X127920000Y-128250000D03*
X138080000Y-128250000D03*
D14*
X133000000Y-128250000D03*
D10*
X135540000Y-123170000D03*
X129190000Y-125710000D03*
G04 #@! TD*
D13*
G04 #@! TO.C,SW24*
X146920000Y-128250000D03*
X157080000Y-128250000D03*
D14*
X152000000Y-128250000D03*
D10*
X154540000Y-123170000D03*
X148190000Y-125710000D03*
G04 #@! TD*
D14*
G04 #@! TO.C,SW25*
X171000000Y-128250000D03*
D13*
X176080000Y-128250000D03*
X165920000Y-128250000D03*
D10*
X173540000Y-123170000D03*
X167190000Y-125710000D03*
G04 #@! TD*
D14*
G04 #@! TO.C,SW26*
X190000000Y-128250000D03*
D13*
X195080000Y-128250000D03*
X184920000Y-128250000D03*
D10*
X192540000Y-123170000D03*
X186190000Y-125710000D03*
G04 #@! TD*
D13*
G04 #@! TO.C,SW31*
X100080000Y-147250000D03*
D14*
X95000000Y-147250000D03*
D13*
X89920000Y-147250000D03*
D10*
X97540000Y-142170000D03*
X91190000Y-144710000D03*
G04 #@! TD*
D13*
G04 #@! TO.C,SW32*
X108920000Y-147250000D03*
X119080000Y-147250000D03*
D14*
X114000000Y-147250000D03*
D10*
X116540000Y-142170000D03*
X110190000Y-144710000D03*
G04 #@! TD*
D13*
G04 #@! TO.C,SW33*
X127920000Y-147250000D03*
X138080000Y-147250000D03*
D14*
X133000000Y-147250000D03*
D10*
X135540000Y-142170000D03*
X129190000Y-144710000D03*
G04 #@! TD*
D13*
G04 #@! TO.C,SW34*
X146920000Y-147250000D03*
X157080000Y-147250000D03*
D14*
X152000000Y-147250000D03*
D10*
X154540000Y-142170000D03*
X148190000Y-144710000D03*
G04 #@! TD*
D14*
G04 #@! TO.C,SW35*
X171000000Y-147250000D03*
D13*
X165920000Y-147250000D03*
X176080000Y-147250000D03*
D10*
X173540000Y-142170000D03*
X167190000Y-144710000D03*
G04 #@! TD*
D13*
G04 #@! TO.C,SW36*
X184920000Y-147250000D03*
X195080000Y-147250000D03*
D14*
X190000000Y-147250000D03*
D10*
X192540000Y-142170000D03*
X186190000Y-144710000D03*
G04 #@! TD*
D15*
G04 #@! TO.C,D101*
X187000000Y-84000000D03*
D16*
X184200000Y-84750000D03*
D17*
X189800000Y-84750000D03*
D18*
X189800000Y-83250000D03*
D19*
X184200000Y-83250000D03*
G04 #@! TD*
D15*
G04 #@! TO.C,D102*
X179000000Y-84000000D03*
D16*
X176200000Y-84750000D03*
D17*
X181800000Y-84750000D03*
D18*
X181800000Y-83250000D03*
D19*
X176200000Y-83250000D03*
G04 #@! TD*
D15*
G04 #@! TO.C,D103*
X168000000Y-84000000D03*
D16*
X165200000Y-84750000D03*
D17*
X170800000Y-84750000D03*
D18*
X170800000Y-83250000D03*
D19*
X165200000Y-83250000D03*
G04 #@! TD*
D15*
G04 #@! TO.C,D104*
X160000000Y-84000000D03*
D16*
X157200000Y-84750000D03*
D17*
X162800000Y-84750000D03*
D18*
X162800000Y-83250000D03*
D19*
X157200000Y-83250000D03*
G04 #@! TD*
D15*
G04 #@! TO.C,D105*
X149000000Y-84000000D03*
D16*
X146200000Y-84750000D03*
D17*
X151800000Y-84750000D03*
D18*
X151800000Y-83250000D03*
D19*
X146200000Y-83250000D03*
G04 #@! TD*
D15*
G04 #@! TO.C,D106*
X141000000Y-84000000D03*
D16*
X138200000Y-84750000D03*
D17*
X143800000Y-84750000D03*
D18*
X143800000Y-83250000D03*
D19*
X138200000Y-83250000D03*
G04 #@! TD*
D15*
G04 #@! TO.C,D107*
X130000000Y-84000000D03*
D16*
X127200000Y-84750000D03*
D17*
X132800000Y-84750000D03*
D18*
X132800000Y-83250000D03*
D19*
X127200000Y-83250000D03*
G04 #@! TD*
D15*
G04 #@! TO.C,D108*
X122000000Y-84000000D03*
D16*
X119200000Y-84750000D03*
D17*
X124800000Y-84750000D03*
D18*
X124800000Y-83250000D03*
D19*
X119200000Y-83250000D03*
G04 #@! TD*
D15*
G04 #@! TO.C,D109*
X111000000Y-84000000D03*
D16*
X108200000Y-84750000D03*
D17*
X113800000Y-84750000D03*
D18*
X113800000Y-83250000D03*
D19*
X108200000Y-83250000D03*
G04 #@! TD*
D15*
G04 #@! TO.C,D110*
X103000000Y-84000000D03*
D16*
X100200000Y-84750000D03*
D17*
X105800000Y-84750000D03*
D18*
X105800000Y-83250000D03*
D19*
X100200000Y-83250000D03*
G04 #@! TD*
D15*
G04 #@! TO.C,D111*
X92000000Y-84000000D03*
D16*
X89200000Y-84750000D03*
D17*
X94800000Y-84750000D03*
D18*
X94800000Y-83250000D03*
D19*
X89200000Y-83250000D03*
G04 #@! TD*
D15*
G04 #@! TO.C,D112*
X194700000Y-95250000D03*
D16*
X191900000Y-96000000D03*
D17*
X197500000Y-96000000D03*
D18*
X197500000Y-94500000D03*
D19*
X191900000Y-94500000D03*
G04 #@! TD*
D15*
G04 #@! TO.C,D113*
X185000000Y-95600000D03*
D16*
X182200000Y-96350000D03*
D17*
X187800000Y-96350000D03*
D18*
X187800000Y-94850000D03*
D19*
X182200000Y-94850000D03*
G04 #@! TD*
D15*
G04 #@! TO.C,D114*
X174900000Y-95350000D03*
D16*
X172100000Y-96100000D03*
D17*
X177700000Y-96100000D03*
D18*
X177700000Y-94600000D03*
D19*
X172100000Y-94600000D03*
G04 #@! TD*
D15*
G04 #@! TO.C,D115*
X166000000Y-96100000D03*
D16*
X163200000Y-96850000D03*
D17*
X168800000Y-96850000D03*
D18*
X168800000Y-95350000D03*
D19*
X163200000Y-95350000D03*
G04 #@! TD*
D15*
G04 #@! TO.C,D116*
X155700000Y-95500000D03*
D16*
X152900000Y-96250000D03*
D17*
X158500000Y-96250000D03*
D18*
X158500000Y-94750000D03*
D19*
X152900000Y-94750000D03*
G04 #@! TD*
D15*
G04 #@! TO.C,D117*
X147000000Y-96100000D03*
D16*
X144200000Y-96850000D03*
D17*
X149800000Y-96850000D03*
D18*
X149800000Y-95350000D03*
D19*
X144200000Y-95350000D03*
G04 #@! TD*
D15*
G04 #@! TO.C,D118*
X136600000Y-95700000D03*
D16*
X133800000Y-96450000D03*
D17*
X139400000Y-96450000D03*
D18*
X139400000Y-94950000D03*
D19*
X133800000Y-94950000D03*
G04 #@! TD*
D15*
G04 #@! TO.C,D119*
X128000000Y-96100000D03*
D16*
X125200000Y-96850000D03*
D17*
X130800000Y-96850000D03*
D18*
X130800000Y-95350000D03*
D19*
X125200000Y-95350000D03*
G04 #@! TD*
D15*
G04 #@! TO.C,D120*
X117900000Y-95450000D03*
D16*
X115100000Y-96200000D03*
D17*
X120700000Y-96200000D03*
D18*
X120700000Y-94700000D03*
D19*
X115100000Y-94700000D03*
G04 #@! TD*
D15*
G04 #@! TO.C,D121*
X108000000Y-96100000D03*
D16*
X105200000Y-96850000D03*
D17*
X110800000Y-96850000D03*
D18*
X110800000Y-95350000D03*
D19*
X105200000Y-95350000D03*
G04 #@! TD*
D15*
G04 #@! TO.C,D122*
X98000000Y-95500000D03*
D16*
X95200000Y-96250000D03*
D17*
X100800000Y-96250000D03*
D18*
X100800000Y-94750000D03*
D19*
X95200000Y-94750000D03*
G04 #@! TD*
D15*
G04 #@! TO.C,D123*
X90000000Y-95500000D03*
D16*
X87200000Y-96250000D03*
D17*
X92800000Y-96250000D03*
D18*
X92800000Y-94750000D03*
D19*
X87200000Y-94750000D03*
G04 #@! TD*
D15*
G04 #@! TO.C,D124*
X187000000Y-102200000D03*
D16*
X184200000Y-102950000D03*
D17*
X189800000Y-102950000D03*
D18*
X189800000Y-101450000D03*
D19*
X184200000Y-101450000D03*
G04 #@! TD*
D15*
G04 #@! TO.C,D125*
X177800000Y-102500000D03*
D20*
X175289771Y-101050431D03*
D21*
X179249569Y-105010229D03*
D22*
X180310229Y-103949569D03*
D23*
X176350431Y-99989771D03*
G04 #@! TD*
D15*
G04 #@! TO.C,D126*
X170600000Y-101000000D03*
D16*
X167800000Y-101750000D03*
D17*
X173400000Y-101750000D03*
D18*
X173400000Y-100250000D03*
D19*
X167800000Y-100250000D03*
G04 #@! TD*
D15*
G04 #@! TO.C,D127*
X160400000Y-101600000D03*
D16*
X157600000Y-102350000D03*
D17*
X163200000Y-102350000D03*
D18*
X163200000Y-100850000D03*
D19*
X157600000Y-100850000D03*
G04 #@! TD*
D15*
G04 #@! TO.C,D128*
X151700000Y-101100000D03*
D16*
X148900000Y-101850000D03*
D17*
X154500000Y-101850000D03*
D18*
X154500000Y-100350000D03*
D19*
X148900000Y-100350000D03*
G04 #@! TD*
D15*
G04 #@! TO.C,D129*
X141700000Y-101700000D03*
D16*
X138900000Y-102450000D03*
D17*
X144500000Y-102450000D03*
D18*
X144500000Y-100950000D03*
D19*
X138900000Y-100950000D03*
G04 #@! TD*
D15*
G04 #@! TO.C,D130*
X132400000Y-101300000D03*
D16*
X129600000Y-102050000D03*
D17*
X135200000Y-102050000D03*
D18*
X135200000Y-100550000D03*
D19*
X129600000Y-100550000D03*
G04 #@! TD*
D15*
G04 #@! TO.C,D131*
X122400000Y-102000000D03*
D16*
X119600000Y-102750000D03*
D17*
X125200000Y-102750000D03*
D18*
X125200000Y-101250000D03*
D19*
X119600000Y-101250000D03*
G04 #@! TD*
D15*
G04 #@! TO.C,D132*
X112600000Y-101250000D03*
D16*
X109800000Y-102000000D03*
D17*
X115400000Y-102000000D03*
D18*
X115400000Y-100500000D03*
D19*
X109800000Y-100500000D03*
G04 #@! TD*
D15*
G04 #@! TO.C,D133*
X103300000Y-101700000D03*
D16*
X100500000Y-102450000D03*
D17*
X106100000Y-102450000D03*
D18*
X106100000Y-100950000D03*
D19*
X100500000Y-100950000D03*
G04 #@! TD*
D15*
G04 #@! TO.C,D134*
X91500000Y-102250000D03*
D16*
X88700000Y-103000000D03*
D17*
X94300000Y-103000000D03*
D18*
X94300000Y-101500000D03*
D19*
X88700000Y-101500000D03*
G04 #@! TD*
D15*
G04 #@! TO.C,D135*
X194250000Y-114750000D03*
D16*
X191450000Y-115500000D03*
D17*
X197050000Y-115500000D03*
D18*
X197050000Y-114000000D03*
D19*
X191450000Y-114000000D03*
G04 #@! TD*
D15*
G04 #@! TO.C,D136*
X185750000Y-114750000D03*
D16*
X182950000Y-115500000D03*
D17*
X188550000Y-115500000D03*
D18*
X188550000Y-114000000D03*
D19*
X182950000Y-114000000D03*
G04 #@! TD*
D15*
G04 #@! TO.C,D137*
X174400000Y-113500000D03*
D16*
X171600000Y-114250000D03*
D17*
X177200000Y-114250000D03*
D18*
X177200000Y-112750000D03*
D19*
X171600000Y-112750000D03*
G04 #@! TD*
D15*
G04 #@! TO.C,D138*
X165400000Y-113800000D03*
D16*
X162600000Y-114550000D03*
D17*
X168200000Y-114550000D03*
D18*
X168200000Y-113050000D03*
D19*
X162600000Y-113050000D03*
G04 #@! TD*
D15*
G04 #@! TO.C,D139*
X155500000Y-114100000D03*
D16*
X152700000Y-114850000D03*
D17*
X158300000Y-114850000D03*
D18*
X158300000Y-113350000D03*
D19*
X152700000Y-113350000D03*
G04 #@! TD*
D15*
G04 #@! TO.C,D140*
X146900000Y-114250000D03*
D16*
X144100000Y-115000000D03*
D17*
X149700000Y-115000000D03*
D18*
X149700000Y-113500000D03*
D19*
X144100000Y-113500000D03*
G04 #@! TD*
D15*
G04 #@! TO.C,D141*
X136100000Y-114450000D03*
D16*
X133300000Y-115200000D03*
D17*
X138900000Y-115200000D03*
D18*
X138900000Y-113700000D03*
D19*
X133300000Y-113700000D03*
G04 #@! TD*
D15*
G04 #@! TO.C,D142*
X128000000Y-114300000D03*
D16*
X125200000Y-115050000D03*
D17*
X130800000Y-115050000D03*
D18*
X130800000Y-113550000D03*
D19*
X125200000Y-113550000D03*
G04 #@! TD*
D15*
G04 #@! TO.C,D143*
X117500000Y-114000000D03*
D16*
X114700000Y-114750000D03*
D17*
X120300000Y-114750000D03*
D18*
X120300000Y-113250000D03*
D19*
X114700000Y-113250000D03*
G04 #@! TD*
D15*
G04 #@! TO.C,D144*
X109400000Y-114300000D03*
D16*
X106600000Y-115050000D03*
D17*
X112200000Y-115050000D03*
D18*
X112200000Y-113550000D03*
D19*
X106600000Y-113550000D03*
G04 #@! TD*
D15*
G04 #@! TO.C,D145*
X98700000Y-113950000D03*
D16*
X95900000Y-114700000D03*
D17*
X101500000Y-114700000D03*
D18*
X101500000Y-113200000D03*
D19*
X95900000Y-113200000D03*
G04 #@! TD*
D15*
G04 #@! TO.C,D146*
X90000000Y-114750000D03*
D16*
X87200000Y-115500000D03*
D17*
X92800000Y-115500000D03*
D18*
X92800000Y-114000000D03*
D19*
X87200000Y-114000000D03*
G04 #@! TD*
D15*
G04 #@! TO.C,D147*
X195050000Y-120250000D03*
D16*
X192250000Y-121000000D03*
D17*
X197850000Y-121000000D03*
D18*
X197850000Y-119500000D03*
D19*
X192250000Y-119500000D03*
G04 #@! TD*
D15*
G04 #@! TO.C,D148*
X178800000Y-123700000D03*
D16*
X176000000Y-124450000D03*
D17*
X181600000Y-124450000D03*
D18*
X181600000Y-122950000D03*
D19*
X176000000Y-122950000D03*
G04 #@! TD*
D15*
G04 #@! TO.C,D149*
X168000000Y-121200000D03*
D16*
X165200000Y-121950000D03*
D17*
X170800000Y-121950000D03*
D18*
X170800000Y-120450000D03*
D19*
X165200000Y-120450000D03*
G04 #@! TD*
D15*
G04 #@! TO.C,D150*
X159700000Y-123200000D03*
D16*
X156900000Y-123950000D03*
D17*
X162500000Y-123950000D03*
D18*
X162500000Y-122450000D03*
D19*
X156900000Y-122450000D03*
G04 #@! TD*
D15*
G04 #@! TO.C,D151*
X149100000Y-121200000D03*
D16*
X146300000Y-121950000D03*
D17*
X151900000Y-121950000D03*
D18*
X151900000Y-120450000D03*
D19*
X146300000Y-120450000D03*
G04 #@! TD*
D15*
G04 #@! TO.C,D152*
X140800000Y-123400000D03*
D16*
X138000000Y-124150000D03*
D17*
X143600000Y-124150000D03*
D18*
X143600000Y-122650000D03*
D19*
X138000000Y-122650000D03*
G04 #@! TD*
D15*
G04 #@! TO.C,D153*
X130250000Y-121400000D03*
D16*
X127450000Y-122150000D03*
D17*
X133050000Y-122150000D03*
D18*
X133050000Y-120650000D03*
D19*
X127450000Y-120650000D03*
G04 #@! TD*
D15*
G04 #@! TO.C,D154*
X121700000Y-123400000D03*
D16*
X118900000Y-124150000D03*
D17*
X124500000Y-124150000D03*
D18*
X124500000Y-122650000D03*
D19*
X118900000Y-122650000D03*
G04 #@! TD*
D15*
G04 #@! TO.C,D155*
X110400000Y-121400000D03*
D16*
X107600000Y-122150000D03*
D17*
X113200000Y-122150000D03*
D18*
X113200000Y-120650000D03*
D19*
X107600000Y-120650000D03*
G04 #@! TD*
D15*
G04 #@! TO.C,D156*
X102800000Y-123700000D03*
D16*
X100000000Y-124450000D03*
D17*
X105600000Y-124450000D03*
D18*
X105600000Y-122950000D03*
D19*
X100000000Y-122950000D03*
G04 #@! TD*
D15*
G04 #@! TO.C,D157*
X92000000Y-121250000D03*
D16*
X89200000Y-122000000D03*
D17*
X94800000Y-122000000D03*
D18*
X94800000Y-120500000D03*
D19*
X89200000Y-120500000D03*
G04 #@! TD*
D15*
G04 #@! TO.C,D158*
X194000000Y-133000000D03*
D16*
X191200000Y-133750000D03*
D17*
X196800000Y-133750000D03*
D18*
X196800000Y-132250000D03*
D19*
X191200000Y-132250000D03*
G04 #@! TD*
D15*
G04 #@! TO.C,D159*
X185200000Y-133600000D03*
D16*
X182400000Y-134350000D03*
D17*
X188000000Y-134350000D03*
D18*
X188000000Y-132850000D03*
D19*
X182400000Y-132850000D03*
G04 #@! TD*
D15*
G04 #@! TO.C,D160*
X171900000Y-134500000D03*
D16*
X169100000Y-135250000D03*
D17*
X174700000Y-135250000D03*
D18*
X174700000Y-133750000D03*
D19*
X169100000Y-133750000D03*
G04 #@! TD*
D15*
G04 #@! TO.C,D161*
X163800000Y-134900000D03*
D16*
X161000000Y-135650000D03*
D17*
X166600000Y-135650000D03*
D18*
X166600000Y-134150000D03*
D19*
X161000000Y-134150000D03*
G04 #@! TD*
D15*
G04 #@! TO.C,D162*
X153400000Y-134650000D03*
D16*
X150600000Y-135400000D03*
D17*
X156200000Y-135400000D03*
D18*
X156200000Y-133900000D03*
D19*
X150600000Y-133900000D03*
G04 #@! TD*
D15*
G04 #@! TO.C,D163*
X145300000Y-134600000D03*
D16*
X142500000Y-135350000D03*
D17*
X148100000Y-135350000D03*
D18*
X148100000Y-133850000D03*
D19*
X142500000Y-133850000D03*
G04 #@! TD*
D15*
G04 #@! TO.C,D164*
X134000000Y-134600000D03*
D16*
X131200000Y-135350000D03*
D17*
X136800000Y-135350000D03*
D18*
X136800000Y-133850000D03*
D19*
X131200000Y-133850000D03*
G04 #@! TD*
D15*
G04 #@! TO.C,D165*
X125800000Y-134600000D03*
D16*
X123000000Y-135350000D03*
D17*
X128600000Y-135350000D03*
D18*
X128600000Y-133850000D03*
D19*
X123000000Y-133850000D03*
G04 #@! TD*
D15*
G04 #@! TO.C,D166*
X115000000Y-134600000D03*
D16*
X112200000Y-135350000D03*
D17*
X117800000Y-135350000D03*
D18*
X117800000Y-133850000D03*
D19*
X112200000Y-133850000D03*
G04 #@! TD*
D15*
G04 #@! TO.C,D167*
X107300000Y-134600000D03*
D16*
X104500000Y-135350000D03*
D17*
X110100000Y-135350000D03*
D18*
X110100000Y-133850000D03*
D19*
X104500000Y-133850000D03*
G04 #@! TD*
D15*
G04 #@! TO.C,D168*
X98700000Y-134600000D03*
D16*
X95900000Y-135350000D03*
D17*
X101500000Y-135350000D03*
D18*
X101500000Y-133850000D03*
D19*
X95900000Y-133850000D03*
G04 #@! TD*
D15*
G04 #@! TO.C,D169*
X90600000Y-134100000D03*
D16*
X87800000Y-134850000D03*
D17*
X93400000Y-134850000D03*
D18*
X93400000Y-133350000D03*
D19*
X87800000Y-133350000D03*
G04 #@! TD*
D15*
G04 #@! TO.C,D170*
X194250000Y-139000000D03*
D16*
X191450000Y-139750000D03*
D17*
X197050000Y-139750000D03*
D18*
X197050000Y-138250000D03*
D19*
X191450000Y-138250000D03*
G04 #@! TD*
D15*
G04 #@! TO.C,D171*
X177500000Y-141000000D03*
D24*
X174700129Y-140249519D03*
D25*
X179549871Y-143049519D03*
D26*
X180299871Y-141750481D03*
D27*
X175450129Y-138950481D03*
G04 #@! TD*
D15*
G04 #@! TO.C,D172*
X168000000Y-140250000D03*
D16*
X165200000Y-141000000D03*
D17*
X170800000Y-141000000D03*
D18*
X170800000Y-139500000D03*
D19*
X165200000Y-139500000D03*
G04 #@! TD*
D15*
G04 #@! TO.C,D173*
X159750000Y-140500000D03*
D16*
X156950000Y-141250000D03*
D17*
X162550000Y-141250000D03*
D18*
X162550000Y-139750000D03*
D19*
X156950000Y-139750000D03*
G04 #@! TD*
D15*
G04 #@! TO.C,D174*
X149250000Y-140250000D03*
D16*
X146450000Y-141000000D03*
D17*
X152050000Y-141000000D03*
D18*
X152050000Y-139500000D03*
D19*
X146450000Y-139500000D03*
G04 #@! TD*
D15*
G04 #@! TO.C,D175*
X140750000Y-140250000D03*
D16*
X137950000Y-141000000D03*
D17*
X143550000Y-141000000D03*
D18*
X143550000Y-139500000D03*
D19*
X137950000Y-139500000D03*
G04 #@! TD*
D15*
G04 #@! TO.C,D176*
X130000000Y-140250000D03*
D16*
X127200000Y-141000000D03*
D17*
X132800000Y-141000000D03*
D18*
X132800000Y-139500000D03*
D19*
X127200000Y-139500000D03*
G04 #@! TD*
D15*
G04 #@! TO.C,D177*
X121500000Y-140250000D03*
D16*
X118700000Y-141000000D03*
D17*
X124300000Y-141000000D03*
D18*
X124300000Y-139500000D03*
D19*
X118700000Y-139500000D03*
G04 #@! TD*
D15*
G04 #@! TO.C,D178*
X111250000Y-140250000D03*
D16*
X108450000Y-141000000D03*
D17*
X114050000Y-141000000D03*
D18*
X114050000Y-139500000D03*
D19*
X108450000Y-139500000D03*
G04 #@! TD*
D15*
G04 #@! TO.C,D179*
X102750000Y-140250000D03*
D16*
X99950000Y-141000000D03*
D17*
X105550000Y-141000000D03*
D18*
X105550000Y-139500000D03*
D19*
X99950000Y-139500000D03*
G04 #@! TD*
D15*
G04 #@! TO.C,D180*
X92250000Y-140250000D03*
D16*
X89450000Y-141000000D03*
D17*
X95050000Y-141000000D03*
D18*
X95050000Y-139500000D03*
D19*
X89450000Y-139500000D03*
G04 #@! TD*
D15*
G04 #@! TO.C,D181*
X193500000Y-151750000D03*
D16*
X190700000Y-152500000D03*
D17*
X196300000Y-152500000D03*
D18*
X196300000Y-151000000D03*
D19*
X190700000Y-151000000D03*
G04 #@! TD*
D15*
G04 #@! TO.C,D182*
X185000000Y-153500000D03*
D16*
X182200000Y-154250000D03*
D17*
X187800000Y-154250000D03*
D18*
X187800000Y-152750000D03*
D19*
X182200000Y-152750000D03*
G04 #@! TD*
D15*
G04 #@! TO.C,D183*
X174900000Y-153250000D03*
D16*
X172100000Y-154000000D03*
D17*
X177700000Y-154000000D03*
D18*
X177700000Y-152500000D03*
D19*
X172100000Y-152500000D03*
G04 #@! TD*
D15*
G04 #@! TO.C,D184*
X166000000Y-153500000D03*
D16*
X163200000Y-154250000D03*
D17*
X168800000Y-154250000D03*
D18*
X168800000Y-152750000D03*
D19*
X163200000Y-152750000D03*
G04 #@! TD*
D15*
G04 #@! TO.C,D185*
X155800000Y-153250000D03*
D16*
X153000000Y-154000000D03*
D17*
X158600000Y-154000000D03*
D18*
X158600000Y-152500000D03*
D19*
X153000000Y-152500000D03*
G04 #@! TD*
D15*
G04 #@! TO.C,D186*
X146750000Y-153500000D03*
D16*
X143950000Y-154250000D03*
D17*
X149550000Y-154250000D03*
D18*
X149550000Y-152750000D03*
D19*
X143950000Y-152750000D03*
G04 #@! TD*
D15*
G04 #@! TO.C,D187*
X136400000Y-153500000D03*
D16*
X133600000Y-154250000D03*
D17*
X139200000Y-154250000D03*
D18*
X139200000Y-152750000D03*
D19*
X133600000Y-152750000D03*
G04 #@! TD*
D15*
G04 #@! TO.C,D188*
X128000000Y-153500000D03*
D16*
X125200000Y-154250000D03*
D17*
X130800000Y-154250000D03*
D18*
X130800000Y-152750000D03*
D19*
X125200000Y-152750000D03*
G04 #@! TD*
D15*
G04 #@! TO.C,D189*
X117400000Y-153500000D03*
D16*
X114600000Y-154250000D03*
D17*
X120200000Y-154250000D03*
D18*
X120200000Y-152750000D03*
D19*
X114600000Y-152750000D03*
G04 #@! TD*
D15*
G04 #@! TO.C,D190*
X109000000Y-153500000D03*
D16*
X106200000Y-154250000D03*
D17*
X111800000Y-154250000D03*
D18*
X111800000Y-152750000D03*
D19*
X106200000Y-152750000D03*
G04 #@! TD*
D15*
G04 #@! TO.C,D191*
X98800000Y-153250000D03*
D16*
X96000000Y-154000000D03*
D17*
X101600000Y-154000000D03*
D18*
X101600000Y-152500000D03*
D19*
X96000000Y-152500000D03*
G04 #@! TD*
D15*
G04 #@! TO.C,D192*
X90250000Y-153500000D03*
D16*
X87450000Y-154250000D03*
D17*
X93050000Y-154250000D03*
D18*
X93050000Y-152750000D03*
D19*
X87450000Y-152750000D03*
G04 #@! TD*
D15*
G04 #@! TO.C,D193*
X103500000Y-148900000D03*
G04 #@! TD*
G04 #@! TO.C,D194*
X103500000Y-129700000D03*
G04 #@! TD*
G04 #@! TO.C,D195*
X103500000Y-109600000D03*
G04 #@! TD*
G04 #@! TO.C,D196*
X103750000Y-91000000D03*
G04 #@! TD*
G04 #@! TO.C,D197*
X122500000Y-149100000D03*
G04 #@! TD*
G04 #@! TO.C,D198*
X122500000Y-130000000D03*
G04 #@! TD*
G04 #@! TO.C,D199*
X122800000Y-109900000D03*
G04 #@! TD*
G04 #@! TO.C,D200*
X122750000Y-91000000D03*
G04 #@! TD*
G04 #@! TO.C,D201*
X141500000Y-149100000D03*
G04 #@! TD*
G04 #@! TO.C,D202*
X141500000Y-130000000D03*
G04 #@! TD*
G04 #@! TO.C,D203*
X141800000Y-109000000D03*
G04 #@! TD*
G04 #@! TO.C,D204*
X141750000Y-91200000D03*
G04 #@! TD*
G04 #@! TO.C,D205*
X160750000Y-148900000D03*
G04 #@! TD*
G04 #@! TO.C,D206*
X160500000Y-130200000D03*
G04 #@! TD*
G04 #@! TO.C,D207*
X160800000Y-109100000D03*
G04 #@! TD*
G04 #@! TO.C,D208*
X160750000Y-91000000D03*
G04 #@! TD*
G04 #@! TO.C,D209*
X180000000Y-148800000D03*
G04 #@! TD*
G04 #@! TO.C,D210*
X179500000Y-130100000D03*
G04 #@! TD*
G04 #@! TO.C,D211*
X179750000Y-109500000D03*
G04 #@! TD*
G04 #@! TO.C,D212*
X179800000Y-91000000D03*
G04 #@! TD*
G04 #@! TO.C,D99*
X73500000Y-147250000D03*
D16*
X70700000Y-148000000D03*
D17*
X76300000Y-148000000D03*
D18*
X76300000Y-146500000D03*
D19*
X70700000Y-146500000D03*
G04 #@! TD*
D28*
G04 #@! TO.C,U1*
X62610000Y-89620000D03*
X62610000Y-92160000D03*
X62610000Y-94700000D03*
X62610000Y-97240000D03*
X62610000Y-99780000D03*
X62610000Y-102320000D03*
X62610000Y-104860000D03*
X62610000Y-107400000D03*
X62610000Y-109940000D03*
X62610000Y-112480000D03*
X62610000Y-115020000D03*
X62610000Y-117560000D03*
X62610000Y-120100000D03*
X62610000Y-122640000D03*
X62610000Y-125180000D03*
X62610000Y-127720000D03*
X62610000Y-130260000D03*
X62610000Y-132800000D03*
X62610000Y-135340000D03*
X62610000Y-137880000D03*
X80390000Y-137880000D03*
X80390000Y-135340000D03*
X80390000Y-132800000D03*
X80390000Y-130260000D03*
X80390000Y-127720000D03*
X80390000Y-125180000D03*
X80390000Y-122640000D03*
X80390000Y-120100000D03*
X80390000Y-117560000D03*
X80390000Y-115020000D03*
X80390000Y-112480000D03*
X80390000Y-109940000D03*
X80390000Y-107400000D03*
X80390000Y-104860000D03*
X80390000Y-102320000D03*
X80390000Y-99780000D03*
X80390000Y-97240000D03*
X80390000Y-94700000D03*
X80390000Y-92160000D03*
X80390000Y-89620000D03*
G04 #@! TD*
D15*
G04 #@! TO.C,D213*
X195000000Y-101250000D03*
D16*
X192200000Y-102000000D03*
D17*
X197800000Y-102000000D03*
D18*
X197800000Y-100500000D03*
D19*
X192200000Y-100500000D03*
G04 #@! TD*
D15*
G04 #@! TO.C,D214*
X187300000Y-121400000D03*
D16*
X184500000Y-122150000D03*
D17*
X190100000Y-122150000D03*
D18*
X190100000Y-120650000D03*
D19*
X184500000Y-120650000D03*
G04 #@! TD*
D15*
G04 #@! TO.C,D215*
X186800000Y-140250000D03*
D16*
X184000000Y-141000000D03*
D17*
X189600000Y-141000000D03*
D18*
X189600000Y-139500000D03*
D19*
X184000000Y-139500000D03*
G04 #@! TD*
D29*
G04 #@! TO.C,J1*
X60600000Y-150500000D03*
X67600000Y-150500000D03*
G04 #@! TD*
D30*
G04 #@! TO.C,SW51*
X71960000Y-142500000D03*
X74500000Y-142500000D03*
X77040000Y-142500000D03*
G04 #@! TD*
D15*
G04 #@! TO.C,D216*
X103300000Y-117800000D03*
D18*
X106100000Y-117050000D03*
D19*
X100500000Y-117050000D03*
D16*
X100500000Y-118550000D03*
D17*
X106100000Y-118550000D03*
G04 #@! TD*
D15*
G04 #@! TO.C,D217*
X121600000Y-117900000D03*
D18*
X124400000Y-117150000D03*
D19*
X118800000Y-117150000D03*
D16*
X118800000Y-118650000D03*
D17*
X124400000Y-118650000D03*
G04 #@! TD*
D15*
G04 #@! TO.C,D218*
X141100000Y-118050000D03*
D18*
X143900000Y-117300000D03*
D19*
X138300000Y-117300000D03*
D16*
X138300000Y-118800000D03*
D17*
X143900000Y-118800000D03*
G04 #@! TD*
D15*
G04 #@! TO.C,D219*
X160000000Y-117700000D03*
D18*
X162800000Y-116950000D03*
D19*
X157200000Y-116950000D03*
D16*
X157200000Y-118450000D03*
D17*
X162800000Y-118450000D03*
G04 #@! TD*
D15*
G04 #@! TO.C,D220*
X179700000Y-118100000D03*
D18*
X182500000Y-117350000D03*
D19*
X176900000Y-117350000D03*
D16*
X176900000Y-118850000D03*
D17*
X182500000Y-118850000D03*
G04 #@! TD*
D15*
G04 #@! TO.C,D221*
X196200000Y-85050000D03*
D31*
X194150481Y-83000129D03*
D32*
X196950481Y-87849871D03*
D33*
X198249519Y-87099871D03*
D34*
X195449519Y-82250129D03*
G04 #@! TD*
D35*
G04 #@! TO.C,C51*
X81300000Y-153675000D03*
X81300000Y-150550000D03*
G04 #@! TD*
D36*
G04 #@! TO.C,D1*
X85500000Y-87150000D03*
X85500000Y-83850000D03*
G04 #@! TD*
D37*
G04 #@! TO.C,D2*
X105371058Y-88250000D03*
X108228942Y-86600000D03*
G04 #@! TD*
G04 #@! TO.C,D3*
X124342116Y-88250000D03*
X127200000Y-86600000D03*
G04 #@! TD*
G04 #@! TO.C,D4*
X143392116Y-88150000D03*
X146250000Y-86500000D03*
G04 #@! TD*
G04 #@! TO.C,D5*
X162392116Y-87900000D03*
X165250000Y-86250000D03*
G04 #@! TD*
D38*
G04 #@! TO.C,D6*
X181800000Y-88800000D03*
X184133452Y-86466548D03*
G04 #@! TD*
D36*
G04 #@! TO.C,D11*
X85598000Y-107950000D03*
X85598000Y-104650000D03*
G04 #@! TD*
D38*
G04 #@! TO.C,D12*
X105533274Y-107466726D03*
X107866726Y-105133274D03*
G04 #@! TD*
D37*
G04 #@! TO.C,D13*
X124542116Y-107000000D03*
X127400000Y-105350000D03*
G04 #@! TD*
D39*
G04 #@! TO.C,D14*
X142950000Y-106000000D03*
X146250000Y-106000000D03*
G04 #@! TD*
G04 #@! TO.C,D15*
X161950000Y-106000000D03*
X165250000Y-106000000D03*
G04 #@! TD*
D36*
G04 #@! TO.C,D16*
X183000000Y-109900000D03*
X183000000Y-106600000D03*
G04 #@! TD*
G04 #@! TO.C,D21*
X85500000Y-125150000D03*
X85500000Y-121850000D03*
G04 #@! TD*
D38*
G04 #@! TO.C,D22*
X105566548Y-127233452D03*
X107900000Y-124900000D03*
G04 #@! TD*
D40*
G04 #@! TO.C,D23*
X124900000Y-127400000D03*
X126550000Y-124542116D03*
G04 #@! TD*
G04 #@! TO.C,D24*
X144350000Y-127457884D03*
X146000000Y-124600000D03*
G04 #@! TD*
G04 #@! TO.C,D25*
X162700000Y-128000000D03*
X164350000Y-125142116D03*
G04 #@! TD*
G04 #@! TO.C,D26*
X182050000Y-128157884D03*
X183700000Y-125300000D03*
G04 #@! TD*
D36*
G04 #@! TO.C,D31*
X85500000Y-148844000D03*
X85500000Y-145544000D03*
G04 #@! TD*
D40*
G04 #@! TO.C,D32*
X105800000Y-146000000D03*
X107450000Y-143142116D03*
G04 #@! TD*
G04 #@! TO.C,D33*
X124650000Y-146057884D03*
X126300000Y-143200000D03*
G04 #@! TD*
G04 #@! TO.C,D34*
X143300000Y-145900000D03*
X144950000Y-143042116D03*
G04 #@! TD*
D38*
G04 #@! TO.C,D35*
X163066548Y-145533452D03*
X165400000Y-143200000D03*
G04 #@! TD*
G04 #@! TO.C,D36*
X181666548Y-146166726D03*
X184000000Y-143833274D03*
G04 #@! TD*
D36*
G04 #@! TO.C,D51*
X73250000Y-132500000D03*
X73250000Y-129200000D03*
G04 #@! TD*
D41*
G04 #@! TO.C,Q51*
X67262500Y-154550000D03*
X67262500Y-152650000D03*
X69137500Y-153600000D03*
G04 #@! TD*
D42*
G04 #@! TO.C,R51*
X63100000Y-154738000D03*
X63100000Y-151638000D03*
G04 #@! TD*
G04 #@! TO.C,R52*
X67028000Y-144070000D03*
X67028000Y-140970000D03*
G04 #@! TD*
G04 #@! TO.C,R53*
X67028000Y-137466000D03*
X67028000Y-134366000D03*
G04 #@! TD*
D36*
G04 #@! TO.C,D55*
X73250000Y-138800000D03*
X73250000Y-135500000D03*
G04 #@! TD*
D41*
G04 #@! TO.C,Q1*
X72962500Y-152950000D03*
X72962500Y-151050000D03*
X74837500Y-152000000D03*
G04 #@! TD*
D43*
G04 #@! TO.C,R1*
X78200000Y-150500000D03*
X78200000Y-153600000D03*
G04 #@! TD*
D44*
G04 #@! TO.C,F1*
X84400000Y-151025000D03*
X84400000Y-153075000D03*
G04 #@! TD*
M02*
